<?xml version="1.0" encoding="utf-8"?>
<svg version="1.1" xmlns:xlink="http://www.w3.org/1999/xlink" width="21px" height="16px" xmlns="http://www.w3.org/2000/svg">
  <g transform="matrix(1 0 0 1 -102 -58 )">
    <path d="M 20.7614387848194 15.4218122506664  L 20.7698766218299 0.233705631751469  L 0.519067796608965 0.233705631751036  L 0.519067796608965 15.4218122506668  L 20.7614387848194 15.4218122506664  Z M 4.73798630186297 5.29640783805682  C 4.73798630186297 3.89572689431237  5.86865646127114 2.76505673490419  7.2693374050156 2.76505673490419  C 8.67001834876007 2.76505673490419  9.80068850816824 3.89572689431237  9.80068850816824 5.29640783805682  C 9.80068850816824 6.69708878180128  8.67001834876007 7.82775894120945  7.2693374050156 7.82775894120945  C 5.86865646127114 7.82775894120945  4.73798630186297 6.69708878180128  4.73798630186297 5.29640783805682  Z M 2.20663519871096 12.8904611475146  C 2.20663519871096 12.8904611475146  2.20663519871096 12.0466774464637  2.20663519871096 12.0466774464637  C 2.20663519871096 10.359110044362  5.58177000291445 9.430947973206  7.26933740501622 9.430947973206  C 8.95690480711797 9.430947973206  12.3320396113215 10.359110044362  12.3320396113215 12.0466774464637  C 12.3320396113215 12.0466774464637  12.3320396113215 12.8904611475146  12.3320396113215 12.8904611475146  L 2.20663519871096 12.8904611475146  Z M 12.950765794753 7.0090036014347  L 12.950765794753 5.69186456894484  L 18.0134680010582 5.69186456894484  L 18.0134680010582 7.0090036014347  L 12.950765794753 7.0090036014347  Z M 12.950765794753 4.58705922966494  L 12.950765794753 3.26992019717508  L 18.0134680010582 3.26992019717508  L 18.0134680010582 4.58705922966494  L 12.950765794753 4.58705922966494  Z M 18.0134680010582 9.43094797320585  L 12.950765794753 9.43094797320585  L 12.950765794753 8.11380894071597  L 18.0134680010582 8.11380894071597  L 18.0134680010582 9.43094797320585  Z " fill-rule="nonzero" fill="#999999" stroke="none" transform="matrix(1 0 0 1 102 58 )" />
  </g>
</svg>