<?xml version="1.0" encoding="utf-8"?>
<svg version="1.1" xmlns:xlink="http://www.w3.org/1999/xlink" width="21px" height="16px" xmlns="http://www.w3.org/2000/svg">
  <g transform="matrix(1 0 0 1 -102 -58 )">
    <path d="M 20.76143878481942 15.421812250666392  L 20.769876621829923 0.2337056317514694  L 0.5190677966089652 0.23370563175103598  L 0.5190677966089652 15.421812250666818  L 20.76143878481942 15.421812250666392  Z M 4.737986301862975 5.2964078380568225  C 4.737986301862975 3.895726894312368  5.868656461271144 2.765056734904192  7.269337405015604 2.765056734904192  C 8.670018348760067 2.765056734904192  9.800688508168236 3.895726894312368  9.800688508168236 5.2964078380568225  C 9.800688508168236 6.697088781801284  8.670018348760067 7.827758941209453  7.269337405015604 7.827758941209453  C 5.868656461271144 7.827758941209453  4.737986301862975 6.697088781801284  4.737986301862975 5.2964078380568225  Z M 2.2066351987109556 12.8904611475146  C 2.2066351987109556 12.8904611475146  2.2066351987109556 12.046677446463718  2.2066351987109556 12.046677446463718  C 2.2066351987109556 10.35911004436197  5.581770002914453 9.430947973206003  7.269337405016216 9.430947973206003  C 8.956904807117965 9.430947973206003  12.332039611321463 10.35911004436197  12.332039611321463 12.046677446463718  C 12.332039611321463 12.046677446463718  12.332039611321463 12.8904611475146  12.332039611321463 12.8904611475146  L 2.2066351987109556 12.8904611475146  Z M 12.95076579475301 7.009003601434699  L 12.95076579475301 5.691864568944844  L 18.013468001058158 5.691864568944844  L 18.013468001058158 7.009003601434699  L 12.95076579475301 7.009003601434699  Z M 12.95076579475301 4.587059229664938  L 12.95076579475301 3.2699201971750753  L 18.013468001058158 3.2699201971750753  L 18.013468001058158 4.587059229664938  L 12.95076579475301 4.587059229664938  Z M 18.013468001058158 9.430947973205846  L 12.95076579475301 9.430947973205846  L 12.95076579475301 8.11380894071597  L 18.013468001058158 8.11380894071597  L 18.013468001058158 9.430947973205846  Z " fill-rule="nonzero" fill="#999999" stroke="none" transform="matrix(1 0 0 1 102 58 )" />
  </g>
</svg>