<?xml version="1.0" encoding="utf-8"?>
<svg version="1.1" xmlns:xlink="http://www.w3.org/1999/xlink" width="40px" height="25px" xmlns="http://www.w3.org/2000/svg">
  <g transform="matrix(1 0 0 1 -149 -21 )">
    <path d="M 38.16604758586851 9.254562958943644  C 38.16604758586851 9.254562958943644  22.627014770016764 0.684584163324938  22.627014770016764 0.684584163324938  C 20.991326910823055 -0.22819472110831265  19.008673089176938 -0.22819472110831265  17.372985229983236 0.684584163324938  C 17.372985229983236 0.684584163324938  1.8339530050077948 9.254562958943644  1.8339530050077948 9.254562958943644  C 0.6939281580683925 9.888437159056618  0 11.105476729525988  0 12.5  C 0 13.869168326649875  0.6939281580683925 15.11156102741475  1.8339530050077948 15.745435227527722  C 1.8339530050077948 15.745435227527722  17.372985229983236 24.315414703219666  17.372985229983236 24.315414703219666  C 18.190829159580094 24.771804145436292  19.10780662225798 25  20 25  C 20.892193377742018 25  21.80917084041991 24.771804145436292  22.627014770016764 24.315414703219666  C 22.627014770016764 24.315414703219666  38.16604758586851 15.745435227527722  38.16604758586851 15.745435227527722  C 39.30607243280791 15.11156102741475  40 13.894523270474012  40 12.5  C 40 11.105476729525988  39.30607243280791 9.888437159056618  38.16604758586851 9.254562958943644  Z " fill-rule="nonzero" fill="#ffffff" stroke="none" transform="matrix(1 0 0 1 149 21 )" />
  </g>
</svg>