<?xml version="1.0" encoding="utf-8"?>
<svg version="1.1" xmlns:xlink="http://www.w3.org/1999/xlink" width="40px" height="25px" xmlns="http://www.w3.org/2000/svg">
  <g transform="matrix(1 0 0 1 -149 -21 )">
    <path d="M 38.1660475858685 9.25456295894364  C 38.1660475858685 9.25456295894364  22.6270147700168 0.684584163324938  22.6270147700168 0.684584163324938  C 20.9913269108231 -0.228194721108313  19.0086730891769 -0.228194721108313  17.3729852299832 0.684584163324938  C 17.3729852299832 0.684584163324938  1.83395300500779 9.25456295894364  1.83395300500779 9.25456295894364  C 0.693928158068392 9.88843715905662  0 11.105476729526  0 12.5  C 0 13.8691683266499  0.693928158068392 15.1115610274147  1.83395300500779 15.7454352275277  C 1.83395300500779 15.7454352275277  17.3729852299832 24.3154147032197  17.3729852299832 24.3154147032197  C 18.1908291595801 24.7718041454363  19.107806622258 25  20 25  C 20.892193377742 25  21.8091708404199 24.7718041454363  22.6270147700168 24.3154147032197  C 22.6270147700168 24.3154147032197  38.1660475858685 15.7454352275277  38.1660475858685 15.7454352275277  C 39.3060724328079 15.1115610274147  40 13.894523270474  40 12.5  C 40 11.105476729526  39.3060724328079 9.88843715905662  38.1660475858685 9.25456295894364  Z " fill-rule="nonzero" fill="#ffffff" stroke="none" transform="matrix(1 0 0 1 149 21 )" />
  </g>
</svg>