<?xml version="1.0" encoding="utf-8"?>
<svg version="1.1" xmlns:xlink="http://www.w3.org/1999/xlink" width="23px" height="31px" xmlns="http://www.w3.org/2000/svg">
  <g transform="matrix(1 0 0 1 -144 -40 )">
    <path d="M 19.6042319075122 7.77135020129428  C 19.6042319075122 7.77135020129428  5.13031152928738 0.38271559273066  5.13031152928738 0.38271559273066  C 4.01502653625845 -0.17396232546426  2.72625241035519 -0.123354158823982  1.68531975511901 0.534537905748988  C 0.619602938043647 1.21773356347429  0 2.35639107005047  0 3.6215681637126  C 0 3.6215681637126  0 17.5638206166631  0 17.5638206166631  C 0 19.967657064457  1.31355814001764 22.1437610984694  3.42020768619159 23.2318134171173  C 3.42020768619159 23.2318134171173  17.8693445673389 30.6204478371549  17.8693445673389 30.6204478371549  C 18.3650268069802 30.8734832596578  18.910278108924 31  19.4555285614501 31  C 20.0999154397457 31  20.7443023549725 30.822877525004  21.3143369324066 30.4686279372704  C 22.3800537494819 29.8107358726974  22.9996549148278 28.6467746598532  22.9996549148278 27.3815975661911  C 22.9996549148278 27.3815975661911  22.9996549148278 13.4393430017485  22.9996549148278 13.4393430017485  C 23.0244390258866 11.0102030362127  21.7108814536862 8.83409892678988  19.6042319075122 7.77135020129428  Z " fill-rule="nonzero" fill="#ffffff" stroke="none" transform="matrix(1 0 0 1 144 40 )" />
  </g>
</svg>