<?xml version="1.0" encoding="utf-8"?>
<svg version="1.1" xmlns:xlink="http://www.w3.org/1999/xlink" width="23px" height="31px" xmlns="http://www.w3.org/2000/svg">
  <g transform="matrix(1 0 0 1 -144 -40 )">
    <path d="M 19.60423190751224 7.7713502012942826  C 19.60423190751224 7.7713502012942826  5.130311529287383 0.3827155927306602  5.130311529287383 0.3827155927306602  C 4.015026536258452 -0.1739623254642597  2.726252410355185 -0.12335415882398178  1.6853197551190116 0.5345379057489875  C 0.6196029380436465 1.2177335634742934  0 2.356391070050472  0 3.621568163712603  C 0 3.621568163712603  0 17.56382061666311  0 17.56382061666311  C 0 19.967657064456983  1.3135581400176406 22.1437610984694  3.4202076861915875 23.23181341711734  C 3.4202076861915875 23.23181341711734  17.869344567338935 30.62044783715488  17.869344567338935 30.62044783715488  C 18.36502680698024 30.873483259657828  18.910278108924008 31  19.45552856145008 31  C 20.099915439745693 31  20.744302354972508 30.822877525003957  21.314336932406572 30.46862793727035  C 22.380053749481934 29.810735872697386  22.99965491482778 28.64677465985322  22.99965491482778 27.381597566191093  C 22.99965491482778 27.381597566191093  22.99965491482778 13.439343001748508  22.99965491482778 13.439343001748508  C 23.02443902588656 11.010203036212731  21.710881453686188 8.83409892678988  19.60423190751224 7.7713502012942826  Z " fill-rule="nonzero" fill="#ffffff" stroke="none" transform="matrix(1 0 0 1 144 40 )" />
  </g>
</svg>