<?xml version="1.0" encoding="utf-8"?>
<svg version="1.1" xmlns:xlink="http://www.w3.org/1999/xlink" width="23px" height="31px" xmlns="http://www.w3.org/2000/svg">
  <g transform="matrix(1 0 0 1 -171 -40 )">
    <path d="M 21.3146543675562 0.544598014041591  C 20.2489215605421 -0.113076828450309  18.9601299445523 -0.18896348608848  17.8696126777028 0.392825829548234  C 17.8696126777028 0.392825829548234  3.42025900274233 7.77902041451888  3.42025900274233 7.77902041451888  C 1.31357784854973 8.86671348124435  0 11.0168044516412  0 13.4451423664046  C 0 13.4451423664046  0 27.3827922863422  0 27.3827922863422  C 0 28.6475516452177  0.619610461797275 29.8111285426239  1.6853432688113 30.4688033851158  C 2.25538639900327 30.8229360071087  2.89978298256513 31  3.54417952919523 31  C 4.08943816261997 31  4.63469764547516 30.8735250328165  5.13038732229723 30.6205731572722  C 5.13038732229723 30.6205731572722  19.5797433608902 23.2343783084522  19.5797433608902 23.2343783084522  C 21.6864245150828 22.1466852417267  23 19.9965960805826  23 17.5682581658192  C 23 17.5682581658192  23 3.63060915050796  23 3.63060915050796  C 23 2.36584979163244  22.3803871745702 1.22756809497316  21.3146543675562 0.544598014041591  Z " fill-rule="nonzero" fill="#ffffff" stroke="none" transform="matrix(1 0 0 1 171 40 )" />
  </g>
</svg>