<?xml version="1.0" encoding="utf-8"?>
<svg version="1.1" xmlns:xlink="http://www.w3.org/1999/xlink" width="23px" height="31px" xmlns="http://www.w3.org/2000/svg">
  <g transform="matrix(1 0 0 1 -171 -40 )">
    <path d="M 21.314654367556162 0.5445980140415914  C 20.248921560542133 -0.11307682845030927  18.960129944552264 -0.18896348608848032  17.869612677702776 0.39282582954823375  C 17.869612677702776 0.39282582954823375  3.420259002742328 7.779020414518876  3.420259002742328 7.779020414518876  C 1.3135778485497316 8.866713481244352  0 11.016804451641164  0 13.445142366404578  C 0 13.445142366404578  0 27.382792286342227  0 27.382792286342227  C 0 28.64755164521775  0.6196104617972753 29.811128542623933  1.6853432688113035 30.468803385115834  C 2.2553863990032665 30.82293600710869  2.8997829825651276 31  3.544179529195229 31  C 4.089438162619975 31  4.6346976454751605 30.873525032816538  5.130387322297225 30.620573157272155  C 5.130387322297225 30.620573157272155  19.579743360890205 23.234378308452154  19.579743360890205 23.234378308452154  C 21.686424515082802 22.146685241726676  23 19.99659608058264  23 17.568258165819223  C 23 17.568258165819223  23 3.630609150507963  23 3.630609150507963  C 23 2.3658497916324435  22.380387174570192 1.2275680949731642  21.314654367556162 0.5445980140415914  Z " fill-rule="nonzero" fill="#ffffff" stroke="none" transform="matrix(1 0 0 1 171 40 )" />
  </g>
</svg>