<?xml version="1.0" encoding="utf-8"?>
<svg version="1.1" xmlns:xlink="http://www.w3.org/1999/xlink" width="50px" height="41px" xmlns="http://www.w3.org/2000/svg">
  <g transform="matrix(1 0 0 1 -144 -25 )">
    <path d="M 46.51993852651006 17.542913161062746  C 44.59411320159225 15.249552838720168  42.11805228252007 13.753883773886244  39.241819642779795 13.105760240058899  C 38.5915409693829 10.214132143201313  37.46605655151773 7.721349080772294  35.8153490236771 5.652339303881603  C 35.76532758654525 5.577555818137715  35.715307481775696 5.502772518120628  35.66528604464384 5.452916860958041  C 30.162927717892096 -1.1778859038338012  21.159067878823034 -1.1529578013054755  15.081462964493031 2.2870826079176716  C 9.879233577317855 5.2534944180344745  5.45233648897948 11.510378319367357  7.778333385489885 20.434540960757456  C 2.451049925648295 21.730788028412135  0 26.36736309517666  0 30.55523825968893  C 0 35.24167012583587  3.076318500074323 40.50144340980141  9.929255564165624 41  C 9.929255564165624 41  35.79033773210221 41  35.79033773210221 41  C 35.81534845066814 41  35.865372179835845 41  35.89038289840178 41  C 39.44190490681183 41  42.8433627435846 39.67882557272419  45.469488132445065 37.28575402891983  C 51.7471786089581 31.75177588885911  50.92182506865105 22.72790143168147  46.51993852651006 17.542913161062746  Z " fill-rule="nonzero" fill="#ffffff" stroke="none" transform="matrix(1 0 0 1 144 25 )" />
  </g>
</svg>