<?xml version="1.0" encoding="utf-8"?>
<svg version="1.1" xmlns:xlink="http://www.w3.org/1999/xlink" width="50px" height="41px" xmlns="http://www.w3.org/2000/svg">
  <g transform="matrix(1 0 0 1 -144 -25 )">
    <path d="M 46.5199385265101 17.5429131610627  C 44.5941132015923 15.2495528387202  42.1180522825201 13.7538837738862  39.2418196427798 13.1057602400589  C 38.5915409693829 10.2141321432013  37.4660565515177 7.72134908077229  35.8153490236771 5.6523393038816  C 35.7653275865452 5.57755581813772  35.7153074817757 5.50277251812063  35.6652860446438 5.45291686095804  C 30.1629277178921 -1.1778859038338  21.159067878823 -1.15295780130548  15.081462964493 2.28708260791767  C 9.87923357731786 5.25349441803447  5.45233648897948 11.5103783193674  7.77833338548989 20.4345409607575  C 2.4510499256483 21.7307880284121  0 26.3673630951767  0 30.5552382596889  C 0 35.2416701258359  3.07631850007432 40.5014434098014  9.92925556416562 41  C 9.92925556416562 41  35.7903377321022 41  35.7903377321022 41  C 35.8153484506681 41  35.8653721798358 41  35.8903828984018 41  C 39.4419049068118 41  42.8433627435846 39.6788255727242  45.4694881324451 37.2857540289198  C 51.7471786089581 31.7517758888591  50.9218250686511 22.7279014316815  46.5199385265101 17.5429131610627  Z " fill-rule="nonzero" fill="#ffffff" stroke="none" transform="matrix(1 0 0 1 144 25 )" />
  </g>
</svg>