<?xml version="1.0" encoding="utf-8"?>
<svg version="1.1" xmlns:xlink="http://www.w3.org/1999/xlink" width="15px" height="15px" xmlns="http://www.w3.org/2000/svg">
  <g transform="matrix(1 0 0 1 -179 -29 )">
    <path d="M 15 9.097560423412814  C 15 11.2926824526396  14.172414763716509 13.39024373862375  12.672414856206471 15  C 12.491380378630478 14.73170730188539  12.25862177561491 14.46341478549227  12.025863153330599 14.195122087377662  C 10.060346001251943 11.975609690618729  7.474139498048339 10.463415190125453  4.50000172647931 9.85365905474277  C 3.8534500236034384 7.024390667978345  2.6637927877066785 4.609756203225373  0.9568962242884069 2.5853658744604755  C 0.9310341567514344 2.512195139850048  0.8534493318555905 2.4390234239435777  0.8017251967816451 2.3902429342032914  C 0.5431045117775485 2.097559995761577  0.25862068500409663 1.8292680790493716  0 1.560975380934762  C 1.57758619201311 0.5365851054748353  3.387932624884881 0  5.3534497769635365 0  C 10.68103566067677 0  15 4.073170007421603  15 9.097560423412814  Z " fill-rule="nonzero" fill="#ffffff" stroke="none" transform="matrix(1 0 0 1 179 29 )" />
  </g>
</svg>