<?xml version="1.0" encoding="utf-8"?>
<svg version="1.1" xmlns:xlink="http://www.w3.org/1999/xlink" width="15px" height="15px" xmlns="http://www.w3.org/2000/svg">
  <g transform="matrix(1 0 0 1 -179 -29 )">
    <path d="M 15 9.09756042341281  C 15 11.2926824526396  14.1724147637165 13.3902437386238  12.6724148562065 15  C 12.4913803786305 14.7317073018854  12.2586217756149 14.4634147854923  12.0258631533306 14.1951220873777  C 10.0603460012519 11.9756096906187  7.47413949804834 10.4634151901255  4.50000172647931 9.85365905474277  C 3.85345002360344 7.02439066797834  2.66379278770668 4.60975620322537  0.956896224288407 2.58536587446048  C 0.931034156751434 2.51219513985005  0.85344933185559 2.43902342394358  0.801725196781645 2.39024293420329  C 0.543104511777548 2.09755999576158  0.258620685004097 1.82926807904937  0 1.56097538093476  C 1.57758619201311 0.536585105474835  3.38793262488488 0  5.35344977696354 0  C 10.6810356606768 0  15 4.0731700074216  15 9.09756042341281  Z " fill-rule="nonzero" fill="#ffffff" stroke="none" transform="matrix(1 0 0 1 179 29 )" />
  </g>
</svg>