<?xml version="1.0" encoding="utf-8"?>
<svg version="1.1" xmlns:xlink="http://www.w3.org/1999/xlink" width="47px" height="28px" xmlns="http://www.w3.org/2000/svg">
  <g transform="matrix(1 0 0 1 -145 -44 )">
    <path d="M 47 0.6956539104752794  C 47 0.6956539104752794  47 15.577639204935142  47 15.577639204935142  C 47 22.43478234011717  41.38206852500489 28  34.459977386623194 28  C 34.459977386623194 28  12.540020221557757 28  12.540020221557757 28  C 5.617929083176067 28  0 22.43478234011717  0 15.577639204935142  C 0 15.577639204935142  0 0.8695662034054553  0 0.8695662034054553  C 1.9060830497585892 2.906833356025763  4.614726927292161 4.074535193757098  7.54909155150482 4.074535193757098  C 10.709176623419186 4.074535193757098  13.743861612708926 2.5093168569093285  15.649944662467515 0  C 17.355387430538013 2.5093168569093285  20.264672486691815 4.074535193757098  23.499997608180962 4.074535193757098  C 26.710242713145174 4.074535193757098  29.569366540339605 2.583850950598399  31.29988932493503 0.09937879158542734  C 33.23105239121855 2.559006252702042  36.21557674950367 4.074535193757098  39.325501788368186 4.074535193757098  C 42.36018677765792 4.074535193757087  45.11899696676634 2.8571447006634503  47 0.6956539104752794  Z " fill-rule="nonzero" fill="#ffffff" stroke="none" transform="matrix(1 0 0 1 145 44 )" />
  </g>
</svg>