<?xml version="1.0" encoding="utf-8"?>
<svg version="1.1" xmlns:xlink="http://www.w3.org/1999/xlink" width="47px" height="28px" xmlns="http://www.w3.org/2000/svg">
  <g transform="matrix(1 0 0 1 -145 -44 )">
    <path d="M 47 0.695653910475279  C 47 0.695653910475279  47 15.5776392049351  47 15.5776392049351  C 47 22.4347823401172  41.3820685250049 28  34.4599773866232 28  C 34.4599773866232 28  12.5400202215578 28  12.5400202215578 28  C 5.61792908317607 28  0 22.4347823401172  0 15.5776392049351  C 0 15.5776392049351  0 0.869566203405455  0 0.869566203405455  C 1.90608304975859 2.90683335602576  4.61472692729216 4.0745351937571  7.54909155150482 4.0745351937571  C 10.7091766234192 4.0745351937571  13.7438616127089 2.50931685690933  15.6499446624675 0  C 17.355387430538 2.50931685690933  20.2646724866918 4.0745351937571  23.499997608181 4.0745351937571  C 26.7102427131452 4.0745351937571  29.5693665403396 2.5838509505984  31.299889324935 0.0993787915854273  C 33.2310523912185 2.55900625270204  36.2155767495037 4.0745351937571  39.3255017883682 4.0745351937571  C 42.3601867776579 4.07453519375709  45.1189969667663 2.85714470066345  47 0.695653910475279  Z " fill-rule="nonzero" fill="#ffffff" stroke="none" transform="matrix(1 0 0 1 145 44 )" />
  </g>
</svg>