<?xml version="1.0" encoding="utf-8"?>
<svg version="1.1" xmlns:xlink="http://www.w3.org/1999/xlink" width="22px" height="29px" xmlns="http://www.w3.org/2000/svg">
  <g transform="matrix(1 0 0 1 -172 -19 )">
    <path d="M 21.9494778018199 17.7026098500127  C 21.9494778018199 17.7026098500127  21.2302271370174 10.7173913043478  21.2302271370174 10.7173913043478  C 20.1885570814722 3.10173917853314  16.7907302969125 0  9.52384118363344 0  C 9.52384118363344 0  0 0  0 0  C 0 0  1.83532292083501 18.9130434782609  1.83532292083501 18.9130434782609  C 1.86012458904416 19.165217395062  1.88492739369234 19.4426077396973  1.88492739369234 19.9217381684676  C 2.03373740294727 21.2330424681954  2.43056184913374 22.4434780504393  3.02580188615346 23.5278258945631  C 4.81152210808473 26.8565216790075  8.28375538018621 29  11.9047991142703 29  C 15.2034211662551 29  18.1796230144353 27.5121735282566  20.0397481716989 24.8895649288012  C 21.5278483566416 22.8721735943919  22.1974944931508 20.3252184494682  21.9494778018199 17.7026098500127  Z " fill-rule="nonzero" fill="#ffffff" stroke="none" transform="matrix(1 0 0 1 172 19 )" />
  </g>
</svg>