<?xml version="1.0" encoding="utf-8"?>
<svg version="1.1" xmlns:xlink="http://www.w3.org/1999/xlink" width="22px" height="29px" xmlns="http://www.w3.org/2000/svg">
  <g transform="matrix(1 0 0 1 -172 -19 )">
    <path d="M 21.949477801819924 17.70260985001274  C 21.949477801819924 17.70260985001274  21.23022713701738 10.717391304347826  21.23022713701738 10.717391304347826  C 20.188557081472204 3.1017391785331405  16.790730296912525 0  9.52384118363344 0  C 9.52384118363344 0  0 0  0 0  C 0 0  1.8353229208350097 18.91304347826087  1.8353229208350097 18.91304347826087  C 1.8601245890441649 19.165217395062033  1.8849273936923372 19.442607739697333  1.8849273936923372 19.921738168467645  C 2.033737402947268 21.233042468195375  2.4305618491337415 22.443478050439253  3.025801886153464 23.527825894563094  C 4.811522108084734 26.85652167900749  8.283755380186207 29  11.904799114270348 29  C 15.203421166255145 29  18.17962301443525 27.51217352825662  20.039748171698925 24.889564928801164  C 21.52784835664165 22.872173594391864  22.197494493150813 20.3252184494682  21.949477801819924 17.70260985001274  Z " fill-rule="nonzero" fill="#ffffff" stroke="none" transform="matrix(1 0 0 1 172 19 )" />
  </g>
</svg>