<?xml version="1.0" encoding="utf-8"?>
<svg version="1.1" xmlns:xlink="http://www.w3.org/1999/xlink" width="22px" height="29px" xmlns="http://www.w3.org/2000/svg">
  <g transform="matrix(1 0 0 1 -142 -19 )">
    <path d="M 12.408274779802719 0  C 5.14031811370187 0  1.7782697938045562 3.101739779762599  0.7152693320418122 10.793044007342797  C 0.7152693320418122 10.793044007342797  0.04780399788657011 17.727825413579527  0.04780399788657011 17.727825413579527  C -0.19940541139735793 20.426086415415224  0.5175020698415883 23.04869516517805  2.0749213133351163 25.09130386684252  C 3.9537127723210674 27.58782563002213  6.846062564404598 29  10.059784719328839 29  C 13.669042135394966 29  17.129974196903607 26.856522580851678  18.88516092361979 23.578261831532355  C 19.52790535460464 22.443479252898175  19.948160234224037 21.132174351940986  20.071764938866 19.77043516739555  C 20.071764938866 19.77043516739555  22 0.025217367255169414  22 0.025217367255169414  L 12.408274779802719 0.025217367255169414  C 12.408274779802719 0.025217367255169414  12.408274779802719 0  12.408274779802719 0  Z " fill-rule="nonzero" fill="#ffffff" stroke="none" transform="matrix(1 0 0 1 142 19 )" />
  </g>
</svg>