<?xml version="1.0" encoding="utf-8"?>
<svg version="1.1" xmlns:xlink="http://www.w3.org/1999/xlink" width="22px" height="29px" xmlns="http://www.w3.org/2000/svg">
  <g transform="matrix(1 0 0 1 -142 -19 )">
    <path d="M 12.4082747798027 0  C 5.14031811370187 0  1.77826979380456 3.1017397797626  0.715269332041812 10.7930440073428  C 0.715269332041812 10.7930440073428  0.0478039978865701 17.7278254135795  0.0478039978865701 17.7278254135795  C -0.199405411397358 20.4260864154152  0.517502069841588 23.048695165178  2.07492131333512 25.0913038668425  C 3.95371277232107 27.5878256300221  6.8460625644046 29  10.0597847193288 29  C 13.669042135395 29  17.1299741969036 26.8565225808517  18.8851609236198 23.5782618315324  C 19.5279053546046 22.4434792528982  19.948160234224 21.132174351941  20.071764938866 19.7704351673956  C 20.071764938866 19.7704351673956  22 0.0252173672551694  22 0.0252173672551694  L 12.4082747798027 0.0252173672551694  C 12.4082747798027 0.0252173672551694  12.4082747798027 0  12.4082747798027 0  Z " fill-rule="nonzero" fill="#ffffff" stroke="none" transform="matrix(1 0 0 1 142 19 )" />
  </g>
</svg>