<?xml version="1.0" encoding="utf-8"?>
<svg version="1.1" xmlns:xlink="http://www.w3.org/1999/xlink" width="45px" height="50px" xmlns="http://www.w3.org/2000/svg">
  <g transform="matrix(1 0 0 1 -147 -21 )">
    <path d="M 45 12.5  C 45 12.5  45 37.5  45 37.5  C 45 45  41.25 50  32.5 50  C 32.5 50  12.5 50  12.5 50  C 3.75 50  0 45  0 37.5  C 0 37.5  0 12.5  0 12.5  C 0 5  3.75 0  12.5 0  C 12.5 0  32.5 0  32.5 0  C 41.25 0  45 5  45 12.5  Z " fill-rule="nonzero" fill="#ffffff" stroke="none" transform="matrix(1 0 0 1 147 21 )" />
  </g>
</svg>