<?xml version="1.0" encoding="utf-8"?>
<svg version="1.1" xmlns:xlink="http://www.w3.org/1999/xlink" width="26px" height="42px" xmlns="http://www.w3.org/2000/svg">
  <g transform="matrix(1 0 0 1 -159 -21 )">
    <path d="M 1.25 19.6499633789063  C 1.25 19.6499633789063  1.25 0  1.25 0  L 18.75 0  C 18.75 0  18.75 19.6499633789063  18.75 19.6499633789063  C 18.75 20.7499633729458  17.4499328434467 21.3000274449587  16.6499328613281 20.5750274658203  C 16.6499328613281 20.5750274658203  10.8500671386719 15.2249908447266  10.8500671386719 15.2249908447266  C 10.3750671446323 14.7749908268452  9.62493285536766 14.7749908268452  9.14993286132813 15.2249908447266  C 9.14993286132813 15.2249908447266  3.35006713867188 20.5750274658203  3.35006713867188 20.5750274658203  C 2.55006715655327 21.3250274956226  1.25 20.7499633729458  1.25 19.6499633789063  Z M 23.75 28.125  C 24.7749999910593 28.125  25.625 28.9750000089407  25.625 30  C 25.625 31.0249999910593  24.7749999910593 31.875  23.75 31.875  C 23.75 31.875  13.125 31.875  13.125 31.875  C 12.1000000089407 31.875  11.25 31.0249999910593  11.25 30  C 11.25 28.9750000089407  12.1000000089407 28.125  13.125 28.125  C 13.125 28.125  23.75 28.125  23.75 28.125  Z M 25.625 40  C 25.625 41.0249999910593  24.7749999910593 41.875  23.75 41.875  C 23.75 41.875  2.5 41.875  2.5 41.875  C 1.4750000089407 41.875  0.625 41.0249999910593  0.625 40  C 0.625 38.9750000089407  1.4750000089407 38.125  2.5 38.125  C 2.5 38.125  23.75 38.125  23.75 38.125  C 24.7749999910593 38.125  25.625 38.9750000089407  25.625 40  Z " fill-rule="nonzero" fill="#ffffff" stroke="none" transform="matrix(1 0 0 1 159 21 )" />
  </g>
</svg>