<?xml version="1.0" encoding="utf-8"?>
<svg version="1.1" xmlns:xlink="http://www.w3.org/1999/xlink" width="26px" height="42px" xmlns="http://www.w3.org/2000/svg">
  <g transform="matrix(1 0 0 1 -159 -21 )">
    <path d="M 1.25 19.64996337890625  C 1.25 19.64996337890625  1.25 0  1.25 0  L 18.75 0  C 18.75 0  18.75 19.64996337890625  18.75 19.64996337890625  C 18.75 20.749963372945786  17.44993284344673 21.300027444958697  16.649932861328125 20.575027465820312  C 16.649932861328125 20.575027465820312  10.850067138671875 15.224990844726562  10.850067138671875 15.224990844726562  C 10.37506714463234 14.774990826845169  9.62493285536766 14.774990826845169  9.149932861328125 15.224990844726562  C 9.149932861328125 15.224990844726562  3.350067138671875 20.575027465820312  3.350067138671875 20.575027465820312  C 2.5500671565532684 21.325027495622635  1.25 20.749963372945786  1.25 19.64996337890625  Z M 23.75 28.124999999999996  C 24.774999991059303 28.124999999999996  25.625 28.975000008940697  25.625 30  C 25.625 31.024999991059307  24.774999991059303 31.875  23.75 31.875  C 23.75 31.875  13.125 31.875  13.125 31.875  C 12.100000008940697 31.875  11.25 31.024999991059307  11.25 30  C 11.25 28.975000008940697  12.100000008940697 28.124999999999996  13.125 28.124999999999996  C 13.125 28.124999999999996  23.75 28.124999999999996  23.75 28.124999999999996  Z M 25.625 40  C 25.625 41.0249999910593  24.774999991059303 41.875  23.75 41.875  C 23.75 41.875  2.5 41.875  2.5 41.875  C 1.4750000089406967 41.875  0.625 41.0249999910593  0.625 40  C 0.625 38.9750000089407  1.4750000089406967 38.125  2.5 38.125  C 2.5 38.125  23.75 38.125  23.75 38.125  C 24.774999991059303 38.125  25.625 38.9750000089407  25.625 40  Z " fill-rule="nonzero" fill="#ffffff" stroke="none" transform="matrix(1 0 0 1 159 21 )" />
  </g>
</svg>