<?xml version="1.0" encoding="utf-8"?>
<svg version="1.1" xmlns:xlink="http://www.w3.org/1999/xlink" width="43px" height="41px" xmlns="http://www.w3.org/2000/svg">
  <g transform="matrix(1 0 0 1 -152 -21 )">
    <path d="M 43 10.712963354930737  C 43 10.712963354930737  43 23.56845784038717  43 23.56845784038717  C 43 26.76974331248799  41.937651690314794 29.466932483032107  40.04059286678539 31.33224847945929  C 38.16882813678068 33.22277142444706  35.46235289293177 34.281421195317904  32.25 34.281421195317904  C 32.25 34.281421195317904  32.25 38.843877081842365  32.25 38.843877081842365  C 32.25 40.55795123666071  30.327628538889044 41.59149246961939  28.91115794462316 40.633627522845195  C 28.91115794462316 40.633627522845195  26.45766404095818 39.02034435217936  26.45766404095818 39.02034435217936  C 26.68531110882759 38.2389281955746  26.78646132525276 37.38186655306463  26.78646132525276 36.474415503411635  C 26.78646132525276 36.474415503411635  26.78646132525276 26.215313044290955  26.78646132525276 26.215313044290955  C 26.78646132525276 21.073090730081173  23.34647666706758 17.644880819885916  18.186476763556986 17.644880819885916  C 18.186476763556986 17.644880819885916  1.011749267578125 17.644880819885916  1.011749267578125 17.644880819885916  C 0.6576316190116548 17.644880819885916  0.32882351735058957 17.670137025417535  0 17.69534399745395  C 0 17.69534399745395  0 10.712963354930737  0 10.712963354930737  C 0 4.285185462168507  4.300000120611754 0  10.75 0  C 10.75 0  32.25 0  32.25 0  C 38.699999879388244 0  43 4.285185462168507  43 10.712963354930737  Z " fill-rule="nonzero" fill="#ffffff" stroke="none" transform="matrix(1 0 0 1 152 21 )" />
  </g>
</svg>