<?xml version="1.0" encoding="utf-8"?>
<svg version="1.1" xmlns:xlink="http://www.w3.org/1999/xlink" width="43px" height="41px" xmlns="http://www.w3.org/2000/svg">
  <g transform="matrix(1 0 0 1 -152 -21 )">
    <path d="M 43 10.7129633549307  C 43 10.7129633549307  43 23.5684578403872  43 23.5684578403872  C 43 26.769743312488  41.9376516903148 29.4669324830321  40.0405928667854 31.3322484794593  C 38.1688281367807 33.2227714244471  35.4623528929318 34.2814211953179  32.25 34.2814211953179  C 32.25 34.2814211953179  32.25 38.8438770818424  32.25 38.8438770818424  C 32.25 40.5579512366607  30.327628538889 41.5914924696194  28.9111579446232 40.6336275228452  C 28.9111579446232 40.6336275228452  26.4576640409582 39.0203443521794  26.4576640409582 39.0203443521794  C 26.6853111088276 38.2389281955746  26.7864613252528 37.3818665530646  26.7864613252528 36.4744155034116  C 26.7864613252528 36.4744155034116  26.7864613252528 26.215313044291  26.7864613252528 26.215313044291  C 26.7864613252528 21.0730907300812  23.3464766670676 17.6448808198859  18.186476763557 17.6448808198859  C 18.186476763557 17.6448808198859  1.01174926757813 17.6448808198859  1.01174926757813 17.6448808198859  C 0.657631619011655 17.6448808198859  0.32882351735059 17.6701370254175  0 17.6953439974539  C 0 17.6953439974539  0 10.7129633549307  0 10.7129633549307  C 0 4.28518546216851  4.30000012061175 0  10.75 0  C 10.75 0  32.25 0  32.25 0  C 38.6999998793882 0  43 4.28518546216851  43 10.7129633549307  Z " fill-rule="nonzero" fill="#ffffff" stroke="none" transform="matrix(1 0 0 1 152 21 )" />
  </g>
</svg>