<?xml version="1.0" encoding="utf-8"?>
<svg version="1.1" xmlns:xlink="http://www.w3.org/1999/xlink" width="34px" height="32px" xmlns="http://www.w3.org/2000/svg">
  <g transform="matrix(1 0 0 1 -144 -39 )">
    <path d="M 34 8.3695309335705  C 34 8.3695309335705  34 18.3881476303778  34 18.3881476303778  C 34 19.2743269305471  33.899952357499 20.1112980121849  33.6747867249622 20.8743968295435  C 32.7491058160535 24.4929622318732  29.6968498879731 26.7576785639483  25.4937583788627 26.7576785639483  C 25.4937583788627 26.7576785639483  18.6887498119317 26.7576785639483  18.6887498119317 26.7576785639483  C 18.6887498119317 26.7576785639483  11.1331815313586 31.7055368324354  11.1331815313586 31.7055368324354  C 10.0073534432354 32.468635649794  8.5062416211373 31.6563107136572  8.5062416211373 30.3270417634032  C 8.5062416211373 30.3270417634032  8.5062416211373 26.7576785639483  8.5062416211373 26.7576785639483  C 5.95436460150859 26.7576785639483  3.82782164341637 25.9207494451841  2.35173595438755 24.4684001588427  C 0.850631737475776 22.9914346585605  0 20.8989888341342  0 18.3881476303778  C 0 18.3881476303778  0 8.3695309335705  0 8.3695309335705  C 0 3.69247376054913  2.95217137805765 0.467753805874905  7.50552078631627 0.0492802596885636  C 7.83076000846026 0.0246641695455619  8.15598398295133 0  8.5062416211373 0  C 8.5062416211373 0  25.4937583788627 0  25.4937583788627 0  C 30.5975124181201 0  34 3.34784852605773  34 8.3695309335705  Z " fill-rule="nonzero" fill="#ffffff" stroke="none" transform="matrix(1 0 0 1 144 39 )" />
  </g>
</svg>