<?xml version="1.0" encoding="utf-8"?>
<svg version="1.1" xmlns:xlink="http://www.w3.org/1999/xlink" width="34px" height="32px" xmlns="http://www.w3.org/2000/svg">
  <g transform="matrix(1 0 0 1 -144 -39 )">
    <path d="M 34 8.369530933570497  C 34 8.369530933570497  34 18.388147630377805  34 18.388147630377805  C 34 19.274326930547115  33.89995235749898 20.111298012184932  33.67478672496222 20.874396829543507  C 32.74910581605351 24.492962231873193  29.69684988797306 26.7576785639483  25.493758378862697 26.7576785639483  C 25.493758378862697 26.7576785639483  18.688749811931725 26.7576785639483  18.688749811931725 26.7576785639483  C 18.688749811931725 26.7576785639483  11.133181531358558 31.705536832435424  11.133181531358558 31.705536832435424  C 10.007353443235381 32.46863564979398  8.506241621137303 31.656310713657163  8.506241621137303 30.327041763403194  C 8.506241621137303 30.327041763403194  8.506241621137303 26.7576785639483  8.506241621137303 26.7576785639483  C 5.954364601508587 26.7576785639483  3.827821643416374 25.920749445184054  2.3517359543875487 24.46840015884268  C 0.8506317374757756 22.991434658560497  0 20.898988834134187  0 18.388147630377805  C 0 18.388147630377805  0 8.369530933570497  0 8.369530933570497  C 0 3.6924737605491327  2.952171378057653 0.46775380587490495  7.505520786316266 0.04928025968856358  C 7.830760008460264 0.024664169545561887  8.15598398295133 0  8.506241621137303 0  C 8.506241621137303 0  25.493758378862697 0  25.493758378862697 0  C 30.59751241812013 0  34 3.347848526057734  34 8.369530933570497  Z " fill-rule="nonzero" fill="#ffffff" stroke="none" transform="matrix(1 0 0 1 144 39 )" />
  </g>
</svg>