<?xml version="1.0" encoding="utf-8"?>
<svg version="1.1" xmlns:xlink="http://www.w3.org/1999/xlink" width="41px" height="44px" xmlns="http://www.w3.org/2000/svg">
  <g transform="matrix(1 0 0 1 -142 -24 )">
    <path d="M 28.435483870967744 0  C 28.435483870967744 0  12.564516129032258 0  12.564516129032258 0  C 3.518064314319241 0  0 3.3439998081752234  0 11.942857142857141  C 0 11.942857142857141  0 32.05714285714286  0 32.05714285714286  C 0 37.83999988010952  3.3064516129032255 44  12.564516129032258 44  C 12.564516129032258 44  28.435483870967744 44  28.435483870967744 44  C 37.48193568568076 44  41 40.65600019182477  41 32.05714285714286  C 41 32.05714285714286  41 11.942857142857141  41 11.942857142857141  C 41 3.3439998081752234  37.48193568568076 0  28.435483870967744 0  Z " fill-rule="nonzero" fill="#ffffff" stroke="none" transform="matrix(1 0 0 1 142 24 )" />
  </g>
</svg>