<?xml version="1.0" encoding="utf-8"?>
<svg version="1.1" xmlns:xlink="http://www.w3.org/1999/xlink" width="41px" height="44px" xmlns="http://www.w3.org/2000/svg">
  <g transform="matrix(1 0 0 1 -142 -24 )">
    <path d="M 28.4354838709677 0  C 28.4354838709677 0  12.5645161290323 0  12.5645161290323 0  C 3.51806431431924 0  0 3.34399980817522  0 11.9428571428571  C 0 11.9428571428571  0 32.0571428571429  0 32.0571428571429  C 0 37.8399998801095  3.30645161290323 44  12.5645161290323 44  C 12.5645161290323 44  28.4354838709677 44  28.4354838709677 44  C 37.4819356856808 44  41 40.6560001918248  41 32.0571428571429  C 41 32.0571428571429  41 11.9428571428571  41 11.9428571428571  C 41 3.34399980817522  37.4819356856808 0  28.4354838709677 0  Z " fill-rule="nonzero" fill="#ffffff" stroke="none" transform="matrix(1 0 0 1 142 24 )" />
  </g>
</svg>