<?xml version="1.0" encoding="utf-8"?>
<svg version="1.1" xmlns:xlink="http://www.w3.org/1999/xlink" width="13px" height="30px" xmlns="http://www.w3.org/2000/svg">
  <g transform="matrix(1 0 0 1 -183 -31 )">
    <path d="M 10.151393694199609 0.504002203917681  C 9.089640812232183 -0.017830886346177015  6.862547878435792 -0.614211862448679  3.8326677877721496 1.4234221549022354  C 3.8326677877721496 1.4234221549022354  0 4.007738397341079  0 4.007738397341079  C 0.025896411402358002 4.35562713652638  0.05179400940603953 4.678666851972172  0.05179400940603953 5.0514048000379175  C 0.05179400940603953 5.0514048000379175  0.05179400940603953 24.930761832727388  0.05179400940603953 24.930761832727388  C 0.05179400940603953 25.303499780793135  0 25.626539496238927  0 25.974428235424224  C 0 25.974428235424224  3.8326677877721496 28.55874210805911  3.8326677877721496 28.55874210805911  C 5.43824534295417 29.652106706347716  6.836651954215278 30  7.950197687928917 30  C 8.90836494358124 30  9.659361872731225 29.751506152356672  10.151393694199609 29.50301419315087  C 11.213146576167034 28.981181102887014  13 27.564776715096244  13 24.011341881742833  C 13 24.011341881742833  13 5.995674515325719  13 5.995674515325719  C 13 2.442239681972309  11.213146576167034 1.0258352941815387  10.151393694199609 0.504002203917681  Z " fill-rule="nonzero" fill="#ffffff" stroke="none" transform="matrix(1 0 0 1 183 31 )" />
  </g>
</svg>