<?xml version="1.0" encoding="utf-8"?>
<svg version="1.1" xmlns:xlink="http://www.w3.org/1999/xlink" width="13px" height="30px" xmlns="http://www.w3.org/2000/svg">
  <g transform="matrix(1 0 0 1 -183 -31 )">
    <path d="M 10.1513936941996 0.504002203917681  C 9.08964081223218 -0.017830886346177  6.86254787843579 -0.614211862448679  3.83266778777215 1.42342215490224  C 3.83266778777215 1.42342215490224  0 4.00773839734108  0 4.00773839734108  C 0.025896411402358 4.35562713652638  0.0517940094060395 4.67866685197217  0.0517940094060395 5.05140480003792  C 0.0517940094060395 5.05140480003792  0.0517940094060395 24.9307618327274  0.0517940094060395 24.9307618327274  C 0.0517940094060395 25.3034997807931  0 25.6265394962389  0 25.9744282354242  C 0 25.9744282354242  3.83266778777215 28.5587421080591  3.83266778777215 28.5587421080591  C 5.43824534295417 29.6521067063477  6.83665195421528 30  7.95019768792892 30  C 8.90836494358124 30  9.65936187273122 29.7515061523567  10.1513936941996 29.5030141931509  C 11.213146576167 28.981181102887  13 27.5647767150962  13 24.0113418817428  C 13 24.0113418817428  13 5.99567451532572  13 5.99567451532572  C 13 2.44223968197231  11.213146576167 1.02583529418154  10.1513936941996 0.504002203917681  Z " fill-rule="nonzero" fill="#ffffff" stroke="none" transform="matrix(1 0 0 1 183 31 )" />
  </g>
</svg>