<?xml version="1.0" encoding="utf-8"?>
<svg version="1.1" xmlns:xlink="http://www.w3.org/1999/xlink" width="16px" height="41px" xmlns="http://www.w3.org/2000/svg">
  <g transform="matrix(1 0 0 1 -148 -25 )">
    <path d="M 16 0  C 16 0  16 36.0259936666935  16 36.0259936666935  C 15.1323764497522 36.0511339270237  14.2647521389986 36.2522554243235  13.6267936528796 36.629359352691  C 13.6267936528796 36.629359352691  7.62998412672338 39.9981546958535  7.62998412672338 39.9981546958535  C 3.44497649428739 42.3613392137248  0 40.4003993856042  0 35.6237498760285  C 0 35.6237498760285  0 11.1622771787641  0 11.1622771787641  C 0 9.57844075454437  1.14832524459387 7.61749972764279  2.57735225958435 6.81301139707465  C 2.57735225958435 6.81301139707465  13.6267936528796 0.578226048471455  13.6267936528796 0.578226048471455  C 14.2647521389986 0.226262394482414  15.1323764497522 0.0251402603302545  16 0  Z " fill-rule="nonzero" fill="#ffffff" stroke="none" transform="matrix(1 0 0 1 148 25 )" />
  </g>
</svg>