<?xml version="1.0" encoding="utf-8"?>
<svg version="1.1" xmlns:xlink="http://www.w3.org/1999/xlink" width="16px" height="41px" xmlns="http://www.w3.org/2000/svg">
  <g transform="matrix(1 0 0 1 -148 -25 )">
    <path d="M 16 0  C 16 0  16 36.02599366669349  16 36.02599366669349  C 15.132376449752167 36.05113392702374  14.264752138998555 36.252255424323465  13.62679365287961 36.629359352690976  C 13.62679365287961 36.629359352690976  7.629984126723382 39.99815469585346  7.629984126723382 39.99815469585346  C 3.4449764942873857 42.361339213724776  0 40.40039938560424  0 35.62374987602849  C 0 35.62374987602849  0 11.162277178764102  0 11.162277178764102  C 0 9.578440754544374  1.1483252445938685 7.617499727642791  2.5773522595843503 6.813011397074647  C 2.5773522595843503 6.813011397074647  13.62679365287961 0.5782260484714548  13.62679365287961 0.5782260484714548  C 14.264752138998555 0.2262623944824143  15.132376449752167 0.025140260330254533  16 0  Z " fill-rule="nonzero" fill="#ffffff" stroke="none" transform="matrix(1 0 0 1 148 25 )" />
  </g>
</svg>