<?xml version="1.0" encoding="utf-8"?>
<svg version="1.1" xmlns:xlink="http://www.w3.org/1999/xlink" width="18px" height="43px" xmlns="http://www.w3.org/2000/svg">
  <g transform="matrix(1 0 0 1 -163 -25 )">
    <path d="M 18 7.42495133394379  C 18 7.42495133394379  18 42.9973390714079  18 42.9973390714079  C 17.1213388195772 43.022162788463  16.2677845401394 42.8732197139617  15.5899601624785 42.5505113968697  C 15.5899601624785 42.5505113968697  2.4100422316833 36.0218757487509  2.4100422316833 36.0218757487509  C 1.73221785402237 35.6991674316589  0.878661180422833 35.5502243571576  0 35.5750480742127  C 0 35.5750480742127  0 0.00265968132802666  0 0.00265968132802666  C 0.878661180422833 -0.0221640357270366  1.73221785402237 0.126778436527174  2.4100422316833 0.44948675361922  C 2.4100422316833 0.44948675361922  15.5899601624785 6.97812484309264  15.5899601624785 6.97812484309264  C 16.2677845401394 7.30083316018468  17.1213388195772 7.44977505099885  18 7.42495133394379  Z " fill-rule="nonzero" fill="#ffffff" stroke="none" transform="matrix(1 0 0 1 163 25 )" />
  </g>
</svg>