<?xml version="1.0" encoding="utf-8"?>
<svg version="1.1" xmlns:xlink="http://www.w3.org/1999/xlink" width="18px" height="43px" xmlns="http://www.w3.org/2000/svg">
  <g transform="matrix(1 0 0 1 -163 -25 )">
    <path d="M 18 7.424951333943786  C 18 7.424951333943786  18 42.997339071407936  18 42.997339071407936  C 17.12133881957717 43.02216278846299  16.267784540139385 42.87321971396174  15.589960162478457 42.550511396869695  C 15.589960162478457 42.550511396869695  2.410042231683299 36.02187574875091  2.410042231683299 36.02187574875091  C 1.7322178540223714 35.699167431658864  0.8786611804228327 35.5502243571576  0 35.57504807421267  C 0 35.57504807421267  0 0.002659681328026658  0 0.002659681328026658  C 0.8786611804228327 -0.022164035727036648  1.7322178540223714 0.12677843652717438  2.410042231683299 0.44948675361921975  C 2.410042231683299 0.44948675361921975  15.589960162478457 6.978124843092641  15.589960162478457 6.978124843092641  C 16.267784540139385 7.300833160184684  17.12133881957717 7.44977505099885  18 7.424951333943786  Z " fill-rule="nonzero" fill="#ffffff" stroke="none" transform="matrix(1 0 0 1 163 25 )" />
  </g>
</svg>