<?xml version="1.0" encoding="utf-8"?>
<svg version="1.1" xmlns:xlink="http://www.w3.org/1999/xlink" width="16px" height="41px" xmlns="http://www.w3.org/2000/svg">
  <g transform="matrix(1 0 0 1 -181 -28 )">
    <path d="M 16 5.37624952458098  C 16 5.37624952458098  16 29.8377228212359  16 29.8377228212359  C 16 31.4215592454556  14.8516741470015 33.3825032693099  13.422647132011 34.186991599878  C 13.422647132011 34.186991599878  2.37320634712039 40.4217751503096  2.37320634712039 40.4217751503096  C 1.73524786100145 40.7737388042986  0.867623550247834 40.9748597396697  0 41  C 0 41  0 4.97400573391598  0 4.97400573391598  C 0.867623550247834 4.94886547358573  1.73524786100145 4.74774397628601  2.37320634712039 4.3706400479185  C 2.37320634712039 4.3706400479185  8.37001709008586 1.00184485460365  8.37001709008586 1.00184485460365  C 12.5550247225219 -1.36133966326766  16 0.59960001500523  16 5.37624952458098  Z " fill-rule="nonzero" fill="#ffffff" stroke="none" transform="matrix(1 0 0 1 181 28 )" />
  </g>
</svg>