<?xml version="1.0" encoding="utf-8"?>
<svg version="1.1" xmlns:xlink="http://www.w3.org/1999/xlink" width="16px" height="41px" xmlns="http://www.w3.org/2000/svg">
  <g transform="matrix(1 0 0 1 -181 -28 )">
    <path d="M 16 5.376249524580978  C 16 5.376249524580978  16 29.837722821235896  16 29.837722821235896  C 16 31.421559245455626  14.851674147001509 33.38250326930985  13.422647132011027 34.18699159987799  C 13.422647132011027 34.18699159987799  2.3732063471203904 40.4217751503096  2.3732063471203904 40.4217751503096  C 1.7352478610014463 40.773738804298645  0.8676235502478336 40.974859739669746  0 41  C 0 41  0 4.974005733915985  0 4.974005733915985  C 0.8676235502478336 4.948865473585731  1.7352478610014463 4.747743976286007  2.3732063471203904 4.370640047918496  C 2.3732063471203904 4.370640047918496  8.370017090085865 1.0018448546036465  8.370017090085865 1.0018448546036465  C 12.555024722521862 -1.3613396632676644  16 0.5996000150052301  16 5.376249524580978  Z " fill-rule="nonzero" fill="#ffffff" stroke="none" transform="matrix(1 0 0 1 181 28 )" />
  </g>
</svg>