<?xml version="1.0" encoding="utf-8"?>
<svg version="1.1" xmlns:xlink="http://www.w3.org/1999/xlink" width="180px" height="146px" xmlns="http://www.w3.org/2000/svg">
  <g transform="matrix(1 0 0 1 -48 -16 )">
    <path d="M 163.57270171673818 0  C 172.64643605150215 0  180 6.5417746174142595  180 14.61381799472297  C 180 14.61381799472297  180 131.38618200527705  180 131.38618200527705  C 180 139.45819071240106  172.64643605150215 146  163.57270171673818 146  C 163.57270171673818 146  16.42729828326181 146  16.42729828326181 146  C 7.353563948497849 146  0 139.45819071240106  0 131.38618200527705  C 0 131.38618200527705  0 14.61381799472297  0 14.61381799472297  C 0 6.5417746174142595  7.353563948497849 0  16.42729828326181 0  C 16.42729828326181 0  163.57270171673818 0  163.57270171673818 0  Z " fill-rule="nonzero" fill="#ffffff" stroke="none" transform="matrix(1 0 0 1 48 16 )" />
  </g>
</svg>