<?xml version="1.0" encoding="utf-8"?>
<svg version="1.1" xmlns:xlink="http://www.w3.org/1999/xlink" width="180px" height="146px" xmlns="http://www.w3.org/2000/svg">
  <g transform="matrix(1 0 0 1 -48 -16 )">
    <path d="M 163.572701716738 0  C 172.646436051502 0  180 6.54177461741426  180 14.613817994723  C 180 14.613817994723  180 131.386182005277  180 131.386182005277  C 180 139.458190712401  172.646436051502 146  163.572701716738 146  C 163.572701716738 146  16.4272982832618 146  16.4272982832618 146  C 7.35356394849785 146  0 139.458190712401  0 131.386182005277  C 0 131.386182005277  0 14.613817994723  0 14.613817994723  C 0 6.54177461741426  7.35356394849785 0  16.4272982832618 0  C 16.4272982832618 0  163.572701716738 0  163.572701716738 0  Z " fill-rule="nonzero" fill="#ffffff" stroke="none" transform="matrix(1 0 0 1 48 16 )" />
  </g>
</svg>