<?xml version="1.0" encoding="utf-8"?>
<svg version="1.1" xmlns:xlink="http://www.w3.org/1999/xlink" width="50px" height="78px" xmlns="http://www.w3.org/2000/svg">
  <g transform="matrix(1 0 0 1 -85 -84 )">
    <path d="M 48.01152378603854 68.62973051289485  C 49.490119345497504 71.04463615057362  50.172730647127295 73.86367876808137  49.9628128738421 76.6881483627934  C 49.9628128738421 76.6881483627934  49.86425555024866 77.21584468270068  49.66224218214838 78  C 49.66224218214838 78  0.525373070910244 78  0.525373070910244 78  C -0.016636234501189 76.34785665990533  -0.2580787085190923 74.64644064522362  0.3874213841006752 73.2408847677002  C 0.49598091768644154 72.99536500530638  0.633260377009124 72.76360267681986  0.7963815839161075 72.55045687240414  C 0.9172755684082559 72.38288244424358  1.052466997820974 72.226120999384  1.2004353422177916 72.08193567082003  C 2.1662361206907597 71.12518497053992  2.7575375989494852 69.06373031971407  3.112303044704035 66.71623297594897  C 3.5382310301156026 63.50612617782033  3.7145085719419346 60.267767880678576  3.6395467019722774 57.0303486912006  C 3.6444801655872 57.02541099198298  3.6444801655872 57.02541099198298  3.6395467019722774 57.02541099198298  C 3.629683635042611 56.26100260793971  3.6099845232844747 55.80235680479086  3.6099845232844747 55.80235680479086  C 3.6099845232844747 55.80235680479086  3.4227368033274552 52.976509224379406  3.210856507997354 48.70561576354677  C 3.215789971612277 48.70561576354677  3.210856507997354 48.700678064329146  3.210856507997354 48.700678064329146  C 2.629418096668294 37.17526900415334  1.8410019712227017 15.110800734086725  3.8859226396051034 9.261786921665188  C 4.016363039771082 8.768742358003227  4.2807230954289235 8.321502189934627  4.649675307276282 7.969682217714642  C 7.40257395223862 5.981057833502945  10.33191526930276 4.2493439379007745  13.400887001603277 2.7963025210084  C 13.57827165463065 2.7173804694291444  13.671880073408479 2.673010721529978  13.671880073408479 2.673010721529978  C 13.671880073408479 2.673010721529978  20.41760406557092 2.544781222833953  20.41760406557092 2.544781222833953  L 28.794324180284054 1.065268038249784  C 28.794324180284054 1.065268038249784  34.61368036019133 0  34.61368036019133 0  C 34.61368036019133 0  35.042370554166254 0.02959142277601087  35.71253024426028 0.12329566309282257  C 37.93973042628328 0.42905824398724085  42.83764839725015 1.4302096010818013  43.5275071991023 4.330060851926985  C 43.5275071991023 4.334994687530188  43.53244066271723 4.339932386747814  43.53244066271723 4.344839177050141  C 43.61964406205816 4.724969210905966  43.634682364636916 5.118117291457256  43.576772349848426 5.5038075920023575  C 42.9165066090854 10.336880131362937  47.57788468724797 40.020859654206554  48.99701981596944 41.505310538008345  C 50.4161549446909 42.98976142181014  50.04164406357615 48.41464696223322  46.533279741142096 51.861906693712015  C 45.91515479996852 52.49952579811365  45.46479588595735 53.28071173432071  45.22258430444463 54.13541968511546  C 43.89708847690235 58.401363855887226  45.97647390518617 65.36987539843528  48.01152378603854 68.62973051289485  Z " fill-rule="nonzero" fill="#3f3d56" stroke="none" transform="matrix(1 0 0 1 85 84 )" />
  </g>
</svg>