<?xml version="1.0" encoding="utf-8"?>
<svg version="1.1" xmlns:xlink="http://www.w3.org/1999/xlink" width="50px" height="78px" xmlns="http://www.w3.org/2000/svg">
  <g transform="matrix(1 0 0 1 -85 -84 )">
    <path d="M 48.0115237860385 68.6297305128949  C 49.4901193454975 71.0446361505736  50.1727306471273 73.8636787680814  49.9628128738421 76.6881483627934  C 49.9628128738421 76.6881483627934  49.8642555502487 77.2158446827007  49.6622421821484 78  C 49.6622421821484 78  0.525373070910244 78  0.525373070910244 78  C -0.016636234501189 76.3478566599053  -0.258078708519092 74.6464406452236  0.387421384100675 73.2408847677002  C 0.495980917686442 72.9953650053064  0.633260377009124 72.7636026768199  0.796381583916107 72.5504568724041  C 0.917275568408256 72.3828824442436  1.05246699782097 72.226120999384  1.20043534221779 72.08193567082  C 2.16623612069076 71.1251849705399  2.75753759894949 69.0637303197141  3.11230304470403 66.716232975949  C 3.5382310301156 63.5061261778203  3.71450857194193 60.2677678806786  3.63954670197228 57.0303486912006  C 3.6444801655872 57.025410991983  3.6444801655872 57.025410991983  3.63954670197228 57.025410991983  C 3.62968363504261 56.2610026079397  3.60998452328447 55.8023568047909  3.60998452328447 55.8023568047909  C 3.60998452328447 55.8023568047909  3.42273680332746 52.9765092243794  3.21085650799735 48.7056157635468  C 3.21578997161228 48.7056157635468  3.21085650799735 48.7006780643291  3.21085650799735 48.7006780643291  C 2.62941809666829 37.1752690041533  1.8410019712227 15.1108007340867  3.8859226396051 9.26178692166519  C 4.01636303977108 8.76874235800323  4.28072309542892 8.32150218993463  4.64967530727628 7.96968221771464  C 7.40257395223862 5.98105783350294  10.3319152693028 4.24934393790077  13.4008870016033 2.7963025210084  C 13.5782716546306 2.71738046942914  13.6718800734085 2.67301072152998  13.6718800734085 2.67301072152998  C 13.6718800734085 2.67301072152998  20.4176040655709 2.54478122283395  20.4176040655709 2.54478122283395  L 28.7943241802841 1.06526803824978  C 28.7943241802841 1.06526803824978  34.6136803601913 0  34.6136803601913 0  C 34.6136803601913 0  35.0423705541663 0.0295914227760109  35.7125302442603 0.123295663092823  C 37.9397304262833 0.429058243987241  42.8376483972501 1.4302096010818  43.5275071991023 4.33006085192699  C 43.5275071991023 4.33499468753019  43.5324406627172 4.33993238674781  43.5324406627172 4.34483917705014  C 43.6196440620582 4.72496921090597  43.6346823646369 5.11811729145726  43.5767723498484 5.50380759200236  C 42.9165066090854 10.3368801313629  47.577884687248 40.0208596542066  48.9970198159694 41.5053105380083  C 50.4161549446909 42.9897614218101  50.0416440635762 48.4146469622332  46.5332797411421 51.861906693712  C 45.9151547999685 52.4995257981137  45.4647958859574 53.2807117343207  45.2225843044446 54.1354196851155  C 43.8970884769023 58.4013638558872  45.9764739051862 65.3698753984353  48.0115237860385 68.6297305128949  Z " fill-rule="nonzero" fill="#3f3d56" stroke="none" transform="matrix(1 0 0 1 85 84 )" />
  </g>
</svg>