<?xml version="1.0" encoding="utf-8"?>
<svg version="1.1" xmlns:xlink="http://www.w3.org/1999/xlink" width="59px" height="37px" xmlns="http://www.w3.org/2000/svg">
  <g transform="matrix(1 0 0 1 -105 -62 )">
    <path d="M 39.48945554209079 21.592319233254706  C 38.59257885802225 21.672677414903575  0 25.35566789451294  0 25.35566789451294  C 0 25.35566789451294  7.70852507896187 33.67284414688007  7.70852507896187 33.67284414688007  C 7.70852507896187 33.67284414688007  40.37004405717304 38.97633326101427  40.58859334465571 36.19160426945502  C 40.80714263213838 33.406875277895786  38.65573062494949 32.600272099002545  42.1823674001572 32.84774140970427  C 45.709004175364896 33.095210720406  46.556466102494646 35.61424164370865  47.0939256563167 33.205070707044975  C 47.63138521013876 30.795899770381304  44.674364905412325 30.73682265734645  48.09812802178508 30.39528104242964  C 51.52189113815783 30.053739427512834  59 0  59 0  C 59 0  47.07150393161013 1.9342909120178249  47.07150393161013 1.9342909120178249  C 47.07150393161013 1.9342909120178249  44.75294291128739 16.465419273642283  43.29909396257009 18.32241592081588  C 41.84524501385279 20.17941256798948  40.386332226159325 21.51196105160584  39.48945554209079 21.592319233254706  Z " fill-rule="nonzero" fill="#3f3d56" stroke="none" transform="matrix(1 0 0 1 105 62 )" />
  </g>
</svg>