<?xml version="1.0" encoding="utf-8"?>
<svg version="1.1" xmlns:xlink="http://www.w3.org/1999/xlink" width="59px" height="37px" xmlns="http://www.w3.org/2000/svg">
  <g transform="matrix(1 0 0 1 -105 -62 )">
    <path d="M 39.4894555420908 21.5923192332547  C 38.5925788580223 21.6726774149036  0 25.3556678945129  0 25.3556678945129  C 0 25.3556678945129  7.70852507896187 33.6728441468801  7.70852507896187 33.6728441468801  C 7.70852507896187 33.6728441468801  40.370044057173 38.9763332610143  40.5885933446557 36.191604269455  C 40.8071426321384 33.4068752778958  38.6557306249495 32.6002720990025  42.1823674001572 32.8477414097043  C 45.7090041753649 33.095210720406  46.5564661024946 35.6142416437087  47.0939256563167 33.205070707045  C 47.6313852101388 30.7958997703813  44.6743649054123 30.7368226573465  48.0981280217851 30.3952810424296  C 51.5218911381578 30.0537394275128  59 0  59 0  C 59 0  47.0715039316101 1.93429091201782  47.0715039316101 1.93429091201782  C 47.0715039316101 1.93429091201782  44.7529429112874 16.4654192736423  43.2990939625701 18.3224159208159  C 41.8452450138528 20.1794125679895  40.3863322261593 21.5119610516058  39.4894555420908 21.5923192332547  Z " fill-rule="nonzero" fill="#3f3d56" stroke="none" transform="matrix(1 0 0 1 105 62 )" />
  </g>
</svg>