<?xml version="1.0" encoding="utf-8"?>
<svg version="1.1" xmlns:xlink="http://www.w3.org/1999/xlink" width="25px" height="26px" xmlns="http://www.w3.org/2000/svg">
  <g transform="matrix(1 0 0 1 -96 -50 )">
    <path d="M 6.487074485195995 4.797102587097691  C 6.487093992542485 4.797121901994765  -6.98388757616863 11.207295877453335  4.898462502477967 25.13709151911372  C 4.898462502477967 25.13709151911372  9.450220927494204 26  9.450220927494204 26  C 9.450220927494204 26  5.217193038694225 19.234787311585883  5.466196515197439 16.138199826955166  C 5.715196090231324 13.041577575509628  9.121553348916228 11.932126021786946  9.121553348916228 11.932126021786946  C 9.121553348916228 11.932126021786946  11.00897496549505 12.336464078159143  12.996001093850623 12.56329436699186  C 13.233992048930187 11.899830132625112  13.54283981997655 11.263418885733307  13.917294059419003 10.664879484528488  C 13.991000433669301 11.437578750263247  14.33647388925618 12.160096923226646  14.893394866015145 12.70628255039322  C 15.621608751727711 12.768208679537047  16.354961497831784 12.684361020445971  17.049756467329825 12.459735614577381  C 17.836608701550134 12.10472780545724  17.821654369641006 11.488362397407366  17.56268263902149 10.911426420344329  C 21.35251141584284 11.093867212609036  24.943092154417524 12.918306039091458  24.943092154417524 12.918306039091458  C 25.057622118681078 11.404486719646444  24.9991563069647 9.882703501281778  24.768805716889393 8.38187409651138  C 24.65922904952703 8.352291400077851  24.5496835939192 8.317798856795651  24.44010692655684 8.283279272657484  C 23.761363349410534 8.07066769909521  23.10705254870437 7.7880518698587196  22.487944328057807 7.440083575774938  C 23.17694877783584 7.349541137952838  23.820681835247775 7.04980323946718  24.330561470949103 6.582115845572714  C 23.91222642295609 5.3691055394355285  23.24491911021449 4.318819378579901  22.19411687052046 3.806016585923968  C 20.142838525163377 2.8127024102299045  17.757140873663502 2.7497393412713356  15.655332317148652 3.6334457060891  C 15.655332317148652 3.6334457060891  18.090547536744992 1.8731130231577895  17.194145945447545 1.1531888626934346  C 17.134387139850805 1.2123581185399295  17.074628334254108 1.2665904866818076  17.009887352333898 1.320842169720804  C 16.925225468058333 1.3898504341617324  16.83061483701303 1.463826490142706  16.740974677883308 1.5328656584190412  C 16.188198898542318 1.976629282798641  15.361497056672638 1.3504248661543332  15.251951601064857 0.6798000491066328  C 15.240160499043998 0.5951185014216377  15.223527832422528 0.511167320374588  15.202133739299187 0.42835099240099633  C 15.187210619144645 0.3593079611452463  15.167270209442647 0.2902687928689112  15.147361011495274 0.22616651229719276  C 15.130455947552013 0.16927306431725464  15.110508198547326 0.11330966185317219  15.087602205898534 0.05851320526982336  C 13.429243656120976 -0.3359819795285283  8.414345709424161 1.266559582846401  6.487074485195995 4.797102587097691  Z " fill-rule="nonzero" fill="#3f3d56" stroke="none" transform="matrix(1 0 0 1 96 50 )" />
  </g>
</svg>