<?xml version="1.0" encoding="utf-8"?>
<svg version="1.1" xmlns:xlink="http://www.w3.org/1999/xlink" width="25px" height="26px" xmlns="http://www.w3.org/2000/svg">
  <g transform="matrix(1 0 0 1 -96 -50 )">
    <path d="M 6.487074485196 4.79710258709769  C 6.48709399254249 4.79712190199476  -6.98388757616863 11.2072958774533  4.89846250247797 25.1370915191137  C 4.89846250247797 25.1370915191137  9.4502209274942 26  9.4502209274942 26  C 9.4502209274942 26  5.21719303869422 19.2347873115859  5.46619651519744 16.1381998269552  C 5.71519609023132 13.0415775755096  9.12155334891623 11.9321260217869  9.12155334891623 11.9321260217869  C 9.12155334891623 11.9321260217869  11.008974965495 12.3364640781591  12.9960010938506 12.5632943669919  C 13.2339920489302 11.8998301326251  13.5428398199765 11.2634188857333  13.917294059419 10.6648794845285  C 13.9910004336693 11.4375787502632  14.3364738892562 12.1600969232266  14.8933948660151 12.7062825503932  C 15.6216087517277 12.768208679537  16.3549614978318 12.684361020446  17.0497564673298 12.4597356145774  C 17.8366087015501 12.1047278054572  17.821654369641 11.4883623974074  17.5626826390215 10.9114264203443  C 21.3525114158428 11.093867212609  24.9430921544175 12.9183060390915  24.9430921544175 12.9183060390915  C 25.0576221186811 11.4044867196464  24.9991563069647 9.88270350128178  24.7688057168894 8.38187409651138  C 24.659229049527 8.35229140007785  24.5496835939192 8.31779885679565  24.4401069265568 8.28327927265748  C 23.7613633494105 8.07066769909521  23.1070525487044 7.78805186985872  22.4879443280578 7.44008357577494  C 23.1769487778358 7.34954113795284  23.8206818352478 7.04980323946718  24.3305614709491 6.58211584557271  C 23.9122264229561 5.36910553943553  23.2449191102145 4.3188193785799  22.1941168705205 3.80601658592397  C 20.1428385251634 2.8127024102299  17.7571408736635 2.74973934127134  15.6553323171487 3.6334457060891  C 15.6553323171487 3.6334457060891  18.090547536745 1.87311302315779  17.1941459454475 1.15318886269343  C 17.1343871398508 1.21235811853993  17.0746283342541 1.26659048668181  17.0098873523339 1.3208421697208  C 16.9252254680583 1.38985043416173  16.830614837013 1.46382649014271  16.7409746778833 1.53286565841904  C 16.1881988985423 1.97662928279864  15.3614970566726 1.35042486615433  15.2519516010649 0.679800049106633  C 15.240160499044 0.595118501421638  15.2235278324225 0.511167320374588  15.2021337392992 0.428350992400996  C 15.1872106191446 0.359307961145246  15.1672702094426 0.290268792868911  15.1473610114953 0.226166512297193  C 15.130455947552 0.169273064317255  15.1105081985473 0.113309661853172  15.0876022058985 0.0585132052698234  C 13.429243656121 -0.335981979528528  8.41434570942416 1.2665595828464  6.487074485196 4.79710258709769  Z " fill-rule="nonzero" fill="#3f3d56" stroke="none" transform="matrix(1 0 0 1 96 50 )" />
  </g>
</svg>