<?xml version="1.0" encoding="utf-8"?>
<svg version="1.1" xmlns:xlink="http://www.w3.org/1999/xlink" width="58px" height="36px" xmlns="http://www.w3.org/2000/svg">
  <g transform="matrix(1 0 0 1 -148 -91 )">
    <path d="M 57.8466583690988 24.4800315567277  C 57.8398766146894 30.3798904357723  53.0458525240817 35.1609842942974  47.1300377682404 35.1677477572554  C 47.1300377682404 35.1677477572554  11.1458051502146 35.1677477572554  11.1458051502146 35.1677477572554  C 5.22999039437332 35.1609842942974  0.435966303765554 30.3798904357722  0.429184549356307 24.4800315567277  C 0.429184549356307 24.4800315567277  0.429184549356307 11.5057974142475  0.429184549356307 11.5057974142475  C 0.435966303765639 5.60593853520297  5.22999039437343 0.82484467667777  11.1458051502147 0.818081213719779  C 11.1458051502147 0.818081213719779  47.1300377682404 0.818081213719779  47.1300377682404 0.818081213719779  C 53.0458525240817 0.824844676677728  57.8398766146896 5.60593853520297  57.8466583690988 11.5057974142475  C 57.8466583690988 11.5057974142475  57.8466583690988 24.4800315567277  57.8466583690988 24.4800315567277  Z M 11.1458051502146 1.58851820580503  C 11.1458051502146 1.58851820580503  47.1300377682405 1.58852976253328  47.1300377682405 1.58852976253328  C 52.6194268121388 1.5947350641149  57.0679040967445 6.03121411036867  57.0741261802577 11.5057974142483  C 57.0741261802577 11.5057974142483  57.0741261802577 24.4800315567286  57.0741261802577 24.4800315567286  C 57.0679040967445 29.9546148606082  52.6194268121388 34.391093906862  47.1300377682405 34.3972992084436  C 47.1300377682405 34.3972992084436  11.1458051502147 34.3972992084436  11.1458051502147 34.3972992084436  C 5.65641610631633 34.391093906862  1.20793882171063 29.9546148606082  1.20171673819749 24.4800315567286  C 1.20171673819749 24.4800315567286  1.20171673819749 11.5057974142483  1.20171673819749 11.5057974142483  C 1.20793243720857 6.03120959718733  5.65641158817618 1.59472351971333  11.1458051502146 1.58851820580503  Z " fill-rule="nonzero" fill="#ffffff" stroke="none" transform="matrix(1 0 0 1 148 91 )" />
  </g>
</svg>