<?xml version="1.0" encoding="utf-8"?>
<svg version="1.1" xmlns:xlink="http://www.w3.org/1999/xlink" width="58px" height="36px" xmlns="http://www.w3.org/2000/svg">
  <g transform="matrix(1 0 0 1 -148 -91 )">
    <path d="M 57.846658369098805 24.48003155672771  C 57.839876614689445 30.379890435772253  53.04585252408165 35.16098429429742  47.130037768240356 35.16774775725537  C 47.130037768240356 35.16774775725537  11.145805150214585 35.16774775725537  11.145805150214585 35.16774775725537  C 5.229990394373317 35.16098429429738  0.4359663037655537 30.37989043577221  0.42918454935630734 24.480031556727653  C 0.42918454935630734 24.480031556727653  0.42918454935630734 11.505797414247468  0.42918454935630734 11.505797414247468  C 0.43596630376563894 5.6059385352029665  5.229990394373431 0.8248446766777704  11.145805150214699 0.818081213719779  C 11.145805150214699 0.818081213719779  47.13003776824041 0.818081213719779  47.13003776824041 0.818081213719779  C 53.04585252408174 0.8248446766777278  57.83987661468956 5.6059385352029665  57.846658369098805 11.505797414247496  C 57.846658369098805 11.505797414247496  57.846658369098805 24.48003155672771  57.846658369098805 24.48003155672771  Z M 11.145805150214613 1.5885182058050304  C 11.145805150214613 1.5885182058050304  47.13003776824047 1.588529762533284  47.13003776824047 1.588529762533284  C 52.61942681213884 1.5947350641149  57.06790409674451 6.031214110368666  57.07412618025765 11.50579741424832  C 57.07412618025765 11.50579741424832  57.07412618025765 24.480031556728562  57.07412618025765 24.480031556728562  C 57.06790409674451 29.954614860608217  52.61942681213881 34.39109390686197  47.13003776824047 34.39729920844361  C 47.13003776824047 34.39729920844361  11.145805150214699 34.39729920844361  11.145805150214699 34.39729920844361  C 5.656416106316328 34.39109390686197  1.207938821710627 29.954614860608217  1.20171673819749 24.480031556728562  C 1.20171673819749 24.480031556728562  1.20171673819749 11.50579741424832  1.20171673819749 11.50579741424832  C 1.2079324372085694 6.031209597187328  5.656411588176184 1.5947235197133267  11.145805150214613 1.5885182058050304  Z " fill-rule="nonzero" fill="#ffffff" stroke="none" transform="matrix(1 0 0 1 148 91 )" />
  </g>
</svg>