<?xml version="1.0" encoding="utf-8"?>
<svg version="1.1" xmlns:xlink="http://www.w3.org/1999/xlink" width="17px" height="19px" xmlns="http://www.w3.org/2000/svg">
  <g transform="matrix(1 0 0 1 -169 -99 )">
    <path d="M 16.9993142766607 9.94287366321156  C 17.0435926619952 12.4391593536091  14.9487880110533 19.2798069082789  9.18322127402012 18.9911360276397  C 8.1959559445626 16.7472334887649  13.5443354464826 12.0917089523612  10.1175543026551 11.8556238111554  C 10.1175543026551 11.8556238111554  7.86473570462686 7.82913262985397  6.43430633675816 8.90860430776702  C 4.778001869817 10.158535444185  2.36463601233895 7.8883611420349  0.946730166361635 6.36951091661923  C 1.24849751598454 6.12134478887614  1.51923375044914 5.83634254418365  1.75286177973471 5.52090149504235  C 1.30222616551723 5.60523338961713  0.845878960502883 5.65398689949277  0.387884470371336 5.66672781763373  C 0.217895181719247 5.41032317533207  0.0990352733501869 5.1223351498469  0.0380728043395546 4.81916220552382  C -0.0981504091840969 4.23166977997295  0.138457838620316 3.61978530852011  0.63127443189065 3.28510382967578  C 1.15088201781314 2.9898515768459  1.81463620647336 3.17016582473014  2.36988331907679 2.95841065418823  C 2.51064349152897 2.88842175201642  2.60871984129188 2.75242980705413  2.63227124121694 2.59458549192718  C 2.71659958141226 2.22406937941071  2.95847660600626 1.91112515118831  3.29210847901361 1.74087788790291  C 3.62574035202095 1.57063062461751  4.0164301353847 1.56078564529438  4.35790490148412 1.71402091802879  C 4.42224052407498 1.7512491973562  4.49457621821931 1.77175919331709  4.56852742745653 1.77374063466477  C 4.95562440243523 1.74863071356682  5.33841143192924 1.67661767765602  5.7088040708193 1.55922243906321  C 5.29316863685955 1.36105634776148  4.89294770304554 1.13089281030623  4.51161635818221 0.87073031969166  C 4.43324930009487 0.816486765222477  4.35485212833898 0.76224704828809  4.27809991572546 0.704845202674353  C 4.97676287131613 0.126184972429077  5.88829485873506 -0.112921476999139  6.77414661430475 0.050100364378269  C 7.69213774070995 0.232164183951243  8.57699735987608 0.557835946942555  9.39736709920818 1.01557423337294  C 9.88351965415282 1.25710611564538  10.3686533633129 1.49808027619283  10.8527682266884 1.73849671501527  C 11.8978950843097 2.20749917442658  12.8913862079027 2.78797554885415  13.816634529771 3.47022267113592  C 15.7709070633368 5.03622843803893  16.9378832745289 7.40952086197273  16.9993142766607 9.94287366321156  Z " fill-rule="nonzero" fill="#2f2e41" stroke="none" transform="matrix(1 0 0 1 169 99 )" />
  </g>
</svg>