<?xml version="1.0" encoding="utf-8"?>
<svg version="1.1" xmlns:xlink="http://www.w3.org/1999/xlink" width="17px" height="19px" xmlns="http://www.w3.org/2000/svg">
  <g transform="matrix(1 0 0 1 -169 -99 )">
    <path d="M 16.999314276660716 9.942873663211563  C 17.043592661995238 12.439159353609142  14.948788011053336 19.2798069082789  9.18322127402012 18.991136027639683  C 8.195955944562598 16.747233488764873  13.544335446482599 12.091708952361191  10.117554302655147 11.855623811155358  C 10.117554302655147 11.855623811155358  7.864735704626863 7.829132629853973  6.434306336758161 8.90860430776702  C 4.7780018698169995 10.158535444184968  2.364636012338953 7.8883611420348965  0.9467301663616348 6.36951091661923  C 1.2484975159845424 6.121344788876136  1.519233750449136 5.836342544183651  1.7528617797347108 5.5209014950423505  C 1.3022261655172251 5.605233389617133  0.8458789605028831 5.653986899492766  0.38788447037133605 5.666727817633726  C 0.217895181719247 5.410323175332074  0.09903527335018693 5.122335149846896  0.03807280433955459 4.819162205523819  C -0.09815040918409688 4.231669779972947  0.138457838620316 3.6197853085201133  0.6312744318906501 3.285103829675777  C 1.1508820178131405 2.9898515768458953  1.8146362064733597 3.1701658247301383  2.36988331907679 2.9584106541882345  C 2.5106434915289717 2.8884217520164173  2.608719841291876 2.752429807054127  2.6322712412169404 2.594585491927178  C 2.716599581412257 2.2240693794107065  2.958476606006262 1.911125151188311  3.292108479013606 1.740877887902911  C 3.62574035202095 1.5706306246175115  4.016430135384695 1.5607856452943771  4.357904901484123 1.714020918028794  C 4.422240524074982 1.7512491973562003  4.494576218219307 1.7717591933170949  4.568527427456529 1.773740634664767  C 4.955624402435233 1.7486307135668189  5.338411431929237 1.6766176776560218  5.708804070819301 1.5592224390632112  C 5.293168636859551 1.3610563477614814  4.892947703045539 1.1308928103062288  4.511616358182207 0.8707303196916597  C 4.433249300094874 0.8164867652224771  4.3548521283389805 0.76224704828809  4.278099915725458 0.7048452026743529  C 4.976762871316131 0.1261849724290767  5.88829485873506 -0.11292147699913928  6.774146614304754 0.05010036437826905  C 7.692137740709954 0.2321641839512432  8.576997359876081 0.5578359469425548  9.397367099208184 1.015574233372938  C 9.88351965415282 1.2571061156453773  10.368653363312895 1.4980802761928302  10.852768226688358 1.7384967150152746  C 11.897895084309717 2.2074991744265806  12.891386207902725 2.7879755488541464  13.81663452977103 3.4702226711359216  C 15.770907063336779 5.036228438038932  16.937883274528858 7.409520861972726  16.999314276660716 9.942873663211563  Z " fill-rule="nonzero" fill="#2f2e41" stroke="none" transform="matrix(1 0 0 1 169 99 )" />
  </g>
</svg>