<?xml version="1.0" encoding="utf-8"?>
<svg version="1.1" xmlns:xlink="http://www.w3.org/1999/xlink" width="58px" height="35px" xmlns="http://www.w3.org/2000/svg">
  <g transform="matrix(1 0 0 1 -81 -124 )">
    <path d="M 57.7725321888412 24.2304896042212  C 57.7658226502389 30.1303783634711  52.9717563048391 34.9115143628206  47.0559115879828 34.9182058047488  C 47.0559115879828 34.9182058047488  11.071678969957 34.9182058047488  11.071678969957 34.9182058047488  C 5.15583425310079 34.9115143628206  0.361767907700937 30.130378363471  0.3550583690987 24.2304896042211  C 0.3550583690987 24.2304896042211  0.3550583690987 11.2562554617409  0.3550583690987 11.2562554617409  C 0.361761523208571 5.35636218930949  5.15582973496532 0.575219158747515  11.0716789699571 0.56852770448495  C 11.0716789699571 0.56852770448495  47.0559115879828 0.56852770448495  47.0559115879828 0.56852770448495  C 52.9717608229746 0.575219158747558  57.7658290347313 5.35636218930955  57.7725321888412 11.2562554617409  C 57.7725321888412 11.2562554617409  57.7725321888412 24.2304896042212  57.7725321888412 24.2304896042212  Z M 57 11.2562554617412  C 56.993784300989 5.7816676446802  52.5453051500212 1.34518156720613  47.0559115879828 1.33897625329791  C 47.0559115879828 1.33897625329791  11.071678969957 1.33897625329791  11.071678969957 1.33897625329791  C 5.58228992605869 1.34518155487956  1.13381264145301 5.7816606011333  1.1275905579399 11.256243905013  C 1.1275905579399 11.256243905013  1.1275905579399 24.2304780474932  1.1275905579399 24.2304780474932  C 1.13380625695096 29.7050658645542  5.58228540791863 34.1415519420282  11.0716789699571 34.1477572559364  C 11.0716789699571 34.1477572559364  47.0559115879828 34.1477572559364  47.0559115879828 34.1477572559364  C 52.5453006318812 34.1415519543548  56.9937779164869 29.705072908101  57 24.2304896042214  C 57 24.2304896042214  57 11.2562554617412  57 11.2562554617412  Z " fill-rule="nonzero" fill="#ffffff" stroke="none" transform="matrix(1 0 0 1 81 124 )" />
  </g>
</svg>