<?xml version="1.0" encoding="utf-8"?>
<svg version="1.1" xmlns:xlink="http://www.w3.org/1999/xlink" width="58px" height="35px" xmlns="http://www.w3.org/2000/svg">
  <g transform="matrix(1 0 0 1 -81 -124 )">
    <path d="M 57.77253218884118 24.230489604221162  C 57.7658226502389 30.130378363471124  52.97175630483906 34.91151436282058  47.05591158798279 34.918205804748794  C 47.05591158798279 34.918205804748794  11.071678969957048 34.918205804748794  11.071678969957048 34.918205804748794  C 5.155834253100792 34.91151436282058  0.36176790770093703 30.13037836347104  0.3550583690986997 24.230489604221077  C 0.3550583690986997 24.230489604221077  0.3550583690986997 11.25625546174092  0.3550583690986997 11.25625546174092  C 0.36176152320857113 5.356362189309493  5.155829734965323 0.5752191587475153  11.071678969957077 0.5685277044849499  C 11.071678969957077 0.5685277044849499  47.05591158798285 0.5685277044849499  47.05591158798285 0.5685277044849499  C 52.9717608229746 0.5752191587475579  57.7658290347313 5.35636218930955  57.77253218884118 11.256255461740949  C 57.77253218884118 11.256255461740949  57.77253218884118 24.230489604221162  57.77253218884118 24.230489604221162  Z M 57 11.256255461741205  C 56.99378430098898 5.781667644680198  52.54530515002125 1.3451815672061258  47.05591158798279 1.3389762532979148  C 47.05591158798279 1.3389762532979148  11.071678969957048 1.3389762532979148  11.071678969957048 1.3389762532979148  C 5.582289926058692 1.3451815548795594  1.1338126414530052 5.7816606011332965  1.1275905579398966 11.256243905012951  C 1.1275905579398966 11.256243905012951  1.1275905579398966 24.230478047493193  1.1275905579398966 24.230478047493193  C 1.1338062569509617 29.7050658645542  5.582285407918633 34.14155194202823  11.071678969957063 34.147757255936426  C 11.071678969957063 34.147757255936426  47.05591158798282 34.147757255936426  47.05591158798282 34.147757255936426  C 52.54530063188122 34.14155195435484  56.99377791648686 29.705072908101045  57 24.23048960422139  C 57 24.23048960422139  57 11.256255461741205  57 11.256255461741205  Z " fill-rule="nonzero" fill="#ffffff" stroke="none" transform="matrix(1 0 0 1 81 124 )" />
  </g>
</svg>