<?xml version="1.0" encoding="utf-8"?>
<svg version="1.1" xmlns:xlink="http://www.w3.org/1999/xlink" width="20px" height="18px" xmlns="http://www.w3.org/2000/svg">
  <g transform="matrix(1 0 0 1 -100 -134 )">
    <path d="M 4.721634837932135 12.67129842579766  L 4.724675196317646 12.54861093114004  C 4.513665353384965 12.47835327519739  4.282275709050426 12.502128678114378  4.090313407188047 12.613791925626819  C 3.8983511053256694 12.725455173139304  3.7646555801494075 12.914047486439022  3.7237830346066296 13.130823522373461  C 3.6678745547471134 13.575372147077452  3.7993759203665136 14.02309637462155  4.087312544248429 14.368536667991282  C 4.373609709503013 14.70814019070628  4.630176340343825 15.071292126960977  4.8542284599291055 15.454051954259182  C 5.077425695312628 15.849360645021017  5.049018305878101 16.33700696301469  4.781398934788154 16.70425658351803  C 4.4897871721436475 16.985361810215206  4.060849940249679 17.07500925973897  3.6794602496532645 16.93456065905322  C 3.3074929954177885 16.790551497299496  2.9786321399701725 16.555149477239194  2.7238296366666397 16.250510328945243  C 1.1209426513749696 14.527760986889223  -0.5511269742850776 11.667819733686617  0.2682979009604044 9.470030443743376  C 0.33630872710698817 9.235124764047754  0.36333267515233814 8.99043991791916  0.3482048550244832 8.746523252012112  C 0.3638934133523861 8.46690766706697  0.4161976219712868 8.045633912093999  0.1503072709553131 7.950535604191229  C -0.5916985673802795 7.685152809583345  1.4902669991087554 3.388652667191165  4.703620617916519 2.4539268867254194  C 4.547113630726225 0.9869200061609948  12.277748293238774 -1.1232719893403036  11.855756593698935 0.7184832275011916  C 11.779967837905602 1.049216688363161  12.52647047060063 0.8694564315921973  12.868331149003515 0.8877841629514425  C 15.491217808808349 1.0283937219138146  18.453396102128576 1.6813378084452342  18.214556055326323 4.69288755565446  C 18.12206657615168 5.859088488246778  18.609045453281215 5.590073825386652  19 6.6938900536800325  C 18.39092388427081 7.053609573701551  18.1910753713773 7.842429161210113  17.721538956904876 7.316022579306568  C 17.252002542432454 6.789615997403023  16.850953387757315 6.130334319906728  16.17788294336483 5.909241948147205  C 15.461212137167713 5.67382876395369  14.683641445848467 6.025966902512961  14.072394197447444 6.465078526741671  C 13.461146949046421 6.904190150970381  12.900357287525662 7.4497166631037866  12.181897807970792 7.679710747776556  C 11.376094665467036 7.93765376168649  10.497492903625455 7.758207322825616  9.657249106727898 7.862597702505475  C 8.458511539136415 8.066366695152645  7.375989800518058 8.696360144500261  6.612706847992596 9.634425104062652  C 5.860295811559349 10.566952836315316  5.2252682670472 11.586743832235316  4.721634837932135 12.67129842579766  Z " fill-rule="nonzero" fill="#2f2e41" stroke="none" transform="matrix(1 0 0 1 100 134 )" />
  </g>
</svg>