<?xml version="1.0" encoding="utf-8"?>
<svg version="1.1" xmlns:xlink="http://www.w3.org/1999/xlink" width="20px" height="18px" xmlns="http://www.w3.org/2000/svg">
  <g transform="matrix(1 0 0 1 -100 -134 )">
    <path d="M 4.72163483793214 12.6712984257977  L 4.72467519631765 12.54861093114  C 4.51366535338497 12.4783532751974  4.28227570905043 12.5021286781144  4.09031340718805 12.6137919256268  C 3.89835110532567 12.7254551731393  3.76465558014941 12.914047486439  3.72378303460663 13.1308235223735  C 3.66787455474711 13.5753721470775  3.79937592036651 14.0230963746216  4.08731254424843 14.3685366679913  C 4.37360970950301 14.7081401907063  4.63017634034382 15.071292126961  4.85422845992911 15.4540519542592  C 5.07742569531263 15.849360645021  5.0490183058781 16.3370069630147  4.78139893478815 16.704256583518  C 4.48978717214365 16.9853618102152  4.06084994024968 17.075009259739  3.67946024965326 16.9345606590532  C 3.30749299541779 16.7905514972995  2.97863213997017 16.5551494772392  2.72382963666664 16.2505103289452  C 1.12094265137497 14.5277609868892  -0.551126974285078 11.6678197336866  0.268297900960404 9.47003044374338  C 0.336308727106988 9.23512476404775  0.363332675152338 8.99043991791916  0.348204855024483 8.74652325201211  C 0.363893413352386 8.46690766706697  0.416197621971287 8.045633912094  0.150307270955313 7.95053560419123  C -0.591698567380279 7.68515280958334  1.49026699910876 3.38865266719116  4.70362061791652 2.45392688672542  C 4.54711363072623 0.986920006160995  12.2777482932388 -1.1232719893403  11.8557565936989 0.718483227501192  C 11.7799678379056 1.04921668836316  12.5264704706006 0.869456431592197  12.8683311490035 0.887784162951442  C 15.4912178088083 1.02839372191381  18.4533961021286 1.68133780844523  18.2145560553263 4.69288755565446  C 18.1220665761517 5.85908848824678  18.6090454532812 5.59007382538665  19 6.69389005368003  C 18.3909238842708 7.05360957370155  18.1910753713773 7.84242916121011  17.7215389569049 7.31602257930657  C 17.2520025424325 6.78961599740302  16.8509533877573 6.13033431990673  16.1778829433648 5.9092419481472  C 15.4612121371677 5.67382876395369  14.6836414458485 6.02596690251296  14.0723941974474 6.46507852674167  C 13.4611469490464 6.90419015097038  12.9003572875257 7.44971666310379  12.1818978079708 7.67971074777656  C 11.376094665467 7.93765376168649  10.4974929036255 7.75820732282562  9.6572491067279 7.86259770250548  C 8.45851153913642 8.06636669515265  7.37598980051806 8.69636014450026  6.6127068479926 9.63442510406265  C 5.86029581155935 10.5669528363153  5.2252682670472 11.5867438322353  4.72163483793214 12.6712984257977  Z " fill-rule="nonzero" fill="#2f2e41" stroke="none" transform="matrix(1 0 0 1 100 134 )" />
  </g>
</svg>