<?xml version="1.0" encoding="utf-8"?>
<svg version="1.1" xmlns:xlink="http://www.w3.org/1999/xlink" width="29px" height="70px" xmlns="http://www.w3.org/2000/svg">
  <g transform="matrix(1 0 0 1 -72 -92 )">
    <path d="M 15.947760229266052 41.59801247383146  C 16.479561784096994 40.8622894844647  29 0  29 0  C 29 0  17.48119291785066 0.4923166013699274  17.48119291785066 0.4923166013699274  C 17.48119291785066 0.4923166013699274  0.4533890971854234 29.046691051586574  2.4566592117298995 31.015961313986647  C 4.459929326274375 32.985231576386724  6.506444462563758 31.86731477622011  3.9807343085107054 34.39553765332292  C 1.45502415445765 36.92376053042573  -1.0490634887229502 35.93912732768588  0.4533890971854234 37.90839373316559  C 1.9558416830937972 39.877660138645304  3.9591117976382733 37.66172053361047  1.9558416830937748 40.492800369382785  C -0.047428431450723466 43.32388020515509  16.229147134501076 70  16.229147134501076 70  C 16.229147134501076 70  23.240596458925342 66.55378379041053  23.240596458925342 66.55378379041053  C 23.240596458925342 66.55378379041053  16.417597655225922 48.929312291812394  15.947760229266052 46.61890513601289  C 15.477922803306182 44.308497980213396  15.415958674435105 42.333735463198224  15.947760229266052 41.59801247383146  Z " fill-rule="nonzero" fill="#3f3d56" stroke="none" transform="matrix(1 0 0 1 72 92 )" />
  </g>
</svg>