<?xml version="1.0" encoding="utf-8"?>
<svg version="1.1" xmlns:xlink="http://www.w3.org/1999/xlink" width="29px" height="70px" xmlns="http://www.w3.org/2000/svg">
  <g transform="matrix(1 0 0 1 -72 -92 )">
    <path d="M 15.9477602292661 41.5980124738315  C 16.479561784097 40.8622894844647  29 0  29 0  C 29 0  17.4811929178507 0.492316601369927  17.4811929178507 0.492316601369927  C 17.4811929178507 0.492316601369927  0.453389097185423 29.0466910515866  2.4566592117299 31.0159613139866  C 4.45992932627438 32.9852315763867  6.50644446256376 31.8673147762201  3.98073430851071 34.3955376533229  C 1.45502415445765 36.9237605304257  -1.04906348872295 35.9391273276859  0.453389097185423 37.9083937331656  C 1.9558416830938 39.8776601386453  3.95911179763827 37.6617205336105  1.95584168309377 40.4928003693828  C -0.0474284314507235 43.3238802051551  16.2291471345011 70  16.2291471345011 70  C 16.2291471345011 70  23.2405964589253 66.5537837904105  23.2405964589253 66.5537837904105  C 23.2405964589253 66.5537837904105  16.4175976552259 48.9293122918124  15.9477602292661 46.6189051360129  C 15.4779228033062 44.3084979802134  15.4159586744351 42.3337354631982  15.9477602292661 41.5980124738315  Z " fill-rule="nonzero" fill="#3f3d56" stroke="none" transform="matrix(1 0 0 1 72 92 )" />
  </g>
</svg>