<?xml version="1.0" encoding="utf-8"?>
<svg version="1.1" xmlns:xlink="http://www.w3.org/1999/xlink" width="3px" height="3px" xmlns="http://www.w3.org/2000/svg">
  <g transform="matrix(1 0 0 1 -157 -97 )">
    <path d="M 1.11654351085809 2.99989532175023  C 1.11654351085809 2.99989532175023  1.10763703697306 3  1.10763703697306 3  C 1.00677408857638 3.00000132263273  0.911800548067391 2.9524798805024  0.851303863526929 2.87173983403456  C 0.851303863526929 2.87173983403456  0.0653745091354382 1.82337878761457  0.0653745091354382 1.82337878761457  C -0.00423065871889994 1.73180662486188  -0.0194533490135512 1.60994332893897  0.0254852932090298 1.50405078247916  C 0.0704239354315632 1.39815823601935  0.16863319928233 1.32447357674768  0.282830772615158 1.31096905860066  C 0.397028345947987 1.29746454045366  0.509703631576661 1.34621089199905  0.578082709758249 1.43870296796798  C 0.578082709758249 1.43870296796798  1.09226416170044 2.12451298962784  1.09226416170044 2.12451298962784  C 1.09226416170044 2.12451298962784  2.41287073993986 0.142794609193415  2.41287073993986 0.142794609193415  C 2.51104323185866 -0.00452700672836287  2.71000540046296 -0.0443368637557166  2.85726522893114 0.0538767953468278  C 3.00452505739927 0.152090454449372  3.04431826883776 0.351136131240643  2.9461458638105 0.498457805114  C 2.9461458638105 0.498457805114  1.37428715502752 2.85723561573655  1.37428715502752 2.85723561573655  C 1.31658687129301 2.94379627957426  1.22050161083264 2.99697894894209  1.11654351085809 2.99989532175023  Z " fill-rule="nonzero" fill="#ffffff" stroke="none" transform="matrix(1 0 0 1 157 97 )" />
  </g>
</svg>