<?xml version="1.0" encoding="utf-8"?>
<svg version="1.1" xmlns:xlink="http://www.w3.org/1999/xlink" width="3px" height="3px" xmlns="http://www.w3.org/2000/svg">
  <g transform="matrix(1 0 0 1 -157 -97 )">
    <path d="M 1.1165435108580855 2.9998953217502327  C 1.1165435108580855 2.9998953217502327  1.1076370369730555 3  1.1076370369730555 3  C 1.0067740885763827 3.000001322632734  0.9118005480673905 2.9524798805023993  0.8513038635269286 2.871739834034562  C 0.8513038635269286 2.871739834034562  0.06537450913543819 1.823378787614573  0.06537450913543819 1.823378787614573  C -0.004230658718899938 1.7318066248618753  -0.01945334901355117 1.6099433289389686  0.0254852932090298 1.5040507824791618  C 0.0704239354315632 1.3981582360193543  0.16863319928233006 1.3244735767476818  0.2828307726151583 1.3109690586006582  C 0.3970283459479866 1.2974645404536584  0.5097036315766611 1.3462108919990545  0.5780827097582493 1.4387029679679793  C 0.5780827097582493 1.4387029679679793  1.092264161700441 2.1245129896278443  1.092264161700441 2.1245129896278443  C 1.092264161700441 2.1245129896278443  2.4128707399398603 0.14279460919341452  2.4128707399398603 0.14279460919341452  C 2.511043231858659 -0.004527006728362869  2.7100054004629595 -0.04433686375571664  2.85726522893114 0.05387679534682782  C 3.004525057399275 0.15209045444937225  3.0443182688377615 0.35113613124064347  2.9461458638104996 0.4984578051140004  C 2.9461458638104996 0.4984578051140004  1.3742871550275186 2.85723561573655  1.3742871550275186 2.85723561573655  C 1.3165868712930076 2.9437962795742645  1.220501610832639 2.9969789489420915  1.1165435108580855 2.9998953217502327  Z " fill-rule="nonzero" fill="#ffffff" stroke="none" transform="matrix(1 0 0 1 157 97 )" />
  </g>
</svg>