<?xml version="1.0" encoding="utf-8"?>
<svg version="1.1" xmlns:xlink="http://www.w3.org/1999/xlink" width="3px" height="3px" xmlns="http://www.w3.org/2000/svg">
  <g transform="matrix(1 0 0 1 -92 -130 )">
    <path d="M 1.1165558788134247 2.9998953206357983  C 1.1165558788134247 2.9998953206357983  1.1076493062712949 3  1.1076493062712949 3  C 1.006785240615279 3.0000013226468125  0.9118106480839663 2.952479374654615  0.8513132934214518 2.8717384687156704  C 0.8513132934214518 2.8717384687156704  0.06537523328689224 1.8233662625791447  0.06537523328689224 1.8233662625791447  C -0.0042307055825921615 1.7317931250482395  -0.019453564497911732 1.6099285319016161  0.02548557551021558 1.5040348582254457  C 0.07042471551834288 1.398141184549275  0.1686350672327439 1.32445574091115  0.28283390553164117 1.3109510790093395  C 0.3970327438305384 1.2974464171075293  0.5097092775632982 1.3461932875524198  0.5780891131808211 1.4386863480903098  C 0.5780891131808211 1.4386863480903098  1.0922762607133176 2.124503670141032  1.0922762607133176 2.124503670141032  C 1.0922762607133176 2.124503670141032  2.4128974673178476 0.14276419447857025  2.4128974673178476 0.14276419447857025  C 2.476404622920186 0.047462765930398804  2.5859090498230737 -0.00670451367966661  2.7001614902214506 0.0006666456339261117  C 2.8144139306198506 0.008037804947518833  2.9160567209062784 0.07582754873508708  2.9668020057023163 0.17850013659685127  C 3.0175472904983547 0.28117272445856784  3.009685653881892 0.40312974785629674  2.946178498279531 0.49843117640442064  C 2.946178498279531 0.49843117640442064  1.374302378010388 2.8572340960214317  1.374302378010388 2.8572340960214317  C 1.3166014551294978 2.9437956812902435  1.2205151303322814 2.996978916783182  1.1165558788134247 2.9998953206357983  Z " fill-rule="nonzero" fill="#ffffff" stroke="none" transform="matrix(1 0 0 1 92 130 )" />
  </g>
</svg>