<?xml version="1.0" encoding="utf-8"?>
<svg version="1.1" xmlns:xlink="http://www.w3.org/1999/xlink" width="3px" height="3px" xmlns="http://www.w3.org/2000/svg">
  <g transform="matrix(1 0 0 1 -92 -130 )">
    <path d="M 1.11655587881342 2.9998953206358  C 1.11655587881342 2.9998953206358  1.10764930627129 3  1.10764930627129 3  C 1.00678524061528 3.00000132264681  0.911810648083966 2.95247937465462  0.851313293421452 2.87173846871567  C 0.851313293421452 2.87173846871567  0.0653752332868922 1.82336626257914  0.0653752332868922 1.82336626257914  C -0.00423070558259216 1.73179312504824  -0.0194535644979117 1.60992853190162  0.0254855755102156 1.50403485822545  C 0.0704247155183429 1.39814118454928  0.168635067232744 1.32445574091115  0.282833905531641 1.31095107900934  C 0.397032743830538 1.29744641710753  0.509709277563298 1.34619328755242  0.578089113180821 1.43868634809031  C 0.578089113180821 1.43868634809031  1.09227626071332 2.12450367014103  1.09227626071332 2.12450367014103  C 1.09227626071332 2.12450367014103  2.41289746731785 0.14276419447857  2.41289746731785 0.14276419447857  C 2.47640462292019 0.0474627659303988  2.58590904982307 -0.00670451367966661  2.70016149022145 0.000666645633926112  C 2.81441393061985 0.00803780494751883  2.91605672090628 0.0758275487350871  2.96680200570232 0.178500136596851  C 3.01754729049835 0.281172724458568  3.00968565388189 0.403129747856297  2.94617849827953 0.498431176404421  C 2.94617849827953 0.498431176404421  1.37430237801039 2.85723409602143  1.37430237801039 2.85723409602143  C 1.3166014551295 2.94379568129024  1.22051513033228 2.99697891678318  1.11655587881342 2.9998953206358  Z " fill-rule="nonzero" fill="#ffffff" stroke="none" transform="matrix(1 0 0 1 92 130 )" />
  </g>
</svg>