<?xml version="1.0" encoding="utf-8"?>
<svg version="1.1" xmlns:xlink="http://www.w3.org/1999/xlink" width="2px" height="2px" xmlns="http://www.w3.org/2000/svg">
  <g transform="matrix(1 0 0 1 -196 -98 )">
    <path d="M 1.92243321168205 1.55345992700833  L 1.36897328467316 0.999999999999414  C 1.36897328467316 0.999999999999414  1.92243321168205 0.446540072990501  1.92243321168205 0.446540072990501  C 1.98902378915529 0.380766567658689  2.01528073817265 0.284362950493958  1.99124204409876 0.19390522446087  C 1.96720335002488 0.103447498427803  1.89655250157224 0.0327966499751446  1.8060947755392 0.00875795590123707  C 1.71563704950612 -0.0152807381726705  1.61923343234132 0.0109762108446881  1.55345992700951 0.0775667883179065  C 1.55345992700951 0.0775667883179065  1.00000000000062 0.63102671532682  1.00000000000062 0.63102671532682  C 1.00000000000062 0.63102671532682  0.446540072991725 0.0775667883179065  0.446540072991725 0.0775667883179065  C 0.344565633177226 -0.0238228675843414  0.179778994655691 -0.0235859418486848  0.0780965264041672 0.0780965264028645  C -0.0235859418473566 0.179778994654414  -0.0238228675830795 0.344565633175954  0.0775667883191429 0.446540072990478  C 0.0775667883191429 0.446540072990478  0.631026715328038 0.999999999999392  0.631026715328038 0.999999999999392  C 0.631026715328038 0.999999999999392  0.0775667883191429 1.5534599270083  0.0775667883191429 1.5534599270083  C 0.0109762108452409 1.61923343234001  -0.0152807381727364 1.71563704950509  0.00875795590110403 1.80609477553862  C 0.0327966499749002 1.89655250157213  0.103447498427932 1.96720335002514  0.193905224461416 1.99124204409894  C 0.2843629504949 2.01528073817271  0.380766567660093 1.98902378915483  0.446540072991725 1.9224332116809  C 0.446540072991725 1.9224332116809  1.00000000000062 1.36897328467199  1.00000000000062 1.36897328467199  C 1.00000000000062 1.36897328467199  1.55345992700951 1.9224332116809  1.55345992700951 1.9224332116809  C 1.61930713205867 1.98866020287508  1.71553070285756 2.01464104006477  1.80576255659206 1.99055616208993  C 1.89599441032655 1.96647128411512  1.96647128411632 1.89599441032533  1.99055616209113 1.80576255659086  C 2.01464104006589 1.71553070285638  1.98866020287623 1.61930713205746  1.92243321168205 1.5534599270083  Z " fill-rule="nonzero" fill="#ffffff" stroke="none" transform="matrix(1 0 0 1 196 98 )" />
  </g>
</svg>