<?xml version="1.0" encoding="utf-8"?>
<svg version="1.1" xmlns:xlink="http://www.w3.org/1999/xlink" width="2px" height="2px" xmlns="http://www.w3.org/2000/svg">
  <g transform="matrix(1 0 0 1 -196 -98 )">
    <path d="M 1.922433211682052 1.553459927008327  L 1.368973284673157 0.9999999999994136  C 1.368973284673157 0.9999999999994136  1.922433211682052 0.4465400729905006  1.922433211682052 0.4465400729905006  C 1.9890237891552902 0.3807665676586894  2.015280738172648 0.2843629504939584  1.9912420440987633 0.19390522446086955  C 1.9672033500248787 0.10344749842780276  1.8965525015722449 0.03279664997514464  1.8060947755392032 0.008757955901237067  C 1.7156370495061173 -0.01528073817267051  1.6192334323413233 0.010976210844688136  1.5534599270095144 0.07756678831790648  C 1.5534599270095144 0.07756678831790648  1.0000000000006195 0.6310267153268196  1.0000000000006195 0.6310267153268196  C 1.0000000000006195 0.6310267153268196  0.4465400729917246 0.07756678831790648  0.4465400729917246 0.07756678831790648  C 0.3445656331772262 -0.0238228675843414  0.17977899465569105 -0.0235859418486848  0.07809652640416724 0.0780965264028645  C -0.02358594184735658 0.1797789946544138  -0.02382286758307952 0.3445656331759542  0.07756678831914286 0.4465400729904784  C 0.07756678831914286 0.4465400729904784  0.6310267153280376 0.9999999999993916  0.6310267153280376 0.9999999999993916  C 0.6310267153280376 0.9999999999993916  0.07756678831914286 1.5534599270083047  0.07756678831914286 1.5534599270083047  C 0.010976210845240874 1.6192334323400053  -0.015280738172736376 1.71563704950509  0.008757955901104031 1.8060947755386216  C 0.0327966499749002 1.896552501572131  0.10344749842793206 1.967203350025143  0.19390522446141623 1.99124204409894  C 0.2843629504949004 2.015280738172714  0.3807665676600928 1.989023789154825  0.4465400729917246 1.9224332116808989  C 0.4465400729917246 1.9224332116808989  1.0000000000006195 1.3689732846719855  1.0000000000006195 1.3689732846719855  C 1.0000000000006195 1.3689732846719855  1.5534599270095144 1.9224332116808989  1.5534599270095144 1.9224332116808989  C 1.619307132058667 1.9886602028750755  1.715530702857564 2.014641040064766  1.8057625565920588 1.9905561620899317  C 1.8959944103265538 1.9664712841151195  1.9664712841163152 1.8959944103253334  1.9905561620911267 1.8057625565908577  C 2.014641040065894 1.7155307028563818  1.9886602028762264 1.6193071320574595  1.922433211682052 1.5534599270083047  Z " fill-rule="nonzero" fill="#ffffff" stroke="none" transform="matrix(1 0 0 1 196 98 )" />
  </g>
</svg>