<?xml version="1.0" encoding="utf-8"?>
<svg version="1.1" xmlns:xlink="http://www.w3.org/1999/xlink" width="2px" height="2px" xmlns="http://www.w3.org/2000/svg">
  <g transform="matrix(1 0 0 1 -128 -130 )">
    <path d="M 1.92404877719672 1.5530846657327  L 1.37012373609817 0.999159624634158  C 1.37012373609817 0.999159624634158  1.92404877719672 0.44523458353562  1.92404877719672 0.44523458353562  C 2.02495200460941 0.343077884596977  2.02444441531557 0.178619379785074  1.92291251776525 0.0770874822347519  C 1.82138062021497 -0.0244444153155257  1.65692211540306 -0.0249520046093622  1.55476541646441 0.0759512228032755  C 1.55476541646441 0.0759512228032755  1.00084037536586 0.629876263901814  1.00084037536586 0.629876263901814  C 1.00084037536586 0.629876263901814  0.446915334267313 0.0759512228032755  0.446915334267313 0.0759512228032755  C 0.34485519764462 -0.025523638463431  0.17993007649509 -0.0252865136188972  0.07816215680396 0.0764814060722306  C -0.0236057628872144 0.178249325763403  -0.0238428877317039 0.343174446912929  0.0776319735349606 0.44523458353562  C 0.0776319735349606 0.44523458353562  0.631557014633511 0.999159624634158  0.631557014633511 0.999159624634158  C 0.631557014633511 0.999159624634158  0.0776319735349606 1.5530846657327  0.0776319735349606 1.5530846657327  C 0.0109854349814471 1.61891344549841  -0.0152935797285638 1.71539807788802  0.00876531587173597 1.80593182236544  C 0.0328242114720801 1.89646556684285  0.103534433157149 1.96717578852788  0.194068177634567 1.99123468412822  C 0.28460192211194 2.01529357972861  0.3810865545016 1.9890145650186  0.446915334267313 1.92236802646509  C 0.446915334267313 1.92236802646509  1.00084037536586 1.36844298536655  1.00084037536586 1.36844298536655  C 1.00084037536586 1.36844298536655  1.55476541646441 1.92236802646509  1.55476541646441 1.92236802646509  C 1.65682555308706 2.02384288773175  1.82175067423659 2.02360576288726  1.92351859392777 1.92183784319609  C 2.02528651361894 1.82006992350491  2.02552363846343 1.65514480235539  1.92404877719677 1.55308466573274  Z " fill-rule="nonzero" fill="#ffffff" stroke="none" transform="matrix(1 0 0 1 128 130 )" />
  </g>
</svg>