<?xml version="1.0" encoding="utf-8"?>
<svg version="1.1" xmlns:xlink="http://www.w3.org/1999/xlink" width="2px" height="2px" xmlns="http://www.w3.org/2000/svg">
  <g transform="matrix(1 0 0 1 -128 -130 )">
    <path d="M 1.9240487771967227 1.5530846657326969  L 1.370123736098172 0.9991596246341584  C 1.370123736098172 0.9991596246341584  1.9240487771967227 0.4452345835356198  1.9240487771967227 0.4452345835356198  C 2.024952004609406 0.3430778845969768  2.02444441531557 0.17861937978507383  1.9229125177652464 0.07708748223475194  C 1.8213806202149665 -0.02444441531552566  1.6569221154030598 -0.02495200460936224  1.5547654164644147 0.07595122280327549  C 1.5547654164644147 0.07595122280327549  1.000840375365864 0.629876263901814  1.000840375365864 0.629876263901814  C 1.000840375365864 0.629876263901814  0.446915334267313 0.07595122280327549  0.446915334267313 0.07595122280327549  C 0.34485519764462 -0.025523638463431  0.17993007649509016 -0.02528651361889722  0.07816215680396003 0.07648140607223064  C -0.02360576288721436 0.1782493257634028  -0.02384288773170386 0.343174446912929  0.07763197353496058 0.4452345835356198  C 0.07763197353496058 0.4452345835356198  0.6315570146335114 0.9991596246341584  0.6315570146335114 0.9991596246341584  C 0.6315570146335114 0.9991596246341584  0.07763197353496058 1.5530846657326969  0.07763197353496058 1.5530846657326969  C 0.010985434981447106 1.6189134454984082  -0.015293579728563848 1.7153980778880222  0.008765315871735973 1.8059318223654377  C 0.03282421147208008 1.8964655668428534  0.10353443315714896 1.9671757885278764  0.19406817763456655 1.99123468412822  C 0.2846019221119398 2.015293579728608  0.3810865545016002 1.9890145650185975  0.446915334267313 1.9223680264650855  C 0.446915334267313 1.9223680264650855  1.000840375365864 1.368442985366547  1.000840375365864 1.368442985366547  C 1.000840375365864 1.368442985366547  1.5547654164644147 1.9223680264650855  1.5547654164644147 1.9223680264650855  C 1.6568255530870635 2.023842887731748  1.8217506742365932 2.023605762887258  1.9235185939277677 1.9218378431960859  C 2.025286513618942 1.8200699235049138  2.025523638463432 1.6551448023553876  1.9240487771967671 1.553084665732741  Z " fill-rule="nonzero" fill="#ffffff" stroke="none" transform="matrix(1 0 0 1 128 130 )" />
  </g>
</svg>