<?xml version="1.0" encoding="utf-8"?>
<svg version="1.1" xmlns:xlink="http://www.w3.org/1999/xlink" width="58px" height="35px" xmlns="http://www.w3.org/2000/svg">
  <g transform="matrix(1 0 0 1 -148 -49 )">
    <path d="M 57.72180171673833 24.099340316622758  C 57.7150921781361 29.999229075872805  52.92102583273618 34.780365075222335  47.00518111587979 34.78705651715045  C 47.00518111587979 34.78705651715045  11.020569957081534 34.78705651715045  11.020569957081534 34.78705651715045  C 5.104725240225264 34.78036507522228  0.3106588948253943 29.999229075872748  0.30394935622319963 24.09934031662273  C 0.30394935622319963 24.09934031662273  0.30394935622319963 11.124921266490816  0.30394935622319963 11.124921266490816  C 0.31065889482542275 5.225032507240826  5.104725240225321 0.44389650789129576  11.02056995708162 0.4372050659630986  C 11.02056995708162 0.4372050659630986  47.00518111587991 0.4372050659630986  47.00518111587991 0.4372050659630986  C 52.921025832736206 0.44389650789129576  57.7150921781361 5.225032507240826  57.72180171673833 11.12492126649083  C 57.72180171673833 11.12492126649083  57.72180171673833 24.099340316622758  57.72180171673833 24.099340316622758  Z M 56.94926952789697 11.124921266491114  C 56.94304956843507 5.650337083767042  52.494571040999375 1.2138567980353727  47.00518111587979 1.2076536147760635  C 47.00518111587979 1.2076536147760635  11.020569957081477 1.2076536147760635  11.020569957081477 1.2076536147760635  C 5.531180031961895 1.213856798035394  1.0827015045261987 5.650337083767042  1.076481545064297 11.124921266491114  C 1.076481545064297 11.124921266491114  1.076481545064297 24.099340316623042  1.076481545064297 24.099340316623042  C 1.0827015045261987 29.573924499347086  5.531180031961895 34.01040478507875  11.020569957081477 34.01660796833809  C 11.020569957081477 34.01660796833809  47.005181115879765 34.01660796833809  47.005181115879765 34.01660796833809  C 52.494571040999375 34.010404785078805  56.94304956843507 29.57392449934713  56.94926952789697 24.099340316623042  C 56.94926952789697 24.099340316623042  56.94926952789697 11.124921266491114  56.94926952789697 11.124921266491114  Z " fill-rule="nonzero" fill="#ffffff" stroke="none" transform="matrix(1 0 0 1 148 49 )" />
  </g>
</svg>