<?xml version="1.0" encoding="utf-8"?>
<svg version="1.1" xmlns:xlink="http://www.w3.org/1999/xlink" width="58px" height="35px" xmlns="http://www.w3.org/2000/svg">
  <g transform="matrix(1 0 0 1 -148 -49 )">
    <path d="M 57.7218017167383 24.0993403166228  C 57.7150921781361 29.9992290758728  52.9210258327362 34.7803650752223  47.0051811158798 34.7870565171504  C 47.0051811158798 34.7870565171504  11.0205699570815 34.7870565171504  11.0205699570815 34.7870565171504  C 5.10472524022526 34.7803650752223  0.310658894825394 29.9992290758727  0.3039493562232 24.0993403166227  C 0.3039493562232 24.0993403166227  0.3039493562232 11.1249212664908  0.3039493562232 11.1249212664908  C 0.310658894825423 5.22503250724083  5.10472524022532 0.443896507891296  11.0205699570816 0.437205065963099  C 11.0205699570816 0.437205065963099  47.0051811158799 0.437205065963099  47.0051811158799 0.437205065963099  C 52.9210258327362 0.443896507891296  57.7150921781361 5.22503250724083  57.7218017167383 11.1249212664908  C 57.7218017167383 11.1249212664908  57.7218017167383 24.0993403166228  57.7218017167383 24.0993403166228  Z M 56.949269527897 11.1249212664911  C 56.9430495684351 5.65033708376704  52.4945710409994 1.21385679803537  47.0051811158798 1.20765361477606  C 47.0051811158798 1.20765361477606  11.0205699570815 1.20765361477606  11.0205699570815 1.20765361477606  C 5.5311800319619 1.21385679803539  1.0827015045262 5.65033708376704  1.0764815450643 11.1249212664911  C 1.0764815450643 11.1249212664911  1.0764815450643 24.099340316623  1.0764815450643 24.099340316623  C 1.0827015045262 29.5739244993471  5.5311800319619 34.0104047850787  11.0205699570815 34.0166079683381  C 11.0205699570815 34.0166079683381  47.0051811158798 34.0166079683381  47.0051811158798 34.0166079683381  C 52.4945710409994 34.0104047850788  56.9430495684351 29.5739244993471  56.949269527897 24.099340316623  C 56.949269527897 24.099340316623  56.949269527897 11.1249212664911  56.949269527897 11.1249212664911  Z " fill-rule="nonzero" fill="#ffffff" stroke="none" transform="matrix(1 0 0 1 148 49 )" />
  </g>
</svg>