<?xml version="1.0" encoding="utf-8"?>
<svg version="1.1" xmlns:xlink="http://www.w3.org/1999/xlink" width="23px" height="24px" xmlns="http://www.w3.org/2000/svg">
  <g transform="matrix(1 0 0 1 -165 -54 )">
    <path d="M 20.4947077972742 7.19509464533837  C 21.9833775119514 8.94644833867339  22.5746950375657 11.2024980873391  22.6014430990318 13.401466917228  C 22.6252221761945 15.6004396758745  23.3175551180153 20.1786208755822  22.8213266983162 22.3325229273523  C 22.8213266983162 22.3325229273523  22.7410941722332 22.1522872449377  22.7410941722332 22.1522872449377  C 22.328609266422 22.4828741375969  21.8903862124348 22.7792383999631  21.4306995294371 23.038489233143  C 21.0991636783935 22.2231347464189  20.6032977244289 21.4865202654558  19.974684755992 20.8755628252279  C 20.0574653530134 21.8863733875242  19.9392580019209 22.9037100002217  19.6270299068247 23.8676103025715  C 17.769860275175 24.5435216129295  14.5101953096431 22.4136399849601  12.4896188442599 22.3685889218716  C 9.23889192047893 22.2934867921079  6.07130821550765 21.4763680770646  2.96614701690413 20.6112045856622  C 1.86375226396868 20.3047850675209  0.651396280865501 19.9052579236593  0.152218307388523 18.9800040851793  C -0.346959666088456 18.0547502466993  0.546444240183461 17.0560443566363  0.487977788816721 16.0119927466667  C 0.0715893985844805 8.57524753691248  3.57536782875619 7.32871561915048  6.90926517408263 5.34157754007751  C 7.64293072984409 4.9042832496676  8.00275297410797 3.9627289960176  8.83177966314216 3.59622305955632  C 9.98174422871836 3.08853721971265  11.3515768491585 3.33186481999059  12.6025412865208 3.58721834719922  C 11.9707053432431 3.37677538400544  11.4931651256762 2.84844084723719  11.3426660101432 2.19333444790779  C 11.2363032106096 1.54958278912956  11.4956683525168 0.89985636728801  12.0142121757354 0.511067956492327  C 12.7820990758608 0.00306441398128638  13.7332997510939 -0.134469881700424  14.6112534730058 0.135561236431528  C 15.4609614709203 0.404203435110129  16.2647308497379 0.803406545018231  16.9943569118088 1.3191623153907  C 17.4898193223908 1.59388739923303  17.9326205583409 1.95608399856892  18.301798114722 2.38860548555395  C 18.6579966038548 2.80775766719167  18.7195702476885 3.40635322244124  18.4563018816505 3.89063236579719  C 18.1350375040439 4.3013059338369  17.6459736558887 4.54133143014497  17.1280739025086 4.5425075373241  C 16.7341498750698 4.55410618040188  16.3404495320113 4.51269022924121  15.9573264468087 4.41934884492862  C 17.7135060426302 4.85731083358783  19.2961506396242 5.82549462823326  20.4947077972742 7.19509464533837  Z " fill-rule="nonzero" fill="#2f2e41" stroke="none" transform="matrix(1 0 0 1 165 54 )" />
  </g>
</svg>