<?xml version="1.0" encoding="utf-8"?>
<svg version="1.1" xmlns:xlink="http://www.w3.org/1999/xlink" width="23px" height="24px" xmlns="http://www.w3.org/2000/svg">
  <g transform="matrix(1 0 0 1 -165 -54 )">
    <path d="M 20.494707797274227 7.195094645338375  C 21.983377511951367 8.94644833867339  22.574695037565707 11.202498087339091  22.601443099031773 13.40146691722802  C 22.625222176194494 15.600439675874538  23.317555118015328 20.17862087558219  22.821326698316156 22.332522927352333  C 22.821326698316156 22.332522927352333  22.74109417223321 22.15228724493769  22.74109417223321 22.15228724493769  C 22.328609266421985 22.482874137596873  21.890386212434805 22.779238399963056  21.430699529437117 23.038489233143004  C 21.099163678393545 22.22313474641892  20.60329772442894 21.48652026545578  19.97468475599197 20.875562825227878  C 20.057465353013352 21.886373387524173  19.93925800192088 22.90371000022175  19.627029906824692 23.867610302571542  C 17.76986027517504 24.54352161292949  14.510195309643057 22.413639984960092  12.489618844259924 22.36858892187158  C 9.238891920478935 22.293486792107895  6.071308215507646 21.476368077064564  2.966147016904134 20.61120458566215  C 1.863752263968684 20.304785067520896  0.6513962808655015 19.90525792365934  0.15221830738852296 18.98000408517934  C -0.3469596660884555 18.054750246699335  0.5464442401834613 17.056044356636278  0.4879777888167215 16.011992746666724  C 0.07158939858448055 8.575247536912476  3.5753678287561943 7.328715619150483  6.909265174082629 5.341577540077507  C 7.6429307298440925 4.904283249667596  8.002752974107972 3.962728996017602  8.831779663142163 3.596223059556319  C 9.981744228718362 3.088537219712645  11.3515768491585 3.331864819990594  12.6025412865208 3.5872183471992165  C 11.970705343243104 3.3767753840054398  11.49316512567616 2.848440847237186  11.342666010143247 2.193334447907795  C 11.236303210609607 1.54958278912956  11.495668352516764 0.89985636728801  12.014212175735386 0.511067956492327  C 12.782099075860824 0.0030644139812863827  13.733299751093895 -0.13446988170042445  14.611253473005782 0.13556123643152776  C 15.460961470920285 0.40420343511012863  16.264730849737898 0.8034065450182313  16.99435691180876 1.3191623153906984  C 17.48981932239076 1.5938873992330258  17.93262055834094 1.9560839985689236  18.301798114722008 2.3886054855539527  C 18.657996603854837 2.8077576671916695  18.719570247688523 3.4063532224412425  18.45630188165048 3.8906323657971935  C 18.13503750404388 4.301305933836905  17.645973655888707 4.541331430144968  17.12807390250858 4.542507537324096  C 16.73414987506977 4.554106180401881  16.340449532011334 4.512690229241206  15.957326446808738 4.419348844928621  C 17.713506042630236 4.857310833587834  19.296150639624205 5.82549462823326  20.494707797274227 7.195094645338375  Z " fill-rule="nonzero" fill="#2f2e41" stroke="none" transform="matrix(1 0 0 1 165 54 )" />
  </g>
</svg>