<?xml version="1.0" encoding="utf-8"?>
<svg version="1.1" xmlns:xlink="http://www.w3.org/1999/xlink" width="17px" height="10px" xmlns="http://www.w3.org/2000/svg">
  <g transform="matrix(1 0 0 1 -168 -57 )">
    <path d="M 16.8803024510293 5.52851760910218  C 17.1621218249536 6.77944567413459  16.9500053402643 8.26437939238744  16.204605678341 9.1252867006485  C 15.341001582959 10.1219879409737  14.0562278153375 10.0699879441178  12.9138597174337 9.91109759551795  C 12.5532704117721 9.86198040020246  12.1926850689787 9.8070824888229  11.8321155776582 9.74353239457625  C 11.7684758768096 9.54997664082105  11.6957572448541 9.35640199583689  11.6139359045825 9.16863073639154  C 11.2758540228493 8.38451122948915  10.7701927358032 7.67611611853785  10.12916014044 7.08856663197555  C 10.1966729480268 7.85672618232806  10.1342665732512 8.63023845440962  9.94432800348993 9.37951730360149  C 9.27467724675923 9.23216571765501  8.60804883752922 9.06749843123691  7.94444277579991 8.88551544434721  C 6.72504177592285 8.69649736043726  5.8749926513329 7.62944939168608  6.01121299167885 6.45877461890287  C 5.05671258778663 7.15213183920538  4.01737510090241 7.75302782844937  2.92651636420606 7.76459303882327  C 1.66432056727477 7.73335738909442  0.570806008672988 6.92155548928093  0.229685464397579 5.76252326232252  C -0.0235636686135662 4.84807769589894  -0.067994752407148 3.89245926895486  0.0993942828481622 2.96023613974171  C 0.244831546759056 1.84796969533071  0.572093130636195 0.625941432372747  1.35992322266018 0.17815507566453  C 1.99322919393001 -0.185860015310209  2.72348277349181 0.0741550819526559  3.37497038418463 0.368820471387698  C 4.81026855605465 1.02555315964687  6.17089564380404 1.82132233098951  7.43536479769296 2.74356129997608  C 7.43536479769296 2.74356129997608  7.45051088005448 3.046901541753  7.45051088005448 3.046901541753  C 7.77777246393162 1.55330808414145  8.85951660370711 0.400591740265239  10.0382440175886 0.285045427408437  C 10.8321412608673 0.209930122787876  11.6078529018548 0.559500980094045  12.3563079351808 0.911947082449089  C 13.3345448859352 1.3233965124675  14.2441788535927 1.86944669017901  15.0561545777096 2.53265584153719  C 15.973481961605 3.3281971767135  16.6105874817982 4.37453782582869  16.8803024510293 5.52851760910218  Z " fill-rule="nonzero" fill="#2f2e41" stroke="none" transform="matrix(1 0 0 1 168 57 )" />
  </g>
</svg>