<?xml version="1.0" encoding="utf-8"?>
<svg version="1.1" xmlns:xlink="http://www.w3.org/1999/xlink" width="17px" height="10px" xmlns="http://www.w3.org/2000/svg">
  <g transform="matrix(1 0 0 1 -168 -57 )">
    <path d="M 16.880302451029273 5.528517609102178  C 17.162121824953633 6.779445674134585  16.950005340264344 8.264379392387442  16.204605678341025 9.125286700648497  C 15.341001582958967 10.121987940973721  14.056227815337483 10.06998794411778  12.913859717433695 9.911097595517955  C 12.553270411772054 9.86198040020246  12.192685068978674 9.807082488822903  11.832115577658204 9.743532394576253  C 11.768475876809577 9.549976640821052  11.695757244854084 9.35640199583689  11.613935904582474 9.168630736391538  C 11.275854022849309 8.384511229489146  10.770192735803201 7.676116118537848  10.129160140440028 7.08856663197555  C 10.196672948026812 7.856726182328062  10.134266573251205 8.630238454409616  9.944328003489929 9.379517303601492  C 9.274677246759229 9.23216571765501  8.608048837529223 9.067498431236906  7.944442775799911 8.885515444347208  C 6.725041775922852 8.696497360437263  5.874992651332896 7.6294493916860775  6.011212991678852 6.458774618902866  C 5.056712587786626 7.152131839205378  4.0173751009024095 7.753027828449374  2.926516364206062 7.764593038823265  C 1.6643205672747714 7.733357389094425  0.5708060086729878 6.921555489280929  0.22968546439757945 5.762523262322517  C -0.023563668613566194 4.848077695898937  -0.06799475240714799 3.8924592689548594  0.09939428284816222 2.96023613974171  C 0.24483154675905605 1.8479696953307059  0.5720931306361948 0.6259414323727474  1.3599232226601772 0.17815507566453037  C 1.9932291939300133 -0.185860015310209  2.72348277349181 0.07415508195265588  3.374970384184628 0.36882047138769836  C 4.810268556054653 1.025553159646875  6.170895643804039 1.821322330989511  7.4353647976929595 2.743561299976081  C 7.4353647976929595 2.743561299976081  7.450510880054481 3.0469015417530034  7.450510880054481 3.0469015417530034  C 7.77777246393162 1.553308084141447  8.859516603707112 0.4005917402652388  10.038244017588644 0.2850454274084368  C 10.832141260867328 0.2099301227878762  11.607852901854816 0.5595009800940453  12.356307935180766 0.9119470824490887  C 13.334544885935195 1.323396512467504  14.244178853592732 1.869446690179006  15.056154577709627 2.532655841537186  C 15.973481961604984 3.328197176713499  16.610587481798152 4.374537825828689  16.880302451029273 5.528517609102178  Z " fill-rule="nonzero" fill="#2f2e41" stroke="none" transform="matrix(1 0 0 1 168 57 )" />
  </g>
</svg>