<?xml version="1.0" encoding="utf-8"?>
<svg version="1.1" xmlns:xlink="http://www.w3.org/1999/xlink" width="3px" height="4px" xmlns="http://www.w3.org/2000/svg">
  <g transform="matrix(1 0 0 1 -175 -54 )">
    <path d="M 1.8147526278920538 2.425629692611393  C 1.8854893752184214 2.431567561647458  1.7117311898891008 2.3917986837784526  1.7681493754177828 2.4154314025419543  C 1.7404644568896335 2.40280711079558  1.7138528282594254 2.387963188691571  1.688576582937373 2.3710458314974465  C 1.6842292784976534 2.368284722395689  1.6281721276698509 2.3230901166949938  1.6648562308873553 2.3545496890816544  C 1.580451234746805 2.289041523346128  1.516875164779048 2.2005661965167467  1.4818079155224477 2.0998113962666176  C 1.4033934490905553 1.854986108223928  1.3669145162230918 1.598736161917582  1.373903204039259 1.3418238579731088  C 1.3879178862641928 1.0041682771485487  1.3301683695367728 0.667373902359286  1.2044439370557598 0.35353978028423144  C 1.1288408319942245 0.18117288424079037  0.9753172604490066 0.0550986697932242  0.7911613394180304 0.014150341140813368  C 0.6070054183870968 -0.026797987511618552  0.4143052631921367 0.02229101315375353  0.27241610764288454 0.1462970174213968  C 0.07572125851170715 0.4105433217867132  -0.01931207148495266 0.7364088144866924  0.004602799717608345 1.0646181531929295  C -0.013165071687626338 1.38225440294693  0.020583050176176128 1.700668476098746  0.10454613774476738 2.0075851566322567  C 0.2489510439689912 2.5122350565407876  0.5374652880213971 2.964103800771513  0.9349259498210121 3.308119499918535  C 1.3939718840709876 3.708964569192291  1.9703805936856091 3.9515890931807394  2.5786425028865536 4  C 2.749417062489952 3.996182095494456  2.9018160866874694 3.892165000575133  2.9671830321077306 3.7348089509049465  C 3.0325499775279514 3.57745290123476  2.9985488330313905 3.396454037105163  2.8804972888990443 3.2733532767124145  C 2.8804972888990443 3.2733532767124145  2.116596247882853 2.550265563678317  2.116596247882853 2.550265563678317  C 1.9495827523872178 2.385825380538734  1.6807543220117023 2.386670464143133  1.5147840459409183 2.552157408317252  C 1.348813769870134 2.71764435249135  1.3479662180597571 2.985689911630971  1.5128866758579145 3.1522170372086835  C 1.5128866758579145 3.1522170372086835  2.2767839948668893 3.875304750242781  2.2767839948668893 3.875304750242781  C 2.2767839948668893 3.875304750242781  2.5786387808793796 3.1486580269551956  2.5786387808793796 3.1486580269551956  C 2.452569341007006 3.1373337874310168  2.3281650619057634 3.1119898803361514  2.207744482835518 3.0730986434713827  C 2.0771710712332543 3.0369192078842713  1.9524219911305394 2.9824067848313827  1.8372447175575695 2.911198933035129  C 1.7243814788948368 2.849543126676037  1.6185929425496255 2.7758073500445573  1.521752497069731 2.691297375621049  C 1.4597935089611367 2.636993350084859  1.4006356693970512 2.5795920158483296  1.3445067909698383 2.519314421327935  C 1.3241325234158308 2.4974111069211857  1.3041639546493844 2.475126779251281  1.2846010846705842 2.4524614383182213  C 1.2860117254091556 2.454098063471287  1.2042317826438746 2.3517329124578037  1.2393675308554197 2.3985344539663753  C 1.1510671460304245 2.278101220559594  1.0742177034135363 2.1497233850856947  1.009816457211338 2.0150668716177647  C 0.9871328807565791 1.9673723918974892  0.9683947739664132 1.9179099797378347  0.9537890824413089 1.8671731097703068  C 0.9267705597203301 1.783707431937164  0.9046663498335517 1.6987389334637095  0.8875894619232054 1.6127020210618932  C 0.855057509284081 1.431913961531816  0.8452463900926918 1.2477883880707272  0.8583828712222867 1.0645810415115475  C 0.8621010726781844 0.9868867315276736  0.8698682204621375 0.90943772922642  0.8816528603979772 0.8325476754231504  C 0.8924100955214349 0.7920019614696868  0.9003800550029251 0.7507716102970377  0.9055072047081236 0.7091439121812833  C 0.9069960075984513 0.6058027239449936  0.8913635772500752 0.7643401160395884  0.8373051443025594 0.7884107526445115  C 0.8373051443025594 0.7884107526445115  0.6218455900153699 0.8465239346667776  0.6218455900153699 0.8465239346667776  C 0.5507570440840017 0.840750179344054  0.4861638585138777 0.8030431826614643  0.446319451253772 0.7440585821133104  C 0.43734196982516726 0.7085303323808996  0.4398766567459278 0.714830658839366  0.45392351201609615 0.7629595614887096  C 0.4700780082646323 0.8194574554733975  0.48262155002640694 0.8769203005886592  0.4914785649244392 0.935001894472182  C 0.50791737971385 1.0700202877795577  0.517470421946924 1.2057838131498635  0.520100800490859 1.3417681904510363  C 0.5228120680822856 1.6298603621320165  0.5563764391351567 1.9168397925477227  0.620222794864913 2.197823347043189  C 0.7428987833316051 2.776987148879537  1.2246464296983077 3.2121632594364313  1.8147563498991013 3.276878886452638  C 2.0497595589265827 3.275023684040127  2.239809957861619 3.0855267421575747  2.2416705786985163 2.8512078999302464  C 2.2369891856614745 2.6180909945981603  2.048551444842769 2.4302446044958845  1.8147526278920116 2.425629692611393  Z " fill-rule="nonzero" fill="#2f2e41" stroke="none" transform="matrix(1 0 0 1 175 54 )" />
  </g>
</svg>