<?xml version="1.0" encoding="utf-8"?>
<svg version="1.1" xmlns:xlink="http://www.w3.org/1999/xlink" width="3px" height="4px" xmlns="http://www.w3.org/2000/svg">
  <g transform="matrix(1 0 0 1 -175 -54 )">
    <path d="M 1.81475262789205 2.42562969261139  C 1.88548937521842 2.43156756164746  1.7117311898891 2.39179868377845  1.76814937541778 2.41543140254195  C 1.74046445688963 2.40280711079558  1.71385282825943 2.38796318869157  1.68857658293737 2.37104583149745  C 1.68422927849765 2.36828472239569  1.62817212766985 2.32309011669499  1.66485623088736 2.35454968908165  C 1.5804512347468 2.28904152334613  1.51687516477905 2.20056619651675  1.48180791552245 2.09981139626662  C 1.40339344909056 1.85498610822393  1.36691451622309 1.59873616191758  1.37390320403926 1.34182385797311  C 1.38791788626419 1.00416827714855  1.33016836953677 0.667373902359286  1.20444393705576 0.353539780284231  C 1.12884083199422 0.18117288424079  0.975317260449007 0.0550986697932242  0.79116133941803 0.0141503411408134  C 0.607005418387097 -0.0267979875116186  0.414305263192137 0.0222910131537535  0.272416107642885 0.146297017421397  C 0.0757212585117071 0.410543321786713  -0.0193120714849527 0.736408814486692  0.00460279971760834 1.06461815319293  C -0.0131650716876263 1.38225440294693  0.0205830501761761 1.70066847609875  0.104546137744767 2.00758515663226  C 0.248951043968991 2.51223505654079  0.537465288021397 2.96410380077151  0.934925949821012 3.30811949991854  C 1.39397188407099 3.70896456919229  1.97038059368561 3.95158909318074  2.57864250288655 4  C 2.74941706248995 3.99618209549446  2.90181608668747 3.89216500057513  2.96718303210773 3.73480895090495  C 3.03254997752795 3.57745290123476  2.99854883303139 3.39645403710516  2.88049728889904 3.27335327671241  C 2.88049728889904 3.27335327671241  2.11659624788285 2.55026556367832  2.11659624788285 2.55026556367832  C 1.94958275238722 2.38582538053873  1.6807543220117 2.38667046414313  1.51478404594092 2.55215740831725  C 1.34881376987013 2.71764435249135  1.34796621805976 2.98568991163097  1.51288667585791 3.15221703720868  C 1.51288667585791 3.15221703720868  2.27678399486689 3.87530475024278  2.27678399486689 3.87530475024278  C 2.27678399486689 3.87530475024278  2.57863878087938 3.1486580269552  2.57863878087938 3.1486580269552  C 2.45256934100701 3.13733378743102  2.32816506190576 3.11198988033615  2.20774448283552 3.07309864347138  C 2.07717107123325 3.03691920788427  1.95242199113054 2.98240678483138  1.83724471755757 2.91119893303513  C 1.72438147889484 2.84954312667604  1.61859294254963 2.77580735004456  1.52175249706973 2.69129737562105  C 1.45979350896114 2.63699335008486  1.40063566939705 2.57959201584833  1.34450679096984 2.51931442132793  C 1.32413252341583 2.49741110692119  1.30416395464938 2.47512677925128  1.28460108467058 2.45246143831822  C 1.28601172540916 2.45409806347129  1.20423178264387 2.3517329124578  1.23936753085542 2.39853445396638  C 1.15106714603042 2.27810122055959  1.07421770341354 2.14972338508569  1.00981645721134 2.01506687161776  C 0.987132880756579 1.96737239189749  0.968394773966413 1.91790997973783  0.953789082441309 1.86717310977031  C 0.92677055972033 1.78370743193716  0.904666349833552 1.69873893346371  0.887589461923205 1.61270202106189  C 0.855057509284081 1.43191396153182  0.845246390092692 1.24778838807073  0.858382871222287 1.06458104151155  C 0.862101072678184 0.986886731527674  0.869868220462138 0.90943772922642  0.881652860397977 0.83254767542315  C 0.892410095521435 0.792001961469687  0.900380055002925 0.750771610297038  0.905507204708124 0.709143912181283  C 0.906996007598451 0.605802723944994  0.891363577250075 0.764340116039588  0.837305144302559 0.788410752644512  C 0.837305144302559 0.788410752644512  0.62184559001537 0.846523934666778  0.62184559001537 0.846523934666778  C 0.550757044084002 0.840750179344054  0.486163858513878 0.803043182661464  0.446319451253772 0.74405858211331  C 0.437341969825167 0.7085303323809  0.439876656745928 0.714830658839366  0.453923512016096 0.76295956148871  C 0.470078008264632 0.819457455473398  0.482621550026407 0.876920300588659  0.491478564924439 0.935001894472182  C 0.50791737971385 1.07002028777956  0.517470421946924 1.20578381314986  0.520100800490859 1.34176819045104  C 0.522812068082286 1.62986036213202  0.556376439135157 1.91683979254772  0.620222794864913 2.19782334704319  C 0.742898783331605 2.77698714887954  1.22464642969831 3.21216325943643  1.8147563498991 3.27687888645264  C 2.04975955892658 3.27502368404013  2.23980995786162 3.08552674215757  2.24167057869852 2.85120789993025  C 2.23698918566147 2.61809099459816  2.04855144484277 2.43024460449588  1.81475262789201 2.42562969261139  Z " fill-rule="nonzero" fill="#2f2e41" stroke="none" transform="matrix(1 0 0 1 175 54 )" />
  </g>
</svg>