<?xml version="1.0" encoding="utf-8"?>
<svg version="1.1" xmlns:xlink="http://www.w3.org/1999/xlink" width="3px" height="5px" xmlns="http://www.w3.org/2000/svg">
  <g transform="matrix(1 0 0 1 -106 -22 )">
    <path d="M 2.6107133184771136 4.99999967476636  C 2.5059464552175736 5.000131078582784  2.405575280680553 4.9604393040791255  2.3324241545344186 4.889950242815592  C 2.3324241545344186 4.889950242815592  0.11105678588346021 2.7557455856436897  0.11105678588346021 2.7557455856436897  C -0.03701892862782006 2.613579898069049  -0.03701892862782006 2.386245075637237  0.11105678588346021 2.2440793880625955  C 0.11105678588346021 2.2440793880625955  2.3324241545344186 0.1100348843243744  2.3324241545344186 0.1100348843243744  C 2.4827592567428365 -0.0344155103157569  2.729224239177645 -0.03697531222183362  2.8829191004663968 0.1043174067421323  C 3.0366139617551005 0.24561012570609825  3.0393375846282753 0.4772506872653146  2.889002482419857 0.6217010819054685  C 2.889002482419857 0.6217010819054685  0.9339492170174928 2.4999004753456138  0.9339492170174928 2.4999004753456138  C 0.9339492170174928 2.4999004753456138  2.889002482419857 4.37827203372698  2.889002482419857 4.37827203372698  C 2.998547492573005 4.483537288857008  3.0302801198998472 4.640262412697963  2.969528673013653 4.775984995319161  C 2.9087772261275076 4.911707577940358  2.7673803235709054 4.999979395215334  2.6107133184772104 4.999987663258842  Z " fill-rule="nonzero" fill="#ffffff" stroke="none" transform="matrix(1 0 0 1 106 22 )" />
  </g>
</svg>