<?xml version="1.0" encoding="utf-8"?>
<svg version="1.1" xmlns:xlink="http://www.w3.org/1999/xlink" width="3px" height="5px" xmlns="http://www.w3.org/2000/svg">
  <g transform="matrix(1 0 0 1 -106 -22 )">
    <path d="M 2.61071331847711 4.99999967476636  C 2.50594645521757 5.00013107858278  2.40557528068055 4.96043930407913  2.33242415453442 4.88995024281559  C 2.33242415453442 4.88995024281559  0.11105678588346 2.75574558564369  0.11105678588346 2.75574558564369  C -0.0370189286278201 2.61357989806905  -0.0370189286278201 2.38624507563724  0.11105678588346 2.2440793880626  C 0.11105678588346 2.2440793880626  2.33242415453442 0.110034884324374  2.33242415453442 0.110034884324374  C 2.48275925674284 -0.0344155103157569  2.72922423917765 -0.0369753122218336  2.8829191004664 0.104317406742132  C 3.0366139617551 0.245610125706098  3.03933758462828 0.477250687265315  2.88900248241986 0.621701081905468  C 2.88900248241986 0.621701081905468  0.933949217017493 2.49990047534561  0.933949217017493 2.49990047534561  C 0.933949217017493 2.49990047534561  2.88900248241986 4.37827203372698  2.88900248241986 4.37827203372698  C 2.998547492573 4.48353728885701  3.03028011989985 4.64026241269796  2.96952867301365 4.77598499531916  C 2.90877722612751 4.91170757794036  2.76738032357091 4.99997939521533  2.61071331847721 4.99998766325884  Z " fill-rule="nonzero" fill="#ffffff" stroke="none" transform="matrix(1 0 0 1 106 22 )" />
  </g>
</svg>