<?xml version="1.0" encoding="utf-8"?>
<svg version="1.1" xmlns:xlink="http://www.w3.org/1999/xlink" width="3px" height="5px" xmlns="http://www.w3.org/2000/svg">
  <g transform="matrix(1 0 0 1 -111 -22 )">
    <path d="M 0.667621166934204 4.88996215905833  C 0.594463413485327 4.96044685594747  0.49408635681245 5.00013421967141  0.389314942349207 4.99999965893973  C 0.23263833271441 4.99999139089025  0.091232761757108 4.91171950989014  0.0304775904762106 4.77599682928813  C -0.0302775808046869 4.64027414868614  0.0014569919051334 4.48354891170225  0.111008717764308 4.37828358057921  C 0.111008717764308 4.37828358057921  2.06599438395295 2.49991066616461  2.06599438395295 2.49991066616461  C 2.06599438395295 2.49991066616461  0.111008717764308 0.621709916815513  0.111008717764308 0.621709916815513  C 0.0137529965452658 0.528266828398498  -0.023070129118809 0.393160305628182  0.0144102558268752 0.26728366803986  C 0.0518906407725595 0.141407030451515  0.157980374247194 0.0438839337297268  0.292716480411872 0.0114503845583741  C 0.42745258657655 -0.020983164612956  0.570365445715258 0.0166002614355712  0.667621166934252 0.110043349852563  C 0.667621166934252 0.110043349852563  2.88893300254471 2.24408939419933  2.88893300254471 2.24408939419933  C 3.0370223324851 2.3862534445559  3.0370223324851 2.61359191080569  2.88893300254466 2.75575596116226  C 2.88893300254466 2.75575596116226  0.667621166934204 4.88996215905833  0.667621166934204 4.88996215905833  Z " fill-rule="nonzero" fill="#ffffff" stroke="none" transform="matrix(1 0 0 1 111 22 )" />
  </g>
</svg>