<?xml version="1.0" encoding="utf-8"?>
<svg version="1.1" xmlns:xlink="http://www.w3.org/1999/xlink" width="3px" height="5px" xmlns="http://www.w3.org/2000/svg">
  <g transform="matrix(1 0 0 1 -111 -22 )">
    <path d="M 0.667621166934204 4.889962159058331  C 0.5944634134853275 4.960446855947472  0.49408635681244983 5.000134219671411  0.3893149423492074 4.9999996589397275  C 0.23263833271441042 4.9999913908902505  0.09123276175710798 4.911719509890142  0.030477590476210563 4.77599682928813  C -0.03027758080468686 4.6402741486861405  0.0014569919051333996 4.483548911702247  0.11100871776430807 4.378283580579215  C 0.11100871776430807 4.378283580579215  2.0659943839529484 2.4999106661646078  2.0659943839529484 2.4999106661646078  C 2.0659943839529484 2.4999106661646078  0.11100871776430807 0.621709916815513  0.11100871776430807 0.621709916815513  C 0.013752996545265815 0.528266828398498  -0.023070129118809013 0.39316030562818244  0.01441025582687523 0.26728366803986026  C 0.05189064077255949 0.14140703045151534  0.15798037424719358 0.04388393372972682  0.29271648041187165 0.011450384558374051  C 0.42745258657654983 -0.020983164612955966  0.5703654457152585 0.01660026143557124  0.6676211669342522 0.1100433498525634  C 0.6676211669342522 0.1100433498525634  2.888933002544712 2.2440893941993334  2.888933002544712 2.2440893941993334  C 3.037022332485096 2.3862534445559036  3.037022332485096 2.613591910805691  2.888933002544664 2.7557559611622606  C 2.888933002544664 2.7557559611622606  0.667621166934204 4.889962159058331  0.667621166934204 4.889962159058331  Z " fill-rule="nonzero" fill="#ffffff" stroke="none" transform="matrix(1 0 0 1 111 22 )" />
  </g>
</svg>