<?xml version="1.0" encoding="utf-8"?>
<svg version="1.1" xmlns:xlink="http://www.w3.org/1999/xlink" width="5px" height="5px" xmlns="http://www.w3.org/2000/svg">
  <g transform="matrix(1 0 0 1 -185 -22 )">
    <path d="M 5 0.730001539230903  C 4.99854839676974 0.326132502143739  4.67053263782144 -0.000390341365408444  4.26666112708237 0  C 4.26666112708237 0  0.730001319337916 0  0.730001319337916 0  C 0.536375142384264 -5.77259965276433E-05  0.350662713413944 0.0768342427222397  0.213748324516136 0.213748613339252  C 0.076833935618328 0.350662983956263  -5.80433671020081E-05 0.53637538813025  0 0.730001539230903  C 0 0.730001539230903  0 4.2699984607691  0 4.2699984607691  C -5.80433671020081E-05 4.46362461186975  0.076833935618328 4.64933701604374  0.213748324516136 4.78625138666075  C 0.350662713413944 4.92316575727776  0.536375142384264 5.00005772599655  0.730001319337916 4.99999964976255  C 0.730001319337916 4.99999964976255  4.26666112708237 4.99999964976255  4.26666112708237 4.99999964976255  C 4.67053263782144 5.00039034136539  4.99854839676974 4.67386749785626  5 4.2699984607691  C 5 4.2699984607691  5 0.730001539230903  5 0.730001539230903  Z " fill-rule="nonzero" fill="#ffffff" stroke="none" transform="matrix(1 0 0 1 185 22 )" />
  </g>
</svg>