<?xml version="1.0" encoding="utf-8"?>
<svg version="1.1" xmlns:xlink="http://www.w3.org/1999/xlink" width="5px" height="5px" xmlns="http://www.w3.org/2000/svg">
  <g transform="matrix(1 0 0 1 -185 -22 )">
    <path d="M 5 0.7300015392309035  C 4.998548396769744 0.3261325021437387  4.6705326378214425 -0.0003903413654084441  4.2666611270823696 0  C 4.2666611270823696 0  0.730001319337916 0  0.730001319337916 0  C 0.536375142384264 -5.77259965276433E-05  0.35066271341394384 0.07683424272223965  0.2137483245161359 0.21374861333925155  C 0.07683393561832805 0.3506629839562634  -5.804336710200805E-05 0.53637538813025  0 0.7300015392309035  C 0 0.7300015392309035  0 4.269998460769097  0 4.269998460769097  C -5.804336710200805E-05 4.463624611869751  0.07683393561832805 4.649337016043736  0.2137483245161359 4.786251386660749  C 0.35066271341394384 4.9231657572777605  0.536375142384264 5.00005772599655  0.730001319337916 4.999999649762549  C 0.730001319337916 4.999999649762549  4.2666611270823696 4.999999649762549  4.2666611270823696 4.999999649762549  C 4.6705326378214425 5.000390341365385  4.998548396769744 4.673867497856261  5 4.269998460769097  C 5 4.269998460769097  5 0.7300015392309035  5 0.7300015392309035  Z " fill-rule="nonzero" fill="#ffffff" stroke="none" transform="matrix(1 0 0 1 185 22 )" />
  </g>
</svg>