<?xml version="1.0" encoding="utf-8"?>
<svg version="1.1" xmlns:xlink="http://www.w3.org/1999/xlink" width="32px" height="2px" xmlns="http://www.w3.org/2000/svg">
  <g transform="matrix(1 0 0 1 -126 -23 )">
    <path d="M 32 1  C 32 0.4502137256842772  31.57935480722514 0.003540210330174134  31.058290853548687 2.058240171126086E-05  C 31.058290853548687 2.058240171126086E-05  0.9538441205862093 2.058240171126086E-05  0.9538441205862093 2.058240171126086E-05  C 0.6137975508916403 -0.002276328361805918  0.29864593410824025 0.1878147366220568  0.1279911146178425 0.498153128973912  C -0.042663704872599455 0.8084915213257672  -0.042663704872599455 1.191508478674233  0.1279911146178425 1.501846871026088  C 0.29864593410824025 1.8121852633779199  0.6137975508916403 2.002276328361806  0.9538441205862093 1.9999794175982888  C 0.9538441205862093 1.9999794175982888  31.058290853548687 1.9999794175982888  31.058290853548687 1.9999794175982888  C 31.57935480722514 1.9964597896698026  32 1.549786274315723  32 1  Z " fill-rule="nonzero" fill="#ffffff" stroke="none" transform="matrix(1 0 0 1 126 23 )" />
  </g>
</svg>