<?xml version="1.0" encoding="utf-8"?>
<svg version="1.1" xmlns:xlink="http://www.w3.org/1999/xlink" width="32px" height="2px" xmlns="http://www.w3.org/2000/svg">
  <g transform="matrix(1 0 0 1 -126 -23 )">
    <path d="M 32 1  C 32 0.450213725684277  31.5793548072251 0.00354021033017413  31.0582908535487 2.05824017112609E-05  C 31.0582908535487 2.05824017112609E-05  0.953844120586209 2.05824017112609E-05  0.953844120586209 2.05824017112609E-05  C 0.61379755089164 -0.00227632836180592  0.29864593410824 0.187814736622057  0.127991114617842 0.498153128973912  C -0.0426637048725995 0.808491521325767  -0.0426637048725995 1.19150847867423  0.127991114617842 1.50184687102609  C 0.29864593410824 1.81218526337792  0.61379755089164 2.00227632836181  0.953844120586209 1.99997941759829  C 0.953844120586209 1.99997941759829  31.0582908535487 1.99997941759829  31.0582908535487 1.99997941759829  C 31.5793548072251 1.9964597896698  32 1.54978627431572  32 1  Z " fill-rule="nonzero" fill="#ffffff" stroke="none" transform="matrix(1 0 0 1 126 23 )" />
  </g>
</svg>