<?xml version="1.0" encoding="utf-8"?>
<svg version="1.1" xmlns:xlink="http://www.w3.org/1999/xlink" width="15px" height="21px" xmlns="http://www.w3.org/2000/svg">
  <g transform="matrix(1 0 0 1 -144 -52 )">
    <path d="M 7.535236442964049 4.940066476492035  L 12.474576271184219 0.00040630471221447806  L 14.59589661474385 2.12172664827186  C 14.59589661474385 2.12172664827186  11.934386927562883 4.78323633545282  10.156614137649541 6.561066476492215  L 4.913858748077587 6.561009125165227  L 0.47457627118421897 2.12172664827186  L 2.5958966147438503 0.00040630471221447806  L 7.535236442964049 4.940066476492035  Z M 9.0435364429664 8.061066476492215  L 8.656554878786835 8.061068325337438  C 8.840267953700419 7.877354977265832  9.423216284317562 7.2944051064934285  10.156546230413511 6.561066476492215  L 13.535236442965015 6.561066476492215  L 13.535236442965015 9.561066476492215  L 9.0435364429664 9.561066476645088  L 9.0435364429664 8.061066476492215  Z M 6.043536442966399 8.061066476492215  L 6.043541766656318 9.561066476492215  L 1.5352364429650152 9.561066476492215  L 1.5352364429650152 6.561066476492215  L 4.913921377258362 6.56107175434601  L 6.413896589459426 8.061066476492215  L 6.043536442966399 8.061066476492215  Z M 9.0435364429664 15.061066485633846  L 9.04352978270768 12.061066476492215  L 13.535236442965072 12.061066476492215  L 13.535236442965072 15.061066476492215  L 9.0435364429664 15.061066485633846  Z M 1.535236442965072 12.061066476492215  L 6.043536442966399 12.061066476580876  L 6.043541766656347 15.061066476492215  L 1.535236442965072 15.061066476492215  L 1.535236442965072 12.061066476492215  Z M 6.413906549339117 8.061066476492215  L 8.656555330448697 8.061067873674894  C 8.616947457339165 8.10067580567653  8.59589661474385 8.12172664827186  8.59589661474385 8.12172664827186  C 8.046721829468623 8.67090143354708  7.177659419573246 8.705224857626781  6.588498681220528 8.224696920510965  C 6.588498681220528 8.224696920510965  6.474576271184219 8.12172664827186  6.474576271184219 8.12172664827186  L 6.413906549339117 8.061066476492215  Z M 9.0435364429664 9.561089199232484  L 9.043536459789067 12.061066476492215  L 6.043536442966399 12.061088910002951  L 6.043536423534675 9.561066476492215  L 9.0435364429664 9.561089199232484  Z M 6.043536423534675 15.061066476492215  L 9.0435364429664 15.061067038276207  L 9.0435364429664 20.061066476492215  L 6.043536442966399 20.061066476492215  L 6.043536423534675 15.061066476492215  Z " fill-rule="nonzero" fill="#ffd066" stroke="none" transform="matrix(1 0 0 1 144 52 )" />
  </g>
</svg>