<?xml version="1.0" encoding="utf-8"?>
<svg version="1.1" xmlns:xlink="http://www.w3.org/1999/xlink" width="15px" height="21px" xmlns="http://www.w3.org/2000/svg">
  <g transform="matrix(1 0 0 1 -144 -52 )">
    <path d="M 7.53523644296405 4.94006647649204  L 12.4745762711842 0.000406304712214478  L 14.5958966147439 2.12172664827186  C 14.5958966147439 2.12172664827186  11.9343869275629 4.78323633545282  10.1566141376495 6.56106647649221  L 4.91385874807759 6.56100912516523  L 0.474576271184219 2.12172664827186  L 2.59589661474385 0.000406304712214478  L 7.53523644296405 4.94006647649204  Z M 9.0435364429664 8.06106647649221  L 8.65655487878684 8.06106832533744  C 8.84026795370042 7.87735497726583  9.42321628431756 7.29440510649343  10.1565462304135 6.56106647649221  L 13.535236442965 6.56106647649221  L 13.535236442965 9.56106647649221  L 9.0435364429664 9.56106647664509  L 9.0435364429664 8.06106647649221  Z M 6.0435364429664 8.06106647649221  L 6.04354176665632 9.56106647649221  L 1.53523644296502 9.56106647649221  L 1.53523644296502 6.56106647649221  L 4.91392137725836 6.56107175434601  L 6.41389658945943 8.06106647649221  L 6.0435364429664 8.06106647649221  Z M 9.0435364429664 15.0610664856338  L 9.04352978270768 12.0610664764922  L 13.5352364429651 12.0610664764922  L 13.5352364429651 15.0610664764922  L 9.0435364429664 15.0610664856338  Z M 1.53523644296507 12.0610664764922  L 6.0435364429664 12.0610664765809  L 6.04354176665635 15.0610664764922  L 1.53523644296507 15.0610664764922  L 1.53523644296507 12.0610664764922  Z M 6.41390654933912 8.06106647649221  L 8.6565553304487 8.06106787367489  C 8.61694745733917 8.10067580567653  8.59589661474385 8.12172664827186  8.59589661474385 8.12172664827186  C 8.04672182946862 8.67090143354708  7.17765941957325 8.70522485762678  6.58849868122053 8.22469692051097  C 6.58849868122053 8.22469692051097  6.47457627118422 8.12172664827186  6.47457627118422 8.12172664827186  L 6.41390654933912 8.06106647649221  Z M 9.0435364429664 9.56108919923248  L 9.04353645978907 12.0610664764922  L 6.0435364429664 12.061088910003  L 6.04353642353468 9.56106647649221  L 9.0435364429664 9.56108919923248  Z M 6.04353642353468 15.0610664764922  L 9.0435364429664 15.0610670382762  L 9.0435364429664 20.0610664764922  L 6.0435364429664 20.0610664764922  L 6.04353642353468 15.0610664764922  Z " fill-rule="nonzero" fill="#ffd066" stroke="none" transform="matrix(1 0 0 1 144 52 )" />
  </g>
</svg>