<?xml version="1.0" encoding="utf-8"?>
<svg version="1.1" xmlns:xlink="http://www.w3.org/1999/xlink" width="8px" height="5px" xmlns="http://www.w3.org/2000/svg">
  <g transform="matrix(1 0 0 1 -131 -51 )">
    <path d="M 5.623210611225178 0.8288875807215004  C 5.867067611477562 0.8819423555254428  6.903130326063358 1.2791362101386567  6.9927642504804455 0.8002093240707312  C 7.0982159262652536 0.23524766805045752  6.021290687312859 -0.03862968296444658  5.700981222116475 0.00438770201171744  C 5.2396301405579235 0.06747986664341787  4.775642767104738 -0.064440113950145  4.193022258393653 0.09902594895927828  C 3.731671176835083 0.22807810388777033  3.2993193061173436 0.352828520318646  2.835331932664178 0.4747111110844304  C 2.582247910780616 0.540671101381222  2.3832078727367856 0.7586258519270924  2.139350872484401 0.8676032272000485  C 1.9442652722825011 0.9550719099849015  1.5567303637733063 1.2303831738323512  1.2285120228930708 1.2289492609998056  C 1.1507414120017745 1.2289492609998056  1.0149723794288246 1.1974031786839656  0.8726126171193305 1.1629892707030345  C 0.8541585738569842 1.223213609669664  0.8541585738569842 1.2877396871338895  0.834386384647331 1.346530113267994  C 0.570757195185303 2.1007682631833693  0.3058098597759583 2.725954258170252  0 3.389855899635703  C 0.33085463277484933 3.4400428487745542  0.9556558117998746 3.4300054589467965  1.1612865795802594 3.39415763813332  C 1.4315064987788417 3.3439706889944683  1.6147287854549586 3.4113645921237854  1.8625402235492647 3.5045689262388007  C 2.0800343048554413 3.587735870526058  2.2975283861616176 3.678072378975982  2.5150224674677952 3.761239323263239  C 2.6903358784600595 3.8300671392251013  2.857740413768445 3.9447801658281985  3.0475534301811167 3.9849297251392715  C 3.213639819542186 4.019343633120204  3.515495241476213 4.010740156124972  3.5471307442116586 3.7856158414163916  C 3.57612995505249 3.5863019576935122  3.425861317059125 3.336801124831761  3.2953648682754126 3.2149185340659763  C 3.06337118154884 2.9969637835200853  2.279074342899281 3.051452471156553  2.4267066889980224 2.5639221080933745  C 2.492613986363527 2.345967357547504  2.6797907108815657 2.1566908636523823  2.8181960353491387 1.9903569750778884  C 2.9829642787629096 1.7910430913550088  3.1582776897551565 1.7394222293836117  3.379726208903273 1.6605570235939708  C 3.8094417877263798 1.5099961761773968  4.262883993601089 1.454073575708404  4.7123717616338485 1.5329387814980244  C 4.993136848410924 1.5831257306368756  5.248857162189083 1.6304448541106564  5.501941184072645 1.4526396628758584  C 5.697026784274544 1.3149840309521337  5.78797885463895 1.1672910092006508  5.532258540860774 0.9808823409706  C 5.44921534618023 0.92065800200397  5.351672546079279 0.8604336630373612  5.2514934540837155 0.8159823652286516  C 5.400443946129764 0.8073788882334184  5.53357668680809 0.8088128010659644  5.623210611225178 0.8288875807215004  Z " fill-rule="nonzero" fill="#fcd4ca" stroke="none" transform="matrix(1 0 0 1 131 51 )" />
  </g>
</svg>