<?xml version="1.0" encoding="utf-8"?>
<svg version="1.1" xmlns:xlink="http://www.w3.org/1999/xlink" width="8px" height="5px" xmlns="http://www.w3.org/2000/svg">
  <g transform="matrix(1 0 0 1 -131 -51 )">
    <path d="M 5.62321061122518 0.8288875807215  C 5.86706761147756 0.881942355525443  6.90313032606336 1.27913621013866  6.99276425048045 0.800209324070731  C 7.09821592626525 0.235247668050458  6.02129068731286 -0.0386296829644466  5.70098122211648 0.00438770201171744  C 5.23963014055792 0.0674798666434179  4.77564276710474 -0.064440113950145  4.19302225839365 0.0990259489592783  C 3.73167117683508 0.22807810388777  3.29931930611734 0.352828520318646  2.83533193266418 0.47471111108443  C 2.58224791078062 0.540671101381222  2.38320787273679 0.758625851927092  2.1393508724844 0.867603227200048  C 1.9442652722825 0.955071909984902  1.55673036377331 1.23038317383235  1.22851202289307 1.22894926099981  C 1.15074141200177 1.22894926099981  1.01497237942882 1.19740317868397  0.87261261711933 1.16298927070303  C 0.854158573856984 1.22321360966966  0.854158573856984 1.28773968713389  0.834386384647331 1.34653011326799  C 0.570757195185303 2.10076826318337  0.305809859775958 2.72595425817025  0 3.3898558996357  C 0.330854632774849 3.44004284877455  0.955655811799875 3.4300054589468  1.16128657958026 3.39415763813332  C 1.43150649877884 3.34397068899447  1.61472878545496 3.41136459212379  1.86254022354926 3.5045689262388  C 2.08003430485544 3.58773587052606  2.29752838616162 3.67807237897598  2.5150224674678 3.76123932326324  C 2.69033587846006 3.8300671392251  2.85774041376845 3.9447801658282  3.04755343018112 3.98492972513927  C 3.21363981954219 4.0193436331202  3.51549524147621 4.01074015612497  3.54713074421166 3.78561584141639  C 3.57612995505249 3.58630195769351  3.42586131705912 3.33680112483176  3.29536486827541 3.21491853406598  C 3.06337118154884 2.99696378352009  2.27907434289928 3.05145247115655  2.42670668899802 2.56392210809337  C 2.49261398636353 2.3459673575475  2.67979071088157 2.15669086365238  2.81819603534914 1.99035697507789  C 2.98296427876291 1.79104309135501  3.15827768975516 1.73942222938361  3.37972620890327 1.66055702359397  C 3.80944178772638 1.5099961761774  4.26288399360109 1.4540735757084  4.71237176163385 1.53293878149802  C 4.99313684841092 1.58312573063688  5.24885716218908 1.63044485411066  5.50194118407264 1.45263966287586  C 5.69702678427454 1.31498403095213  5.78797885463895 1.16729100920065  5.53225854086077 0.9808823409706  C 5.44921534618023 0.92065800200397  5.35167254607928 0.860433663037361  5.25149345408372 0.815982365228652  C 5.40044394612976 0.807378888233418  5.53357668680809 0.808812801065964  5.62321061122518 0.8288875807215  Z " fill-rule="nonzero" fill="#fcd4ca" stroke="none" transform="matrix(1 0 0 1 131 51 )" />
  </g>
</svg>