<?xml version="1.0" encoding="utf-8"?>
<svg version="1.1" xmlns:xlink="http://www.w3.org/1999/xlink" width="48px" height="51px" xmlns="http://www.w3.org/2000/svg">
  <g transform="matrix(1 0 0 1 -137 -113 )">
    <path d="M 35.986933065207616 45.21032271259458  C 34.26732240792192 44.642998674970144  32.49858001757091 44.023144633861975  31.07980674120816 42.86223155687124  C 28.034395163975585 40.370808534499396  26.17721565410703 39.63163634262101  22.387269352730986 39.66840734505963  C 18.92008074395317 39.70292706163466  15.569296548899324 39.693171489559106  12.592669397958185 37.73980578858504  C 9.940311685248059 35.99881138740953  8.45728921949222 32.1115911296125  9.097513494973974 29.057346641343408  C 9.563887022686181 26.833826636738657  10.235102083639894 25.0620646620941  11.616837591999575 23.24077439845059  C 13.566989458284018 20.669805942231935  13.941146502396728 18.822250676846544  13.247255256951334 15.60891532088383  C 12.417306904555861 11.76822163760097  12.293343762668018 8.485846848488185  13.42866473288477 4.679672881780368  C 14.01522203840288 2.714300322867158  15.397713419578949 1.2854842281093226  16.953299675708163 0  C 15.576855277063217 0.6888934742582324  14.167908347313526 1.5046093854986544  12.870830594389457 2.4591545916604005  C 7.850323347931595 6.151263407946385  2.6431155158255746 17.597551167054128  1.620419595250824 25.627887842476138  C 0.5977236746760736 33.658224517898155  -1.447668166473421 39.93631036282672  1.620419595250824 44.04340620663427  C 4.6885073569750695 48.151252479063025  14.637305366291292 48.98197696272737  23.19151802936922 49.81270144639171  C 31.744974819630755 50.643425930056054  43.54792884754998 48.612766081098776  45.92212536382883 45.65907902806999  C 46.38245190900992 45.08575156147599  46.74451498806041 43.775503188867184  47 41.98498049869272  C 44.03017570440637 44.899645263419295  40.17975957771917 46.59336266145944  35.986933065207616 45.21032271259458  Z " fill-rule="nonzero" fill="#23a1ad" stroke="none" transform="matrix(1 0 0 1 137 113 )" />
  </g>
</svg>