<?xml version="1.0" encoding="utf-8"?>
<svg version="1.1" xmlns:xlink="http://www.w3.org/1999/xlink" width="48px" height="51px" xmlns="http://www.w3.org/2000/svg">
  <g transform="matrix(1 0 0 1 -137 -113 )">
    <path d="M 35.9869330652076 45.2103227125946  C 34.2673224079219 44.6429986749701  32.4985800175709 44.023144633862  31.0798067412082 42.8622315568712  C 28.0343951639756 40.3708085344994  26.177215654107 39.631636342621  22.387269352731 39.6684073450596  C 18.9200807439532 39.7029270616347  15.5692965488993 39.6931714895591  12.5926693979582 37.739805788585  C 9.94031168524806 35.9988113874095  8.45728921949222 32.1115911296125  9.09751349497397 29.0573466413434  C 9.56388702268618 26.8338266367387  10.2351020836399 25.0620646620941  11.6168375919996 23.2407743984506  C 13.566989458284 20.6698059422319  13.9411465023967 18.8222506768465  13.2472552569513 15.6089153208838  C 12.4173069045559 11.768221637601  12.293343762668 8.48584684848819  13.4286647328848 4.67967288178037  C 14.0152220384029 2.71430032286716  15.3977134195789 1.28548422810932  16.9532996757082 0  C 15.5768552770632 0.688893474258232  14.1679083473135 1.50460938549865  12.8708305943895 2.4591545916604  C 7.8503233479316 6.15126340794639  2.64311551582557 17.5975511670541  1.62041959525082 25.6278878424761  C 0.597723674676074 33.6582245178982  -1.44766816647342 39.9363103628267  1.62041959525082 44.0434062066343  C 4.68850735697507 48.151252479063  14.6373053662913 48.9819769627274  23.1915180293692 49.8127014463917  C 31.7449748196308 50.6434259300561  43.54792884755 48.6127660810988  45.9221253638288 45.65907902807  C 46.3824519090099 45.085751561476  46.7445149880604 43.7755031888672  47 41.9849804986927  C 44.0301757044064 44.8996452634193  40.1797595777192 46.5933626614594  35.9869330652076 45.2103227125946  Z " fill-rule="nonzero" fill="#23a1ad" stroke="none" transform="matrix(1 0 0 1 137 113 )" />
  </g>
</svg>