<?xml version="1.0" encoding="utf-8"?>
<svg version="1.1" xmlns:xlink="http://www.w3.org/1999/xlink" width="20px" height="14px" xmlns="http://www.w3.org/2000/svg">
  <g transform="matrix(1 0 0 1 -153 -99 )">
    <path d="M 16.4721016487073 9.93790035811365  C 14.5728994085845 10.4177548731621  15.6976097522478 8.01319256310829  15.3882758374268 7.17817013928382  C 14.8922616049333 7.20235178413666  14.7071240998035 8.00941418110003  14.5412717514581 8.36004803146615  C 14.1848820540833 9.11723578592055  13.3787625004975 9.62429465142844  12.5232729455437 9.61447085820698  C 11.3399357252559 9.60086868297726  11.1756261894532 8.33511071021167  10.6703550817033 7.55827536931433  C 10.457446950804 7.2310674873994  10.3587069480682 7.24315830982582  10.2267964756632 7.63459868588109  C 10.0810006903735 8.06684558762552  10.2206252254922 8.57239310033011  9.81023708912122 8.91018045186815  C 9.05194472436055 9.53285780682866  7.79146687693539 8.82554469488323  7.20288389187701 8.3252869169902  C 6.56107387409382 7.77893287859645  6.29339589792703 6.88043363703328  5.60761572267552 6.34919312667257  C 5.48264790671293 6.47614676214995  5.43096368653087 6.6469296289231  5.39393618550492 6.81620114289294  C 5.22422680580263 7.59983757140514  5.27359680717057 9.08776440625616  3.97300583363396 8.81496522526011  C 2.8698948655691 8.58372824635487  2.12934484505004 6.8169568192946  1.77449796021799 5.91770190132978  C 1.36565263638975 4.88393658387107  0.980720906974112 3.64840566717153  0.983806532059609 2.53076026912954  C 0.985349344602356 2.04410466646623  1.01466278291457 1.57558529744254  1.08254653479548 1.10102051720565  C 1.12188825463556 0.828221336209612  1.21599981974319 0.233504008110189  1.35331013604777 0.00377838200825208  C 1.35331013604777 0.00377838200825208  1.34482466706265 0  1.34482466706265 0  C 0.288769481551611 0.909834387587923  -0.346869286060588 2.82471838937182  0.200829166614972 5.81492991070523  C 1.04860465885503 10.4404251652116  6.47776199678542 12.3923373106764  8.0822870412434 12.8721918257249  C 8.3615361114808 12.9568275827098  8.65467049460293 12.9991454612023  8.94780487772506 12.9999011376039  C 15.6181549062963 13.0172816948419  17.6932377762924 10.7404286966671  19 8.17415163665997  C 18.9953715623718 8.17641866586493  18.9930573435576 8.18246407707814  18.9884289059294 8.18548678268474  C 18.9884289059294 8.18548678268474  17.1517105737878 9.7656061385372  16.4721016487073 9.93790035811365  Z " fill-rule="nonzero" fill="#23a1ad" stroke="none" transform="matrix(1 0 0 1 153 99 )" />
  </g>
</svg>