<?xml version="1.0" encoding="utf-8"?>
<svg version="1.1" xmlns:xlink="http://www.w3.org/1999/xlink" width="20px" height="14px" xmlns="http://www.w3.org/2000/svg">
  <g transform="matrix(1 0 0 1 -153 -99 )">
    <path d="M 16.472101648707316 9.937900358113652  C 14.572899408584458 10.417754873162105  15.697609752247793 8.013192563108294  15.388275837426805 7.178170139283823  C 14.892261604933307 7.202351784136655  14.707124099803544 8.009414181100032  14.541271751458126 8.360048031466153  C 14.184882054083323 9.117235785920554  13.37876250049747 9.624294651428439  12.523272945543672 9.614470858206982  C 11.339935725255916 9.600868682977262  11.175626189453247 8.335110710211666  10.67035508170326 7.558275369314328  C 10.457446950804032 7.231067487399405  10.358706948068155 7.243158309825817  10.226796475663193 7.634598685881088  C 10.081000690373507 8.066845587625522  10.220625225492205 8.572393100330107  9.810237089121218 8.910180451868152  C 9.051944724360553 9.53285780682866  7.7914668769353925 8.825544694883233  7.202883891877013 8.325286916990198  C 6.561073874093821 7.778932878596451  6.293395897927033 6.880433637033284  5.607615722675524 6.349193126672568  C 5.482647906712931 6.476146762149947  5.430963686530869 6.646929628923095  5.393936185504919 6.816201142892945  C 5.2242268058026315 7.599837571405144  5.2735968071705726 9.087764406256161  3.9730058336339624 8.81496522526011  C 2.8698948655691043 8.583728246354875  2.129344845050037 6.8169568192946  1.7744979602179851 5.917701901329779  C 1.36565263638975 4.8839365838710735  0.9807209069741116 3.6484056671715273  0.9838065320596089 2.5307602691295354  C 0.9853493446023562 2.044104666466233  1.0146627829145694 1.5755852974425446  1.0825465347954846 1.1010205172056522  C 1.1218882546355584 0.8282213362096116  1.2159998197431898 0.23350400811018893  1.353310136047767 0.003778382008252078  C 1.353310136047767 0.003778382008252078  1.3448246670626534 0  1.3448246670626534 0  C 0.28876948155161114 0.909834387587923  -0.34686928606058803 2.8247183893718217  0.20082916661497152 5.814929910705232  C 1.0486046588550268 10.44042516521164  6.477761996785425 12.392337310676437  8.082287041243402 12.87219182572488  C 8.3615361114808 12.956827582709812  8.654670494602929 12.999145461202271  8.94780487772506 12.999901137603924  C 15.618154906296269 13.017281694841893  17.693237776292396 10.740428696667122  19 8.174151636659975  C 18.995371562371755 8.176418665864928  18.993057343557634 8.182464077078144  18.98842890592939 8.185486782684741  C 18.98842890592939 8.185486782684741  17.15171057378783 9.765606138537205  16.472101648707316 9.937900358113652  Z " fill-rule="nonzero" fill="#23a1ad" stroke="none" transform="matrix(1 0 0 1 153 99 )" />
  </g>
</svg>