<?xml version="1.0" encoding="utf-8"?>
<svg version="1.1" xmlns:xlink="http://www.w3.org/1999/xlink" width="17px" height="26px" xmlns="http://www.w3.org/2000/svg">
  <g transform="matrix(1 0 0 1 -154 -124 )">
    <path d="M 10.508892349818339 0.0629812267497212  C 10.508892349818339 0.0629812267497212  10.183903807474524 4.377195259105458  10.183903807474524 4.377195259105458  C 13.639318514541065 4.722092453211063  16.763066832503313 6.291374686391554  16.702224228685516 9.789082100527722  C 16.702224228685516 9.789082100527722  10.931822644649332 9.684863165787121  10.931822644649332 9.684863165787121  C 10.924402814915451 8.3615076275341  9.588091479844197 8.054099258874759  8.74519882207576 8.039853505205176  C 8.21542297907694 8.030106410589148  6.500700327577952 7.999365573723219  6.48140877026987 9.070046428468435  C 6.439115740786771 11.464832597975597  17.117734693782634 9.166767598119788  16.9990174180406 15.941748132768113  C 16.92778705259538 20.007036364160676  13.752099926495998 21.46385212100239  9.879690788385565 21.676788649537155  C 9.879690788385565 21.676788649537155  10.053314804158285 26  10.053314804158285 26  L 6.52963766354007 25.937768549759202  C 6.52963766354007 25.937768549759202  6.823462921001602 21.591314127519677  6.823462921001602 21.591314127519677  C 3.244137057379309 21.14819621074487  -0.06362303798308183 19.387720967788447  0.0009294807016483847 15.731810710269052  C 0.0009294807016483847 15.731810710269052  5.770589081764448 15.835279868500734  5.770589081764448 15.835279868500734  C 5.770589081764448 15.835279868500734  5.7676211498709 15.960492545491245  5.7676211498709 15.960492545491245  C 5.770589081764448 17.56876315713585  7.542444422214291 17.915909680768227  8.446921666773902 17.931654987455655  C 9.32171959239801 17.948150070652016  11.037926209843773 17.916659457277152  11.057217767151853 16.74925743288058  C 11.101736745555117 14.259999423248841  0.42756969039957876 16.339129682498484  0.5410930853278966 9.783833664965249  C 0.6086135359061788 6.00196095394642  3.5349943829472927 4.602877988291953  7.1261919741437865 4.353952187328778  C 7.1261919741437865 4.353952187328778  6.985215209200123 0  6.985215209200123 0  L 10.508892349818339 0.0629812267497212  Z " fill-rule="nonzero" fill="#ffd066" stroke="none" transform="matrix(1 0 0 1 154 124 )" />
  </g>
</svg>