<?xml version="1.0" encoding="utf-8"?>
<svg version="1.1" xmlns:xlink="http://www.w3.org/1999/xlink" width="17px" height="26px" xmlns="http://www.w3.org/2000/svg">
  <g transform="matrix(1 0 0 1 -154 -124 )">
    <path d="M 10.5088923498183 0.0629812267497212  C 10.5088923498183 0.0629812267497212  10.1839038074745 4.37719525910546  10.1839038074745 4.37719525910546  C 13.6393185145411 4.72209245321106  16.7630668325033 6.29137468639155  16.7022242286855 9.78908210052772  C 16.7022242286855 9.78908210052772  10.9318226446493 9.68486316578712  10.9318226446493 9.68486316578712  C 10.9244028149155 8.3615076275341  9.5880914798442 8.05409925887476  8.74519882207576 8.03985350520518  C 8.21542297907694 8.03010641058915  6.50070032757795 7.99936557372322  6.48140877026987 9.07004642846844  C 6.43911574078677 11.4648325979756  17.1177346937826 9.16676759811979  16.9990174180406 15.9417481327681  C 16.9277870525954 20.0070363641607  13.752099926496 21.4638521210024  9.87969078838556 21.6767886495372  C 9.87969078838556 21.6767886495372  10.0533148041583 26  10.0533148041583 26  L 6.52963766354007 25.9377685497592  C 6.52963766354007 25.9377685497592  6.8234629210016 21.5913141275197  6.8234629210016 21.5913141275197  C 3.24413705737931 21.1481962107449  -0.0636230379830818 19.3877209677884  0.000929480701648385 15.7318107102691  C 0.000929480701648385 15.7318107102691  5.77058908176445 15.8352798685007  5.77058908176445 15.8352798685007  C 5.77058908176445 15.8352798685007  5.7676211498709 15.9604925454912  5.7676211498709 15.9604925454912  C 5.77058908176445 17.5687631571359  7.54244442221429 17.9159096807682  8.4469216667739 17.9316549874557  C 9.32171959239801 17.948150070652  11.0379262098438 17.9166594572772  11.0572177671519 16.7492574328806  C 11.1017367455551 14.2599994232488  0.427569690399579 16.3391296824985  0.541093085327897 9.78383366496525  C 0.608613535906179 6.00196095394642  3.53499438294729 4.60287798829195  7.12619197414379 4.35395218732878  C 7.12619197414379 4.35395218732878  6.98521520920012 0  6.98521520920012 0  L 10.5088923498183 0.0629812267497212  Z " fill-rule="nonzero" fill="#ffd066" stroke="none" transform="matrix(1 0 0 1 154 124 )" />
  </g>
</svg>