<?xml version="1.0" encoding="utf-8"?>
<svg version="1.1" xmlns:xlink="http://www.w3.org/1999/xlink" width="10px" height="13px" xmlns="http://www.w3.org/2000/svg">
  <g transform="matrix(1 0 0 1 -178 -151 )">
    <path d="M 3.19419626872009 0  C 3.19419626872009 0  3.93096150866088 2.09893891597362  3.93096150866088 2.09893891597362  C 5.73176921521115 1.56879839403499  7.62183434721654 1.68213363923143  8.3210175132815 3.34413535990823  C 8.3210175132815 3.34413535990823  5.41153862739417 4.4521365070261  5.41153862739417 4.4521365070261  C 5.13202195294267 3.82953828505879  4.39917151236395 3.95256667622598  3.97480726151602 4.1151132778893  C 3.70703498515071 4.21726412388873  2.84264728600658 4.54608546028104  3.05639533117538 5.05534843705191  C 3.53478381321982 6.19317464869515  8.39931350052281 2.96684829366217  9.75226816005275 6.18571838256381  C 10.5641975477452 8.11689131058216  9.27779447737038 9.44186980212217  7.38538046574776 10.3179810725552  C 7.38538046574776 10.3179810725552  8.37269286486076 12.3229710352739  8.37269286486076 12.3229710352739  L 6.5969398742277 13  C 6.5969398742277 13  5.83825175785935 10.8913679380556  5.83825175785935 10.8913679380556  C 3.95445030483328 11.4006309148265  1.93206495439007 11.2336105534844  1.202346353301 9.49630054488099  C 1.202346353301 9.49630054488099  4.1110422793159 8.38829939776312  4.1110422793159 8.38829939776312  C 4.1110422793159 8.38829939776312  4.13609699523313 8.44794952681388  4.13609699523313 8.44794952681388  C 4.47276974037079 9.20550616575853  5.43189558407692 9.01388012618297  5.88757822982138 8.84014912532263  C 6.32838463798999 8.67163751075423  7.18024497917551 8.31299110983653  6.94692293719639 7.7589905362776  C 6.45052637808644 6.57568110123315  1.54215093792831 9.6976197304273  0.233042031253505 6.58388299397763  C -0.521731285752784 4.78617722971035  0.651142603122134 3.53948953254947  2.39636015873108 2.70140521938629  C 2.39636015873108 2.70140521938629  1.41844327808703 0.677028964726127  1.41844327808703 0.677028964726127  L 3.19419626872009 0  Z " fill-rule="nonzero" fill="#ffd066" stroke="none" transform="matrix(1 0 0 1 178 151 )" />
  </g>
</svg>