<?xml version="1.0" encoding="utf-8"?>
<svg version="1.1" xmlns:xlink="http://www.w3.org/1999/xlink" width="10px" height="13px" xmlns="http://www.w3.org/2000/svg">
  <g transform="matrix(1 0 0 1 -178 -151 )">
    <path d="M 3.1941962687200895 0  C 3.1941962687200895 0  3.930961508660879 2.0989389159736165  3.930961508660879 2.0989389159736165  C 5.731769215211155 1.568798394034989  7.621834347216541 1.682133639231431  8.321017513281497 3.34413535990823  C 8.321017513281497 3.34413535990823  5.4115386273941715 4.452136507026096  5.4115386273941715 4.452136507026096  C 5.132021952942672 3.829538285058791  4.399171512363951 3.9525666762259837  3.9748072615160153 4.1151132778893045  C 3.7070349851507127 4.217264123888731  2.8426472860065797 4.546085460281043  3.056395331175377 5.055348437051908  C 3.5347838132198177 6.1931746486951536  8.399313500522808 2.9668482936621747  9.752268160052752 6.185718382563809  C 10.564197547745211 8.116891310582162  9.27779447737038 9.441869802122168  7.38538046574776 10.317981072555204  C 7.38538046574776 10.317981072555204  8.372692864860756 12.322971035273873  8.372692864860756 12.322971035273873  L 6.596939874227704 13  C 6.596939874227704 13  5.838251757859347 10.891367938055634  5.838251757859347 10.891367938055634  C 3.954450304833275 11.400630914826499  1.9320649543900732 11.23361055348437  1.2023463533010021 9.496300544880986  C 1.2023463533010021 9.496300544880986  4.111042279315905 8.38829939776312  4.111042279315905 8.38829939776312  C 4.111042279315905 8.38829939776312  4.136096995233129 8.447949526813881  4.136096995233129 8.447949526813881  C 4.472769740370789 9.205506165758532  5.4318955840769165 9.013880126182967  5.887578229821378 8.840149125322625  C 6.328384637989987 8.67163751075423  7.18024497917551 8.312991109836535  6.946922937196386 7.758990536277604  C 6.450526378086439 6.575681101233154  1.542150937928314 9.697619730427302  0.2330420312535052 6.583882993977632  C -0.521731285752784 4.7861772297103515  0.6511426031221341 3.539489532549469  2.396360158731077 2.701405219386293  C 2.396360158731077 2.701405219386293  1.4184432780870329 0.6770289647261265  1.4184432780870329 0.6770289647261265  L 3.1941962687200895 0  Z " fill-rule="nonzero" fill="#ffd066" stroke="none" transform="matrix(1 0 0 1 178 151 )" />
  </g>
</svg>