<?xml version="1.0" encoding="utf-8"?>
<svg version="1.1" xmlns:xlink="http://www.w3.org/1999/xlink" width="39px" height="112px" xmlns="http://www.w3.org/2000/svg">
  <g transform="matrix(1 0 0 1 -91 -52 )">
    <path d="M 1.97107372208423 111  C 1.97107372208423 111  1.77401981917606 111  1.77401981917606 111  C 0.573656255686183 111  -0.279781422402006 109.835364485981  0.0851846090405814 108.695626168224  C 0.0851846090405814 108.695626168224  34.4988447373478 1.22964485981308  34.4988447373478 1.22964485981308  C 34.7333666358793 0.497943925233644  35.4175044818915 0  36.1876799474833 0  C 36.1876799474833 0  36.2265356466483 0  36.2265356466483 0  C 37.4255115065965 0  38.2789491846847 1.16325233644859  37.9153708567837 2.3029906542056  C 37.9153708567837 2.3029906542056  3.66129663576133 109.767588785047  3.66129663576133 109.767588785047  C 3.42677473722977 110.502056074766  2.74402459475923 111  1.97107372208423 111  Z " fill-rule="nonzero" fill="#2f2e41" stroke="none" transform="matrix(1 0 0 1 91 52 )" />
  </g>
</svg>