<?xml version="1.0" encoding="utf-8"?>
<svg version="1.1" xmlns:xlink="http://www.w3.org/1999/xlink" width="39px" height="112px" xmlns="http://www.w3.org/2000/svg">
  <g transform="matrix(1 0 0 1 -91 -52 )">
    <path d="M 1.9710737220842343 111  C 1.9710737220842343 111  1.774019819176063 111  1.774019819176063 111  C 0.5736562556861828 111  -0.2797814224020061 109.83536448598132  0.08518460904058145 108.69562616822431  C 0.08518460904058145 108.69562616822431  34.49884473734778 1.229644859813078  34.49884473734778 1.229644859813078  C 34.733366635879335 0.4979439252336441  35.41750448189149 0  36.18767994748326 0  C 36.18767994748326 0  36.22653564664826 0  36.22653564664826 0  C 37.425511506596536 0  38.27894918468473 1.1632523364485894  37.915370856783746 2.3029906542055967  C 37.915370856783746 2.3029906542055967  3.66129663576133 109.76758878504674  3.66129663576133 109.76758878504674  C 3.4267747372297737 110.50205607476636  2.7440245947592286 111  1.9710737220842343 111  Z " fill-rule="nonzero" fill="#2f2e41" stroke="none" transform="matrix(1 0 0 1 91 52 )" />
  </g>
</svg>