<?xml version="1.0" encoding="utf-8"?>
<svg version="1.1" xmlns:xlink="http://www.w3.org/1999/xlink" width="6px" height="13px" xmlns="http://www.w3.org/2000/svg">
  <g transform="matrix(1 0 0 1 -107 -24 )">
    <path d="M 1.1813687223523295 8.744086021505376  C 1.4298724954462694 7.300358422939063  1.2919594067135065 5.697491039426526  0.714285714285713 4.358422939068107  C 0.515222482435598 3.8967741935483904  0.3005464480874336 3.4652329749103945  0.057246942492849354 3.049462365591409  C 0.8456934686442854 2.012903225806446  1.6055165235493116 0.9261648745519719  2.107728337236538 0  C 2.1428571428571392 0.11326164874553073  2.16887848035389 0.22795698924732036  2.206609419724169 0.33978494623657185  C 2.555295342180584 1.3720430107526989  2.93000260213375 2.434408602150547  3.4608378870673966 3.3706093189964124  C 3.7835024720270605 3.9412186379928436  4.410616705698669 4.5218637992831665  4.661722612542278 5.075268817204307  C 4.761904761904762 5.2989247311827885  4.876398646890452 5.51111111111112  5 5.711827956989257  C 4.180327868852457 7.023655913978492  2.0569867291178783 10.490322580645167  1.544366380431959 12  C 1.544366380431959 12  0.8561020036429879 11.585663082437275  0 10.921863799283162  C 0.5893832943013305 10.377060931899635  1.029143897996361 9.628673835125454  1.1813687223523295 8.744086021505376  Z " fill-rule="nonzero" fill="#e8a393" stroke="none" transform="matrix(1 0 0 1 107 24 )" />
  </g>
</svg>