<?xml version="1.0" encoding="utf-8"?>
<svg version="1.1" xmlns:xlink="http://www.w3.org/1999/xlink" width="6px" height="13px" xmlns="http://www.w3.org/2000/svg">
  <g transform="matrix(1 0 0 1 -107 -24 )">
    <path d="M 1.18136872235233 8.74408602150538  C 1.42987249544627 7.30035842293906  1.29195940671351 5.69749103942653  0.714285714285713 4.35842293906811  C 0.515222482435598 3.89677419354839  0.300546448087434 3.46523297491039  0.0572469424928494 3.04946236559141  C 0.845693468644285 2.01290322580645  1.60551652354931 0.926164874551972  2.10772833723654 0  C 2.14285714285714 0.113261648745531  2.16887848035389 0.22795698924732  2.20660941972417 0.339784946236572  C 2.55529534218058 1.3720430107527  2.93000260213375 2.43440860215055  3.4608378870674 3.37060931899641  C 3.78350247202706 3.94121863799284  4.41061670569867 4.52186379928317  4.66172261254228 5.07526881720431  C 4.76190476190476 5.29892473118279  4.87639864689045 5.51111111111112  5 5.71182795698926  C 4.18032786885246 7.02365591397849  2.05698672911788 10.4903225806452  1.54436638043196 12  C 1.54436638043196 12  0.856102003642988 11.5856630824373  0 10.9218637992832  C 0.589383294301331 10.3770609318996  1.02914389799636 9.62867383512545  1.18136872235233 8.74408602150538  Z " fill-rule="nonzero" fill="#e8a393" stroke="none" transform="matrix(1 0 0 1 107 24 )" />
  </g>
</svg>