<?xml version="1.0" encoding="utf-8"?>
<svg version="1.1" xmlns:xlink="http://www.w3.org/1999/xlink" width="23px" height="59px" xmlns="http://www.w3.org/2000/svg">
  <g transform="matrix(1 0 0 1 -81 -51 )">
    <path d="M 5.0311138876253 4.55319557443541  C 7.11553063433624 5.25614995080039  10.9070248235773 6.26394988840089  13.7697909099085 7.28706170350637  C 15.7650943154106 12.3246694026448  21.6549292109265 24.2164302685578  21.962648717288 29.5922912616699  C 22.2996085387336 35.5249478004176  20.2458245030632 58  20.2458245030632 58  C 20.2458245030632 58  14.1262442747435 58  14.1262442747435 58  C 14.1262442747435 58  13.5595391204941 32.6671946624427  12.7018232113598 31.0385676914585  C 9.87525941989475 25.671058631531  6.7535076856757 21.4171406628747  4.9782028412826 18.077759377925  C 2.00126028652776 12.4750041999664  0.990380822190996 8.87671298629611  0.466839942589587 6.25420596635226  C 0.235702213829389 5.09607123143015  -0.777962042420156 1.21520627834978  1.18810104799791 0  C 2.81441952505762 0.460748314013492  3.28644175427272 3.96438428492572  5.0311138876253 4.55319557443541  Z " fill-rule="nonzero" fill="#4584ff" stroke="none" transform="matrix(1 0 0 1 81 51 )" />
  </g>
</svg>