<?xml version="1.0" encoding="utf-8"?>
<svg version="1.1" xmlns:xlink="http://www.w3.org/1999/xlink" width="23px" height="59px" xmlns="http://www.w3.org/2000/svg">
  <g transform="matrix(1 0 0 1 -81 -51 )">
    <path d="M 5.0311138876253025 4.553195574435406  C 7.115530634336242 5.256149950800388  10.90702482357732 6.26394988840089  13.769790909908453 7.287061703506372  C 15.765094315410643 12.324669402644776  21.654929210926525 24.216430268557847  21.962648717288 29.592291261669903  C 22.299608538733594 35.5249478004176  20.24582450306315 58  20.24582450306315 58  C 20.24582450306315 58  14.126244274743458 58  14.126244274743458 58  C 14.126244274743458 58  13.559539120494051 32.667194662442704  12.701823211359823 31.03856769145847  C 9.87525941989475 25.67105863153095  6.753507685675697 21.41714066287469  4.978202841282605 18.07775937792499  C 2.0012602865277644 12.475004199966405  0.9903808221909963 8.876712986296106  0.46683994258958733 6.254205966352264  C 0.23570221382938888 5.09607123143015  -0.7779620424201559 1.2152062783497797  1.188101047997912 0  C 2.814419525057622 0.4607483140134922  3.2864417542727233 3.964384284925719  5.0311138876253025 4.553195574435406  Z " fill-rule="nonzero" fill="#4584ff" stroke="none" transform="matrix(1 0 0 1 81 51 )" />
  </g>
</svg>