<?xml version="1.0" encoding="utf-8"?>
<svg version="1.1" xmlns:xlink="http://www.w3.org/1999/xlink" width="14px" height="24px" xmlns="http://www.w3.org/2000/svg">
  <g transform="matrix(1 0 0 1 -93 -37 )">
    <path d="M 10.532485875706215 9.914378506052548  C 10.75423728813559 9.483850014762329  10.987288135593225 9.026158842633599  11.233050847457632 8.53994685562444  C 11.262711864406784 8.482905225863588  11.292372881355927 8.421789193976961  11.322033898305081 8.363389430174196  C 11.555084745762707 7.901623855919688  11.796610169491531 7.419486271036307  12.0409604519774 6.9278417478594605  C 12.083333333333332 6.846353705343956  12.1228813559322 6.764865662828453  12.163841807909606 6.683377620312949  C 12.4364406779661 6.134691467375253  12.713276836158188 5.577856510186003  12.98728813559322 5.021021552996755  C 12.98728813559322 5.021021552996755  13 4.995217006200173  13 4.995217006200173  C 12.786723163841803 4.901505757307343  12.572033898305088 4.803720106288741  12.382768361581924 4.6746973723058645  C 10.877118644067796 3.643873634484785  9.862994350282491 2.1295541777384086  8.817796610169493 0.6940064954236729  C 8.641242937853109 0.45361677000295675  8.439265536723164 0.22952465308532205  8.24435028248588 0  C 6.950564971751412 2.0059639799232407  6.7175141242937855 5.042751697667543  6.347457627118644 6.923767345733685  C 5.322033898305085 12.129495128432234  3.1624293785310797 18.342958370239145  0 22.422793032181858  C 2.3135593220338952 22.91307942131679  4.0748587570621435 23  4.0748587570621435 23  C 4.0748587570621435 23  7.701977401129947 15.235547682314737  9.785310734463271 11.344493652199578  C 9.968926553672317 10.999527605550638  10.179378531073446 10.596161795098894  10.402542372881358 10.16699143785061  C 10.44491525423729 10.084145261293173  10.488700564971753 9.99994095069383  10.532485875706215 9.914378506052548  Z " fill-rule="nonzero" fill="#c9071e" stroke="none" transform="matrix(1 0 0 1 93 37 )" />
  </g>
</svg>