<?xml version="1.0" encoding="utf-8"?>
<svg version="1.1" xmlns:xlink="http://www.w3.org/1999/xlink" width="14px" height="24px" xmlns="http://www.w3.org/2000/svg">
  <g transform="matrix(1 0 0 1 -93 -37 )">
    <path d="M 10.5324858757062 9.91437850605255  C 10.7542372881356 9.48385001476233  10.9872881355932 9.0261588426336  11.2330508474576 8.53994685562444  C 11.2627118644068 8.48290522586359  11.2923728813559 8.42178919397696  11.3220338983051 8.3633894301742  C 11.5550847457627 7.90162385591969  11.7966101694915 7.41948627103631  12.0409604519774 6.92784174785946  C 12.0833333333333 6.84635370534396  12.1228813559322 6.76486566282845  12.1638418079096 6.68337762031295  C 12.4364406779661 6.13469146737525  12.7132768361582 5.577856510186  12.9872881355932 5.02102155299676  C 12.9872881355932 5.02102155299676  13 4.99521700620017  13 4.99521700620017  C 12.7867231638418 4.90150575730734  12.5720338983051 4.80372010628874  12.3827683615819 4.67469737230586  C 10.8771186440678 3.64387363448478  9.86299435028249 2.12955417773841  8.81779661016949 0.694006495423673  C 8.64124293785311 0.453616770002957  8.43926553672316 0.229524653085322  8.24435028248588 0  C 6.95056497175141 2.00596397992324  6.71751412429379 5.04275169766754  6.34745762711864 6.92376734573369  C 5.32203389830508 12.1294951284322  3.16242937853108 18.3429583702391  0 22.4227930321819  C 2.3135593220339 22.9130794213168  4.07485875706214 23  4.07485875706214 23  C 4.07485875706214 23  7.70197740112995 15.2355476823147  9.78531073446327 11.3444936521996  C 9.96892655367232 10.9995276055506  10.1793785310734 10.5961617950989  10.4025423728814 10.1669914378506  C 10.4449152542373 10.0841452612932  10.4887005649718 9.99994095069383  10.5324858757062 9.91437850605255  Z " fill-rule="nonzero" fill="#c9071e" stroke="none" transform="matrix(1 0 0 1 93 37 )" />
  </g>
</svg>