<?xml version="1.0" encoding="utf-8"?>
<svg version="1.1" xmlns:xlink="http://www.w3.org/1999/xlink" width="12px" height="17px" xmlns="http://www.w3.org/2000/svg">
  <g transform="matrix(1 0 0 1 -109 -17 )">
    <path d="M 2.06908731682801 0.843720625860139  C 2.06908731682801 0.843720625860139  6.42491460817468 -1.09004654313829  8.36281887853766 0.89755443715826  C 10.3007231489006 2.88232205896544  11.3265917930843 4.41941903945138  10.9069182568274 5.48476183145637  C 10.4872447205704 6.54868794421669  9.04033105798515 9.2205449996973  8.86066689703855 10.5267232632992  C 8.67963125394732 11.8343182061457  8.88809653993116 13.9522536769535  8.5438545216289 14.3078401673701  C 8.20098398547126 14.6634266577867  6.91453373380779 13.7355017525164  6.71978326927024 13.8304192619104  C 6.52503280473271 13.9239200920598  3.56811730090922 16.0985227326551  2.89746253218487 15.9965218270376  C 2.22543628131589 15.8959376006648  -0.370779418469766 10.7448918669811  0.0447796713533007 8.98254288658981  C 0.461710243320994 7.22019390619857  0.0722093142459065 2.83132160615671  2.06908731682801 0.843720625860139  Z " fill-rule="nonzero" fill="#fcd4ca" stroke="none" transform="matrix(1 0 0 1 109 17 )" />
  </g>
</svg>