<?xml version="1.0" encoding="utf-8"?>
<svg version="1.1" xmlns:xlink="http://www.w3.org/1999/xlink" width="12px" height="17px" xmlns="http://www.w3.org/2000/svg">
  <g transform="matrix(1 0 0 1 -109 -17 )">
    <path d="M 2.0690873168280084 0.8437206258601394  C 2.0690873168280084 0.8437206258601394  6.424914608174676 -1.0900465431382864  8.362818878537656 0.8975544371582596  C 10.300723148900646 2.882322058965437  11.326591793084305 4.419419039451382  10.906918256827353 5.484761831456373  C 10.487244720570395 6.54868794421669  9.040331057985153 9.220544999697303  8.860666897038548 10.52672326329917  C 8.679631253947319 11.834318206145731  8.888096539931164 13.952253676953546  8.543854521628898 14.307840167370115  C 8.200983985471257 14.663426657786662  6.914533733807787 13.73550175251635  6.719783269270242 13.830419261910423  C 6.5250328047327075 13.923920092059802  3.5681173009092184 16.098522732655105  2.8974625321848673 15.9965218270376  C 2.2254362813158894 15.89593760066479  -0.3707794184697656 10.74489186698106  0.0447796713533007 8.982542886589814  C 0.4617102433209943 7.220193906198568  0.07220931424590649 2.8313216061567057  2.0690873168280084 0.8437206258601394  Z " fill-rule="nonzero" fill="#fcd4ca" stroke="none" transform="matrix(1 0 0 1 109 17 )" />
  </g>
</svg>