<?xml version="1.0" encoding="utf-8"?>
<svg version="1.1" xmlns:xlink="http://www.w3.org/1999/xlink" width="18px" height="14px" xmlns="http://www.w3.org/2000/svg">
  <g transform="matrix(1 0 0 1 -106 -13 )">
    <path d="M 8.39663665793738 8.6109364265664  C 8.58603341396286 8.80829412390555  8.72092750638387 9.17440695375208  8.85445903221478 9.3503127274674  C 9.10653385138538 9.68067235127424  9.39131026871864 9.98958005145724  9.64747278765957 10.3199396752641  C 10.1625229587217 10.9835191793609  10.6939239288651 11.6385179140082  11.463774052278 11.9803185637477  C 12.602879721611 12.4865839612699  13.0811405947401 11.309588418443  14.0240366750972 11.0392941807828  C 14.4818590493746 10.9077223825567  14.9001669925387 11.2924268795439  15.4070417640601 11.1422634141772  C 15.8893903369596 10.9978204617768  16.3513004110073 10.5802230152331  16.6687784265032 10.188367877038  C 17.4699675814887 9.1958588773759  16.6360768283405 8.27199603331005  16.0774245263949 7.43108062725629  C 15.4247551297316 6.44715239704374  15.7803850097506 5.91657481941459  15.9329924678431 4.88545235722964  C 16.3090608467138 2.33696383071981  13.0157373984148 3.33233308686506  12.0333268869445 2.18537023711149  C 11.5305398151934 1.59901765806039  11.2621141969415 0.675154813994537  10.4459368094648 0.500679168520801  C 9.74148988237726 0.350515703154075  9.0493060546007 0.58505673477451  8.36666019295493 0.736650328382831  C 7.65812556609704 0.892534306715916  7.48780474233312 0.407720832817583  6.85012357816103 0.158878518781281  C 6.38276323775284 -0.024177896141984  5.70147994269718 -0.0284682808667482  5.20005543753622 0.0430381312126481  C 4.0800257004647 0.200352237787328  2.86325373549529 0.885383665507983  2.29778860059909 1.92937728186723  C 1.8181651608799 2.81748691989338  2.05525174755927 3.75565104637512  1.42438341633774 4.57654465704664  C 0.922958911176767 5.22725300696918  0.23895048294088 5.97664020556129  0.0522788600956276 6.8218459963398  C -0.217509324746415 8.04746589938072  0.636819927253388 9.02567361662693  0.79624021829641 10.1769268511053  C 0.94884767638888 11.2709749559201  1.47752351335207 12.447970498747  2.45720889164212 13  C 3.03493712584932 12.4851538330283  3.81160008221277 11.4397300884275  3.5622503962224 10.6889127615938  C 3.46278303514427 10.3885858308603  3.2365969811858 10.1454640297903  3.14666758623844 9.59200440029579  C 2.98315959542509 8.58376398997622  4.33755078599575 7.67134217184308  5.27772173317256 8.80829412390555  C 5.84182430147865 9.49332555162621  4.59643843811689 11.6041948362101  5.5475099180146 11.9474256141912  C 6.2696702107736 12.2077089541602  6.40456430319462 10.6874826333522  6.52310759653431 10.2355621090104  C 6.67707762121689 9.6377685040266  7.45919084394078 8.48222488482348  8.13229873945578 8.47650437185714  C 8.23176610053391 8.47650437185714  8.31897036230103 8.52941911679588  8.39663665793738 8.6109364265664  Z " fill-rule="nonzero" fill="#110239" stroke="none" transform="matrix(1 0 0 1 106 13 )" />
  </g>
</svg>