<?xml version="1.0" encoding="utf-8"?>
<svg version="1.1" xmlns:xlink="http://www.w3.org/1999/xlink" width="18px" height="14px" xmlns="http://www.w3.org/2000/svg">
  <g transform="matrix(1 0 0 1 -106 -13 )">
    <path d="M 8.396636657937378 8.6109364265664  C 8.586033413962857 8.808294123905554  8.720927506383873 9.174406953752083  8.854459032214782 9.350312727467395  C 9.10653385138538 9.680672351274238  9.391310268718641 9.989580051457239  9.647472787659574 10.319939675264061  C 10.162522958721654 10.983519179360915  10.693923928865072 11.638517914008219  11.463774052277966 11.980318563747739  C 12.60287972161104 12.486583961269892  13.081140594740114 11.309588418442972  14.02403667509715 11.039294180782829  C 14.481859049374554 10.907722382556734  14.900166992538733 11.292426879543914  15.407041764060146 11.142263414177169  C 15.889390336959552 10.997820461776781  16.351300411007287 10.58022301523308  16.668778426503223 10.188367877037965  C 17.469967581488692 9.195858877375905  16.63607682834055 8.271996033310051  16.07742452639491 7.43108062725629  C 15.42475512973159 6.447152397043737  15.780385009750649 5.916574819414594  15.93299246784311 4.885452357229635  C 16.30906084671384 2.3369638307198106  13.015737398414768 3.3323330868650616  12.033326886944499 2.18537023711149  C 11.53053981519342 1.5990176580603914  11.262114196941495 0.6751548139945375  10.445936809464808 0.5006791685208007  C 9.741489882377257 0.3505157031540746  9.049306054600702 0.5850567347745101  8.366660192954932 0.736650328382831  C 7.658125566097039 0.892534306715916  7.4878047423331235 0.4077208328175834  6.850123578161029 0.15887851878128112  C 6.38276323775284 -0.024177896141984012  5.701479942697178 -0.0284682808667482  5.200055437536218 0.043038131212648115  C 4.080025700464705 0.2003522377873281  2.8632537354952925 0.8853836655079826  2.2977886005990946 1.9293772818672337  C 1.8181651608799034 2.8174869198933794  2.055251747559273 3.755651046375122  1.4243834163377376 4.576544657046635  C 0.9229589111767674 5.2272530069691765  0.23895048294087956 5.976640205561292  0.05227886009562761 6.821845996339797  C -0.21750932474641513 8.047465899380718  0.6368199272533883 9.025673616626932  0.7962402182964097 10.176926851105268  C 0.9488476763888805 11.270974955920094  1.4775235133520717 12.447970498747035  2.4572088916421153 13  C 3.0349371258493165 12.485153833028319  3.811600082212771 11.439730088427472  3.5622503962223977 10.68891276159378  C 3.4627830351442714 10.388585830860286  3.2365969811857953 10.145464029790324  3.146667586238445 9.592004400295785  C 2.9831595954250902 8.58376398997622  4.337550785995746 7.671342171843085  5.277721733172557 8.808294123905554  C 5.841824301478647 9.493325551626208  4.596438438116893 11.604194836210107  5.5475099180146 11.94742561419122  C 6.269670210773602 12.20770895416024  6.4045643031946184 10.687482633352186  6.523107596534309 10.235562109010372  C 6.677077621216887 9.637768504026596  7.459190843940784 8.482224884823475  8.132298739455779 8.476504371857137  C 8.231766100533907 8.476504371857137  8.318970362301028 8.52941911679588  8.396636657937378 8.6109364265664  Z " fill-rule="nonzero" fill="#110239" stroke="none" transform="matrix(1 0 0 1 106 13 )" />
  </g>
</svg>