<?xml version="1.0" encoding="utf-8"?>
<svg version="1.1" xmlns:xlink="http://www.w3.org/1999/xlink" width="9px" height="6px" xmlns="http://www.w3.org/2000/svg">
  <g transform="matrix(1 0 0 1 -119 -65 )">
    <path d="M 0.9295527574943832 0.9199584512229355  C 1.196454044299704 0.8974687858646414  1.5133171483395145 0.8299997897897995  1.6066668594881697 0.8623286837423305  C 2.047119721950148 1.0183507371654295  2.783399133826879 0.7920484794976895  3.092373529882305 0.6669497159422021  C 3.794468540493336 0.3844232948787368  4.8660180417068 -0.11316055117335196  5.586520037614753 0.023183045061252076  C 6.005936345451675 0.10189687381527131  8.519804623145104 0.728796295677506  7.903170615698348 1.8307898982335349  C 7.820339181862212 1.9783783271472966  7.512679570470858 2.210303001154635  7.4232742133144 2.1751628990323044  C 7.166891203821607 2.071148196750232  6.442444853921456 1.790027379771646  6.442444853921456 1.790027379771646  C 6.442444853921456 1.790027379771646  6.995969197493075 2.0050848047602696  7.111670247930849 2.093637862108506  C 7.208964313071702 2.1681348786078463  7.394348950704959 2.2566879359560827  7.458773399244173 2.3635138464079546  C 7.596825788971057 2.5926273122454946  7.387775027384627 3.083183137873125  7.169520773149741 3.1647081747969037  C 6.95389608824298 3.2448276076358025  6.785603651242583 3.011497329543584  6.60284858293746 2.9046714190917324  C 6.606792936929657 2.907482627261511  6.613366860249989 2.91169943951619  6.615996429578123 2.9131050436010897  C 6.790862789898842 3.060693472514831  7.169520773149741 3.1647081747969037  6.934174318281996 3.731166621008754  C 6.672532170132943 4.365094063295446  6.492406671155955 3.965902503185872  6.239968015655358 3.89843350711101  C 6.1531922278270255 3.874538237667836  6.05984251667837 3.8281533028663683  5.96912237485784 3.7845795762346803  C 6.063786870670567 3.842209343715285  6.41614916064015 4.020721062496698  6.48977710182782 4.089595662656439  C 6.723808772031494 4.31308671215442  6.204468829725585 5.059462481232545  5.7377202739822915 4.9962102974123805  C 5.452412001880057 4.958258987120271  4.773983115222207 4.518304908548786  4.6135793862062044 4.564689843350254  C 4.4334538872292155 4.61810279857618  4.217829202322455 4.61669719449128  4.032444564689207 4.634970047594896  C 3.4605132358206663 4.6940054191604  2.8596566443426936 4.526738533058144  2.3337427787164446 4.273729797777411  C 2.098396323848709 4.159875866901101  1.6316477681054136 3.9616856909311933  1.39761609790174 3.8281533028663683  C 0.8151664917206712 3.4950251347467365  0.17092200632853183 2.9637067906572163  0 2.810495945403897  C 0.3878614758993554 2.0205464496940855  1.0084398373383223 1.8195450655543979  0.9295527574943832 0.9199584512229355  Z " fill-rule="nonzero" fill="#fcd4ca" stroke="none" transform="matrix(1 0 0 1 119 65 )" />
  </g>
</svg>