<?xml version="1.0" encoding="utf-8"?>
<svg version="1.1" xmlns:xlink="http://www.w3.org/1999/xlink" width="9px" height="6px" xmlns="http://www.w3.org/2000/svg">
  <g transform="matrix(1 0 0 1 -119 -65 )">
    <path d="M 0.929552757494383 0.919958451222936  C 1.1964540442997 0.897468785864641  1.51331714833951 0.829999789789799  1.60666685948817 0.862328683742331  C 2.04711972195015 1.01835073716543  2.78339913382688 0.79204847949769  3.0923735298823 0.666949715942202  C 3.79446854049334 0.384423294878737  4.8660180417068 -0.113160551173352  5.58652003761475 0.0231830450612521  C 6.00593634545168 0.101896873815271  8.5198046231451 0.728796295677506  7.90317061569835 1.83078989823353  C 7.82033918186221 1.9783783271473  7.51267957047086 2.21030300115464  7.4232742133144 2.1751628990323  C 7.16689120382161 2.07114819675023  6.44244485392146 1.79002737977165  6.44244485392146 1.79002737977165  C 6.44244485392146 1.79002737977165  6.99596919749307 2.00508480476027  7.11167024793085 2.09363786210851  C 7.2089643130717 2.16813487860785  7.39434895070496 2.25668793595608  7.45877339924417 2.36351384640795  C 7.59682578897106 2.59262731224549  7.38777502738463 3.08318313787312  7.16952077314974 3.1647081747969  C 6.95389608824298 3.2448276076358  6.78560365124258 3.01149732954358  6.60284858293746 2.90467141909173  C 6.60679293692966 2.90748262726151  6.61336686024999 2.91169943951619  6.61599642957812 2.91310504360109  C 6.79086278989884 3.06069347251483  7.16952077314974 3.1647081747969  6.934174318282 3.73116662100875  C 6.67253217013294 4.36509406329545  6.49240667115595 3.96590250318587  6.23996801565536 3.89843350711101  C 6.15319222782703 3.87453823766784  6.05984251667837 3.82815330286637  5.96912237485784 3.78457957623468  C 6.06378687067057 3.84220934371529  6.41614916064015 4.0207210624967  6.48977710182782 4.08959566265644  C 6.72380877203149 4.31308671215442  6.20446882972559 5.05946248123255  5.73772027398229 4.99621029741238  C 5.45241200188006 4.95825898712027  4.77398311522221 4.51830490854879  4.6135793862062 4.56468984335025  C 4.43345388722922 4.61810279857618  4.21782920232245 4.61669719449128  4.03244456468921 4.6349700475949  C 3.46051323582067 4.6940054191604  2.85965664434269 4.52673853305814  2.33374277871644 4.27372979777741  C 2.09839632384871 4.1598758669011  1.63164776810541 3.96168569093119  1.39761609790174 3.82815330286637  C 0.815166491720671 3.49502513474674  0.170922006328532 2.96370679065722  0 2.8104959454039  C 0.387861475899355 2.02054644969409  1.00843983733832 1.8195450655544  0.929552757494383 0.919958451222936  Z " fill-rule="nonzero" fill="#fcd4ca" stroke="none" transform="matrix(1 0 0 1 119 65 )" />
  </g>
</svg>