<?xml version="1.0" encoding="utf-8"?>
<svg version="1.1" xmlns:xlink="http://www.w3.org/1999/xlink" width="235px" height="133px" xmlns="http://www.w3.org/2000/svg">
  <g transform="matrix(1 0 0 1 -21 -24 )">
    <path d="M 26.7223355912457 131.97451479638  L 26.4415836817293 131.676605072543  C 26.4415836817293 131.676605072543  -23.4966794773848 41.6288222273156  13.8843985484673 20.6176126080776  C 28.2256350156683 12.556412532934  41.7201877442937 15.1554577445071  55.4148952803316 17.7545029560802  C 70.1990736137556 20.5597354704503  85.2166454590719 23.3649679848205  101.785417061834 12.7589825146293  C 142.962210623199 -13.5982659608147  174.177689613139 4.04666464117918  196.487363544028 36.8575756941702  C 213.231360925842 61.4788717729073  222.099230506954 77.4059365837025  230.497422742152 96.5777384227248  C 243.577936825842 126.436915456727  215.808931484714 132  215.808931484714 132  C 215.808931484714 132  26.7223355912457 131.97451479638  26.7223355912457 131.97451479638  Z " fill-rule="nonzero" fill="#ffffff" stroke="none" transform="matrix(1 0 0 1 21 24 )" />
  </g>
</svg>