<?xml version="1.0" encoding="utf-8"?>
<svg version="1.1" xmlns:xlink="http://www.w3.org/1999/xlink" width="235px" height="133px" xmlns="http://www.w3.org/2000/svg">
  <g transform="matrix(1 0 0 1 -21 -24 )">
    <path d="M 26.722335591245738 131.97451479638045  L 26.44158368172934 131.67660507254283  C 26.44158368172934 131.67660507254283  -23.496679477384845 41.6288222273156  13.884398548467251 20.617612608077565  C 28.225635015668267 12.55641253293397  41.72018774429374 15.155457744507089  55.414895280331585 17.754502956080195  C 70.1990736137556 20.559735470450338  85.21664545907191 23.364967984820485  101.785417061834 12.758982514629281  C 142.96221062319893 -13.598265960814656  174.17768961313868 4.046664641179178  196.4873635440276 36.857575694170244  C 213.23136092584187 61.47887177290726  222.09923050695377 77.40593658370254  230.49742274215234 96.57773842272478  C 243.57793682584182 126.43691545672701  215.80893148471364 132  215.80893148471364 132  C 215.80893148471364 132  26.722335591245738 131.97451479638045  26.722335591245738 131.97451479638045  Z " fill-rule="nonzero" fill="#ffffff" stroke="none" transform="matrix(1 0 0 1 21 24 )" />
  </g>
</svg>