<?xml version="1.0" encoding="utf-8"?>
<svg version="1.1" xmlns:xlink="http://www.w3.org/1999/xlink" width="75px" height="100px" xmlns="http://www.w3.org/2000/svg">
  <g transform="matrix(1 0 0 1 -50 -40 )">
    <path d="M 71.74745075556305 99.99999999999997  C 71.74745075556305 99.99999999999997  3.252549244436954 99.99999999999997  3.252549244436954 99.99999999999997  C 1.4570531888679277 99.99796762715081  0.002020705301951008 98.53547241627112  0 96.7307687306874  C 0 96.7307687306874  0 3.2692289052894257  0 3.2692289052894257  C 0.002020707790903849 1.46452560357968  1.4570535693217066 0.0020310703459648933  3.252549244436954 0  C 3.252549244436954 0  71.74745075556305 0  71.74745075556305 0  C 73.54294643067831 0.002031070345978331  74.99797929220911 1.464525603579686  75 3.269228905289432  C 75 3.269228905289432  75 96.7307687306874  75 96.7307687306874  C 74.99797929469807 98.53547241627115  73.5429468111321 99.99796762715081  71.7474507555631 100  Z " fill-rule="nonzero" fill="#ffffff" stroke="none" transform="matrix(1 0 0 1 50 40 )" />
  </g>
</svg>