<?xml version="1.0" encoding="utf-8"?>
<svg version="1.1" xmlns:xlink="http://www.w3.org/1999/xlink" width="75px" height="100px" xmlns="http://www.w3.org/2000/svg">
  <g transform="matrix(1 0 0 1 -50 -40 )">
    <path d="M 71.7474507555631 100  C 71.7474507555631 100  3.25254924443695 100  3.25254924443695 100  C 1.45705318886793 99.9979676271508  0.00202070530195101 98.5354724162711  0 96.7307687306874  C 0 96.7307687306874  0 3.26922890528943  0 3.26922890528943  C 0.00202070779090385 1.46452560357968  1.45705356932171 0.00203107034596489  3.25254924443695 0  C 3.25254924443695 0  71.7474507555631 0  71.7474507555631 0  C 73.5429464306783 0.00203107034597833  74.9979792922091 1.46452560357969  75 3.26922890528943  C 75 3.26922890528943  75 96.7307687306874  75 96.7307687306874  C 74.9979792946981 98.5354724162711  73.5429468111321 99.9979676271508  71.7474507555631 100  Z " fill-rule="nonzero" fill="#ffffff" stroke="none" transform="matrix(1 0 0 1 50 40 )" />
  </g>
</svg>