<?xml version="1.0" encoding="utf-8"?>
<svg version="1.1" xmlns:xlink="http://www.w3.org/1999/xlink" width="25px" height="26px" xmlns="http://www.w3.org/2000/svg">
  <g transform="matrix(1 0 0 1 -59 -52 )">
    <path d="M 25 13.0004284030371  C 25.0000363976686 18.6297706710614  21.5176664633323 23.6199183566159  16.3719550462266 25.3641977235815  C 16.2969490220172 25.3890169976434  16.2219984517103 25.4138314650289  16.1458302061289 25.437468296674  C 15.8209026859371 25.541465549236  15.4914256351659 25.630098260394  15.156234521864 25.7057337183201  C 14.549665570426 25.8426301204619  13.9339949947252 25.9315181324692  13.3145110669049 25.9716342551327  C 13.045282370556 25.9905405159977  12.7744994245527 25.9999936464303  12.5021622288948 25.9999936464303  C 11.0951342857943 26.0014418341172  9.69800781414494 25.7553126315216  8.36991071247039 25.2720224918495  C 8.3312986223169 25.2578427962007  8.29268653216339 25.2436631005518  8.2551835200587 25.229483404903  C 2.2870148597996 22.987473546791  -1.11898396052296 16.4497195051093  0.333966812194361 10.0248490879798  C 1.78691758491166 3.59997867085027  7.63769603126868 -0.672951717150253  13.9409251313716 0.0874388402083014  C 20.2441542314744 0.847829397566842  24.9993827961734 6.40021630767821  25 13.0004380163901  Z " fill-rule="nonzero" fill="#ffffff" stroke="none" transform="matrix(1 0 0 1 59 52 )" />
  </g>
</svg>