<?xml version="1.0" encoding="utf-8"?>
<svg version="1.1" xmlns:xlink="http://www.w3.org/1999/xlink" width="25px" height="26px" xmlns="http://www.w3.org/2000/svg">
  <g transform="matrix(1 0 0 1 -59 -52 )">
    <path d="M 24.999999999999986 13.00042840303713  C 25.000036397668552 18.629770671061372  21.51766646333234 23.619918356615862  16.371955046226603 25.364197723581523  C 16.29694902201723 25.389016997643445  16.22199845171029 25.413831465028878  16.145830206128927 25.437468296673977  C 15.820902685937089 25.541465549235955  15.49142563516585 25.630098260394043  15.15623452186396 25.705733718320133  C 14.549665570426024 25.842630120461873  13.933994994725243 25.93151813246917  13.314511066904883 25.971634255132656  C 13.045282370556036 25.990540515997743  12.77449942455266 25.99999364643029  12.50216222889478 25.99999364643029  C 11.095134285794254 26.001441834117205  9.698007814144937 25.755312631521605  8.36991071247039 25.272022491849484  C 8.331298622316897 25.25784279620066  8.29268653216339 25.24366310055185  8.255183520058702 25.229483404903025  C 2.2870148597996036 22.98747354679095  -1.1189839605229563 16.449719505109293  0.33396681219436053 10.024849087979772  C 1.7869175849116643 3.5999786708502683  7.6376960312686775 -0.6729517171502526  13.940925131371559 0.08743884020830145  C 20.244154231474443 0.8478293975668415  24.999382796173407 6.400216307678209  25 13.0004380163901  Z " fill-rule="nonzero" fill="#ffffff" stroke="none" transform="matrix(1 0 0 1 59 52 )" />
  </g>
</svg>