<?xml version="1.0" encoding="utf-8"?>
<svg version="1.1" xmlns:xlink="http://www.w3.org/1999/xlink" width="2px" height="4px" xmlns="http://www.w3.org/2000/svg">
  <g transform="matrix(1 0 0 1 -70 -66 )">
    <path d="M 0.4636634593709744 3.7036468926300548  C 0.9207181872622502 3.9755603539675044  1.5146906383191603 3.989093070276833  1.9919670787699184 4  C 1.9919670787699184 4  2 3.7650291339264634  2 3.7650291339264634  C 1.463035755728979 3.752867847553851  0.9896334314724966 3.7254464165718475  0.633913256489793 3.5138806509513727  C 0.4298456822895012 3.3856154976322475  0.3044033624915408 3.1914339258639344  0.2902321910744164 2.9818709625395403  C 0.2775636078575704 2.8536038411642832  0.339081383976528 2.727862040250334  0.4566049370624726 2.6418065125002634  C 0.7303813630793802 2.50670566993057  1.07297488690111 2.504240979264805  1.349641548697489 2.6353818172043906  C 1.349641548697489 2.6353818172043906  1.5884573325817657 2.7245271523416075  1.5884573325817657 2.7245271523416075  L 1.1304986442451248 0  L 0.8445419101242841 0.03189649765704729  C 0.8445419101242841 0.03189649765704729  1.2340872283940276 2.3494697356592735  1.2340872283940276 2.3494697356592735  C 0.9100951813967157 2.251610851147736  0.5472560699690726 2.2941134340766505  0.2703010372295212 2.4623666126098667  C 0.08442125694291933 2.594470909644077  -0.014905914685428855 2.789721543012695  0.0018189150940274071 2.9901306024197134  C 0.018873547001113128 3.2718002585665134  0.1879098373445658 3.53294905482567  0.4636634593709744 3.7036468926300548  Z " fill-rule="nonzero" fill="#2f2e41" stroke="none" transform="matrix(1 0 0 1 70 66 )" />
  </g>
</svg>