<?xml version="1.0" encoding="utf-8"?>
<svg version="1.1" xmlns:xlink="http://www.w3.org/1999/xlink" width="2px" height="4px" xmlns="http://www.w3.org/2000/svg">
  <g transform="matrix(1 0 0 1 -70 -66 )">
    <path d="M 0.463663459370974 3.70364689263005  C 0.92071818726225 3.9755603539675  1.51469063831916 3.98909307027683  1.99196707876992 4  C 1.99196707876992 4  2 3.76502913392646  2 3.76502913392646  C 1.46303575572898 3.75286784755385  0.989633431472497 3.72544641657185  0.633913256489793 3.51388065095137  C 0.429845682289501 3.38561549763225  0.304403362491541 3.19143392586393  0.290232191074416 2.98187096253954  C 0.27756360785757 2.85360384116428  0.339081383976528 2.72786204025033  0.456604937062473 2.64180651250026  C 0.73038136307938 2.50670566993057  1.07297488690111 2.50424097926481  1.34964154869749 2.63538181720439  C 1.34964154869749 2.63538181720439  1.58845733258177 2.72452715234161  1.58845733258177 2.72452715234161  L 1.13049864424512 0  L 0.844541910124284 0.0318964976570473  C 0.844541910124284 0.0318964976570473  1.23408722839403 2.34946973565927  1.23408722839403 2.34946973565927  C 0.910095181396716 2.25161085114774  0.547256069969073 2.29411343407665  0.270301037229521 2.46236661260987  C 0.0844212569429193 2.59447090964408  -0.0149059146854289 2.78972154301269  0.00181891509402741 2.99013060241971  C 0.0188735470011131 3.27180025856651  0.187909837344566 3.53294905482567  0.463663459370974 3.70364689263005  Z " fill-rule="nonzero" fill="#2f2e41" stroke="none" transform="matrix(1 0 0 1 70 66 )" />
  </g>
</svg>