<?xml version="1.0" encoding="utf-8"?>
<svg version="1.1" xmlns:xlink="http://www.w3.org/1999/xlink" width="8px" height="3px" xmlns="http://www.w3.org/2000/svg">
  <g transform="matrix(1 0 0 1 -67 -74 )">
    <path d="M 5.75378330006841 1.26281197242433  C 5.77012819772956 1.19062997283418  5.77862830111765 1.11703470511994  5.77914898003167 1.04319181930174  C 5.77819447070592 0.46742933599872  5.28881002785961 0.000908684551858006  4.68483119219633 0  C 4.68483119219633 0  3.07215444297641 0  3.07215444297641 0  C 2.46800249224048 0.000510965648157592  1.9783739549522 0.467264307569211  1.97783665514105 1.04319181930174  C 1.97777392501167 1.11742556741333  1.98625808178511 1.19144165551264  2.00313674228581 1.26391068730902  C 1.39436132215138 1.44676641743042  0.818915191935985 1.71827869885363  0.297203403330239 2.06881983257051  C 0.195792220691717 2.13580124365149  0.0956179312025001 2.20827399599566  0 2.28404289299395  C 0.0380227513376228 2.29721853896907  0.0771699509928006 2.31039418494419  0.116317150647965 2.32356983091931  C 1.4628198184398 2.77263869257136  2.8793085066136 3.00133973932541  4.30583588676806 2.99999409632003  C 4.58228462910385 2.99999409632003  4.85682024756605 2.99121033233662  5.12944274215463 2.97364280436979  C 5.7575118497617 2.93636726311703  6.38171475752861 2.85377331987269  6.99668990526523 2.7265704112519  C 7.33652629803502 2.65629062235647  7.6705694393688 2.57393390237063  8 2.47730058836462  C 7.34823170561504 1.92766487836169  6.58312803243651 1.51398720375544  5.75378330006841 1.26281197242434  Z " fill-rule="nonzero" fill="#2f2e41" stroke="none" transform="matrix(1 0 0 1 67 74 )" />
  </g>
</svg>