<?xml version="1.0" encoding="utf-8"?>
<svg version="1.1" xmlns:xlink="http://www.w3.org/1999/xlink" width="8px" height="3px" xmlns="http://www.w3.org/2000/svg">
  <g transform="matrix(1 0 0 1 -67 -74 )">
    <path d="M 5.75378330006841 1.2628119724243296  C 5.770128197729556 1.1906299728341754  5.778628301117647 1.1170347051199359  5.779148980031674 1.043191819301736  C 5.778194470705919 0.46742933599871994  5.288810027859605 0.0009086845518580058  4.684831192196331 0  C 4.684831192196331 0  3.0721544429764105 0  3.0721544429764105 0  C 2.468002492240476 0.0005109656481575916  1.9783739549522024 0.46726430756921133  1.9778366551410544 1.043191819301736  C 1.977773925011672 1.1174255674133253  1.9862580817851063 1.191441655512642  2.003136742285813 1.2639106873090156  C 1.3943613221513809 1.4467664174304238  0.8189151919359848 1.7182786988536265  0.29720340333023926 2.0688198325705134  C 0.19579222069171712 2.1358012436514926  0.09561793120250008 2.208273995995659  0 2.2840428929939467  C 0.03802275133762283 2.297218538969074  0.07716995099280057 2.310394184944188  0.11631715064796495 2.3235698309193147  C 1.4628198184398025 2.7726386925713604  2.879308506613596 3.001339739325411  4.305835886768056 2.99999409632003  C 4.582284629103848 2.99999409632003  4.8568202475660485 2.9912103323366157  5.129442742154634 2.9736428043697885  C 5.7575118497617 2.936367263117032  6.381714757528608 2.853773319872695  6.996689905265227 2.7265704112519007  C 7.336526298035019 2.656290622356472  7.670569439368802 2.5739339023706274  8 2.4773005883646158  C 7.348231705615042 1.9276648783616874  6.583128032436505 1.513987203755439  5.75378330006841 1.2628119724243425  Z " fill-rule="nonzero" fill="#2f2e41" stroke="none" transform="matrix(1 0 0 1 67 74 )" />
  </g>
</svg>