<?xml version="1.0" encoding="utf-8"?>
<svg version="1.1" xmlns:xlink="http://www.w3.org/1999/xlink" width="12px" height="8px" xmlns="http://www.w3.org/2000/svg">
  <g transform="matrix(1 0 0 1 -66 -58 )">
    <path d="M 11.6109448101162 7.69114530002438  C 11.523460839541 7.93507443381343  11.2586877278418 8.06047933258994  11.0195515841738 7.9712477891347  C 11.0195515841738 7.9712477891347  0.302785369840039 3.97211774961235  0.302785369840039 3.97211774961235  C 0.0636472725817072 3.88287740600264  -0.0592928287848684 3.61278817255014  0.028189432382527 3.3688531888005  C 0.028189432382527 3.3688531888005  0.0644437286103295 3.1940109109989  0.0644437286103295 3.1940109109989  C 0.901400856656456 0.86030013491643  3.67550618589386 -0.608426647161292  5.96333840169629 0.245314223934538  C 5.96333840169629 0.245314223934538  9.26113148435909 1.47593882610976  9.26113148435909 1.47593882610976  C 11.5489637001615 2.32967969720559  12.5433079808671 5.09310396990332  11.706350852821 7.42681474598578  C 11.706350852821 7.42681474598578  11.6109448101162 7.69114530002438  11.6109448101162 7.69114530002438  Z " fill-rule="nonzero" fill="#2f2e41" stroke="none" transform="matrix(1 0 0 1 66 58 )" />
  </g>
</svg>