<?xml version="1.0" encoding="utf-8"?>
<svg version="1.1" xmlns:xlink="http://www.w3.org/1999/xlink" width="12px" height="8px" xmlns="http://www.w3.org/2000/svg">
  <g transform="matrix(1 0 0 1 -66 -58 )">
    <path d="M 11.610944810116228 7.691145300024384  C 11.52346083954098 7.93507443381343  11.258687727841837 8.060479332589944  11.019551584173843 7.971247789134699  C 11.019551584173843 7.971247789134699  0.3027853698400387 3.9721177496123534  0.3027853698400387 3.9721177496123534  C 0.0636472725817072 3.8828774060026374  -0.0592928287848684 3.612788172550137  0.028189432382526997 3.3688531888004984  C 0.028189432382526997 3.3688531888004984  0.06444372861032951 3.194010910998895  0.06444372861032951 3.194010910998895  C 0.901400856656456 0.8603001349164296  3.6755061858938554 -0.6084266471612916  5.963338401696294 0.2453142239345384  C 5.963338401696294 0.2453142239345384  9.261131484359085 1.4759388261097584  9.261131484359085 1.4759388261097584  C 11.548963700161524 2.329679697205589  12.543307980867109 5.093103969903317  11.70635085282098 7.426814745985782  C 11.70635085282098 7.426814745985782  11.610944810116228 7.691145300024384  11.610944810116228 7.691145300024384  Z " fill-rule="nonzero" fill="#2f2e41" stroke="none" transform="matrix(1 0 0 1 66 58 )" />
  </g>
</svg>