<?xml version="1.0" encoding="utf-8"?>
<svg version="1.1" xmlns:xlink="http://www.w3.org/1999/xlink" width="27px" height="27px" xmlns="http://www.w3.org/2000/svg">
  <g transform="matrix(1 0 0 1 -58 -51 )">
    <path d="M 16.4421524090837 26.5099525585148  C 15.8081193529986 26.6479956361331  15.1645981963279 26.7376888675072  14.5170941044054 26.7782649490871  C 14.238906637525 26.7971960138879  13.9531014587222 26.8068278980356  13.6696953187451 26.8068278980356  C 12.1998051246935 26.8084340401153  10.7402487369169 26.5601633408796  9.35287989392435 26.0725371279309  C 9.35287989392435 26.0725371279309  9.23228883554053 26.0293564616148  9.23228883554053 26.0293564616148  C 3.23106321331456 23.8514513621609  -0.323262672785916 17.6364657376746  0.827849990879194 11.3336115368995  C 1.9789626545443 5.03075733612445  7.49821238960963 0.486910288038878  13.878481349182 0.589384401039567  C 20.2587503087542 0.691858514040248  25.6304785267569 5.41062660581888  26.5802883148554 11.7472239240224  C 27.530098102954 18.0838212422258  23.7796741790706 24.1814845779164  17.7121626786846 26.1655525304545  C 17.6300478796249 26.1917841953417  17.5527593545593 26.2164278499322  17.4742278407191 26.2399955272637  C 17.1460553072981 26.3414063839268  16.7978821681141 26.4325057918575  16.4421524090837 26.5099525585148  Z M 17.4972642527138 25.5036872997977  C 23.2783570600699 23.6127755609956  26.8325876496975 17.781767630282  25.879726019255 11.7515685761991  C 24.9268643888126 5.72136952211623  19.7497140689309 1.28170571040028  13.6696953187451 1.28086015716417  C 7.6643691287767 1.28171694874187  2.52798184275834 5.61568008542473  1.49220420841805 11.5559415773489  C 0.456426574077788 17.4962030692732  3.82079019682499 23.3249269618509  9.4685318929433 25.374843742228  C 9.4685318929433 25.374843742228  9.58299964556844 25.4158040256477  9.58299964556844 25.4158040256477  C 10.8964259287071 25.8773457020461  12.2781773581511 26.1122852361401  13.6696953187451 26.1106658922474  C 13.9375887708408 26.1106658922474  14.20765099163 26.1015436815382  14.4724122999896 26.0835847716293  C 15.0855853850879 26.0451858928733  15.6949896373087 25.960283827533  16.295413942226 25.8296045869152  C 16.6318902985754 25.7563508281291  16.9608687774589 25.6702372534183  17.2731221257245 25.5738240279715  C 17.3504411968281 25.5505961329324  17.4238386265996 25.527141716365  17.4972642527138 25.5036872997977  Z " fill-rule="nonzero" fill="#cccccc" stroke="none" transform="matrix(1 0 0 1 58 51 )" />
  </g>
</svg>