<?xml version="1.0" encoding="utf-8"?>
<svg version="1.1" xmlns:xlink="http://www.w3.org/1999/xlink" width="27px" height="27px" xmlns="http://www.w3.org/2000/svg">
  <g transform="matrix(1 0 0 1 -58 -51 )">
    <path d="M 16.442152409083704 26.509952558514797  C 15.808119352998617 26.64799563613309  15.164598196327944 26.737688867507202  14.517094104405428 26.77826494908713  C 14.238906637525005 26.797196013887913  13.953101458722228 26.806827898035593  13.669695318745099 26.806827898035593  C 12.19980512469347 26.8084340401153  10.740248736916882 26.560163340879612  9.352879893924353 26.0725371279309  C 9.352879893924353 26.0725371279309  9.23228883554053 26.029356461614782  9.23228883554053 26.029356461614782  C 3.231063213314563 23.851451362160944  -0.3232626727859156 17.636465737674598  0.8278499908791943 11.333611536899511  C 1.978962654544297 5.030757336124452  7.498212389609633 0.48691028803887804  13.878481349181953 0.5893844010395668  C 20.258750308754244 0.6918585140402485  25.63047852675686 5.4106266058188766  26.580288314855437 11.747223924022357  C 27.530098102954 18.083821242225838  23.779674179070554 24.181484577916365  17.712162678684592 26.165552530454505  C 17.63004787962494 26.19178419534174  17.552759354559285 26.216427849932217  17.474227840719138 26.23999552726366  C 17.146055307298084 26.341406383926753  16.797882168114143 26.432505791857523  16.442152409083704 26.509952558514797  Z M 17.497264252713848 25.503687299797704  C 23.27835706006985 23.61277556099556  26.8325876496975 17.781767630281976  25.87972601925503 11.751568576199105  C 24.926864388812575 5.721369522116234  19.74971406893087 1.2817057104002814  13.669695318745086 1.2808601571641702  C 7.664369128776699 1.2817169487418738  2.5279818427583365 5.615680085424728  1.4922042084180518 11.555941577348946  C 0.4564265740777884 17.49620306927315  3.8207901968249938 23.324926961850906  9.468531892943304 25.374843742227952  C 9.468531892943304 25.374843742227952  9.582999645568435 25.415804025647716  9.582999645568435 25.415804025647716  C 10.896425928707117 25.877345702046114  12.27817735815107 26.11228523614011  13.669695318745086 26.11066589224737  C 13.937588770840804 26.11066589224737  14.207650991630032 26.10154368153819  14.472412299989616 26.08358477162932  C 15.08558538508791 26.045185892873334  15.694989637308666 25.960283827533033  16.29541394222599 25.829604586915153  C 16.631890298575385 25.756350828129115  16.960868777458913 25.670237253418335  17.27312212572447 25.57382402797151  C 17.350441196828058 25.550596132932384  17.423838626599604 25.527141716365037  17.497264252713848 25.503687299797704  Z " fill-rule="nonzero" fill="#cccccc" stroke="none" transform="matrix(1 0 0 1 58 51 )" />
  </g>
</svg>