<?xml version="1.0" encoding="utf-8"?>
<svg version="1.1" xmlns:xlink="http://www.w3.org/1999/xlink" width="75px" height="101px" xmlns="http://www.w3.org/2000/svg">
  <g transform="matrix(1 0 0 1 -50 -40 )">
    <path d="M 74.92772048071444 96.96741530896065  C 74.9257017228206 98.76874176702165  73.47207149323407 100.22850014131285  71.67830580555537 100.23052871088638  C 71.67830580555537 100.23052871088638  3.249414675159081 100.23052871088638  3.249414675159081 100.23052871088638  C 1.4556489874803944 100.22850014131285  0.002018757893843315 98.7687417670216  0 96.96741530896065  C 0 96.96741530896065  0 3.6807744917143737  0 3.6807744917143737  C 0.0020187603804018295 1.879448416809005  1.4556493675675242 0.4196907188956587  3.249414675159081 0.41766344938787364  C 3.249414675159081 0.41766344938787364  71.67830580555537 0.41766344938787364  71.67830580555537 0.41766344938787364  C 73.47207111314694 0.4196907188956729  74.92570172033406 1.8794484168090122  74.92772048071444 3.6807744917143808  C 74.92772048071444 3.6807744917143808  74.92772048071444 96.96741530896065  74.92772048071444 96.96741530896065  Z M 3.249414675159052 0.8015584497329655  C 3.249414675159052 0.8015584497329655  71.67830580555534 0.8015584497329797  71.67830580555534 0.8015584497329797  C 73.26103454816096 0.8033607266855968  74.54364210374189 2.0913745063927323  74.54543681593604 3.6807744917150416  C 74.54543681593604 3.6807744917150416  74.54543681593604 96.96741530896128  74.54543681593604 96.96741530896128  C 74.54364339832576 98.55681621576409  73.2610354643034 99.84483143107192  71.67830580555534 99.84663371054259  C 71.67830580555534 99.84663371054259  3.249414675159052 99.84663371054259  3.249414675159052 99.84663371054259  C 1.6666850164109661 99.84483143107192  0.38407708238865723 98.55681621576409  0.38228366477835607 96.96741530896128  C 0.38228366477835607 96.96741530896128  0.38228366477835607 3.6807744917150345  0.38228366477835607 3.6807744917150345  C 0.3840783769725178 2.091374506392718  1.6666859325534205 0.8033607266855896  3.249414675159052 0.8015584497329655  Z " fill-rule="nonzero" fill="#cccccc" stroke="none" transform="matrix(1 0 0 1 50 40 )" />
  </g>
</svg>