<?xml version="1.0" encoding="utf-8"?>
<svg version="1.1" xmlns:xlink="http://www.w3.org/1999/xlink" width="75px" height="101px" xmlns="http://www.w3.org/2000/svg">
  <g transform="matrix(1 0 0 1 -50 -40 )">
    <path d="M 74.9277204807144 96.9674153089607  C 74.9257017228206 98.7687417670217  73.4720714932341 100.228500141313  71.6783058055554 100.230528710886  C 71.6783058055554 100.230528710886  3.24941467515908 100.230528710886  3.24941467515908 100.230528710886  C 1.45564898748039 100.228500141313  0.00201875789384331 98.7687417670216  0 96.9674153089607  C 0 96.9674153089607  0 3.68077449171437  0 3.68077449171437  C 0.00201876038040183 1.87944841680901  1.45564936756752 0.419690718895659  3.24941467515908 0.417663449387874  C 3.24941467515908 0.417663449387874  71.6783058055554 0.417663449387874  71.6783058055554 0.417663449387874  C 73.4720711131469 0.419690718895673  74.9257017203341 1.87944841680901  74.9277204807144 3.68077449171438  C 74.9277204807144 3.68077449171438  74.9277204807144 96.9674153089607  74.9277204807144 96.9674153089607  Z M 3.24941467515905 0.801558449732966  C 3.24941467515905 0.801558449732966  71.6783058055553 0.80155844973298  71.6783058055553 0.80155844973298  C 73.261034548161 0.803360726685597  74.5436421037419 2.09137450639273  74.545436815936 3.68077449171504  C 74.545436815936 3.68077449171504  74.545436815936 96.9674153089613  74.545436815936 96.9674153089613  C 74.5436433983258 98.5568162157641  73.2610354643034 99.8448314310719  71.6783058055553 99.8466337105426  C 71.6783058055553 99.8466337105426  3.24941467515905 99.8466337105426  3.24941467515905 99.8466337105426  C 1.66668501641097 99.8448314310719  0.384077082388657 98.5568162157641  0.382283664778356 96.9674153089613  C 0.382283664778356 96.9674153089613  0.382283664778356 3.68077449171503  0.382283664778356 3.68077449171503  C 0.384078376972518 2.09137450639272  1.66668593255342 0.80336072668559  3.24941467515905 0.801558449732966  Z " fill-rule="nonzero" fill="#cccccc" stroke="none" transform="matrix(1 0 0 1 50 40 )" />
  </g>
</svg>