<?xml version="1.0" encoding="utf-8"?>
<svg version="1.1" xmlns:xlink="http://www.w3.org/1999/xlink" width="59px" height="69px" xmlns="http://www.w3.org/2000/svg">
  <g transform="matrix(1 0 0 1 -58 -61 )">
    <path d="M 50.4312880487652 3.6460828422492  C 50.4312880487652 3.6460828422492  31.068267386032485 3.6460828422492  31.068267386032485 3.6460828422492  C 30.222998731557283 3.64503155536444  29.538327772249545 2.956622616331572  29.538327772249545 2.107790481531026  C 29.538327772249545 1.2589583467304806  30.222998731557283 0.5705494076976194  31.068267386032485 0.5694981208128667  C 31.068267386032485 0.5694981208128667  50.4312880487652 0.5694981208128667  50.4312880487652 0.5694981208128667  C 50.979012103166 0.5688168993923384  51.48542048184089 0.8618646942529082  51.75947852206008 1.3380937952611447  C 52.033536562279295 1.8143228962693954  52.033536562279295 2.40125806679265  51.75947852206008 2.8774871678008935  C 51.48542048184089 3.3537162688091233  50.979012103166 3.646764063669707  50.4312880487652 3.6460828422492  Z M 58.28004686160989 7.299524691880038  C 58.28004686160989 8.148356826680583  57.59537590230218 8.836765765713437  56.750107247826975 8.837817052598197  C 56.750107247826975 8.837817052598197  31.068267386032602 8.837817052598197  31.068267386032602 8.837817052598197  C 30.2229987315574 8.836765765713437  29.538327772249662 8.148356826680583  29.538327772249662 7.299524691880038  C 29.538327772249662 6.450692557079492  30.2229987315574 5.762283618046624  31.068267386032602 5.761232331161864  C 31.068267386032602 5.761232331161864  56.750107247826975 5.761232331161864  56.750107247826975 5.761232331161864  C 57.59537590230218 5.762283618046624  58.28004686160989 6.450692557079492  58.28004686160989 7.299524691880038  Z M 2.177613232887367 28.75027221678016  C 1.6298891784865646 28.750953438200682  1.1234807998116807 28.457905643340098  0.8494227595924784 27.981676542331854  C 0.575364719373276 27.505447441323625  0.575364719373276 26.918512270800374  0.8494227595924784 26.442283169792134  C 1.1234807998116807 25.966054068783905  1.6298891784865646 25.67300627392332  2.177613232887367 25.673687495343827  C 2.177613232887367 25.673687495343827  50.40309875513998 25.673687495343827  50.40309875513998 25.673687495343827  C 51.24836740961692 25.674738782226143  51.9330383689273 26.363147721259708  51.9330383689273 27.211979856061973  C 51.9330383689273 28.060811990864252  51.24836740961692 28.749220929897803  50.40309875513998 28.75027221678016  C 50.40309875513998 28.75027221678016  2.177613232887367 28.75027221678016  2.177613232887367 28.75027221678016  Z M 0.8494227595851953 31.634017380140676  C 1.1234807998063445 31.15778827913114  1.629889178484504 30.86474048427128  2.1776132328874027 30.865421705694956  C 2.1776132328874027 30.865421705694956  56.72191560450645 30.865421705694956  56.72191560450645 30.865421705694956  C 57.269639658907224 30.864740484274435  57.776048037582115 31.15778827913499  58.05010607780133 31.634017380143234  C 58.32416411802055 32.110246481151464  58.32416411802055 32.69718165167477  58.05010607780133 33.173410752683  C 57.776048037582115 33.64963985369123  57.269639658907224 33.9426876485518  56.72191560450645 33.94200642713125  C 56.72191560450645 33.94200642713125  2.1776132328874027 33.94200642713125  2.1776132328874027 33.94200642713125  C 1.629889178484504 33.94268764855492  1.1234807998063445 33.649639853695035  0.8494227595851953 33.1734107526855  C 0.5753647193640248 32.69718165167599  0.5753647193640248 32.11024648115021  0.8494227595851953 31.634017380140676  Z M 2.1776132328873388 45.87460130851416  C 1.331604421956051 45.87460130851416  0.6457787739592504 45.185884887616126  0.6457787739592504 44.336310127595624  C 0.6457787739592504 43.48673536757511  1.331604421956051 42.798018946677075  2.1776132328873388 42.798018946677075  C 2.1776132328873388 42.798018946677075  50.40309875513995 42.798018946677075  50.40309875513995 42.798018946677075  C 51.24910756607122 42.798018946677075  51.934933214068025 43.48673536757512  51.934933214068025 44.336310127595624  C 51.934933214068025 45.185884887616126  51.24910756607122 45.87460130851416  50.40309875513995 45.87460130851416  C 50.40309875513995 45.87460130851416  2.1776132328873388 45.87460130851416  2.1776132328873388 45.87460130851416  Z M 0.6457787739593641 49.528044337945374  C 0.6457787739593641 48.67846957792487  1.3316044219561647 47.989753157026826  2.1776132328874525 47.989753157026826  C 2.1776132328874525 47.989753157026826  56.721915604506506 47.989753157026826  56.721915604506506 47.989753157026826  C 57.56792441543777 47.989753157026826  58.25375006343461 48.67846957792487  58.25375006343461 49.528044337945374  C 58.25375006343461 50.37761909796588  57.56792441543777 51.06633551886391  56.721915604506506 51.06633551886391  C 56.721915604506506 51.06633551886391  2.1776132328874525 51.06633551886391  2.1776132328874525 51.06633551886391  C 1.3316044219561647 51.06633551886391  0.6457787739593641 50.37761909796588  0.6457787739593641 49.528044337945374  Z M 50.403098755140064 59.92235039801017  C 51.24910756607136 59.92235039801017  51.93493321406817 60.6110668189082  51.93493321406817 61.4606415789287  C 51.93493321406817 62.31021633894922  51.24910756607136 62.99893275984726  50.403098755140064 62.99893275984726  C 50.403098755140064 62.99893275984726  2.1776132328874525 62.99893275984726  2.1776132328874525 62.99893275984726  C 1.3316044219561647 62.99893275984726  0.6457787739593641 62.31021633894922  0.6457787739593641 61.4606415789287  C 0.6457787739593641 60.6110668189082  1.3316044219561647 59.92235039801017  2.1776132328874525 59.92235039801017  C 2.1776132328874525 59.92235039801017  50.403098755140064 59.92235039801017  50.403098755140064 59.92235039801017  Z M 56.721915604506506 65.11408460835992  C 57.56792441543777 65.11408460835992  58.25375006343461 65.80280102925794  58.25375006343461 66.65237578927844  C 58.25375006343461 67.50195054929893  57.56792441543777 68.19066697019699  56.721915604506506 68.19066697019699  C 56.721915604506506 68.19066697019699  2.1776132328874525 68.19066697019699  2.1776132328874525 68.19066697019699  C 1.3316044219561647 68.19066697019699  0.6457787739593641 67.50195054929893  0.6457787739593641 66.65237578927844  C 0.6457787739593641 65.80280102925794  1.3316044219561647 65.11408460835992  2.1776132328874525 65.11408460835992  C 2.1776132328874525 65.11408460835992  56.721915604506506 65.11408460835992  56.721915604506506 65.11408460835992  Z " fill-rule="nonzero" fill="#e6e6e6" stroke="none" transform="matrix(1 0 0 1 58 61 )" />
  </g>
</svg>