<?xml version="1.0" encoding="utf-8"?>
<svg version="1.1" xmlns:xlink="http://www.w3.org/1999/xlink" width="59px" height="69px" xmlns="http://www.w3.org/2000/svg">
  <g transform="matrix(1 0 0 1 -58 -61 )">
    <path d="M 50.4312880487652 3.6460828422492  C 50.4312880487652 3.6460828422492  31.0682673860325 3.6460828422492  31.0682673860325 3.6460828422492  C 30.2229987315573 3.64503155536444  29.5383277722495 2.95662261633157  29.5383277722495 2.10779048153103  C 29.5383277722495 1.25895834673048  30.2229987315573 0.570549407697619  31.0682673860325 0.569498120812867  C 31.0682673860325 0.569498120812867  50.4312880487652 0.569498120812867  50.4312880487652 0.569498120812867  C 50.979012103166 0.568816899392338  51.4854204818409 0.861864694252908  51.7594785220601 1.33809379526114  C 52.0335365622793 1.8143228962694  52.0335365622793 2.40125806679265  51.7594785220601 2.87748716780089  C 51.4854204818409 3.35371626880912  50.979012103166 3.64676406366971  50.4312880487652 3.6460828422492  Z M 58.2800468616099 7.29952469188004  C 58.2800468616099 8.14835682668058  57.5953759023022 8.83676576571344  56.750107247827 8.8378170525982  C 56.750107247827 8.8378170525982  31.0682673860326 8.8378170525982  31.0682673860326 8.8378170525982  C 30.2229987315574 8.83676576571344  29.5383277722497 8.14835682668058  29.5383277722497 7.29952469188004  C 29.5383277722497 6.45069255707949  30.2229987315574 5.76228361804662  31.0682673860326 5.76123233116186  C 31.0682673860326 5.76123233116186  56.750107247827 5.76123233116186  56.750107247827 5.76123233116186  C 57.5953759023022 5.76228361804662  58.2800468616099 6.45069255707949  58.2800468616099 7.29952469188004  Z M 2.17761323288737 28.7502722167802  C 1.62988917848656 28.7509534382007  1.12348079981168 28.4579056433401  0.849422759592478 27.9816765423319  C 0.575364719373276 27.5054474413236  0.575364719373276 26.9185122708004  0.849422759592478 26.4422831697921  C 1.12348079981168 25.9660540687839  1.62988917848656 25.6730062739233  2.17761323288737 25.6736874953438  C 2.17761323288737 25.6736874953438  50.40309875514 25.6736874953438  50.40309875514 25.6736874953438  C 51.2483674096169 25.6747387822261  51.9330383689273 26.3631477212597  51.9330383689273 27.211979856062  C 51.9330383689273 28.0608119908643  51.2483674096169 28.7492209298978  50.40309875514 28.7502722167802  C 50.40309875514 28.7502722167802  2.17761323288737 28.7502722167802  2.17761323288737 28.7502722167802  Z M 0.849422759585195 31.6340173801407  C 1.12348079980634 31.1577882791311  1.6298891784845 30.8647404842713  2.1776132328874 30.865421705695  C 2.1776132328874 30.865421705695  56.7219156045064 30.865421705695  56.7219156045064 30.865421705695  C 57.2696396589072 30.8647404842744  57.7760480375821 31.157788279135  58.0501060778013 31.6340173801432  C 58.3241641180205 32.1102464811515  58.3241641180205 32.6971816516748  58.0501060778013 33.173410752683  C 57.7760480375821 33.6496398536912  57.2696396589072 33.9426876485518  56.7219156045064 33.9420064271312  C 56.7219156045064 33.9420064271312  2.1776132328874 33.9420064271312  2.1776132328874 33.9420064271312  C 1.6298891784845 33.9426876485549  1.12348079980634 33.649639853695  0.849422759585195 33.1734107526855  C 0.575364719364025 32.697181651676  0.575364719364025 32.1102464811502  0.849422759585195 31.6340173801407  Z M 2.17761323288734 45.8746013085142  C 1.33160442195605 45.8746013085142  0.64577877395925 45.1858848876161  0.64577877395925 44.3363101275956  C 0.64577877395925 43.4867353675751  1.33160442195605 42.7980189466771  2.17761323288734 42.7980189466771  C 2.17761323288734 42.7980189466771  50.40309875514 42.7980189466771  50.40309875514 42.7980189466771  C 51.2491075660712 42.7980189466771  51.934933214068 43.4867353675751  51.934933214068 44.3363101275956  C 51.934933214068 45.1858848876161  51.2491075660712 45.8746013085142  50.40309875514 45.8746013085142  C 50.40309875514 45.8746013085142  2.17761323288734 45.8746013085142  2.17761323288734 45.8746013085142  Z M 0.645778773959364 49.5280443379454  C 0.645778773959364 48.6784695779249  1.33160442195616 47.9897531570268  2.17761323288745 47.9897531570268  C 2.17761323288745 47.9897531570268  56.7219156045065 47.9897531570268  56.7219156045065 47.9897531570268  C 57.5679244154378 47.9897531570268  58.2537500634346 48.6784695779249  58.2537500634346 49.5280443379454  C 58.2537500634346 50.3776190979659  57.5679244154378 51.0663355188639  56.7219156045065 51.0663355188639  C 56.7219156045065 51.0663355188639  2.17761323288745 51.0663355188639  2.17761323288745 51.0663355188639  C 1.33160442195616 51.0663355188639  0.645778773959364 50.3776190979659  0.645778773959364 49.5280443379454  Z M 50.4030987551401 59.9223503980102  C 51.2491075660714 59.9223503980102  51.9349332140682 60.6110668189082  51.9349332140682 61.4606415789287  C 51.9349332140682 62.3102163389492  51.2491075660714 62.9989327598473  50.4030987551401 62.9989327598473  C 50.4030987551401 62.9989327598473  2.17761323288745 62.9989327598473  2.17761323288745 62.9989327598473  C 1.33160442195616 62.9989327598473  0.645778773959364 62.3102163389492  0.645778773959364 61.4606415789287  C 0.645778773959364 60.6110668189082  1.33160442195616 59.9223503980102  2.17761323288745 59.9223503980102  C 2.17761323288745 59.9223503980102  50.4030987551401 59.9223503980102  50.4030987551401 59.9223503980102  Z M 56.7219156045065 65.1140846083599  C 57.5679244154378 65.1140846083599  58.2537500634346 65.8028010292579  58.2537500634346 66.6523757892784  C 58.2537500634346 67.5019505492989  57.5679244154378 68.190666970197  56.7219156045065 68.190666970197  C 56.7219156045065 68.190666970197  2.17761323288745 68.190666970197  2.17761323288745 68.190666970197  C 1.33160442195616 68.190666970197  0.645778773959364 67.5019505492989  0.645778773959364 66.6523757892784  C 0.645778773959364 65.8028010292579  1.33160442195616 65.1140846083599  2.17761323288745 65.1140846083599  C 2.17761323288745 65.1140846083599  56.7219156045065 65.1140846083599  56.7219156045065 65.1140846083599  Z " fill-rule="nonzero" fill="#e6e6e6" stroke="none" transform="matrix(1 0 0 1 58 61 )" />
  </g>
</svg>