<?xml version="1.0" encoding="utf-8"?>
<svg version="1.1" xmlns:xlink="http://www.w3.org/1999/xlink" width="75px" height="100px" xmlns="http://www.w3.org/2000/svg">
  <g transform="matrix(1 0 0 1 -139 -17 )">
    <path d="M 75 96.73071384901193  C 74.997981886014 98.53541666759853  73.54295082561013 99.99791218927896  71.74745647346263 99.99994326347634  C 71.74745647346263 99.99994326347634  3.252628197077263 100  3.252628197077263 100  C 1.457133460094466 99.99797153831251  0.002099621197323518 98.53547851163465  7.761466154189714E-05 96.73077531357926  C 7.761466154189714E-05 96.73077531357926  0 3.26928851500991  0 3.26928851500991  C 0.002019407356819487 1.464584930144818  1.4570507639826193 0.002089110724332778  3.2525458784968238 5.673652366688773E-05  C 3.2525458784968238 5.673652366688773E-05  71.74737415488218 0  71.74737415488218 0  C 73.54286927231881 0.0020297641919619592  74.99790273324989 1.464523468514909  74.9999247372979 3.2692270504426015  C 74.9999247372979 3.2692270504426015  75 96.73071384901193  75 96.73071384901193  Z " fill-rule="nonzero" fill="#ffffff" stroke="none" transform="matrix(1 0 0 1 139 17 )" />
  </g>
</svg>