<?xml version="1.0" encoding="utf-8"?>
<svg version="1.1" xmlns:xlink="http://www.w3.org/1999/xlink" width="75px" height="100px" xmlns="http://www.w3.org/2000/svg">
  <g transform="matrix(1 0 0 1 -139 -17 )">
    <path d="M 75 96.7307138490119  C 74.997981886014 98.5354166675985  73.5429508256101 99.997912189279  71.7474564734626 99.9999432634763  C 71.7474564734626 99.9999432634763  3.25262819707726 100  3.25262819707726 100  C 1.45713346009447 99.9979715383125  0.00209962119732352 98.5354785116347  7.76146615418971E-05 96.7307753135793  C 7.76146615418971E-05 96.7307753135793  0 3.26928851500991  0 3.26928851500991  C 0.00201940735681949 1.46458493014482  1.45705076398262 0.00208911072433278  3.25254587849682 5.67365236668877E-05  C 3.25254587849682 5.67365236668877E-05  71.7473741548822 0  71.7473741548822 0  C 73.5428692723188 0.00202976419196196  74.9979027332499 1.46452346851491  74.9999247372979 3.2692270504426  C 74.9999247372979 3.2692270504426  75 96.7307138490119  75 96.7307138490119  Z " fill-rule="nonzero" fill="#ffffff" stroke="none" transform="matrix(1 0 0 1 139 17 )" />
  </g>
</svg>