<?xml version="1.0" encoding="utf-8"?>
<svg version="1.1" xmlns:xlink="http://www.w3.org/1999/xlink" width="75px" height="100px" xmlns="http://www.w3.org/2000/svg">
  <g transform="matrix(1 0 0 1 -139 -17 )">
    <path d="M 74.9999248097526 3.263111042326503  C 74.9999248097526 3.263111042326503  74.99999999999983 96.54975185957271  74.99999999999983 96.54975185957271  C 74.99798382883816 98.3510784742691  73.54435351673519 99.81083798699625  71.750587674536 99.81286526149844  C 71.750587674536 99.81286526149844  3.321698893834906 99.81292189188049  3.321698893834906 99.81292189188049  C 1.527932667170916 99.81089722500076  0.07429957924949804 98.35114020260859  0.072279519285388 96.54981320915327  C 0.072279519285388 96.54981320915327  0.07220197934293537 3.2631723919070628  0.07220197934293537 3.2631723919070628  C 0.07421944263032287 1.4618450123656999  1.5278500506700539 0.0020852024555146897  3.3216166545020087 5.663038205128146E-05  C 3.3216166545020087 5.663038205128146E-05  71.75050543520308 0  71.75050543520308 0  C 73.54427204195463 0.00202596694751378  74.99790475227385 1.4617836657170464  74.9999248097526 3.263111042326503  Z M 3.3216166545019803 0.38395163072685534  C 3.3216166545019803 0.38395163072685534  71.75050543520308 0.3838973599440578  71.75050543520308 0.3838973599440578  C 73.33323692917679 0.3856970393305943  74.61584772235148 1.6737130147133072  74.61764114497416 3.2631157615253557  C 74.61764114497416 3.2631157615253557  74.61771633522139 96.54975657877154  74.61771633522139 96.54975657877154  C 74.61592033095414 98.13915472261029  73.33331458338728 99.42716668668258  71.75058767453595 99.42897026115439  C 71.75058767453595 99.42897026115439  3.3216965441396273 99.42902689153644  3.3216965441396273 99.42902689153644  C 1.7389668839212507 99.42722591462439  0.4563578987653613 98.1392117548807  0.4545631840637441 96.54981084955436  C 0.4545631840637441 96.54981084955436  0.45448564412129144 3.263172391907432  0.45448564412129144 3.263172391907432  C 0.45627776714619017 1.673770563624263  1.7388860796105234 0.38575391271450243  3.3216166545019803 0.38395163072685534  Z " fill-rule="nonzero" fill="#cccccc" stroke="none" transform="matrix(1 0 0 1 139 17 )" />
  </g>
</svg>