<?xml version="1.0" encoding="utf-8"?>
<svg version="1.1" xmlns:xlink="http://www.w3.org/1999/xlink" width="75px" height="100px" xmlns="http://www.w3.org/2000/svg">
  <g transform="matrix(1 0 0 1 -139 -17 )">
    <path d="M 74.9999248097526 3.2631110423265  C 74.9999248097526 3.2631110423265  74.9999999999998 96.5497518595727  74.9999999999998 96.5497518595727  C 74.9979838288382 98.3510784742691  73.5443535167352 99.8108379869962  71.750587674536 99.8128652614984  C 71.750587674536 99.8128652614984  3.32169889383491 99.8129218918805  3.32169889383491 99.8129218918805  C 1.52793266717092 99.8108972250008  0.074299579249498 98.3511402026086  0.072279519285388 96.5498132091533  C 0.072279519285388 96.5498132091533  0.0722019793429354 3.26317239190706  0.0722019793429354 3.26317239190706  C 0.0742194426303229 1.4618450123657  1.52785005067005 0.00208520245551469  3.32161665450201 5.66303820512815E-05  C 3.32161665450201 5.66303820512815E-05  71.7505054352031 0  71.7505054352031 0  C 73.5442720419546 0.00202596694751378  74.9979047522739 1.46178366571705  74.9999248097526 3.2631110423265  Z M 3.32161665450198 0.383951630726855  C 3.32161665450198 0.383951630726855  71.7505054352031 0.383897359944058  71.7505054352031 0.383897359944058  C 73.3332369291768 0.385697039330594  74.6158477223515 1.67371301471331  74.6176411449742 3.26311576152536  C 74.6176411449742 3.26311576152536  74.6177163352214 96.5497565787715  74.6177163352214 96.5497565787715  C 74.6159203309541 98.1391547226103  73.3333145833873 99.4271666866826  71.750587674536 99.4289702611544  C 71.750587674536 99.4289702611544  3.32169654413963 99.4290268915364  3.32169654413963 99.4290268915364  C 1.73896688392125 99.4272259146244  0.456357898765361 98.1392117548807  0.454563184063744 96.5498108495544  C 0.454563184063744 96.5498108495544  0.454485644121291 3.26317239190743  0.454485644121291 3.26317239190743  C 0.45627776714619 1.67377056362426  1.73888607961052 0.385753912714502  3.32161665450198 0.383951630726855  Z " fill-rule="nonzero" fill="#cccccc" stroke="none" transform="matrix(1 0 0 1 139 17 )" />
  </g>
</svg>