<?xml version="1.0" encoding="utf-8"?>
<svg version="1.1" xmlns:xlink="http://www.w3.org/1999/xlink" width="14px" height="8px" xmlns="http://www.w3.org/2000/svg">
  <g transform="matrix(1 0 0 1 -153 -33 )">
    <path d="M 4.27066757488706 7.655519594718251  C 5.45619636912826 7.005105811376541  6.893889253431403 7.504086814318974  8.118495617988259 7.77689472422488  C 10.441921644494077 8.45490865821352  13.700102793829346 7.605887319802697  13.982632460426691 4.9785426556982735  C 14.276654958104686 2.535065160212607  10.755470773320718 1.1732246695884143  9.63001681565463 3.6051946028906294  C 9.63001681565463 3.6051946028906294  9.957718072770511 3.5645362420178786  9.957718072770511 3.5645362420178786  C 6.307706252281799 -1.5847851672050264  -0.04138527964753637 -1.3894911993216832  0.0003734650932383669 5.689920905229437  C -0.013158808727808181 5.908624582026178  0.3454719709494154 5.907886178196481  0.35888513548052187 5.689789377047269  C 0.22450554838233985 1.5180038777702096  3.13296723757116 -1.3337117125238969  7.24432336931763 1.3472595297123624  C 8.162545603540146 2.029630963073631  8.972155452866359 2.8342951305399766  9.648089827305343 3.736342045580906  C 10.076265847510786 4.191844908025926  10.169312080189469 2.2301528362986023  12.218645753270728 2.743966526170096  C 14.473997174359155 3.5733970879742425  13.738088934120654 6.6390767254832115  11.722205525104698 7.312081050989743  C 9.23141879218975 8.520063566136496  6.53381214666173 6.177938918812804  4.089665208574263 7.361447962029  C 4.007883141836722 7.410476357943761  3.981731256751351 7.512202083188862  4.030527779913412 7.591481009360603  C 4.079324303075475 7.670759935532351  4.1855194567165475 7.699079221020862  4.270667574887087 7.655519594718244  Z " fill-rule="nonzero" fill="#2f2e41" stroke="none" transform="matrix(1 0 0 1 153 33 )" />
  </g>
</svg>