<?xml version="1.0" encoding="utf-8"?>
<svg version="1.1" xmlns:xlink="http://www.w3.org/1999/xlink" width="14px" height="8px" xmlns="http://www.w3.org/2000/svg">
  <g transform="matrix(1 0 0 1 -153 -33 )">
    <path d="M 4.27066757488706 7.65551959471825  C 5.45619636912826 7.00510581137654  6.8938892534314 7.50408681431897  8.11849561798826 7.77689472422488  C 10.4419216444941 8.45490865821352  13.7001027938293 7.6058873198027  13.9826324604267 4.97854265569827  C 14.2766549581047 2.53506516021261  10.7554707733207 1.17322466958841  9.63001681565463 3.60519460289063  C 9.63001681565463 3.60519460289063  9.95771807277051 3.56453624201788  9.95771807277051 3.56453624201788  C 6.3077062522818 -1.58478516720503  -0.0413852796475364 -1.38949119932168  0.000373465093238367 5.68992090522944  C -0.0131588087278082 5.90862458202618  0.345471970949415 5.90788617819648  0.358885135480522 5.68978937704727  C 0.22450554838234 1.51800387777021  3.13296723757116 -1.3337117125239  7.24432336931763 1.34725952971236  C 8.16254560354015 2.02963096307363  8.97215545286636 2.83429513053998  9.64808982730534 3.73634204558091  C 10.0762658475108 4.19184490802593  10.1693120801895 2.2301528362986  12.2186457532707 2.7439665261701  C 14.4739971743592 3.57339708797424  13.7380889341207 6.63907672548321  11.7222055251047 7.31208105098974  C 9.23141879218975 8.5200635661365  6.53381214666173 6.1779389188128  4.08966520857426 7.361447962029  C 4.00788314183672 7.41047635794376  3.98173125675135 7.51220208318886  4.03052777991341 7.5914810093606  C 4.07932430307547 7.67075993553235  4.18551945671655 7.69907922102086  4.27066757488709 7.65551959471824  Z " fill-rule="nonzero" fill="#2f2e41" stroke="none" transform="matrix(1 0 0 1 153 33 )" />
  </g>
</svg>