<?xml version="1.0" encoding="utf-8"?>
<svg version="1.1" xmlns:xlink="http://www.w3.org/1999/xlink" width="27px" height="27px" xmlns="http://www.w3.org/2000/svg">
  <g transform="matrix(1 0 0 1 -147 -28 )">
    <path d="M 17.816508488718142 25.620765671351577  C 16.51109127198265 26.047112714005998  15.146763752103368 26.26354006014155  13.774043478473915 26.2620339601349  C 6.967496792666169 26.256279249355288  1.3093631363647376 20.996177048135095  0.7795652211100901 14.181675340620217  C 0.24976730585547102 7.367173633105337  5.026396190387544 1.2889606023416071  11.749578295018495 0.22244216062603073  C 18.472760399649474 -0.8440762810895457  24.882504537854317 3.4596090128097465  26.470206314543418 10.106292273609498  C 28.057908091232544 16.75297553440926  24.289863083960512 23.508380588229883  17.816508488718142 25.620765671351577  Z M 26.13681922846149 13.150958468608664  C 26.129102938517775 6.297609512301932  20.5986055012186 0.7438072182069568  13.774022331216855 0.7360662192637157  C 8.772709912976552 0.7353552201648377  4.263498407137405 3.7603192734187165  2.34925324728448 8.400269983240939  C 0.4350080874315551 13.040220693063155  1.4927576145781813 18.38127672638433  5.029221592224673 21.932642941577626  C 8.565685569871164 25.484009156770924  13.884324612932717 26.546211034831643  18.504797716582402 24.62389199069596  C 23.12527082023209 22.70157294656029  26.13753294661302 18.173351547645424  26.13681922846149 13.150958468608664  Z " fill-rule="nonzero" fill="#cccccc" stroke="none" transform="matrix(1 0 0 1 147 28 )" />
  </g>
</svg>