<?xml version="1.0" encoding="utf-8"?>
<svg version="1.1" xmlns:xlink="http://www.w3.org/1999/xlink" width="27px" height="27px" xmlns="http://www.w3.org/2000/svg">
  <g transform="matrix(1 0 0 1 -147 -28 )">
    <path d="M 17.8165084887181 25.6207656713516  C 16.5110912719827 26.047112714006  15.1467637521034 26.2635400601416  13.7740434784739 26.2620339601349  C 6.96749679266617 26.2562792493553  1.30936313636474 20.9961770481351  0.77956522111009 14.1816753406202  C 0.249767305855471 7.36717363310534  5.02639619038754 1.28896060234161  11.7495782950185 0.222442160626031  C 18.4727603996495 -0.844076281089546  24.8825045378543 3.45960901280975  26.4702063145434 10.1062922736095  C 28.0579080912325 16.7529755344093  24.2898630839605 23.5083805882299  17.8165084887181 25.6207656713516  Z M 26.1368192284615 13.1509584686087  C 26.1291029385178 6.29760951230193  20.5986055012186 0.743807218206957  13.7740223312169 0.736066219263716  C 8.77270991297655 0.735355220164838  4.2634984071374 3.76031927341872  2.34925324728448 8.40026998324094  C 0.435008087431555 13.0402206930632  1.49275761457818 18.3812767263843  5.02922159222467 21.9326429415776  C 8.56568556987116 25.4840091567709  13.8843246129327 26.5462110348316  18.5047977165824 24.623891990696  C 23.1252708202321 22.7015729465603  26.137532946613 18.1733515476454  26.1368192284615 13.1509584686087  Z " fill-rule="nonzero" fill="#cccccc" stroke="none" transform="matrix(1 0 0 1 147 28 )" />
  </g>
</svg>