<?xml version="1.0" encoding="utf-8"?>
<svg version="1.1" xmlns:xlink="http://www.w3.org/1999/xlink" width="59px" height="68px" xmlns="http://www.w3.org/2000/svg">
  <g transform="matrix(1 0 0 1 -147 -38 )">
    <path d="M 50.50350882567005 0.15184882901985475  C 51.34951763660132 0.15184882901985475  52.035343284598156 0.8405652499178728  52.035343284598156 1.6901400099383892  C 52.035343284598156 2.5397147699588984  51.34951763660132 3.2284311908569236  50.50350882567005 3.2284311908569236  C 50.50350882567005 3.2284311908569236  31.14048816293734 3.2284477080516893  31.14048816293734 3.2284477080516893  C 30.294478703155676 3.2284477080516893  29.608652529161645 2.5397307589393776  29.608652529161645 1.6901553473335298  C 29.608652529161645 0.8405799357276678  30.294478703155676 0.15186298661536313  31.14048816293734 0.15186298661536313  C 31.14048816293734 0.15186298661536313  50.50350882567005 0.15184882901985475  50.50350882567005 0.15184882901985475  Z M 56.82233272412225 8.420160682008138  C 56.82233272412225 8.420160682008138  31.14049286232787 8.420181918401404  31.14049286232787 8.420181918401404  C 30.59276880792601 8.420863139823503  30.08636042924951 8.127815344963281  29.812302389029295 7.651586243954384  C 29.538244348809116 7.175357142945501  29.538244348809116 6.588421972420967  29.812302389029295 6.112192871412084  C 30.08636042924951 5.635963770403194  30.59276880792601 5.342915975542965  31.140492862327847 5.343597196965071  C 31.140492862327847 5.343597196965071  56.82233272412225 5.343575960571798  56.82233272412225 5.343575960571798  C 57.66834218390392 5.343575960571798  58.35416835789792 6.032292909684109  58.35416835789792 6.881868321289957  C 58.35416835789792 7.731443732895826  57.66834218390392 8.420160682008124  56.82233272412225 8.420160682008138  Z M 50.47533832960676 28.33262056538925  C 50.47533832960676 28.33262056538925  2.2498528073541024 28.332660678576545  2.2498528073541024 28.332660678576545  C 1.4045841528771632 28.331609391694215  0.7199131935667538 27.64320045266065  0.7199131935667538 26.79436831785837  C 0.7199131935667538 25.945536183056113  1.4045841528771632 25.25712724402254  2.2498528073541024 25.25607595714021  C 2.2498528073541024 25.25607595714021  50.47533832960676 25.25603820355218  50.47533832960676 25.25603820355218  C 51.32134714053808 25.25603820355218  52.00717278853486 25.944754624450205  52.00717278853486 26.794329384470714  C 52.00717278853486 27.64390414449123  51.32134714053808 28.33262056538925  50.47533832960676 28.33262056538925  Z M 0.9216670334459991 32.755799214479225  C 0.6476089932258162 32.27957011347033  0.6476089932258162 31.6926349429458  0.9216670334459991 31.21640584193692  C 1.1957250736662104 30.740176740928035  1.7021334523427072 30.447128946067792  2.249857506744547 30.447810167489905  C 2.249857506744547 30.447810167489905  56.794162228058894 30.447765335104123  56.794162228058894 30.447765335104123  C 57.640171687840564 30.447765335104123  58.325997861834594 31.136482284216427  58.325997861834594 31.986057695822282  C 58.325997861834594 32.83563310742812  57.640171687840564 33.52435005654044  56.794162228058894 33.52435005654044  C 56.794162228058894 33.52435005654044  2.2498575067445756 33.524394888926224  2.2498575067445756 33.524394888926224  C 1.7021334523427072 33.52507611034834  1.1957250736662104 33.232028315488094  0.9216670334459991 32.755799214479225  Z M 0.7199272917424651 43.9186997691904  C 0.7199272917424651 43.06986763438985  1.4045982510502029 42.381458695357  2.2498669055254084 42.38040740847224  C 2.2498669055254084 42.38040740847224  50.475352427778034 42.38036729528494  50.475352427778034 42.38036729528494  C 51.3213618875597 42.38036729528494  52.007188061553705 43.06908424439726  52.007188061553705 43.918659656003115  C 52.007188061553705 44.768235067608984  51.3213618875597 45.456952016721274  50.475352427778034 45.45695201672129  C 50.475352427778034 45.45695201672129  2.2498669055254368 45.456992129908585  2.2498669055254368 45.456992129908585  C 1.4045982510502029 45.45594084302381  0.7199272917424651 44.76753190399094  0.7199272917424651 43.9186997691904  Z M 2.2498716049158816 47.57214161882163  C 2.2498716049158816 47.57214161882163  56.79417632623017 47.57209678643585  56.79417632623017 47.57209678643585  C 57.64018578601187 47.572096786435836  58.32601196000587 48.260813735548155  58.32601196000587 49.110389147153995  C 58.32601196000587 49.95996455875985  57.64018578601187 50.648681507872155  56.79417632623023 50.64868150787218  C 56.79417632623023 50.64868150787218  2.24987160491591 50.648726340257966  2.24987160491591 50.648726340257966  C 1.7021475505150931 50.64940756167847  1.1957391718402164 50.35635976681792  0.9216811316209998 49.88013066580967  C 0.6476230914017833 49.403901564801444  0.6476230914017833 48.816966394278154  0.9216811316209998 48.34073729326991  C 1.1957391718402164 47.86450819226167  1.7021475505150931 47.571460397401125  2.2498716049158816 47.57214161882163  Z M 50.475366525949454 59.50469874661803  C 51.32137533688075 59.50469874661803  52.00720098487756 60.193415167516065  52.00720098487756 61.04298992753658  C 52.00720098487756 61.89256468755708  51.32137533688075 62.581281108455116  50.475366525949454 62.5812811084551  C 50.475366525949454 62.5812811084551  2.249881003696828 62.5813212216424  2.249881003696828 62.5813212216424  C 1.4038721927655615 62.5813212216424  0.7180465447687538 61.892604800744365  0.7180465447687538 61.04303004072385  C 0.7180465447687538 60.19345528070335  1.4038721927655615 59.50473885980533  2.249881003696828 59.50473885980533  C 2.249881003696828 59.50473885980533  50.475366525949454 59.50469874661803  50.475366525949454 59.50469874661803  Z M 56.79419042440159 64.69642823776894  C 57.64019923533289 64.69642823776894  58.326024883329694 65.38514465866697  58.326024883329694 66.23471941868746  C 58.326024883329694 67.08429417870796  57.64019923533289 67.773010599606  56.79419042440159 67.773010599606  C 56.79419042440159 67.773010599606  2.2498857030872443 67.77305543199178  2.2498857030872443 67.77305543199178  C 1.4038768921559779 67.77305543199178  0.7180512441591418 67.08433901109375  0.7180512441591418 66.23476425107326  C 0.7180512441591418 65.38518949105274  1.4038768921559779 64.69647307015472  2.2498857030872443 64.69647307015472  C 2.2498857030872443 64.69647307015472  56.79419042440159 64.69642823776894  56.79419042440159 64.69642823776894  Z " fill-rule="nonzero" fill="#e6e6e6" stroke="none" transform="matrix(1 0 0 1 147 38 )" />
  </g>
</svg>