<?xml version="1.0" encoding="utf-8"?>
<svg version="1.1" xmlns:xlink="http://www.w3.org/1999/xlink" width="59px" height="68px" xmlns="http://www.w3.org/2000/svg">
  <g transform="matrix(1 0 0 1 -147 -38 )">
    <path d="M 50.5035088256701 0.151848829019855  C 51.3495176366013 0.151848829019855  52.0353432845982 0.840565249917873  52.0353432845982 1.69014000993839  C 52.0353432845982 2.5397147699589  51.3495176366013 3.22843119085692  50.5035088256701 3.22843119085692  C 50.5035088256701 3.22843119085692  31.1404881629373 3.22844770805169  31.1404881629373 3.22844770805169  C 30.2944787031557 3.22844770805169  29.6086525291616 2.53973075893938  29.6086525291616 1.69015534733353  C 29.6086525291616 0.840579935727668  30.2944787031557 0.151862986615363  31.1404881629373 0.151862986615363  C 31.1404881629373 0.151862986615363  50.5035088256701 0.151848829019855  50.5035088256701 0.151848829019855  Z M 56.8223327241222 8.42016068200814  C 56.8223327241222 8.42016068200814  31.1404928623279 8.4201819184014  31.1404928623279 8.4201819184014  C 30.592768807926 8.4208631398235  30.0863604292495 8.12781534496328  29.8123023890293 7.65158624395438  C 29.5382443488091 7.1753571429455  29.5382443488091 6.58842197242097  29.8123023890293 6.11219287141208  C 30.0863604292495 5.63596377040319  30.592768807926 5.34291597554297  31.1404928623278 5.34359719696507  C 31.1404928623278 5.34359719696507  56.8223327241222 5.3435759605718  56.8223327241222 5.3435759605718  C 57.6683421839039 5.3435759605718  58.3541683578979 6.03229290968411  58.3541683578979 6.88186832128996  C 58.3541683578979 7.73144373289583  57.6683421839039 8.42016068200812  56.8223327241222 8.42016068200814  Z M 50.4753383296068 28.3326205653892  C 50.4753383296068 28.3326205653892  2.2498528073541 28.3326606785765  2.2498528073541 28.3326606785765  C 1.40458415287716 28.3316093916942  0.719913193566754 27.6432004526607  0.719913193566754 26.7943683178584  C 0.719913193566754 25.9455361830561  1.40458415287716 25.2571272440225  2.2498528073541 25.2560759571402  C 2.2498528073541 25.2560759571402  50.4753383296068 25.2560382035522  50.4753383296068 25.2560382035522  C 51.3213471405381 25.2560382035522  52.0071727885349 25.9447546244502  52.0071727885349 26.7943293844707  C 52.0071727885349 27.6439041444912  51.3213471405381 28.3326205653892  50.4753383296068 28.3326205653892  Z M 0.921667033445999 32.7557992144792  C 0.647608993225816 32.2795701134703  0.647608993225816 31.6926349429458  0.921667033445999 31.2164058419369  C 1.19572507366621 30.740176740928  1.70213345234271 30.4471289460678  2.24985750674455 30.4478101674899  C 2.24985750674455 30.4478101674899  56.7941622280589 30.4477653351041  56.7941622280589 30.4477653351041  C 57.6401716878406 30.4477653351041  58.3259978618346 31.1364822842164  58.3259978618346 31.9860576958223  C 58.3259978618346 32.8356331074281  57.6401716878406 33.5243500565404  56.7941622280589 33.5243500565404  C 56.7941622280589 33.5243500565404  2.24985750674458 33.5243948889262  2.24985750674458 33.5243948889262  C 1.70213345234271 33.5250761103483  1.19572507366621 33.2320283154881  0.921667033445999 32.7557992144792  Z M 0.719927291742465 43.9186997691904  C 0.719927291742465 43.0698676343899  1.4045982510502 42.381458695357  2.24986690552541 42.3804074084722  C 2.24986690552541 42.3804074084722  50.475352427778 42.3803672952849  50.475352427778 42.3803672952849  C 51.3213618875597 42.3803672952849  52.0071880615537 43.0690842443973  52.0071880615537 43.9186596560031  C 52.0071880615537 44.768235067609  51.3213618875597 45.4569520167213  50.475352427778 45.4569520167213  C 50.475352427778 45.4569520167213  2.24986690552544 45.4569921299086  2.24986690552544 45.4569921299086  C 1.4045982510502 45.4559408430238  0.719927291742465 44.7675319039909  0.719927291742465 43.9186997691904  Z M 2.24987160491588 47.5721416188216  C 2.24987160491588 47.5721416188216  56.7941763262302 47.5720967864358  56.7941763262302 47.5720967864358  C 57.6401857860119 47.5720967864358  58.3260119600059 48.2608137355482  58.3260119600059 49.110389147154  C 58.3260119600059 49.9599645587599  57.6401857860119 50.6486815078722  56.7941763262302 50.6486815078722  C 56.7941763262302 50.6486815078722  2.24987160491591 50.648726340258  2.24987160491591 50.648726340258  C 1.70214755051509 50.6494075616785  1.19573917184022 50.3563597668179  0.921681131621 49.8801306658097  C 0.647623091401783 49.4039015648014  0.647623091401783 48.8169663942782  0.921681131621 48.3407372932699  C 1.19573917184022 47.8645081922617  1.70214755051509 47.5714603974011  2.24987160491588 47.5721416188216  Z M 50.4753665259495 59.504698746618  C 51.3213753368807 59.504698746618  52.0072009848776 60.1934151675161  52.0072009848776 61.0429899275366  C 52.0072009848776 61.8925646875571  51.3213753368807 62.5812811084551  50.4753665259495 62.5812811084551  C 50.4753665259495 62.5812811084551  2.24988100369683 62.5813212216424  2.24988100369683 62.5813212216424  C 1.40387219276556 62.5813212216424  0.718046544768754 61.8926048007444  0.718046544768754 61.0430300407238  C 0.718046544768754 60.1934552807033  1.40387219276556 59.5047388598053  2.24988100369683 59.5047388598053  C 2.24988100369683 59.5047388598053  50.4753665259495 59.504698746618  50.4753665259495 59.504698746618  Z M 56.7941904244016 64.6964282377689  C 57.6401992353329 64.6964282377689  58.3260248833297 65.385144658667  58.3260248833297 66.2347194186875  C 58.3260248833297 67.084294178708  57.6401992353329 67.773010599606  56.7941904244016 67.773010599606  C 56.7941904244016 67.773010599606  2.24988570308724 67.7730554319918  2.24988570308724 67.7730554319918  C 1.40387689215598 67.7730554319918  0.718051244159142 67.0843390110937  0.718051244159142 66.2347642510733  C 0.718051244159142 65.3851894910527  1.40387689215598 64.6964730701547  2.24988570308724 64.6964730701547  C 2.24988570308724 64.6964730701547  56.7941904244016 64.6964282377689  56.7941904244016 64.6964282377689  Z " fill-rule="nonzero" fill="#e6e6e6" stroke="none" transform="matrix(1 0 0 1 147 38 )" />
  </g>
</svg>