<?xml version="1.0" encoding="utf-8"?>
<svg version="1.1" xmlns:xlink="http://www.w3.org/1999/xlink" width="25px" height="26px" xmlns="http://www.w3.org/2000/svg">
  <g transform="matrix(1 0 0 1 -107 -68 )">
    <path d="M 1.0935757306063155E-05 13.000437235860595  C -0.004387822472632005 16.456319462074713  1.3183808843168363 19.770899984225643  3.674394332389753 22.20767019720923  C 3.7721467060935954 22.30812969305743  3.872117258749725 22.408572365545083  3.973196900882 22.506662170893136  C 4.582308728120142 23.098570567769983  5.246900400049667 23.625517127173286  5.9570160044524725 24.07960792880495  C 6.093323101070845 24.16706056361175  6.2296879627660875 24.250965872679995  6.369435547363597 24.33251110459696  C 7.08757846134075 24.753475609765143  7.844208357464592 25.09907460115523  8.628144788199972 25.364201286911335  C 8.76334279534219 25.410292488140445  8.900816746513588 25.454018805543846  9.038290697685012 25.49419539387146  C 11.530266971230564 26.237550587515333  14.182419361747556 26.15993884844751  16.630271570656546 25.27202609446479  C 16.67798321355852 25.254296675783632  16.72569947766663 25.236567257102486  16.772292788680144 25.218845048433003  C 22.731924070704782 22.963668076293704  26.123288689251652 16.42365681966042  24.66154298648451 10.004973671151147  C 23.199797283717338 3.586290522641861  17.34828652245777 -0.6764654593812536  11.049313803501095 0.08862663773269325  C 4.750341084544417 0.85371873484664  0.0005595633925205288 6.404139437191272  1.0935757266660383E-05 13.000437235860634  Z " fill-rule="nonzero" fill="#ffffff" stroke="none" transform="matrix(1 0 0 1 107 68 )" />
  </g>
</svg>