<?xml version="1.0" encoding="utf-8"?>
<svg version="1.1" xmlns:xlink="http://www.w3.org/1999/xlink" width="25px" height="26px" xmlns="http://www.w3.org/2000/svg">
  <g transform="matrix(1 0 0 1 -107 -68 )">
    <path d="M 1.09357573060632E-05 13.0004372358606  C -0.00438782247263201 16.4563194620747  1.31838088431684 19.7708999842256  3.67439433238975 22.2076701972092  C 3.7721467060936 22.3081296930574  3.87211725874973 22.4085723655451  3.973196900882 22.5066621708931  C 4.58230872812014 23.09857056777  5.24690040004967 23.6255171271733  5.95701600445247 24.079607928805  C 6.09332310107084 24.1670605636117  6.22968796276609 24.25096587268  6.3694355473636 24.332511104597  C 7.08757846134075 24.7534756097651  7.84420835746459 25.0990746011552  8.62814478819997 25.3642012869113  C 8.76334279534219 25.4102924881404  8.90081674651359 25.4540188055438  9.03829069768501 25.4941953938715  C 11.5302669712306 26.2375505875153  14.1824193617476 26.1599388484475  16.6302715706565 25.2720260944648  C 16.6779832135585 25.2542966757836  16.7256994776666 25.2365672571025  16.7722927886801 25.218845048433  C 22.7319240707048 22.9636680762937  26.1232886892517 16.4236568196604  24.6615429864845 10.0049736711511  C 23.1997972837173 3.58629052264186  17.3482865224578 -0.676465459381254  11.0493138035011 0.0886266377326932  C 4.75034108454442 0.85371873484664  0.000559563392520529 6.40413943719127  1.09357572666604E-05 13.0004372358606  Z " fill-rule="nonzero" fill="#ffffff" stroke="none" transform="matrix(1 0 0 1 107 68 )" />
  </g>
</svg>