<?xml version="1.0" encoding="utf-8"?>
<svg version="1.1" xmlns:xlink="http://www.w3.org/1999/xlink" width="5px" height="4px" xmlns="http://www.w3.org/2000/svg">
  <g transform="matrix(1 0 0 1 -112 -87 )">
    <path d="M 4.999925856045601 0.1730262476337766  C 5.0058586065141295 1.1895790229618597  4.655560487610188 2.171634286094682  4.018076957360771 2.9256241821348983  C 3.387304556650866 3.6660359112002885  2.448264056757205 4.157066682424332  1.5006460011428424 3.9539052085400135  C 0.6280736201033454 3.7668343155136705  -0.0809899555082988 2.951119735401493  0.00747090735000545 1.9643059770781353  C 0.03717782246835547 1.5316788687574672  0.2435595416328694 1.1350179824602655  0.571636683119169 0.8799924170347724  C 0.8997138246054686 0.6249668516092656  1.316166988839329 0.5374769141526636  1.7100544820533359 0.6408296237552672  C 2.5389656983177855 0.8709106175824431  2.8692401494735016 2.148693893709334  2.1785087745203437 2.7484555582269414  C 2.012761458384872 2.8923732260335453  1.7746447013473066 2.640673167438352  1.941931985841946 2.4954164372717926  C 2.151545045656799 2.290395881454371  2.2494278008890993 1.9855200792620764  2.201797107475495 1.6860135222043633  C 2.1541664140618897 1.3865069651466495  1.967546182944413 1.1333926567689476  1.7063463108203538 1.0140301848158133  C 1.3989965305827459 0.9087948168481664  1.063475065933104 0.9605769794778796  0.7964762721126766 1.1544535057662884  C 0.529477478292275 1.348330032054698  0.36066322606548135 1.6627624708922353  0.33868430828590856 2.0071341400583265  C 0.28397347363483066 2.8390557412336888  0.879814220931133 3.465559839548717  1.6105121973941245 3.613062895340855  C 2.4009741005615353 3.7726272157230603  3.184690987675717 3.3398965997469747  3.7203074053561003 2.7426238446158293  C 4.334159865580877 2.0490478382783768  4.672882073011816 1.1280485212718905  4.6653467510671085 0.17302382179618783  C 4.668373136839532 0.07654102152166188  4.742374965708789 0  4.8326306335698 0  C 4.922886301430811 0  4.996888130300069 0.07654102152166188  4.999914516072491 0.17302382179618783  Z " fill-rule="nonzero" fill="#2f2e41" stroke="none" transform="matrix(1 0 0 1 112 87 )" />
  </g>
</svg>