<?xml version="1.0" encoding="utf-8"?>
<svg version="1.1" xmlns:xlink="http://www.w3.org/1999/xlink" width="5px" height="4px" xmlns="http://www.w3.org/2000/svg">
  <g transform="matrix(1 0 0 1 -112 -87 )">
    <path d="M 4.9999258560456 0.173026247633777  C 5.00585860651413 1.18957902296186  4.65556048761019 2.17163428609468  4.01807695736077 2.9256241821349  C 3.38730455665087 3.66603591120029  2.44826405675721 4.15706668242433  1.50064600114284 3.95390520854001  C 0.628073620103345 3.76683431551367  -0.0809899555082988 2.95111973540149  0.00747090735000545 1.96430597707814  C 0.0371778224683555 1.53167886875747  0.243559541632869 1.13501798246027  0.571636683119169 0.879992417034772  C 0.899713824605469 0.624966851609266  1.31616698883933 0.537476914152664  1.71005448205334 0.640829623755267  C 2.53896569831779 0.870910617582443  2.8692401494735 2.14869389370933  2.17850877452034 2.74845555822694  C 2.01276145838487 2.89237322603355  1.77464470134731 2.64067316743835  1.94193198584195 2.49541643727179  C 2.1515450456568 2.29039588145437  2.2494278008891 1.98552007926208  2.2017971074755 1.68601352220436  C 2.15416641406189 1.38650696514665  1.96754618294441 1.13339265676895  1.70634631082035 1.01403018481581  C 1.39899653058275 0.908794816848166  1.0634750659331 0.96057697947788  0.796476272112677 1.15445350576629  C 0.529477478292275 1.3483300320547  0.360663226065481 1.66276247089224  0.338684308285909 2.00713414005833  C 0.283973473634831 2.83905574123369  0.879814220931133 3.46555983954872  1.61051219739412 3.61306289534086  C 2.40097410056154 3.77262721572306  3.18469098767572 3.33989659974697  3.7203074053561 2.74262384461583  C 4.33415986558088 2.04904783827838  4.67288207301182 1.12804852127189  4.66534675106711 0.173023821796188  C 4.66837313683953 0.0765410215216619  4.74237496570879 0  4.8326306335698 0  C 4.92288630143081 0  4.99688813030007 0.0765410215216619  4.99991451607249 0.173023821796188  Z " fill-rule="nonzero" fill="#2f2e41" stroke="none" transform="matrix(1 0 0 1 112 87 )" />
  </g>
</svg>