<?xml version="1.0" encoding="utf-8"?>
<svg version="1.1" xmlns:xlink="http://www.w3.org/1999/xlink" width="2px" height="4px" xmlns="http://www.w3.org/2000/svg">
  <g transform="matrix(1 0 0 1 -120 -82 )">
    <path d="M 1.53633926225874 3.7036446803961063  C 1.0792754775277213 3.975562757814934  0.485306512993206 3.9891026337890003  0.008032874078130522 4  C 0.008032874078130522 4  0 3.7650316635268006  0 3.7650316635268006  C 0.5369610923775812 3.7528679951689465  1.0103577029195587 3.72544896981543  1.3660787248015462 3.513883330565796  C 1.5701451011581002 3.385618253860988  1.695586684629892 3.191436798079749  1.7097577728645608 2.9818739599299113  C 1.7224267410783607 2.853606858884607  1.660909247813634 2.7278649731445648  1.5433860034576685 2.64180971301531  C 1.2696115465546924 2.5067079139320922  0.927019332094608 2.5042432196909687  0.6503546338034129 2.6353850215570143  C 0.6503546338034129 2.6353850215570143  0.4115402517292224 2.7245303034466235  0.4115402517292224 2.7245303034466235  L 0.8695079915994208 0  L 1.1554630472004064 0.03189647860487589  C 1.1554630472004064 0.03189647860487589  0.7659200154988028 2.349468332292027  0.7659200154988028 2.349468332292027  C 1.089910160715096 2.2516095062328216  1.452747142335756 2.294112063774406  1.7297005493939532 2.4623651418079233  C 1.915579238596232 2.594469359934594  2.014905827190148 2.789719876677615  1.9981810955827273 2.9901288163778306  C 1.981126563783628 3.2717983042798577  1.812091265655898 3.5329469445516453  1.53633926225874 3.7036446803961063  Z " fill-rule="nonzero" fill="#2f2e41" stroke="none" transform="matrix(1 0 0 1 120 82 )" />
  </g>
</svg>