<?xml version="1.0" encoding="utf-8"?>
<svg version="1.1" xmlns:xlink="http://www.w3.org/1999/xlink" width="2px" height="4px" xmlns="http://www.w3.org/2000/svg">
  <g transform="matrix(1 0 0 1 -120 -82 )">
    <path d="M 1.53633926225874 3.70364468039611  C 1.07927547752772 3.97556275781493  0.485306512993206 3.989102633789  0.00803287407813052 4  C 0.00803287407813052 4  0 3.7650316635268  0 3.7650316635268  C 0.536961092377581 3.75286799516895  1.01035770291956 3.72544896981543  1.36607872480155 3.5138833305658  C 1.5701451011581 3.38561825386099  1.69558668462989 3.19143679807975  1.70975777286456 2.98187395992991  C 1.72242674107836 2.85360685888461  1.66090924781363 2.72786497314456  1.54338600345767 2.64180971301531  C 1.26961154655469 2.50670791393209  0.927019332094608 2.50424321969097  0.650354633803413 2.63538502155701  C 0.650354633803413 2.63538502155701  0.411540251729222 2.72453030344662  0.411540251729222 2.72453030344662  L 0.869507991599421 0  L 1.15546304720041 0.0318964786048759  C 1.15546304720041 0.0318964786048759  0.765920015498803 2.34946833229203  0.765920015498803 2.34946833229203  C 1.0899101607151 2.25160950623282  1.45274714233576 2.29411206377441  1.72970054939395 2.46236514180792  C 1.91557923859623 2.59446935993459  2.01490582719015 2.78971987667761  1.99818109558273 2.99012881637783  C 1.98112656378363 3.27179830427986  1.8120912656559 3.53294694455165  1.53633926225874 3.70364468039611  Z " fill-rule="nonzero" fill="#2f2e41" stroke="none" transform="matrix(1 0 0 1 120 82 )" />
  </g>
</svg>