<?xml version="1.0" encoding="utf-8"?>
<svg version="1.1" xmlns:xlink="http://www.w3.org/1999/xlink" width="8px" height="3px" xmlns="http://www.w3.org/2000/svg">
  <g transform="matrix(1 0 0 1 -116 -91 )">
    <path d="M 0.228055924108075 2.33509701559918  C 0.150464615128147 2.39462697642715  0.0740850728329786 2.45639761912489  0 2.51929431295596  C 2.5776835788002 3.22576290724853  5.3210522609524 3.15200239993158  7.85309420261062 2.30814944709794  C 7.90244680669903 2.29129979352668  7.95180419093213 2.27445013995542  8 2.2576073386223  C 7.40334130620159 1.81775619099631  6.72849276485797 1.4844548602607  6.00792010227121 1.27373786248367  C 6.05889259571046 1.10104312620194  6.05807686960605 0.918137522369481  6.0055658810001 0.745864277441728  C 5.85911140599988 0.297384539759642  5.42179273336147 -0.00590127780187806  4.93021974624004 9.86560592559775E-05  C 4.93021974624004 9.86560592559775E-05  3.39768862077587 9.86560592559775E-05  3.39768862077587 9.86560592559775E-05  C 2.90689546733053 -0.00627518245266662  2.47023268893623 0.296761266639514  2.32469431721458 0.744738226308377  C 2.27218551208287 0.917392749413614  2.27137074671894 1.10065632647488  2.32234248601584 1.27373101024551  C 1.68762692726576 1.45946144533383  1.0878173242436 1.7403769508655  0.545340419499557 2.10597416095719  C 0.436020103296963 2.17898095147494  0.330258604833135 2.2553552363556  0.228055924108075 2.33509701559918  Z " fill-rule="nonzero" fill="#2f2e41" stroke="none" transform="matrix(1 0 0 1 116 91 )" />
  </g>
</svg>