<?xml version="1.0" encoding="utf-8"?>
<svg version="1.1" xmlns:xlink="http://www.w3.org/1999/xlink" width="8px" height="3px" xmlns="http://www.w3.org/2000/svg">
  <g transform="matrix(1 0 0 1 -116 -91 )">
    <path d="M 0.2280559241080748 2.335097015599183  C 0.1504646151281468 2.394626976427146  0.07408507283297862 2.456397619124886  0 2.5192943129559633  C 2.5776835788001975 3.2257629072485283  5.321052260952398 3.1520023999315825  7.85309420261062 2.3081494470979447  C 7.902446806699026 2.291299793526677  7.9518041909321315 2.2744501399554222  8 2.2576073386222975  C 7.403341306201594 1.817756190996306  6.7284927648579655 1.484454860260697  6.007920102271212 1.273737862483668  C 6.058892595710461 1.1010431262019447  6.058076869606049 0.9181375223694813  6.005565881000099 0.7458642774417281  C 5.859111405999875 0.2973845397596415  5.421792733361475 -0.005901277801878062  4.930219746240045 9.865605925597751E-05  C 4.930219746240045 9.865605925597751E-05  3.397688620775867 9.865605925597751E-05  3.397688620775867 9.865605925597751E-05  C 2.906895467330533 -0.00627518245266662  2.4702326889362256 0.2967612666395137  2.324694317214576 0.744738226308377  C 2.272185512082871 0.9173927494136139  2.27137074671894 1.1006563264748785  2.32234248601584 1.2737310102455126  C 1.6876269272657631 1.4594614453338262  1.0878173242436024 1.7403769508654996  0.5453404194995572 2.1059741609571865  C 0.4360201032969625 2.178980951474938  0.330258604833135 2.2553552363555953  0.2280559241080748 2.335097015599183  Z " fill-rule="nonzero" fill="#2f2e41" stroke="none" transform="matrix(1 0 0 1 116 91 )" />
  </g>
</svg>