<?xml version="1.0" encoding="utf-8"?>
<svg version="1.1" xmlns:xlink="http://www.w3.org/1999/xlink" width="3px" height="4px" xmlns="http://www.w3.org/2000/svg">
  <g transform="matrix(1 0 0 1 -125 -81 )">
    <path d="M 0.860868268786447 0.191114804347308  C 0.352339015128177 0.511109742780919  0 1.20110744360959  0 1.99999661055823  C 0 3.00222290889803  0.554774432310044 3.8333343689961  1.27574588998082 3.97778333897299  C 1.34916650936609 3.99242293651825  1.42416845550322 3.99987284642139  1.49941205982137 4  C 2.32532264287166 4  2.99882666072626 3.10333221670057  2.99882666072626 2.00000338944178  C 3.0174716202924 1.43120590465466  2.81342029292366 0.874301399656823  2.42153822858903 0.424446235827195  C 2.29966384969205 0.293255327009475  2.14973271199558 0.184867380183491  1.98042646132067 0.105558515040366  C 1.83191574533996 0.0366083537265961  1.66694546281131 0.000405657933646213  1.49941205982137 0  C 1.26928141385916 0.00252422198929895  1.04588042406662 0.0693876651151192  0.860868268786447 0.191114804347308  Z " fill-rule="nonzero" fill="#3f3d56" stroke="none" transform="matrix(1 0 0 1 125 81 )" />
  </g>
</svg>