<?xml version="1.0" encoding="utf-8"?>
<svg version="1.1" xmlns:xlink="http://www.w3.org/1999/xlink" width="3px" height="4px" xmlns="http://www.w3.org/2000/svg">
  <g transform="matrix(1 0 0 1 -125 -81 )">
    <path d="M 0.8608682687864466 0.19111480434730835  C 0.3523390151281773 0.5111097427809188  0 1.2011074436095888  0 1.9999966105582327  C 0 3.0022229088980263  0.5547744323100441 3.8333343689961032  1.275745889980824 3.9777833389729875  C 1.3491665093660887 3.9924229365182535  1.4241684555032226 3.9998728464213866  1.4994120598213665 4  C 2.325322642871661 4  2.998826660726258 3.1033322167005726  2.998826660726258 2.00000338944178  C 3.0174716202924 1.4312059046546612  2.8134202929236576 0.8743013996568232  2.421538228589035 0.4244462358271952  C 2.299663849692054 0.2932553270094747  2.1497327119955756 0.1848673801834908  1.9804264613206743 0.10555851504036604  C 1.8319157453399644 0.03660835372659611  1.6669454628113092 0.0004056579336462128  1.4994120598213665 0  C 1.269281413859159 0.002524221989298946  1.0458804240666153 0.0693876651151192  0.8608682687864466 0.19111480434730835  Z " fill-rule="nonzero" fill="#3f3d56" stroke="none" transform="matrix(1 0 0 1 125 81 )" />
  </g>
</svg>