<?xml version="1.0" encoding="utf-8"?>
<svg version="1.1" xmlns:xlink="http://www.w3.org/1999/xlink" width="3px" height="4px" xmlns="http://www.w3.org/2000/svg">
  <g transform="matrix(1 0 0 1 -113 -81 )">
    <path d="M 0.5771539348329003 0.425559511152986  C 0.18639779233694945 0.8754515334985848  -0.017137656232954695 1.4317706512760495  0.001130927085193351 1.999990961503906  C 0.001130927085193351 2.862216035873785  0.41094961755558057 3.597771106865534  0.9857452656536749 3.8788841524658704  C 1.1430873678026527 3.957295491762324  1.3202126661170266 3.998964907930442  1.500575628011748 4  C 1.5406727188357945 3.9999940841972492  1.5807304843942867 3.9977678122697613  1.620516363960912 3.993334109137597  C 2.390182673451684 3.9122249048980913  3 3.0500020901522285  3 2.000000000000006  C 3 1.1588888524838357  2.6088508982376437 0.4377795578593632  2.0565695493028713 0.1433392497822258  C 1.8895368295375161 0.05110392625980032  1.6971844343115368 0.0015143157322910611  1.5005730868944385 0  C 1.3330179127751907 0.00039901027026637334  1.1680247403104524 0.03660178773550488  1.0194938443430592 0.10555833614847536  C 0.8497539354861252 0.185236644817846  0.6994205734767873 0.2939920418577555  0.5771539348329003 0.425559511152986  Z " fill-rule="nonzero" fill="#3f3d56" stroke="none" transform="matrix(1 0 0 1 113 81 )" />
  </g>
</svg>