<?xml version="1.0" encoding="utf-8"?>
<svg version="1.1" xmlns:xlink="http://www.w3.org/1999/xlink" width="3px" height="4px" xmlns="http://www.w3.org/2000/svg">
  <g transform="matrix(1 0 0 1 -113 -81 )">
    <path d="M 0.5771539348329 0.425559511152986  C 0.186397792336949 0.875451533498585  -0.0171376562329547 1.43177065127605  0.00113092708519335 1.99999096150391  C 0.00113092708519335 2.86221603587378  0.410949617555581 3.59777110686553  0.985745265653675 3.87888415246587  C 1.14308736780265 3.95729549176232  1.32021266611703 3.99896490793044  1.50057562801175 4  C 1.54067271883579 3.99999408419725  1.58073048439429 3.99776781226976  1.62051636396091 3.9933341091376  C 2.39018267345168 3.91222490489809  3 3.05000209015223  3 2.00000000000001  C 3 1.15888885248384  2.60885089823764 0.437779557859363  2.05656954930287 0.143339249782226  C 1.88953682953752 0.0511039262598003  1.69718443431154 0.00151431573229106  1.50057308689444 0  C 1.33301791277519 0.000399010270266373  1.16802474031045 0.0366017877355049  1.01949384434306 0.105558336148475  C 0.849753935486125 0.185236644817846  0.699420573476787 0.293992041857756  0.5771539348329 0.425559511152986  Z " fill-rule="nonzero" fill="#3f3d56" stroke="none" transform="matrix(1 0 0 1 113 81 )" />
  </g>
</svg>