<?xml version="1.0" encoding="utf-8"?>
<svg version="1.1" xmlns:xlink="http://www.w3.org/1999/xlink" width="14px" height="10px" xmlns="http://www.w3.org/2000/svg">
  <g transform="matrix(1 0 0 1 -113 -75 )">
    <path d="M 0.3658530620277568 9.875692214221534  C 0.3892754575047737 9.949948632278618  0.4543537248913933 9.999959108097555  0.5276138769102345 10  C 0.5825934422167716 9.999945365105718  0.6341896680871398 9.971593130088156  0.6662540752488575 9.923816918391417  C 0.6983184824106016 9.876040706694663  0.7069333693336375 9.814677923536303  0.6894024666578874 9.758933764940194  C -0.20497050277972073 6.913787435271859  0.6641609857113788 3.774190073967152  2.8625463938600633 1.908801730920458  C 5.060931802008775 0.043413387873763976  8.116622008102361 -0.1473045861023221  10.502880109431565 1.431937628718898  C 12.889138210760771 3.0111798435401034  14.093682597864618 6.02135071360957  13.514677926611792 8.95845649583425  C 13.49543121222334 9.057053308806625  13.554437161868597 9.15370604073535  13.64656683518924 9.17449273288733  C 13.738696508509886 9.195279425039308  13.829165714606246 9.132351919031654  13.84878178001517 9.033838440621114  C 14.457924694421951 5.945806607518531  13.191662435390521 2.7807227421120952  10.68275903944837 1.120211210395744  C 8.173855643506194 -0.5403003213206213  4.961020922475888 -0.3396957575476545  2.6497408270560108 1.6217807756550688  C 0.3384607316361328 3.583257308857792  -0.5749884497810458 6.8844390755349885  0.3658530620277568 9.875692214221534  Z " fill-rule="nonzero" fill="#3f3d56" stroke="none" transform="matrix(1 0 0 1 113 75 )" />
  </g>
</svg>