<?xml version="1.0" encoding="utf-8"?>
<svg version="1.1" xmlns:xlink="http://www.w3.org/1999/xlink" width="14px" height="10px" xmlns="http://www.w3.org/2000/svg">
  <g transform="matrix(1 0 0 1 -113 -75 )">
    <path d="M 0.365853062027757 9.87569221422153  C 0.389275457504774 9.94994863227862  0.454353724891393 9.99995910809755  0.527613876910235 10  C 0.582593442216772 9.99994536510572  0.63418966808714 9.97159313008816  0.666254075248857 9.92381691839142  C 0.698318482410602 9.87604070669466  0.706933369333637 9.8146779235363  0.689402466657887 9.75893376494019  C -0.204970502779721 6.91378743527186  0.664160985711379 3.77419007396715  2.86254639386006 1.90880173092046  C 5.06093180200878 0.043413387873764  8.11662200810236 -0.147304586102322  10.5028801094316 1.4319376287189  C 12.8891382107608 3.0111798435401  14.0936825978646 6.02135071360957  13.5146779266118 8.95845649583425  C 13.4954312122233 9.05705330880662  13.5544371618686 9.15370604073535  13.6465668351892 9.17449273288733  C 13.7386965085099 9.19527942503931  13.8291657146062 9.13235191903165  13.8487817800152 9.03383844062111  C 14.457924694422 5.94580660751853  13.1916624353905 2.7807227421121  10.6827590394484 1.12021121039574  C 8.17385564350619 -0.540300321320621  4.96102092247589 -0.339695757547655  2.64974082705601 1.62178077565507  C 0.338460731636133 3.58325730885779  -0.574988449781046 6.88443907553499  0.365853062027757 9.87569221422153  Z " fill-rule="nonzero" fill="#3f3d56" stroke="none" transform="matrix(1 0 0 1 113 75 )" />
  </g>
</svg>