<?xml version="1.0" encoding="utf-8"?>
<svg version="1.1" xmlns:xlink="http://www.w3.org/1999/xlink" width="6px" height="2px" xmlns="http://www.w3.org/2000/svg">
  <g transform="matrix(1 0 0 1 -118 -79 )">
    <path d="M 5.86092299504531 0.0749634136171678  C 6.09123260057876 0.420241369733559  6.03067927425386 0.8658838871782  5.71503450717923 1.1486304926145  C 5.3491030782315 1.52390215601072  4.76556449450394 1.54757753344014  4.25888508568967 1.47792705627666  C 3.69033260674808 1.39976868126459  3.0872718745538 1.15521012174118  2.51166304307667 1.32001830878335  C 2.02106340965915 1.46048798207955  1.67108625292335 1.86902933557027  1.16139732896232 1.9716438016894  C 0.70937839908115 2.06264867917434  0.168851549701721 1.94218361809428  0.0103922530354739 1.49985053102581  C -0.0657523221110635 1.28729417764432  0.298985545935906 1.19619053517607  0.374730559922526 1.40763225517441  C 0.477243610333427 1.69379438814649  0.919901027141137 1.68808953458633  1.17340209278592 1.60884474475778  C 1.57981214077955 1.48180475764547  1.89301686435653 1.17279499186605  2.2924704501046 1.02519072429881  C 2.76864562166314 0.889824761008965  3.27847751154745 0.891107854266683  3.75383721827834 1.02886854415373  C 4.20576650302747 1.12230256991883  4.7258747526199 1.26082986520979  5.17608797341301 1.08629803040533  C 5.50923233564303 0.957148705435036  5.77430786847765 0.550352199982922  5.53466850153424 0.250040807377062  C 5.39081367752047 0.0697594396152235  5.71852810603892 -0.103488450406105  5.8609153111769 0.07495635897548  Z " fill-rule="nonzero" fill="#2f2e41" stroke="none" transform="matrix(1 0 0 1 118 79 )" />
  </g>
</svg>