<?xml version="1.0" encoding="utf-8"?>
<svg version="1.1" xmlns:xlink="http://www.w3.org/1999/xlink" width="6px" height="2px" xmlns="http://www.w3.org/2000/svg">
  <g transform="matrix(1 0 0 1 -118 -79 )">
    <path d="M 5.860922995045307 0.0749634136171678  C 6.091232600578758 0.4202413697335594  6.030679274253858 0.8658838871781996  5.715034507179226 1.1486304926144981  C 5.3491030782314954 1.523902156010724  4.765564494503935 1.5475775334401418  4.258885085689669 1.4779270562766627  C 3.690332606748079 1.399768681264591  3.087271874553795 1.1552101217411768  2.511663043076671 1.3200183087833477  C 2.0210634096591495 1.4604879820795473  1.6710862529233474 1.8690293355702676  1.1613973289623194 1.9716438016893996  C 0.7093783990811502 2.06264867917434  0.16885154970172078 1.9421836180942809  0.010392253035473933 1.4998505310258137  C -0.06575232211106347 1.2872941776443179  0.2989855459359056 1.19619053517607  0.3747305599225261 1.4076322551744107  C 0.477243610333427 1.6937943881464943  0.9199010271411365 1.6880895345863345  1.1734020927859241 1.6088447447577787  C 1.5798121407795462 1.4818047576454731  1.893016864356528 1.172794991866052  2.2924704501046036 1.0251907242988056  C 2.768645621663139 0.889824761008965  3.2784775115474494 0.8911078542666828  3.753837218278342 1.0288685441537302  C 4.2057665030274745 1.1223025699188258  4.725874752619898 1.2608298652097896  5.176087973413015 1.0862980304053336  C 5.509232335643027 0.957148705435036  5.7743078684776545 0.5503521999829216  5.534668501534242 0.2500408073770618  C 5.390813677520467 0.06975943961522352  5.7185281060389235 -0.10348845040610508  5.860915311176895 0.07495635897548002  Z " fill-rule="nonzero" fill="#2f2e41" stroke="none" transform="matrix(1 0 0 1 118 79 )" />
  </g>
</svg>