<?xml version="1.0" encoding="utf-8"?>
<svg version="1.1" xmlns:xlink="http://www.w3.org/1999/xlink" width="27px" height="27px" xmlns="http://www.w3.org/2000/svg">
  <g transform="matrix(1 0 0 1 -106 -68 )">
    <path d="M 17.7702535633485 25.5088943828807  C 16.3823094464946 25.9969573399366  14.9220859444794 26.2454762927779  13.4515090387473 26.2439119095551  C 12.2288703681065 26.2449189587618  11.0121734935283 26.0731405865387  9.83720784226242 25.7336296944625  C 9.69914210048356 25.6947081047967  9.55406956754103 25.6503499984537  9.40834616902094 25.6024194588428  C 8.5896635738125 25.3347972283663  7.79943111224632 24.9862940989662  7.04925216221378 24.562027316141  C 6.90855006239144 24.482768377258  6.76731223205761 24.3991488989569  6.61796560349916 24.3066903618568  C 5.87635085771208 23.8485680256878  5.18218912798291 23.317157210595  4.54583047585069 22.7203813361551  C 4.44085549193824 22.6220308797221  4.33682273581135 22.5210730661155  4.23510442948198 22.4202403112692  C 0.124279934212382 18.3043471060068  -0.786424658487888 11.9570253221689  2.00012544142979 6.84314656320642  C 4.78667554134748 1.72926780424395  10.6010398289501 -0.922610230964054  16.2692771683824 0.335117796168504  C 21.9375145078147 1.59284582330105  26.0978881527315 6.45802346291276  26.4793362296473 12.2748509267908  C 26.8607843065632 18.0916783906689  23.3716677693242 23.4627216564925  17.9166231280557 25.4560393596304  C 17.8689384131412 25.4735452264828  17.8196018624829 25.4912209844814  17.7702535633485 25.5088943828807  Z M 25.6265628397628 10.9789168257932  C 24.5849610514256 5.04513725463217  19.4514880495587 0.718717948150143  13.4515090387473 0.71794416868488  C 8.44762358051149 0.71817685481669  3.93728908167303 3.74734722677206  2.02606322843185 8.39134886713948  C 0.114837375190689 13.0353505075069  1.17963543482156 18.3783339804205  4.72337814651043 21.926036405482  C 4.81928565654614 22.0211589301378  4.91857907740237 22.1174706928168  5.0189698059291 22.2115715109965  C 5.62165492255852 22.7767663857102  6.27908553230212 23.2800534875966  6.98145875555601 23.7139283549025  C 7.12295035297424 23.8015166791459  7.25609113355962 23.8803225749725  7.38885361321363 23.955105354074  C 8.09935547654425 24.3570170998075  8.84782950300618 24.6871143414819  9.6232680919439 24.9405424301909  C 9.76047149557488 24.9856957214819  9.8960395113286 25.0271656783402  10.0270232716966 25.0641052046341  C 12.4926821891992 25.7746383246588  15.1169765134835 25.7007555915276  17.5391210930621 24.8526143236552  C 17.5391210930621 24.8526143236552  17.6791629285259 24.8019678853049  17.6791629285259 24.8019678853049  C 23.3172331726973 22.7410298295605  26.6681646280999 16.9126963969543  25.6265628397628 10.9789168257932  Z " fill-rule="nonzero" fill="#cccccc" stroke="none" transform="matrix(1 0 0 1 106 68 )" />
  </g>
</svg>