<?xml version="1.0" encoding="utf-8"?>
<svg version="1.1" xmlns:xlink="http://www.w3.org/1999/xlink" width="27px" height="27px" xmlns="http://www.w3.org/2000/svg">
  <g transform="matrix(1 0 0 1 -106 -68 )">
    <path d="M 17.77025356334846 25.508894382880726  C 16.38230944649456 25.99695733993657  14.922085944479434 26.24547629277785  13.451509038747304 26.24391190955508  C 12.228870368106513 26.244918958761772  11.012173493528337 26.073140586538727  9.837207842262416 25.733629694462522  C 9.699142100483556 25.694708104796703  9.554069567541035 25.65034999845369  9.408346169020945 25.60241945884279  C 8.589663573812501 25.334797228366313  7.7994311122463245 24.986294098966226  7.049252162213776 24.56202731614104  C 6.908550062391441 24.48276837725804  6.7673122320576065 24.399148898956895  6.617965603499158 24.306690361856823  C 5.876350857712083 23.848568025687825  5.182189127982909 23.31715721059497  4.545830475850693 22.72038133615507  C 4.440855491938237 22.622030879722132  4.336822735811353 22.521073066115463  4.235104429481979 22.42024031126917  C 0.1242799342123817 18.304347106006773  -0.7864246584878885 11.957025322168874  2.0001254414297875 6.8431465632064175  C 4.786675541347478 1.7292678042439462  10.601039828950121 -0.9226102309640538  16.269277168382402 0.3351177961685039  C 21.937514507814683 1.5928458233010474  26.097888152731457 6.458023462912763  26.479336229647288 12.274850926790833  C 26.860784306563176 18.091678390668918  23.371667769324233 23.462721656492462  17.916623128055676 25.45603935963038  C 17.868938413141194 25.4735452264828  17.819601862482898 25.491220984481387  17.77025356334846 25.508894382880726  Z M 25.626562839762755 10.97891682579322  C 24.58496105142561 5.0451372546321664  19.451488049558748 0.7187179481501431  13.451509038747318 0.7179441686848804  C 8.44762358051149 0.71817685481669  3.937289081673029 3.7473472267720638  2.026063228431852 8.391348867139484  C 0.11483737519068882 13.03535050750692  1.179635434821563 18.378333980420535  4.723378146510427 21.926036405481966  C 4.819285656546143 22.02115893013783  4.91857907740237 22.117470692816823  5.018969805929103 22.211571510996464  C 5.62165492255852 22.776766385710232  6.279085532302119 23.28005348759656  6.981458755556005 23.71392835490252  C 7.122950352974242 23.801516679145948  7.256091133559622 23.88032257497251  7.388853613213627 23.955105354073993  C 8.099355476544247 24.35701709980755  8.847829503006182 24.6871143414819  9.623268091943899 24.940542430190902  C 9.760471495574876 24.985695721481903  9.896039511328595 25.027165678340168  10.027023271696592 25.064105204634103  C 12.492682189199229 25.774638324658767  15.116976513483536 25.70075559152764  17.539121093062064 24.85261432365516  C 17.539121093062064 24.85261432365516  17.679162928525912 24.801967885304933  17.679162928525912 24.801967885304933  C 23.317233172697343 22.741029829560517  26.66816462809993 16.91269639695426  25.626562839762755 10.97891682579322  Z " fill-rule="nonzero" fill="#cccccc" stroke="none" transform="matrix(1 0 0 1 106 68 )" />
  </g>
</svg>