<?xml version="1.0" encoding="utf-8"?>
<svg version="1.1" xmlns:xlink="http://www.w3.org/1999/xlink" width="76px" height="100px" xmlns="http://www.w3.org/2000/svg">
  <g transform="matrix(1 0 0 1 -97 -57 )">
    <path d="M 75.71325846764992 96.66687495933465  C 75.71123970726637 98.46820233740988  74.25760804808718 99.9279610917495  72.46384144279557 99.9299883612604  C 72.46384144279557 99.9299883612604  4.034952662094469 99.9299883612604  4.034952662094469 99.9299883612604  C 2.2411860568028885 99.92796109174947  0.7875543976237225 98.46820233740988  0.785535637240173 96.66687495933465  C 0.785535637240173 96.66687495933465  0.785535637240173 3.380236501687762  0.785535637240173 3.380236501687762  C 0.7875543976237367 1.5789091236125472  2.241186056802931 0.1191503692729654  4.034952662094483 0.1171230997620114  C 4.034952662094483 0.1171230997620114  72.46384144279557 0.1171230997620114  72.46384144279557 0.1171230997620114  C 74.25760804808718 0.11915036927294409  75.71123970726637 1.5789091236125188  75.71325846764992 3.380236501687762  C 75.71325846764992 3.380236501687762  75.71325846764992 96.66687495933465  75.71325846764992 96.66687495933465  Z M 75.33097480287151 3.380236501688728  C 75.32918267734058 1.7908337534012304  74.0465729353001 0.5028167224537157  72.4638414427956 0.5010157405081372  C 72.4638414427956 0.5010157405081372  4.034952662094497 0.5010157405081372  4.034952662094497 0.5010157405081372  C 2.452223003346404 0.5028180199787968  1.1696150693240668 1.790833235286641  1.1678216517137798 3.380234142089464  C 1.1678216517137798 3.380234142089464  1.1678216517137798 96.66687259973634  1.1678216517137798 96.66687259973634  C 1.1696150693240241 98.25627350653915  2.45222300334639 99.54428872184701  4.034952662094483 99.54609100131765  C 4.034952662094483 99.54609100131765  72.46384144279563 99.54609100131765  72.46384144279563 99.54609100131765  C 74.04657201915654 99.54429002188829  75.32918138275448 98.25627442654331  75.33097480287151 96.66687259973634  C 75.33097480287151 96.66687259973634  75.33097480287151 3.380236501688728  75.33097480287151 3.380236501688728  Z " fill-rule="nonzero" fill="#3f3d56" stroke="none" transform="matrix(1 0 0 1 97 57 )" />
  </g>
</svg>