<?xml version="1.0" encoding="utf-8"?>
<svg version="1.1" xmlns:xlink="http://www.w3.org/1999/xlink" width="76px" height="100px" xmlns="http://www.w3.org/2000/svg">
  <g transform="matrix(1 0 0 1 -97 -57 )">
    <path d="M 75.7132584676499 96.6668749593346  C 75.7112397072664 98.4682023374099  74.2576080480872 99.9279610917495  72.4638414427956 99.9299883612604  C 72.4638414427956 99.9299883612604  4.03495266209447 99.9299883612604  4.03495266209447 99.9299883612604  C 2.24118605680289 99.9279610917495  0.787554397623722 98.4682023374099  0.785535637240173 96.6668749593346  C 0.785535637240173 96.6668749593346  0.785535637240173 3.38023650168776  0.785535637240173 3.38023650168776  C 0.787554397623737 1.57890912361255  2.24118605680293 0.119150369272965  4.03495266209448 0.117123099762011  C 4.03495266209448 0.117123099762011  72.4638414427956 0.117123099762011  72.4638414427956 0.117123099762011  C 74.2576080480872 0.119150369272944  75.7112397072664 1.57890912361252  75.7132584676499 3.38023650168776  C 75.7132584676499 3.38023650168776  75.7132584676499 96.6668749593346  75.7132584676499 96.6668749593346  Z M 75.3309748028715 3.38023650168873  C 75.3291826773406 1.79083375340123  74.0465729353001 0.502816722453716  72.4638414427956 0.501015740508137  C 72.4638414427956 0.501015740508137  4.0349526620945 0.501015740508137  4.0349526620945 0.501015740508137  C 2.4522230033464 0.502818019978797  1.16961506932407 1.79083323528664  1.16782165171378 3.38023414208946  C 1.16782165171378 3.38023414208946  1.16782165171378 96.6668725997363  1.16782165171378 96.6668725997363  C 1.16961506932402 98.2562735065391  2.45222300334639 99.544288721847  4.03495266209448 99.5460910013176  C 4.03495266209448 99.5460910013176  72.4638414427956 99.5460910013176  72.4638414427956 99.5460910013176  C 74.0465720191565 99.5442900218883  75.3291813827545 98.2562744265433  75.3309748028715 96.6668725997363  C 75.3309748028715 96.6668725997363  75.3309748028715 3.38023650168873  75.3309748028715 3.38023650168873  Z " fill-rule="nonzero" fill="#3f3d56" stroke="none" transform="matrix(1 0 0 1 97 57 )" />
  </g>
</svg>