<?xml version="1.0" encoding="utf-8"?>
<svg version="1.1" xmlns:xlink="http://www.w3.org/1999/xlink" width="30px" height="9px" xmlns="http://www.w3.org/2000/svg">
  <g transform="matrix(1 0 0 1 -135 -78 )">
    <path d="M 21.216826035700194 0.2689601307870362  C 22.06283484663146 0.2689601307870362  22.74866049462827 0.9576765516850685  22.74866049462827 1.8072513117055848  C 22.74866049462827 2.656826071726087  22.06283484663146 3.3455424926241193  21.216826035700194 3.3455424926241193  C 21.216826035700194 3.3455424926241193  1.8538053729674857 3.3455424926241193  1.8538053729674857 3.3455424926241193  C 1.0077965620362193 3.3455424926241193  0.3219709140394116 2.656826071726087  0.3219709140394116 1.8072513117055848  C 0.3219709140394116 0.9576765516850685  1.0077965620362193 0.2689601307870362  1.8538053729674857 0.2689601307870362  C 1.8538053729674857 0.2689601307870362  21.216826035700194 0.2689601307870362  21.216826035700194 0.2689601307870362  Z M 29.06747969368996 6.998985522054426  C 29.06747969368996 7.848560282074928  28.381654045693153 8.53727670297296  27.535645234761887 8.53727670297296  C 27.535645234761887 8.53727670297296  1.8538053729674857 8.53727670297296  1.8538053729674857 8.53727670297296  C 1.0077965620362193 8.53727670297296  0.3219709140394116 7.848560282074928  0.3219709140394116 6.998985522054426  C 0.3219709140394116 6.149410762033909  1.0077965620362193 5.460694341135877  1.8538053729674857 5.460694341135877  C 1.8538053729674857 5.460694341135877  27.53564523476186 5.460694341135877  27.53564523476186 5.460694341135877  C 28.381654045693153 5.460694341135877  29.06747969368996 6.149410762033909  29.06747969368996 6.998985522054426  Z " fill-rule="nonzero" fill="#ffaf21" stroke="none" transform="matrix(1 0 0 1 135 78 )" />
  </g>
</svg>