<?xml version="1.0" encoding="utf-8"?>
<svg version="1.1" xmlns:xlink="http://www.w3.org/1999/xlink" width="30px" height="9px" xmlns="http://www.w3.org/2000/svg">
  <g transform="matrix(1 0 0 1 -135 -78 )">
    <path d="M 21.2168260357002 0.268960130787036  C 22.0628348466315 0.268960130787036  22.7486604946283 0.957676551685068  22.7486604946283 1.80725131170558  C 22.7486604946283 2.65682607172609  22.0628348466315 3.34554249262412  21.2168260357002 3.34554249262412  C 21.2168260357002 3.34554249262412  1.85380537296749 3.34554249262412  1.85380537296749 3.34554249262412  C 1.00779656203622 3.34554249262412  0.321970914039412 2.65682607172609  0.321970914039412 1.80725131170558  C 0.321970914039412 0.957676551685068  1.00779656203622 0.268960130787036  1.85380537296749 0.268960130787036  C 1.85380537296749 0.268960130787036  21.2168260357002 0.268960130787036  21.2168260357002 0.268960130787036  Z M 29.06747969369 6.99898552205443  C 29.06747969369 7.84856028207493  28.3816540456932 8.53727670297296  27.5356452347619 8.53727670297296  C 27.5356452347619 8.53727670297296  1.85380537296749 8.53727670297296  1.85380537296749 8.53727670297296  C 1.00779656203622 8.53727670297296  0.321970914039412 7.84856028207493  0.321970914039412 6.99898552205443  C 0.321970914039412 6.14941076203391  1.00779656203622 5.46069434113588  1.85380537296749 5.46069434113588  C 1.85380537296749 5.46069434113588  27.5356452347619 5.46069434113588  27.5356452347619 5.46069434113588  C 28.3816540456932 5.46069434113588  29.06747969369 6.14941076203391  29.06747969369 6.99898552205443  Z " fill-rule="nonzero" fill="#ffaf21" stroke="none" transform="matrix(1 0 0 1 135 78 )" />
  </g>
</svg>