<?xml version="1.0" encoding="utf-8"?>
<svg version="1.1" xmlns:xlink="http://www.w3.org/1999/xlink" width="59px" height="43px" xmlns="http://www.w3.org/2000/svg">
  <g transform="matrix(1 0 0 1 -106 -103 )">
    <path d="M 50.18863439238 3.44972242875831  C 50.18863439238 3.44972242875831  1.9631488701274 3.44972242875831  1.9631488701274 3.44972242875831  C 1.11714005919612 3.44972242875831  0.43131441119931 2.76100600786027  0.43131441119931 1.91143124783977  C 0.43131441119931 1.06185648781926  1.11714005919612 0.373140066921223  1.9631488701274 0.373140066921223  C 1.9631488701274 0.373140066921223  50.18863439238 0.373140066921223  50.18863439238 0.373140066921223  C 51.0346432033113 0.373140066921223  51.7204688513081 1.06185648781926  51.7204688513081 1.91143124783977  C 51.7204688513081 2.76100600786027  51.0346432033113 3.44972242875831  50.18863439238 3.44972242875831  Z M 56.5074535914417 8.64146607750529  C 56.5074535914417 8.64146607750529  1.9631488701274 8.64146607750529  1.9631488701274 8.64146607750529  C 1.11714005919612 8.64146607750529  0.43131441119931 7.95274965660724  0.43131441119931 7.10317489658674  C 0.43131441119931 6.25360013656623  1.11714005919612 5.5648837156682  1.9631488701274 5.5648837156682  C 1.9631488701274 5.5648837156682  56.5074535914417 5.5648837156682  56.5074535914417 5.5648837156682  C 57.3534624023729 5.5648837156682  58.0392880503697 6.25360013656623  58.0392880503697 7.10317489658674  C 58.0392880503697 7.95274965660724  57.3534624023729 8.64146607750529  56.5074535914417 8.64146607750529  Z M 0.433209256340092 19.0357709577703  C 0.433209256340092 18.186938822968  1.11788021565049 17.4985298839345  1.96314887012743 17.4974785970521  C 1.96314887012743 17.4974785970521  50.18863439238 17.4974785970521  50.18863439238 17.4974785970521  C 51.0346438521617 17.4974785970521  51.7204700261557 18.1861955461644  51.7204700261557 19.0357709577703  C 51.7204700261557 19.8853463693761  51.0346438521617 20.5740633184884  50.18863439238 20.5740633184885  C 50.18863439238 20.5740633184885  1.96314887012743 20.5740633184885  1.96314887012743 20.5740633184885  C 1.11788021565049 20.5730120316061  0.433209256340092 19.8846030925726  0.433209256340092 19.0357709577703  Z M 0.433209256340092 24.2275051681191  C 0.433209256340092 23.3786730333169  1.11788021565049 22.6902640942833  1.96314887012743 22.689212807401  C 1.96314887012743 22.689212807401  56.5074535914417 22.689212807401  56.5074535914417 22.689212807401  C 57.3534630512234 22.689212807401  58.0392892252174 23.3779297565133  58.0392892252174 24.2275051681191  C 58.0392892252174 25.077080579725  57.3534630512234 25.7657975288373  56.5074535914417 25.7657975288373  C 56.5074535914417 25.7657975288373  1.96314887012743 25.7657975288373  1.96314887012743 25.7657975288373  C 1.11788021565049 25.764746241955  0.433209256340092 25.0763373029214  0.433209256340092 24.2275051681191  Z M 1.9631488701274 34.6218100483852  C 1.9631488701274 34.6218100483852  50.18863439238 34.6218100483852  50.18863439238 34.6218100483852  C 51.0346432033113 34.6218100483852  51.7204688513081 35.3105264692832  51.7204688513081 36.1601012293038  C 51.7204688513081 37.0096759893243  51.0346432033113 37.6983924102223  50.18863439238 37.6983924102223  C 50.18863439238 37.6983924102223  1.9631488701274 37.6983924102223  1.9631488701274 37.6983924102223  C 1.11714005919612 37.6983924102223  0.43131441119931 37.0096759893243  0.43131441119931 36.1601012293038  C 0.43131441119931 35.3105264692832  1.11714005919612 34.6218100483852  1.9631488701274 34.6218100483852  Z M 56.5074535914417 39.813544258735  C 57.3534624023729 39.813544258735  58.0392880503697 40.502260679633  58.0392880503697 41.3518354396535  C 58.0392880503697 42.201410199674  57.3534624023729 42.8901266205721  56.5074535914417 42.8901266205721  C 56.5074535914417 42.8901266205721  1.9631488701274 42.8901266205721  1.9631488701274 42.8901266205721  C 1.11714005919612 42.8901266205721  0.43131441119931 42.201410199674  0.43131441119931 41.3518354396535  C 0.43131441119931 40.502260679633  1.11714005919612 39.813544258735  1.9631488701274 39.813544258735  C 1.9631488701274 39.813544258735  56.5074535914417 39.813544258735  56.5074535914417 39.813544258735  Z " fill-rule="nonzero" fill="#cccccc" stroke="none" transform="matrix(1 0 0 1 106 103 )" />
  </g>
</svg>