<?xml version="1.0" encoding="utf-8"?>
<svg version="1.1" xmlns:xlink="http://www.w3.org/1999/xlink" width="59px" height="43px" xmlns="http://www.w3.org/2000/svg">
  <g transform="matrix(1 0 0 1 -106 -103 )">
    <path d="M 50.18863439238001 3.4497224287583066  C 50.18863439238001 3.4497224287583066  1.9631488701273978 3.4497224287583066  1.9631488701273978 3.4497224287583066  C 1.1171400591961174 3.4497224287583066  0.4313144111993097 2.7610060078602743  0.4313144111993097 1.9114312478397724  C 0.4313144111993097 1.0618564878192558  1.1171400591961174 0.3731400669212235  1.9631488701273978 0.3731400669212235  C 1.9631488701273978 0.3731400669212235  50.18863439238001 0.3731400669212235  50.18863439238001 0.3731400669212235  C 51.034643203311305 0.3731400669212235  51.72046885130811 1.0618564878192558  51.72046885130811 1.9114312478397724  C 51.72046885130811 2.7610060078602743  51.034643203311305 3.4497224287583066  50.18863439238001 3.4497224287583066  Z M 56.507453591441674 8.641466077505285  C 56.507453591441674 8.641466077505285  1.9631488701273978 8.641466077505285  1.9631488701273978 8.641466077505285  C 1.1171400591961174 8.641466077505285  0.4313144111993097 7.952749656607239  0.4313144111993097 7.1031748965867365  C 0.4313144111993097 6.253600136566234  1.1171400591961174 5.564883715668201  1.9631488701273978 5.564883715668201  C 1.9631488701273978 5.564883715668201  56.507453591441674 5.564883715668201  56.507453591441674 5.564883715668201  C 57.35346240237294 5.564883715668201  58.03928805036975 6.253600136566234  58.03928805036975 7.1031748965867365  C 58.03928805036975 7.952749656607239  57.35346240237294 8.641466077505285  56.507453591441674 8.641466077505285  Z M 0.433209256340092 19.035770957770296  C 0.433209256340092 18.18693882296803  1.1178802156504872 17.498529883934467  1.9631488701274264 17.497478597052122  C 1.9631488701274264 17.497478597052122  50.18863439238004 17.497478597052122  50.18863439238004 17.497478597052122  C 51.03464385216171 17.497478597052122  51.72047002615574 18.186195546164427  51.72047002615574 19.035770957770268  C 51.72047002615574 19.88534636937611  51.03464385216171 20.57406331848844  50.18863439238004 20.57406331848847  C 50.18863439238004 20.57406331848847  1.9631488701274264 20.57406331848847  1.9631488701274264 20.57406331848847  C 1.1178802156504872 20.573012031606126  0.433209256340092 19.88460309257256  0.433209256340092 19.035770957770296  Z M 0.433209256340092 24.227505168119105  C 0.433209256340092 23.378673033316858  1.1178802156504872 22.69026409428328  1.9631488701274264 22.689212807400963  C 1.9631488701274264 22.689212807400963  56.507453591441674 22.689212807400963  56.507453591441674 22.689212807400963  C 57.3534630512234 22.689212807400963  58.0392892252174 23.377929756513264  58.0392892252174 24.227505168119105  C 58.0392892252174 25.07708057972496  57.3534630512234 25.765797528837286  56.507453591441674 25.765797528837286  C 56.507453591441674 25.765797528837286  1.9631488701274264 25.765797528837286  1.9631488701274264 25.765797528837286  C 1.1178802156504872 25.764746241954953  0.433209256340092 25.076337302921388  0.433209256340092 24.227505168119105  Z M 1.9631488701273978 34.621810048385214  C 1.9631488701273978 34.621810048385214  50.18863439238001 34.621810048385214  50.18863439238001 34.621810048385214  C 51.034643203311305 34.621810048385214  51.72046885130811 35.310526469283246  51.72046885130811 36.16010122930376  C 51.72046885130811 37.00967598932428  51.034643203311305 37.69839241022231  50.18863439238001 37.69839241022231  C 50.18863439238001 37.69839241022231  1.9631488701273978 37.69839241022231  1.9631488701273978 37.69839241022231  C 1.1171400591961174 37.69839241022231  0.4313144111993097 37.00967598932428  0.4313144111993097 36.16010122930376  C 0.4313144111993097 35.310526469283246  1.1171400591961174 34.621810048385214  1.9631488701273978 34.621810048385214  Z M 56.507453591441674 39.813544258734964  C 57.35346240237294 39.813544258734964  58.03928805036975 40.502260679633025  58.03928805036975 41.35183543965351  C 58.03928805036975 42.20141019967403  57.35346240237294 42.89012662057206  56.507453591441674 42.89012662057206  C 56.507453591441674 42.89012662057206  1.9631488701273978 42.89012662057206  1.9631488701273978 42.89012662057206  C 1.1171400591961174 42.89012662057206  0.4313144111993097 42.20141019967403  0.4313144111993097 41.35183543965351  C 0.4313144111993097 40.502260679633025  1.1171400591961174 39.813544258734964  1.9631488701273978 39.813544258734964  C 1.9631488701273978 39.813544258734964  56.507453591441674 39.813544258734964  56.507453591441674 39.813544258734964  Z " fill-rule="nonzero" fill="#cccccc" stroke="none" transform="matrix(1 0 0 1 106 103 )" />
  </g>
</svg>