<?xml version="1.0" encoding="utf-8"?>
<svg version="1.1" xmlns:xlink="http://www.w3.org/1999/xlink" width="15px" height="13px" xmlns="http://www.w3.org/2000/svg">
  <g transform="matrix(1 0 0 1 -161 -144 )">
    <path d="M 5.871850309605783 12.99783934836267  C 5.871850309605783 12.99783934836267  5.870276071233021 12.99999754881705  5.870276071233021 12.99999754881705  C 5.481115973868389 13.000636786661016  5.102295968633804 12.876231114757681  4.790942339186485 12.645540982934163  C 4.790942339186485 12.645540982934163  4.771609587240321 12.631243189196763  4.771609587240321 12.631243189196763  C 4.771609587240321 12.631243189196763  0.706265573082147 9.558343256650444  0.706265573082147 9.558343256650444  C -0.0845485555350185 8.958180270829104  -0.2337338496994425 7.838401691394875  0.372944668345515 7.056450484362053  C 0.9796231863904463 6.274499277329229  2.112728717976744 6.126097767322659  2.904613510544748 6.724880768615452  C 2.904613510544748 6.724880768615452  5.537821783301452 8.720145048349353  5.537821783301452 8.720145048349353  C 5.537821783301452 8.720145048349353  11.760226801926665 0.6987643759291291  11.760226801926665 0.6987643759291291  C 12.051618753292134 0.32317748368619703  12.482071610858434 0.07735496965472438  12.956889339998508 0.01537573444285749  C 13.431707069138582 -0.046603500768983536  13.911994471495262 0.08033763768940473  14.29209232867786 0.368273159243776  L 14.254020616452415 0.4216664471977489  C 14.254020616452415 0.4216664471977489  14.293666567050623 0.36867796396545127  14.293666567050623 0.36867796396545127  C 15.084234957923009 0.9690712557316261  15.23366956756935 2.08855111819919  14.627685887282595 2.870962431798519  C 14.627685887282595 2.870962431798519  7.308807731403348 12.301666194410949  7.308807731403348 12.301666194410949  C 6.965614699414779 12.74210603526333  6.434395616776231 12.999469585908535  5.871850309605783 12.99783934836267  Z " fill-rule="nonzero" fill="#ffffff" stroke="none" transform="matrix(1 0 0 1 161 144 )" />
  </g>
</svg>