<?xml version="1.0" encoding="utf-8"?>
<svg version="1.1" xmlns:xlink="http://www.w3.org/1999/xlink" width="15px" height="13px" xmlns="http://www.w3.org/2000/svg">
  <g transform="matrix(1 0 0 1 -161 -144 )">
    <path d="M 5.87185030960578 12.9978393483627  C 5.87185030960578 12.9978393483627  5.87027607123302 12.999997548817  5.87027607123302 12.999997548817  C 5.48111597386839 13.000636786661  5.1022959686338 12.8762311147577  4.79094233918649 12.6455409829342  C 4.79094233918649 12.6455409829342  4.77160958724032 12.6312431891968  4.77160958724032 12.6312431891968  C 4.77160958724032 12.6312431891968  0.706265573082147 9.55834325665044  0.706265573082147 9.55834325665044  C -0.0845485555350185 8.9581802708291  -0.233733849699442 7.83840169139487  0.372944668345515 7.05645048436205  C 0.979623186390446 6.27449927732923  2.11272871797674 6.12609776732266  2.90461351054475 6.72488076861545  C 2.90461351054475 6.72488076861545  5.53782178330145 8.72014504834935  5.53782178330145 8.72014504834935  C 5.53782178330145 8.72014504834935  11.7602268019267 0.698764375929129  11.7602268019267 0.698764375929129  C 12.0516187532921 0.323177483686197  12.4820716108584 0.0773549696547244  12.9568893399985 0.0153757344428575  C 13.4317070691386 -0.0466035007689835  13.9119944714953 0.0803376376894047  14.2920923286779 0.368273159243776  L 14.2540206164524 0.421666447197749  C 14.2540206164524 0.421666447197749  14.2936665670506 0.368677963965451  14.2936665670506 0.368677963965451  C 15.084234957923 0.969071255731626  15.2336695675694 2.08855111819919  14.6276858872826 2.87096243179852  C 14.6276858872826 2.87096243179852  7.30880773140335 12.3016661944109  7.30880773140335 12.3016661944109  C 6.96561469941478 12.7421060352633  6.43439561677623 12.9994695859085  5.87185030960578 12.9978393483627  Z " fill-rule="nonzero" fill="#ffffff" stroke="none" transform="matrix(1 0 0 1 161 144 )" />
  </g>
</svg>