<?xml version="1.0" encoding="utf-8"?>
<svg version="1.1" xmlns:xlink="http://www.w3.org/1999/xlink" width="122px" height="4px" xmlns="http://www.w3.org/2000/svg">
  <g transform="matrix(1 0 0 1 -79 -161 )">
    <path d="M 121.0093361107331 1.719511164628642  C 120.44455802115817 2.238407588145151  119.86393363986139 2.7418509833750875  119.2707134882215 3.2318746435140895  C 119.2707134882215 3.2318746435140895  101.3270228466331 3.2318746435140895  101.3270228466331 3.2318746435140895  C 101.91171037965347 3.2318746435140895  102.38588018579298 2.757304011661631  102.38588018579298 2.1725288886077863  C 102.38588018579298 2.1725288886077863  102.38588018579298 0.9753258550399551  102.38588018579298 0.9753258550399551  C 109.73734059923123 1.176215222764995  116.06569940867689 1.4291568962973145  121.0093361107331 1.719511164628642  Z M 10.883703371207346 2.1725288886071894  C 10.883703371207346 2.7573040116610343  11.357466862174505 3.2318746435134926  11.94215439519489 3.2318746435134926  C 11.94215439519489 3.2318746435134926  3.316083286075667 3.2318746435134926  3.316083286075667 3.2318746435134926  C 2.377495237933175 2.75405074254806  1.4535345359954874 2.244914126370446  0.547045386469108 1.7036514777023797  C 3.5273671757008316 1.5312282147157248  6.998924008311022 1.3722246868199761  10.883703371207346 1.2294875044890432  C 10.883703371207346 1.2294875044890432  10.883703371207346 2.1725288886071894  10.883703371207346 2.1725288886071894  Z " fill-rule="nonzero" fill="#bdd8e1" stroke="none" transform="matrix(1 0 0 1 79 161 )" />
  </g>
</svg>