<?xml version="1.0" encoding="utf-8"?>
<svg version="1.1" xmlns:xlink="http://www.w3.org/1999/xlink" width="122px" height="4px" xmlns="http://www.w3.org/2000/svg">
  <g transform="matrix(1 0 0 1 -79 -161 )">
    <path d="M 121.009336110733 1.71951116462864  C 120.444558021158 2.23840758814515  119.863933639861 2.74185098337509  119.270713488222 3.23187464351409  C 119.270713488222 3.23187464351409  101.327022846633 3.23187464351409  101.327022846633 3.23187464351409  C 101.911710379653 3.23187464351409  102.385880185793 2.75730401166163  102.385880185793 2.17252888860779  C 102.385880185793 2.17252888860779  102.385880185793 0.975325855039955  102.385880185793 0.975325855039955  C 109.737340599231 1.17621522276499  116.065699408677 1.42915689629731  121.009336110733 1.71951116462864  Z M 10.8837033712073 2.17252888860719  C 10.8837033712073 2.75730401166103  11.3574668621745 3.23187464351349  11.9421543951949 3.23187464351349  C 11.9421543951949 3.23187464351349  3.31608328607567 3.23187464351349  3.31608328607567 3.23187464351349  C 2.37749523793318 2.75405074254806  1.45353453599549 2.24491412637045  0.547045386469108 1.70365147770238  C 3.52736717570083 1.53122821471572  6.99892400831102 1.37222468681998  10.8837033712073 1.22948750448904  C 10.8837033712073 1.22948750448904  10.8837033712073 2.17252888860719  10.8837033712073 2.17252888860719  Z " fill-rule="nonzero" fill="#bdd8e1" stroke="none" transform="matrix(1 0 0 1 79 161 )" />
  </g>
</svg>