<?xml version="1.0" encoding="utf-8"?>
<svg version="1.1" xmlns:xlink="http://www.w3.org/1999/xlink" width="34px" height="33px" xmlns="http://www.w3.org/2000/svg">
  <g transform="matrix(1 0 0 1 -168 -13 )">
    <path d="M 18.7573667643387 0  C 19.2693238815074 0  19.6841716724829 0.415198470540997  19.6841716724829 0.927181697192459  C 19.6841716724829 0.927181697192459  19.6841716724829 2.06745252128356  19.6841716724829 2.06745252128356  C 19.6841716724829 2.48712423685489  19.966154402098 2.85515030525803  20.3716569441094 2.96088155142912  C 21.6023856011759 3.28295519361175  22.766478569976 3.77135221919429  23.8383379946513 4.3992331579948  C 24.2007711283929 4.61110230897606  24.6599072731553 4.5513234890255  24.9565173489752 4.25446268246825  C 24.9565173489752 4.25446268246825  25.763052966102 3.44724528381603  25.763052966102 3.44724528381603  C 26.1246734694988 3.08531909499968  26.711392578381 3.08531909499968  27.0730130817779 3.44724528381603  C 27.0730130817779 3.44724528381603  29.7620068924303 6.13851215750891  29.7620068924303 6.13851215750891  C 30.1240337109996 6.5008450049644  30.1240337109996 7.08806007985297  29.7620068924303 7.44998626866932  C 29.7620068924303 7.44998626866932  28.9587217966824 8.25435705684771  28.9587217966824 8.25435705684771  C 28.6617054056901 8.55162452204406  28.6019770753538 9.01155544288821  28.814479910496 9.37429494898281  C 29.4434557973032 10.4478737562583  29.9326592648198 11.6133574159748  30.2552735116706 12.8463464097851  C 30.3617280868279 13.2521917316264  30.7290370026377 13.5340061685362  31.1479479453369 13.5340061685362  C 31.1479479453369 13.5340061685362  32.2803483306932 13.5340061685362  32.2803483306932 13.5340061685362  C 32.7918991326895 13.5340061685362  33.206746923665 13.9492046390772  33.206746923665 14.4611878657287  C 33.206746923665 14.4611878657287  33.206746923665 18.2675127278873  33.206746923665 18.2675127278873  C 33.206746923665 18.7799026131778  32.7918991326895 19.1946944250797  32.2803483306932 19.1946944250797  C 32.2803483306932 19.1946944250797  31.1479479453369 19.1946944250797  31.1479479453369 19.1946944250797  C 30.7290370026377 19.1946944250797  30.3617280868279 19.4769155206287  30.2552735116706 19.8823541838308  C 29.9326592648198 21.1153431776412  29.4434557973032 22.2808268373577  28.814479910496 23.3548123032723  C 28.6019770753538 23.7171451507278  28.6617054056901 24.1770760715719  28.9587217966824 24.4747501954074  C 28.9587217966824 24.4747501954074  29.7620068924303 25.2787143249466  29.7620068924303 25.2787143249466  C 30.1240337109996 25.6410471724021  30.1240337109996 26.2278555886516  29.7620068924303 26.5901884361071  C 29.7620068924303 26.5901884361071  27.0730130817779 29.281861968439  27.0730130817779 29.281861968439  C 26.711392578381 29.6437881572554  26.1246734694988 29.6437881572554  25.763052966102 29.281861968439  C 25.763052966102 29.281861968439  24.9565173489752 28.4746445697868  24.9565173489752 28.4746445697868  C 24.6599072731553 28.1777837632296  24.2007711283929 28.1175982846399  23.8383379946513 28.3298740942603  C 22.766478569976 28.9577550330608  21.6023856011759 29.4457454000042  20.3716569441094 29.7678190421868  C 19.966154402098 29.873956946997  19.6841716724829 30.2415763567611  19.6841716724829 30.6616547309715  C 19.6841716724829 30.6616547309715  19.6841716724829 31.8015188964235  19.6841716724829 31.8015188964235  C 19.6841716724829 32.3139087817141  19.2693238815074 32.7291072522551  18.7573667643387 32.7291072522551  C 18.7573667643387 32.7291072522551  14.9546630662583 32.7291072522551  14.9546630662583 32.7291072522551  C 14.4427059490897 32.7291072522551  14.0282644732865 32.3139087817141  14.0282644732865 31.8015188964235  C 14.0282644732865 31.8015188964235  14.0282644732865 30.6555548513847  14.0282644732865 30.6555548513847  C 14.0282644732865 30.2362897944525  13.7466880588438 29.8690770433276  13.3415918320048 29.7625324798783  C 12.1133010659724 29.4392388617783  10.9516459882064 28.9508418361958  9.88222445456526 28.3229608973952  C 9.51938500565129 28.1102784291358  9.05984254571661 28.1700572490863  8.76282615472431 28.4673247142827  C 8.76282615472431 28.4673247142827  7.94938317966748 29.281861968439  7.94938317966748 29.281861968439  C 7.58735636109822 29.6437881572554  7.00104356738842 29.6437881572554  6.63901674881916 29.281861968439  C 6.63901674881916 29.281861968439  3.9496166229944 26.5901884361071  3.9496166229944 26.5901884361071  C 3.58799611959751 26.2278555886516  3.58799611959751 25.6410471724021  3.9496166229944 25.2787143249466  C 3.9496166229944 25.2787143249466  4.76631011943007 24.4617371189556  4.76631011943007 24.4617371189556  C 5.06292019525003 24.1648763123983  5.1230548407587 23.7053520501933  4.91095832078884 23.3426125440987  C 4.2852329553605 22.2722870059361  3.79846737887794 21.1108699326109  3.47707207754431 19.8827608424699  C 3.37061750238701 19.4769155206287  3.00330858657713 19.1946944250797  2.58439764387802 19.1946944250797  C 2.58439764387802 19.1946944250797  1.43208781507624 19.1946944250797  1.43208781507624 19.1946944250797  C 0.920130697907609 19.1946944250797  0.505282906932052 18.7799026131778  0.505282906932052 18.2675127278873  C 0.505282906932052 18.2675127278873  0.505282906932052 14.4611878657287  0.505282906932052 14.4611878657287  C 0.505282906932052 13.9492046390772  0.920130697907609 13.5340061685362  1.43208781507624 13.5340061685362  C 1.43208781507624 13.5340061685362  2.58439764387802 13.5340061685362  2.58439764387802 13.5340061685362  C 3.00330858657713 13.5340061685362  3.37061750238701 13.2521917316264  3.47707207754431 12.8463464097851  C 3.79846737887794 11.6178306610051  4.2852329553605 10.4568202463189  4.91095832078884 9.38649470815641  C 5.1230548407587 9.02375520206181  5.06292019525003 8.56423093985677  4.76631011943007 8.26737013329952  C 4.76631011943007 8.26737013329952  3.9496166229944 7.44998626866932  3.9496166229944 7.44998626866932  C 3.58799611959751 7.08806007985297  3.58799611959751 6.5008450049644  3.9496166229944 6.13851215750891  C 3.9496166229944 6.13851215750891  6.63901674881916 3.44724528381603  6.63901674881916 3.44724528381603  C 7.00104356738842 3.08531909499968  7.58735636109822 3.08531909499968  7.94938317966748 3.44724528381603  C 7.94938317966748 3.44724528381603  8.76323246989665 4.26178253797239  8.76323246989665 4.26178253797239  C 9.05984254571661 4.55905000316877  9.51938500565129 4.61882882311934  9.88222445456526 4.40614635485982  C 10.9516459882064 3.77826541605932  12.1133010659724 3.28986839047678  13.3415918320048 2.96657477237677  C 13.7466880588438 2.86003020892746  14.0282644732865 2.49241079916343  14.0282644732865 2.07314574223122  C 14.0282644732865 2.07314574223122  14.0282644732865 0.927181697192459  14.0282644732865 0.927181697192459  C 14.0282644732865 0.415198470540997  14.4427059490897 0  14.9546630662583 0  C 14.9546630662583 0  18.7573667643387 0  18.7573667643387 0  Z M 25.6565983909441 16.3643502968082  C 25.6565983909441 11.5055928766084  21.7206233163309 7.56710395673599  16.866375952193 7.56710395673599  C 12.0117222728828 7.56710395673599  8.07615351344202 11.5055928766084  8.07615351344202 16.3643502968082  C 8.07615351344202 21.2231077170081  12.0117222728828 25.1620032955196  16.866375952193 25.1620032955196  C 21.7206233163309 25.1620032955196  25.6565983909441 21.2231077170081  25.6565983909441 16.3643502968082  Z " fill-rule="nonzero" fill="#abdbe8" stroke="none" transform="matrix(1 0 0 1 168 13 )" />
  </g>
</svg>