<?xml version="1.0" encoding="utf-8"?>
<svg version="1.1" xmlns:xlink="http://www.w3.org/1999/xlink" width="34px" height="33px" xmlns="http://www.w3.org/2000/svg">
  <g transform="matrix(1 0 0 1 -168 -13 )">
    <path d="M 18.757366764338713 0  C 19.269323881507376 0  19.684171672482904 0.41519847054099657  19.684171672482904 0.9271816971924594  C 19.684171672482904 0.9271816971924594  19.684171672482904 2.0674525212835633  19.684171672482904 2.0674525212835633  C 19.684171672482904 2.4871242368548856  19.966154402098027 2.855150305258025  20.37165694410936 2.9608815514291162  C 21.602385601175854 3.282955193611752  22.766478569975988 3.771352219194288  23.83833799465131 4.3992331579947965  C 24.200771128392915 4.611102308976065  24.659907273155255 4.551323489025503  24.956517348975183 4.254462682468251  C 24.956517348975183 4.254462682468251  25.763052966101952 3.447245283816031  25.763052966101952 3.447245283816031  C 26.124673469498845 3.085319094999676  26.71139257838101 3.085319094999676  27.0730130817779 3.447245283816031  C 27.0730130817779 3.447245283816031  29.76200689243032 6.138512157508913  29.76200689243032 6.138512157508913  C 30.124033710999583 6.500845004964397  30.124033710999583 7.088060079852969  29.76200689243032 7.449986268669321  C 29.76200689243032 7.449986268669321  28.958721796682397 8.254357056847706  28.958721796682397 8.254357056847706  C 28.6617054056901 8.551624522044062  28.601977075353773 9.01155544288821  28.814479910495976 9.374294948982808  C 29.44345579730316 10.447873756258318  29.932659264819847 11.61335741597481  30.255273511670566 12.846346409785141  C 30.361728086827867 13.252191731626404  30.72903700263774 13.534006168536237  31.147947945336853 13.534006168536237  C 31.147947945336853 13.534006168536237  32.28034833069319 13.534006168536237  32.28034833069319 13.534006168536237  C 32.79189913268948 13.534006168536237  33.20674692366501 13.949204639077234  33.20674692366501 14.461187865728697  C 33.20674692366501 14.461187865728697  33.20674692366501 18.26751272788727  33.20674692366501 18.26751272788727  C 33.20674692366501 18.77990261317784  32.79189913268948 19.19469442507973  32.28034833069319 19.19469442507973  C 32.28034833069319 19.19469442507973  31.147947945336853 19.19469442507973  31.147947945336853 19.19469442507973  C 30.72903700263774 19.19469442507973  30.361728086827867 19.476915520628665  30.255273511670566 19.882354183830827  C 29.932659264819847 21.11534317764115  29.44345579730316 22.28082683735765  28.814479910495976 23.35481230327227  C 28.601977075353773 23.717145150727752  28.6617054056901 24.177076071571904  28.958721796682397 24.47475019540739  C 28.958721796682397 24.47475019540739  29.76200689243032 25.27871432494664  29.76200689243032 25.27871432494664  C 30.124033710999583 25.641047172402125  30.124033710999583 26.227855588651565  29.76200689243032 26.590188436107056  C 29.76200689243032 26.590188436107056  27.0730130817779 29.281861968439046  27.0730130817779 29.281861968439046  C 26.71139257838101 29.6437881572554  26.124673469498845 29.6437881572554  25.763052966101952 29.281861968439046  C 25.763052966101952 29.281861968439046  24.956517348975183 28.47464456978682  24.956517348975183 28.47464456978682  C 24.659907273155255 28.1777837632296  24.200771128392915 28.117598284639897  23.83833799465131 28.329874094260276  C 22.766478569975988 28.957755033060806  21.602385601175854 29.445745400004213  20.37165694410936 29.767819042186844  C 19.966154402098027 29.873956946997048  19.684171672482904 30.24157635676108  19.684171672482904 30.661654730971534  C 19.684171672482904 30.661654730971534  19.684171672482904 31.801518896423502  19.684171672482904 31.801518896423502  C 19.684171672482904 32.313908781714076  19.269323881507376 32.7291072522551  18.757366764338713 32.7291072522551  C 18.757366764338713 32.7291072522551  14.954663066258348 32.7291072522551  14.954663066258348 32.7291072522551  C 14.442705949089714 32.7291072522551  14.028264473286526 32.313908781714076  14.028264473286526 31.801518896423502  C 14.028264473286526 31.801518896423502  14.028264473286526 30.65555485138472  14.028264473286526 30.65555485138472  C 14.028264473286526 30.23628979445253  13.746688058843773 29.869077043327614  13.34159183200478 29.762532479878303  C 12.113301065972394 29.439238861778293  10.951645988206423 28.950841836195778  9.88222445456526 28.322960897395248  C 9.519385005651287 28.11027842913576  9.059842545716606 28.170057249086327  8.762826154724308 28.467324714282682  C 8.762826154724308 28.467324714282682  7.949383179667478 29.281861968439046  7.949383179667478 29.281861968439046  C 7.587356361098216 29.6437881572554  7.001043567388422 29.6437881572554  6.639016748819159 29.281861968439046  C 6.639016748819159 29.281861968439046  3.949616622994398 26.590188436107056  3.949616622994398 26.590188436107056  C 3.5879961195975056 26.227855588651565  3.5879961195975056 25.641047172402125  3.949616622994398 25.27871432494664  C 3.949616622994398 25.27871432494664  4.766310119430074 24.461737118955554  4.766310119430074 24.461737118955554  C 5.06292019525003 24.164876312398334  5.123054840758698 23.705352050193284  4.910958320788836 23.342612544098692  C 4.285232955360499 22.27228700593615  3.7984673788779446 21.110869932610854  3.4770720775443067 19.882760842469935  C 3.370617502387006 19.476915520628665  3.003308586577134 19.19469442507973  2.5843976438780203 19.19469442507973  C 2.5843976438780203 19.19469442507973  1.432087815076244 19.19469442507973  1.432087815076244 19.19469442507973  C 0.9201306979076094 19.19469442507973  0.5052829069320524 18.77990261317784  0.5052829069320524 18.26751272788727  C 0.5052829069320524 18.26751272788727  0.5052829069320524 14.461187865728697  0.5052829069320524 14.461187865728697  C 0.5052829069320524 13.949204639077234  0.9201306979076094 13.534006168536237  1.432087815076244 13.534006168536237  C 1.432087815076244 13.534006168536237  2.5843976438780203 13.534006168536237  2.5843976438780203 13.534006168536237  C 3.003308586577134 13.534006168536237  3.370617502387006 13.252191731626404  3.4770720775443067 12.846346409785141  C 3.7984673788779446 11.617830661005108  4.285232955360499 10.45682024631894  4.910958320788836 9.386494708156405  C 5.123054840758698 9.023755202061807  5.06292019525003 8.56423093985677  4.766310119430074 8.267370133299522  C 4.766310119430074 8.267370133299522  3.949616622994398 7.449986268669321  3.949616622994398 7.449986268669321  C 3.5879961195975056 7.088060079852969  3.5879961195975056 6.500845004964397  3.949616622994398 6.138512157508913  C 3.949616622994398 6.138512157508913  6.639016748819159 3.447245283816031  6.639016748819159 3.447245283816031  C 7.001043567388422 3.085319094999676  7.587356361098216 3.085319094999676  7.949383179667478 3.447245283816031  C 7.949383179667478 3.447245283816031  8.76323246989665 4.261782537972394  8.76323246989665 4.261782537972394  C 9.059842545716606 4.559050003168775  9.519385005651287 4.618828823119337  9.88222445456526 4.406146354859825  C 10.951645988206423 3.778265416059316  12.113301065972394 3.2898683904767836  13.34159183200478 2.96657477237677  C 13.746688058843773 2.8600302089274585  14.028264473286526 2.4924107991634283  14.028264473286526 2.073145742231217  C 14.028264473286526 2.073145742231217  14.028264473286526 0.9271816971924594  14.028264473286526 0.9271816971924594  C 14.028264473286526 0.41519847054099657  14.442705949089714 0  14.954663066258348 0  C 14.954663066258348 0  18.757366764338713 0  18.757366764338713 0  Z M 25.656598390944083 16.364350296808233  C 25.656598390944083 11.505592876608397  21.720623316330915 7.567103956735991  16.86637595219304 7.567103956735991  C 12.011722272882821 7.567103956735991  8.076153513442023 11.505592876608397  8.076153513442023 16.364350296808233  C 8.076153513442023 21.22310771700807  12.011722272882821 25.16200329551961  16.86637595219304 25.16200329551961  C 21.720623316330915 25.16200329551961  25.656598390944083 21.22310771700807  25.656598390944083 16.364350296808233  Z " fill-rule="nonzero" fill="#abdbe8" stroke="none" transform="matrix(1 0 0 1 168 13 )" />
  </g>
</svg>