<?xml version="1.0" encoding="utf-8"?>
<svg version="1.1" xmlns:xlink="http://www.w3.org/1999/xlink" width="20px" height="20px" xmlns="http://www.w3.org/2000/svg">
  <g transform="matrix(1 0 0 1 -186 -42 )">
    <path d="M 18.505619808024505 6.378488286119307  C 18.652705900417402 6.634276570125486  18.565348138360832 6.961230115977557  18.31018221012124 7.108847201977937  C 18.31018221012124 7.108847201977937  17.740934653650413 7.437427382386488  17.740934653650413 7.437427382386488  C 17.53208865505937 7.558611656844107  17.429697231625653 7.805453450789656  17.493895028857906 8.038875509644235  C 17.68770736607175 8.746461541712172  17.779534595024217 9.468687284788416  17.77547144330066 10.185626465556119  C 17.774252497783607 10.427588355832214  17.93637225155365 10.639864165452593  18.170409790830774 10.70248959587699  C 18.170409790830774 10.70248959587699  18.80507409005091 10.87247290702895  18.80507409005091 10.87247290702895  C 19.090307341044877 10.94892473118341  19.25933445274498 11.242532268627713  19.182947200342056 11.527599974650471  C 19.182947200342056 11.527599974650471  18.615324904560623 13.647104801741342  18.615324904560623 13.647104801741342  C 18.5389376521577 13.9321725077641  18.245984412888987 14.101342501637816  17.96115747706739 14.024890677483356  C 17.96115747706739 14.024890677483356  17.32852475370899 13.855314024970532  17.32852475370899 13.855314024970532  C 17.094080899259552 13.792688594546107  16.847853904811757 13.895573230243357  16.727990928966733 14.10622240530725  C 16.373684098672243 14.730036757716569  15.933238451838264 15.31033863574011  15.411529770533093 15.827201766061002  C 15.239658452626486 15.997185077212961  15.205121662976211 16.261919851279742  15.325797269165946 16.471349050426298  C 15.325797269165946 16.471349050426298  15.65206835256788 17.037011217441517  15.65206835256788 17.037011217441517  C 15.799560760133119 17.29279950144769  15.711796682904208 17.619753047299767  15.456630754664616 17.767370133300147  C 15.456630754664616 17.767370133300147  13.557513639072397 18.86453514164458  13.557513639072397 18.86453514164458  C 13.301941395660407 19.01215222764496  12.9756703122585 18.924313961595146  12.827771589520893 18.668525677588974  C 12.827771589520893 18.668525677588974  12.501906821291328 18.103270169212863  12.501906821291328 18.103270169212863  C 12.380824899929223 17.89384097006632  12.134191590309086 17.791362993008207  11.901372996549071 17.855208399349962  C 11.19316565113246 18.049184570209974  10.471143589855728 18.141089422650985  9.753997310647293 18.136209518981545  C 9.511833467923054 18.134582884425065  9.299736947953193 18.296839681433752  9.237164411410362 18.53107505756659  C 9.237164411410362 18.53107505756659  9.067324669365519 19.16424255867564  9.067324669365519 19.16424255867564  C 8.990937416962595 19.449310264698425  8.697984177693854 19.618886917211242  8.413157241872284 19.54243509305678  C 8.413157241872284 19.54243509305678  6.295036248380114 18.974332974206845  6.295036248380114 18.974332974206845  C 6.010209312558516 18.897881150052378  5.841182200858384 18.60468027124722  5.917975768433678 18.319612565224432  C 5.917975768433678 18.319612565224432  6.087815510478521 17.68400511228065  6.087815510478521 17.68400511228065  C 6.150388047021352 17.450176394786943  6.047996623587608 17.203334600841387  5.837525364307197 17.083370302301148  C 5.215456835430047 16.728763968988943  4.6364577148226545 16.287946004183397  4.1212500762751745 15.765796311553956  C 3.95141033423036 15.593779707206401  3.686492841854175 15.558807064242117  3.4772405280908174 15.679991338699736  C 3.4772405280908174 15.679991338699736  2.9079929716199615 16.008571519108287  2.9079929716199615 16.008571519108287  C 2.65282704338037 16.156188605108667  2.326149644806094 16.06875699769799  2.1786572372408557 15.81296871369181  C 2.1786572372408557 15.81296871369181  1.082418902224191 13.912652893086367  1.082418902224191 13.912652893086367  C 0.9349264946589244 13.656864609080188  1.0226905718878356 13.329911063228117  1.2778565001274558 13.182293977227737  C 1.2778565001274558 13.182293977227737  1.8495419476324457 12.852087162262698  1.8495419476324457 12.852087162262698  C 2.0587942613958035 12.730902887805087  2.1607793696571775 12.484467752498666  2.0973942027696353 12.251452352283195  C 1.9043944959005046 11.544272978854366  1.813379897292748 10.823267211695494  1.818255679361016 10.107954665484286  C 1.8198809400504388 9.86517945792994  1.6573548711080264 9.652903648309568  1.4237236470032997 9.590278217885142  C 1.4237236470032997 9.590278217885142  0.782964620197788 9.418261613537616  0.782964620197788 9.418261613537616  C 0.4981376843761609 9.341809789383127  0.3287042575036878 9.049015569217097  0.4050915099066401 8.76354120455521  C 0.4050915099066401 8.76354120455521  0.9727138056880449 6.644036377464353  0.9727138056880449 6.644036377464353  C 1.0486947429186273 6.358562012802459  1.3420542973597094 6.1893920189287215  1.626881233181308 6.265843843083211  C 1.626881233181308 6.265843843083211  2.2696718358486123 6.438267106069873  2.2696718358486123 6.438267106069873  C 2.503303059953339 6.50089253649427  2.7499363695734473 6.398821218075291  2.8697993454184996 6.18817204301137  C 3.2232935453682785 5.56720430107589  3.662520246685176 4.988935716247951  4.182197352128583 4.474105879122668  C 4.354068670035218 4.304122567970715  4.389011774857835 4.039387793903913  4.26792985349573 3.8299585947573718  C 4.26792985349573 3.8299585947573718  3.935970357680816 3.254129961764157  3.935970357680816 3.254129961764157  C 3.7880716349432078 2.9983416777579777  3.875835712172119 2.671388131905907  4.131407955584081 2.5237710459055265  C 4.131407955584081 2.5237710459055265  6.030118756003958 1.4266060375610934  6.030118756003958 1.4266060375610934  C 6.285690999415948 1.278988951560713  6.6123683979901955 1.3668272176105276  6.759860805555434 1.622208842977571  C 6.759860805555434 1.622208842977571  7.091820301370348 2.1980374759707857  7.091820301370348 2.1980374759707857  C 7.212902222732453 2.407466675117348  7.459535532352589 2.50994465217547  7.692354126112605 2.446099245833693  C 8.39771726532274 2.2525297336128105  9.11770775073768 2.161031539810935  9.83160350856727 2.1650981262021247  C 10.073767351291508 2.1667247607585836  10.28586387126137 2.0040613051107954  10.3484364078042 1.7702325876170875  C 10.3484364078042 1.7702325876170875  10.52071404088315 1.126898620530028  10.52071404088315 1.126898620530028  C 10.596694978113732 0.8418309145072485  10.890054532554842 0.672254261994425  11.174881468376412 0.7487060861488857  C 11.174881468376412 0.7487060861488857  13.292596146696212 1.316401546359721  13.292596146696212 1.316401546359721  C 13.57742308251781 1.3928533705141817  13.746450194217942 1.6864609079584625  13.67046925698736 1.971528613981242  C 13.67046925698736 1.971528613981242  13.498597939080724 2.6128292878726995  13.498597939080724 2.6128292878726995  C 13.435619087365552 2.847064664005522  13.538416825971638 3.0939064579510713  13.749294400424446 3.213870756491332  C 14.370550298956857 3.5672571138861713  14.94914310439188 4.0068551027743595  15.46475705811173 4.527378160847313  C 15.634596800156544 4.698988106555753  15.898701662188017 4.733554090880908  16.107953975951375 4.612776475062425  C 16.107953975951375 4.612776475062425  16.679639423456365 4.28256966009738  16.679639423456365 4.28256966009738  C 16.935211666868327 4.134952574097007  17.261889065442574 4.222384181507685  17.40938147300784 4.478172465513865  C 17.40938147300784 4.478172465513865  18.505619808024505 6.378488286119307  18.505619808024505 6.378488286119307  Z M 11.712030126231014 13.470614952363341  C 13.544105238384503 12.412082514735268  14.171862179674605 10.067695460211333  13.114223786031772 8.23366499778237  C 12.05658539238894 6.400041193992514  9.713772108583896 5.771753596552877  7.881696996430406 6.8306926928200795  C 6.049621884276917 7.889225130448132  5.421864942986815 10.234018843611203  6.479503336629648 12.067235988761922  C 7.537548045444822 13.901266451190907  9.880361329249894 14.529554048630523  11.712030126231014 13.470614952363341  Z " fill-rule="nonzero" fill="#8dcfdc" stroke="none" transform="matrix(1 0 0 1 186 42 )" />
  </g>
</svg>