<?xml version="1.0" encoding="utf-8"?>
<svg version="1.1" xmlns:xlink="http://www.w3.org/1999/xlink" width="20px" height="20px" xmlns="http://www.w3.org/2000/svg">
  <g transform="matrix(1 0 0 1 -186 -42 )">
    <path d="M 18.5056198080245 6.37848828611931  C 18.6527059004174 6.63427657012549  18.5653481383608 6.96123011597756  18.3101822101212 7.10884720197794  C 18.3101822101212 7.10884720197794  17.7409346536504 7.43742738238649  17.7409346536504 7.43742738238649  C 17.5320886550594 7.55861165684411  17.4296972316257 7.80545345078966  17.4938950288579 8.03887550964424  C 17.6877073660717 8.74646154171217  17.7795345950242 9.46868728478842  17.7754714433007 10.1856264655561  C 17.7742524977836 10.4275883558322  17.9363722515536 10.6398641654526  18.1704097908308 10.702489595877  C 18.1704097908308 10.702489595877  18.8050740900509 10.8724729070289  18.8050740900509 10.8724729070289  C 19.0903073410449 10.9489247311834  19.259334452745 11.2425322686277  19.1829472003421 11.5275999746505  C 19.1829472003421 11.5275999746505  18.6153249045606 13.6471048017413  18.6153249045606 13.6471048017413  C 18.5389376521577 13.9321725077641  18.245984412889 14.1013425016378  17.9611574770674 14.0248906774834  C 17.9611574770674 14.0248906774834  17.328524753709 13.8553140249705  17.328524753709 13.8553140249705  C 17.0940808992596 13.7926885945461  16.8478539048118 13.8955732302434  16.7279909289667 14.1062224053072  C 16.3736840986722 14.7300367577166  15.9332384518383 15.3103386357401  15.4115297705331 15.827201766061  C 15.2396584526265 15.997185077213  15.2051216629762 16.2619198512797  15.3257972691659 16.4713490504263  C 15.3257972691659 16.4713490504263  15.6520683525679 17.0370112174415  15.6520683525679 17.0370112174415  C 15.7995607601331 17.2927995014477  15.7117966829042 17.6197530472998  15.4566307546646 17.7673701333001  C 15.4566307546646 17.7673701333001  13.5575136390724 18.8645351416446  13.5575136390724 18.8645351416446  C 13.3019413956604 19.012152227645  12.9756703122585 18.9243139615951  12.8277715895209 18.668525677589  C 12.8277715895209 18.668525677589  12.5019068212913 18.1032701692129  12.5019068212913 18.1032701692129  C 12.3808248999292 17.8938409700663  12.1341915903091 17.7913629930082  11.9013729965491 17.85520839935  C 11.1931656511325 18.04918457021  10.4711435898557 18.141089422651  9.75399731064729 18.1362095189815  C 9.51183346792305 18.1345828844251  9.29973694795319 18.2968396814338  9.23716441141036 18.5310750575666  C 9.23716441141036 18.5310750575666  9.06732466936552 19.1642425586756  9.06732466936552 19.1642425586756  C 8.99093741696259 19.4493102646984  8.69798417769385 19.6188869172112  8.41315724187228 19.5424350930568  C 8.41315724187228 19.5424350930568  6.29503624838011 18.9743329742068  6.29503624838011 18.9743329742068  C 6.01020931255852 18.8978811500524  5.84118220085838 18.6046802712472  5.91797576843368 18.3196125652244  C 5.91797576843368 18.3196125652244  6.08781551047852 17.6840051122807  6.08781551047852 17.6840051122807  C 6.15038804702135 17.4501763947869  6.04799662358761 17.2033346008414  5.8375253643072 17.0833703023011  C 5.21545683543005 16.7287639689889  4.63645771482265 16.2879460041834  4.12125007627517 15.765796311554  C 3.95141033423036 15.5937797072064  3.68649284185418 15.5588070642421  3.47724052809082 15.6799913386997  C 3.47724052809082 15.6799913386997  2.90799297161996 16.0085715191083  2.90799297161996 16.0085715191083  C 2.65282704338037 16.1561886051087  2.32614964480609 16.068756997698  2.17865723724086 15.8129687136918  C 2.17865723724086 15.8129687136918  1.08241890222419 13.9126528930864  1.08241890222419 13.9126528930864  C 0.934926494658924 13.6568646090802  1.02269057188784 13.3299110632281  1.27785650012746 13.1822939772277  C 1.27785650012746 13.1822939772277  1.84954194763245 12.8520871622627  1.84954194763245 12.8520871622627  C 2.0587942613958 12.7309028878051  2.16077936965718 12.4844677524987  2.09739420276964 12.2514523522832  C 1.9043944959005 11.5442729788544  1.81337989729275 10.8232672116955  1.81825567936102 10.1079546654843  C 1.81988094005044 9.86517945792994  1.65735487110803 9.65290364830957  1.4237236470033 9.59027821788514  C 1.4237236470033 9.59027821788514  0.782964620197788 9.41826161353762  0.782964620197788 9.41826161353762  C 0.498137684376161 9.34180978938313  0.328704257503688 9.0490155692171  0.40509150990664 8.76354120455521  C 0.40509150990664 8.76354120455521  0.972713805688045 6.64403637746435  0.972713805688045 6.64403637746435  C 1.04869474291863 6.35856201280246  1.34205429735971 6.18939201892872  1.62688123318131 6.26584384308321  C 1.62688123318131 6.26584384308321  2.26967183584861 6.43826710606987  2.26967183584861 6.43826710606987  C 2.50330305995334 6.50089253649427  2.74993636957345 6.39882121807529  2.8697993454185 6.18817204301137  C 3.22329354536828 5.56720430107589  3.66252024668518 4.98893571624795  4.18219735212858 4.47410587912267  C 4.35406867003522 4.30412256797072  4.38901177485783 4.03938779390391  4.26792985349573 3.82995859475737  C 4.26792985349573 3.82995859475737  3.93597035768082 3.25412996176416  3.93597035768082 3.25412996176416  C 3.78807163494321 2.99834167775798  3.87583571217212 2.67138813190591  4.13140795558408 2.52377104590553  C 4.13140795558408 2.52377104590553  6.03011875600396 1.42660603756109  6.03011875600396 1.42660603756109  C 6.28569099941595 1.27898895156071  6.6123683979902 1.36682721761053  6.75986080555543 1.62220884297757  C 6.75986080555543 1.62220884297757  7.09182030137035 2.19803747597079  7.09182030137035 2.19803747597079  C 7.21290222273245 2.40746667511735  7.45953553235259 2.50994465217547  7.6923541261126 2.44609924583369  C 8.39771726532274 2.25252973361281  9.11770775073768 2.16103153981093  9.83160350856727 2.16509812620212  C 10.0737673512915 2.16672476075858  10.2858638712614 2.0040613051108  10.3484364078042 1.77023258761709  C 10.3484364078042 1.77023258761709  10.5207140408831 1.12689862053003  10.5207140408831 1.12689862053003  C 10.5966949781137 0.841830914507248  10.8900545325548 0.672254261994425  11.1748814683764 0.748706086148886  C 11.1748814683764 0.748706086148886  13.2925961466962 1.31640154635972  13.2925961466962 1.31640154635972  C 13.5774230825178 1.39285337051418  13.7464501942179 1.68646090795846  13.6704692569874 1.97152861398124  C 13.6704692569874 1.97152861398124  13.4985979390807 2.6128292878727  13.4985979390807 2.6128292878727  C 13.4356190873656 2.84706466400552  13.5384168259716 3.09390645795107  13.7492944004244 3.21387075649133  C 14.3705502989569 3.56725711388617  14.9491431043919 4.00685510277436  15.4647570581117 4.52737816084731  C 15.6345968001565 4.69898810655575  15.898701662188 4.73355409088091  16.1079539759514 4.61277647506243  C 16.1079539759514 4.61277647506243  16.6796394234564 4.28256966009738  16.6796394234564 4.28256966009738  C 16.9352116668683 4.13495257409701  17.2618890654426 4.22238418150769  17.4093814730078 4.47817246551386  C 17.4093814730078 4.47817246551386  18.5056198080245 6.37848828611931  18.5056198080245 6.37848828611931  Z M 11.712030126231 13.4706149523633  C 13.5441052383845 12.4120825147353  14.1718621796746 10.0676954602113  13.1142237860318 8.23366499778237  C 12.0565853923889 6.40004119399251  9.7137721085839 5.77175359655288  7.88169699643041 6.83069269282008  C 6.04962188427692 7.88922513044813  5.42186494298682 10.2340188436112  6.47950333662965 12.0672359887619  C 7.53754804544482 13.9012664511909  9.88036132924989 14.5295540486305  11.712030126231 13.4706149523633  Z " fill-rule="nonzero" fill="#8dcfdc" stroke="none" transform="matrix(1 0 0 1 186 42 )" />
  </g>
</svg>