<?xml version="1.0" encoding="utf-8"?>
<svg version="1.1" xmlns:xlink="http://www.w3.org/1999/xlink" width="93px" height="127px" xmlns="http://www.w3.org/2000/svg">
  <g transform="matrix(1 0 0 1 -90 -38 )">
    <path d="M 90.93538188277087 126  C 90.93538188277087 126  1.064209591474253 126  1.064209591474253 126  C 0.4763410301953805 126  0 125.52688884741858  0 124.94391212298662  C 0 124.94391212298662  0 1.05608787701335  0 1.05608787701335  C 0 0.47270574456720954  0.4763410301953805 0  1.064209591474253 0  C 1.064209591474253 0  90.93497335701598 0  90.93497335701598 0  C 91.52325044404972 0  92 0.47270574456720954  92 1.056493285027572  C 92 1.056493285027572  92 124.94391212298662  92 124.94391212298662  C 92 125.52688884741858  91.52325044404972 126  90.93538188277087 126  Z " fill-rule="nonzero" fill="#117f94" stroke="none" transform="matrix(1 0 0 1 90 38 )" />
  </g>
</svg>