<?xml version="1.0" encoding="utf-8"?>
<svg version="1.1" xmlns:xlink="http://www.w3.org/1999/xlink" width="93px" height="127px" xmlns="http://www.w3.org/2000/svg">
  <g transform="matrix(1 0 0 1 -90 -38 )">
    <path d="M 90.9353818827709 126  C 90.9353818827709 126  1.06420959147425 126  1.06420959147425 126  C 0.47634103019538 126  0 125.526888847419  0 124.943912122987  C 0 124.943912122987  0 1.05608787701335  0 1.05608787701335  C 0 0.47270574456721  0.47634103019538 0  1.06420959147425 0  C 1.06420959147425 0  90.934973357016 0  90.934973357016 0  C 91.5232504440497 0  92 0.47270574456721  92 1.05649328502757  C 92 1.05649328502757  92 124.943912122987  92 124.943912122987  C 92 125.526888847419  91.5232504440497 126  90.9353818827709 126  Z " fill-rule="nonzero" fill="#117f94" stroke="none" transform="matrix(1 0 0 1 90 38 )" />
  </g>
</svg>