<?xml version="1.0" encoding="utf-8"?>
<svg version="1.1" xmlns:xlink="http://www.w3.org/1999/xlink" width="84px" height="115px" xmlns="http://www.w3.org/2000/svg">
  <g transform="matrix(1 0 0 1 -94 -44 )">
    <path d="M 82.628410622743 114  C 82.628410622743 114  0.37118103728194 114  0.37118103728194 114  C 0.166194369828108 114  0 113.834194822509  0 113.630595817797  C 0 113.630595817797  0 0.369810567442136  0 0.369810567442136  C 0 0.165398792251581  0.166194369828108 0  0.37118103728194 0  C 0.37118103728194 0  82.628410622743 0  82.628410622743 0  C 82.8333972901969 0  83 0.165398792251581  83 0.369810567442136  C 83 0.369810567442136  83 113.630595817797  83 113.630595817797  C 83 113.834194822509  82.8333972901969 114  82.628410622743 114  Z " fill-rule="nonzero" fill="#eef7f6" stroke="none" transform="matrix(1 0 0 1 94 44 )" />
  </g>
</svg>