<?xml version="1.0" encoding="utf-8"?>
<svg version="1.1" xmlns:xlink="http://www.w3.org/1999/xlink" width="84px" height="115px" xmlns="http://www.w3.org/2000/svg">
  <g transform="matrix(1 0 0 1 -94 -44 )">
    <path d="M 82.62841062274305 114  C 82.62841062274305 114  0.3711810372819399 114  0.3711810372819399 114  C 0.16619436982810792 114  0 113.83419482250947  0 113.63059581779682  C 0 113.63059581779682  0 0.36981056744213586  0 0.36981056744213586  C 0 0.16539879225158088  0.16619436982810792 0  0.3711810372819399 0  C 0.3711810372819399 0  82.62841062274305 0  82.62841062274305 0  C 82.83339729019688 0  83 0.16539879225158088  83 0.36981056744213586  C 83 0.36981056744213586  83 113.63059581779682  83 113.63059581779682  C 83 113.83419482250947  82.83339729019688 114  82.62841062274305 114  Z " fill-rule="nonzero" fill="#eef7f6" stroke="none" transform="matrix(1 0 0 1 94 44 )" />
  </g>
</svg>