<?xml version="1.0" encoding="utf-8"?>
<svg version="1.1" xmlns:xlink="http://www.w3.org/1999/xlink" width="15px" height="15px" xmlns="http://www.w3.org/2000/svg">
  <g transform="matrix(1 0 0 1 -128 -27 )">
    <path d="M 14.49989293062751 7.321112449035404  C 14.49989293062751 3.5273940046895405  11.427743912443304 0.4453281788028107  7.637229669533611 0.4453281788028107  C 3.8394017535214857 0.4453281788028107  0.7668464201649385 3.5273940046895405  0.7668464201649385 7.321112449035404  C 0.7668464201649385 11.114830893381246  3.8394017535214857 14.197303377907112  7.637229669533611 14.197303377907112  C 11.427743912443304 14.197303377907112  14.49989293062751 11.114830893381246  14.49989293062751 7.321112449035404  Z M 10.32784874087497 7.321112449035304  C 10.32784874087497 8.81070304413003  9.118248472770972 10.014412615923781  7.637229669533126 10.014412615923781  C 6.148897193192852 10.014412615923781  4.946204283018915 8.81070304413003  4.946204283018915 7.321112449035304  C 4.946204283018915 5.831521853940558  6.148897193192852 4.627812282146806  7.637229669533126 4.627812282146806  C 9.118248472770972 4.627812282146806  10.32784874087497 5.831521853940558  10.32784874087497 7.321112449035304  Z " fill-rule="nonzero" fill="#f6c671" stroke="none" transform="matrix(1 0 0 1 128 27 )" />
  </g>
</svg>