<?xml version="1.0" encoding="utf-8"?>
<svg version="1.1" xmlns:xlink="http://www.w3.org/1999/xlink" width="15px" height="15px" xmlns="http://www.w3.org/2000/svg">
  <g transform="matrix(1 0 0 1 -128 -27 )">
    <path d="M 14.4998929306275 7.3211124490354  C 14.4998929306275 3.52739400468954  11.4277439124433 0.445328178802811  7.63722966953361 0.445328178802811  C 3.83940175352149 0.445328178802811  0.766846420164939 3.52739400468954  0.766846420164939 7.3211124490354  C 0.766846420164939 11.1148308933812  3.83940175352149 14.1973033779071  7.63722966953361 14.1973033779071  C 11.4277439124433 14.1973033779071  14.4998929306275 11.1148308933812  14.4998929306275 7.3211124490354  Z M 10.327848740875 7.3211124490353  C 10.327848740875 8.81070304413003  9.11824847277097 10.0144126159238  7.63722966953313 10.0144126159238  C 6.14889719319285 10.0144126159238  4.94620428301891 8.81070304413003  4.94620428301891 7.3211124490353  C 4.94620428301891 5.83152185394056  6.14889719319285 4.62781228214681  7.63722966953313 4.62781228214681  C 9.11824847277097 4.62781228214681  10.327848740875 5.83152185394056  10.327848740875 7.3211124490353  Z " fill-rule="nonzero" fill="#f6c671" stroke="none" transform="matrix(1 0 0 1 128 27 )" />
  </g>
</svg>