<?xml version="1.0" encoding="utf-8"?>
<svg version="1.1" xmlns:xlink="http://www.w3.org/1999/xlink" width="47px" height="13px" xmlns="http://www.w3.org/2000/svg">
  <g transform="matrix(1 0 0 1 -113 -40 )">
    <path d="M 41.886244952418 12  C 41.886244952418 12  4.11375504758202 12  4.11375504758202 12  C 1.84165834607195 12  0 10.1440469688695  0 7.85431458219553  C 0 7.85431458219553  0 0.516111414527577  0 0.516111414527577  C 0 0.231021299836141  0.229241957003888 0  0.512136286923556 0  C 0.512136286923556 0  45.4878637130764 0  45.4878637130764 0  C 45.7707580429961 0  46 0.231021299836141  46 0.516111414527577  C 46 0.516111414527577  46 7.85431458219553  46 7.85431458219553  C 46 10.1440469688695  44.1583416539281 12  41.886244952418 12  Z " fill-rule="nonzero" fill="#f6c671" stroke="none" transform="matrix(1 0 0 1 113 40 )" />
  </g>
</svg>