<?xml version="1.0" encoding="utf-8"?>
<svg version="1.1" xmlns:xlink="http://www.w3.org/1999/xlink" width="47px" height="13px" xmlns="http://www.w3.org/2000/svg">
  <g transform="matrix(1 0 0 1 -113 -40 )">
    <path d="M 41.88624495241798 12  C 41.88624495241798 12  4.113755047582025 12  4.113755047582025 12  C 1.8416583460719453 12  0 10.144046968869468  0 7.854314582195529  C 0 7.854314582195529  0 0.516111414527577  0 0.516111414527577  C 0 0.23102129983614061  0.2292419570038877 0  0.5121362869235557 0  C 0.5121362869235557 0  45.48786371307644 0  45.48786371307644 0  C 45.770758042996114 0  46 0.23102129983614061  46 0.516111414527577  C 46 0.516111414527577  46 7.854314582195529  46 7.854314582195529  C 46 10.144046968869468  44.158341653928055 12  41.88624495241798 12  Z " fill-rule="nonzero" fill="#f6c671" stroke="none" transform="matrix(1 0 0 1 113 40 )" />
  </g>
</svg>