<?xml version="1.0" encoding="utf-8"?>
<svg version="1.1" xmlns:xlink="http://www.w3.org/1999/xlink" width="9px" height="5px" xmlns="http://www.w3.org/2000/svg">
  <g transform="matrix(1 0 0 1 -131 -30 )">
    <path d="M 7.98567300491939 2.00803810972359  C 8.43912073726875 2.66438515326249  8.70485085998962 3.46224940321495  8.70485085998962 4.32070579039623  C 8.70485085998962 4.32070579039623  8.29853568763355 4.32070579039623  8.29853568763355 4.32070579039623  C 8.2981293724612 3.54683440015182  8.05962236628818 2.83070853666236  7.65127561807034 2.23902021674349  C 7.58748413601046 2.14670870566335  7.61064410083475 2.02023786889719  7.70287764495956 1.95639246255543  C 7.73822706495454 1.93199294420826  7.7784522670178 1.9201998436738  7.81827115390868 1.9201998436738  C 7.88287526631331 1.9201998436738  7.94626043320085 1.95069924160776  7.98567300491939 2.00803810972359  Z M 2.04453255472933 1.72785030737033  C 1.38142619344424 2.39192386505247  0.971860499709322 3.30731246171049  0.971454184536981 4.32070579039628  C 0.971454184536981 4.32070579039628  0.565139012180907 4.32070579039628  0.565139012180907 4.32070579039628  C 0.565545327353277 2.07107019878719  2.38705624502549 0.247612860975334  4.63519809367159 0.247206202336201  C 5.54290618871502 0.247206202336201  6.38357228031973 0.545693643449908  7.06049335746494 1.04954369731899  C 7.15069532572798 1.11664237277372  7.16938582365637 1.24392652681812  7.10234382021761 1.33420474470264  C 7.06252493332673 1.38788368506642  7.00117134230095 1.41594313116567  6.93941143610283 1.41594313116567  C 6.89715465817778 1.41594313116567  6.85449156508042 1.40293005471383  6.81832951474073 1.37609058453195  C 6.2080441258619 0.922259543274588  5.45392316596906 0.65427150009484  4.63519809367159 0.653864841455707  C 3.62266068416028 0.65427150009484  2.70804523118679 1.06418340832729  2.04453255472933 1.72785030737033  Z " fill-rule="nonzero" fill="#de5191" stroke="none" transform="matrix(1 0 0 1 131 30 )" />
  </g>
</svg>