<?xml version="1.0" encoding="utf-8"?>
<svg version="1.1" xmlns:xlink="http://www.w3.org/1999/xlink" width="9px" height="5px" xmlns="http://www.w3.org/2000/svg">
  <g transform="matrix(1 0 0 1 -131 -30 )">
    <path d="M 7.985673004919391 2.008038109723593  C 8.439120737268752 2.6643851532624865  8.70485085998962 3.4622494032149547  8.70485085998962 4.320705790396225  C 8.70485085998962 4.320705790396225  8.298535687633546 4.320705790396225  8.298535687633546 4.320705790396225  C 8.298129372461204 3.5468344001518233  8.059622366288181 2.830708536662364  7.651275618070343 2.2390202167434907  C 7.58748413601046 2.1467087056633503  7.610644100834747 2.0202378688971905  7.702877644959557 1.956392462555435  C 7.738227064954543 1.9319929442082646  7.778452267017798 1.9201998436737995  7.818271153908682 1.9201998436737995  C 7.882875266313306 1.9201998436737995  7.946260433200848 1.950699241607758  7.985673004919391 2.008038109723593  Z M 2.0445325547293294 1.7278503073703284  C 1.3814261934442413 2.391923865052469  0.9718604997093223 3.307312461710488  0.9714541845369808 4.320705790396282  C 0.9714541845369808 4.320705790396282  0.5651390121809072 4.320705790396282  0.5651390121809072 4.320705790396282  C 0.5655453273532771 2.07107019878719  2.387056245025491 0.24761286097533386  4.63519809367159 0.24720620233620139  C 5.542906188715023 0.24720620233620139  6.383572280319726 0.5456936434499084  7.060493357464935 1.0495436973189918  C 7.15069532572798 1.1166423727737183  7.16938582365637 1.243926526818118  7.102343820217612 1.3342047447026388  C 7.062524933326728 1.3878836850664165  7.00117134230095 1.415943131165669  6.93941143610283 1.415943131165669  C 6.897154658177783 1.415943131165669  6.854491565080423 1.4029300547138277  6.818329514740725 1.3760905845319513  C 6.208044125861903 0.9222595432745884  5.453923165969059 0.6542715000948398  4.63519809367159 0.6538648414557073  C 3.62266068416028 0.6542715000948398  2.7080452311867873 1.0641834083272919  2.0445325547293294 1.7278503073703284  Z " fill-rule="nonzero" fill="#de5191" stroke="none" transform="matrix(1 0 0 1 131 30 )" />
  </g>
</svg>