<?xml version="1.0" encoding="utf-8"?>
<svg version="1.1" xmlns:xlink="http://www.w3.org/1999/xlink" width="47px" height="14px" xmlns="http://www.w3.org/2000/svg">
  <g transform="matrix(1 0 0 1 -112 -38 )">
    <path d="M 46.6265421214385 8.1910714662954  C 46.5765653552388 11.0860743181872  44.2560994059133 13.4259881276808  41.3704490518405 13.5036599277526  C 41.3704490518405 13.5036599277526  5.90197871136273 13.5036599277526  5.90197871136273 13.5036599277526  C 2.98504208901855 13.4251748104026  0.645073011419981 11.0348353296581  0.645073011419981 8.09632000338056  C 0.645073011419981 8.09632000338056  0.645073011419981 2.05133933286913  0.645073011419981 2.05133933286913  C 0.669858236933706 1.80368422164536  0.870171616905239 1.60808141622887  1.11964913273187 1.59140841202498  C 1.11964913273187 1.59140841202498  1.6011326119738 1.59140841202498  1.6011326119738 1.59140841202498  C 1.6011326119738 1.59140841202498  1.6011326119738 6.38062720493537  1.6011326119738 6.38062720493537  C 1.6011326119738 9.36834822654639  4.02033314818181 11.7895937638639  7.00593703465414 11.7895937638639  C 7.00593703465414 11.7895937638639  40.2668970437215 11.7895937638639  40.2668970437215 11.7895937638639  C 43.2516882998491 11.7895937638639  45.6708888360571 9.36834822654639  45.6708888360571 6.38062720493537  C 45.6708888360571 6.38062720493537  45.6708888360571 1.59140841202498  45.6708888360571 1.59140841202498  C 45.6708888360571 1.59140841202498  46.1495281090925 1.59140841202498  46.1495281090925 1.59140841202498  C 46.4156645469857 1.60930139214623  46.6265421214385 1.83133700910548  46.6265421214385 2.1025783213982  C 46.6265421214385 2.1025783213982  46.6265421214385 8.1910714662954  46.6265421214385 8.1910714662954  Z M 40.5200313960998 0.571915203751814  L 6.74955216089802 0.571915203751814  L 6.74955216089802 1.59018843610707  L 40.5200313960998 1.59018843610707  L 40.5200313960998 0.571915203751814  Z " fill-rule="nonzero" fill="#f2ad33" stroke="none" transform="matrix(1 0 0 1 112 38 )" />
  </g>
</svg>