<?xml version="1.0" encoding="utf-8"?>
<svg version="1.1" xmlns:xlink="http://www.w3.org/1999/xlink" width="47px" height="14px" xmlns="http://www.w3.org/2000/svg">
  <g transform="matrix(1 0 0 1 -112 -38 )">
    <path d="M 46.62654212143855 8.191071466295405  C 46.576565355238756 11.086074318187173  44.25609940591329 13.425988127680782  41.370449051840524 13.503659927752622  C 41.370449051840524 13.503659927752622  5.90197871136273 13.503659927752622  5.90197871136273 13.503659927752622  C 2.985042089018549 13.425174810402567  0.6450730114199814 11.034835329658101  0.6450730114199814 8.096320003380562  C 0.6450730114199814 8.096320003380562  0.6450730114199814 2.0513393328691265  0.6450730114199814 2.0513393328691265  C 0.669858236933706 1.803684221645355  0.870171616905239 1.6080814162288704  1.1196491327318654 1.5914084120249754  C 1.1196491327318654 1.5914084120249754  1.6011326119737959 1.5914084120249754  1.6011326119737959 1.5914084120249754  C 1.6011326119737959 1.5914084120249754  1.6011326119737959 6.380627204935372  1.6011326119737959 6.380627204935372  C 1.6011326119737959 9.368348226546388  4.020333148181805 11.789593763863898  7.0059370346541385 11.789593763863898  C 7.0059370346541385 11.789593763863898  40.26689704372146 11.789593763863898  40.26689704372146 11.789593763863898  C 43.25168829984909 11.789593763863898  45.67088883605709 9.368348226546388  45.67088883605709 6.380627204935372  C 45.67088883605709 6.380627204935372  45.67088883605709 1.5914084120249754  45.67088883605709 1.5914084120249754  C 45.67088883605709 1.5914084120249754  46.14952810909253 1.5914084120249754  46.14952810909253 1.5914084120249754  C 46.41566454698574 1.6093013921462287  46.62654212143855 1.8313370091054753  46.62654212143855 2.102578321398198  C 46.62654212143855 2.102578321398198  46.62654212143855 8.191071466295405  46.62654212143855 8.191071466295405  Z M 40.520031396099796 0.5719152037518143  L 6.749552160898019 0.5719152037518143  L 6.749552160898019 1.59018843610707  L 40.520031396099796 1.59018843610707  L 40.520031396099796 0.5719152037518143  Z " fill-rule="nonzero" fill="#f2ad33" stroke="none" transform="matrix(1 0 0 1 112 38 )" />
  </g>
</svg>