<?xml version="1.0" encoding="utf-8"?>
<svg version="1.1" xmlns:xlink="http://www.w3.org/1999/xlink" width="69px" height="63px" xmlns="http://www.w3.org/2000/svg">
  <g transform="matrix(1 0 0 1 -101 -80 )">
    <path d="M 68.92007233707682 1  L 0.34951121992298795 1  L 0.34951121992298795 5  L 68.92007233707682 5  L 68.92007233707682 1  Z M 68.92007233707682 12  L 0.34951121992298795 12  L 0.34951121992298795 17  L 68.92007233707682 17  L 68.92007233707682 12  Z M 0.34951121992298795 24  L 0.34951121992298795 28  L 68.92007233707682 28  L 68.92007233707682 24  L 0.34951121992298795 24  Z M 0.34951121992298795 39  L 68.92007233707682 39  L 68.92007233707682 35  L 0.34951121992298795 35  L 0.34951121992298795 39  Z M 38.647966735860734 51  L 38.647966735860734 46  L 0.34951121992298795 46  L 0.34951121992298795 51  L 38.647966735860734 51  Z M 38.647966735860734 58  L 0.34951121992298795 58  L 0.34951121992298795 62  L 38.647966735860734 62  L 38.647966735860734 58  Z " fill-rule="nonzero" fill="#abdbe8" stroke="none" transform="matrix(1 0 0 1 101 80 )" />
  </g>
</svg>