<?xml version="1.0" encoding="utf-8"?>
<svg version="1.1" xmlns:xlink="http://www.w3.org/1999/xlink" width="69px" height="63px" xmlns="http://www.w3.org/2000/svg">
  <g transform="matrix(1 0 0 1 -101 -80 )">
    <path d="M 68.9200723370768 1  L 0.349511219922988 1  L 0.349511219922988 5  L 68.9200723370768 5  L 68.9200723370768 1  Z M 68.9200723370768 12  L 0.349511219922988 12  L 0.349511219922988 17  L 68.9200723370768 17  L 68.9200723370768 12  Z M 0.349511219922988 24  L 0.349511219922988 28  L 68.9200723370768 28  L 68.9200723370768 24  L 0.349511219922988 24  Z M 0.349511219922988 39  L 68.9200723370768 39  L 68.9200723370768 35  L 0.349511219922988 35  L 0.349511219922988 39  Z M 38.6479667358607 51  L 38.6479667358607 46  L 0.349511219922988 46  L 0.349511219922988 51  L 38.6479667358607 51  Z M 38.6479667358607 58  L 0.349511219922988 58  L 0.349511219922988 62  L 38.6479667358607 62  L 38.6479667358607 58  Z " fill-rule="nonzero" fill="#abdbe8" stroke="none" transform="matrix(1 0 0 1 101 80 )" />
  </g>
</svg>