<?xml version="1.0" encoding="utf-8"?>
<svg version="1.1" xmlns:xlink="http://www.w3.org/1999/xlink" width="14px" height="14px" xmlns="http://www.w3.org/2000/svg">
  <g transform="matrix(1 0 0 1 -151 -141 )">
    <path d="M 9.925879681802712 12.309430255403015  L 9.389949969465079 13.791700994993619  C 9.060022049511986 13.659536937279768  8.787790884033399 13.387075649069715  8.656144768190046 12.9779770581155  C 8.462738746148545 12.375715613579501  7.926402718638542 12.049982043644775  7.381534072509083 12.049982043644775  C 6.981719942910729 12.049982043644775  6.5778426615887895 12.226065234383526  6.305205180937861 12.604257768764654  C 6.028098233391063 12.986923548176122  5.633159885860948 13.158533493884562  5.2374089079861506 13.158533493884562  C 4.556424679117384 13.158533493884562  3.8888488509363697 12.639230411728931  3.8929120026599264 11.81696664342931  C 3.8929120026599264 11.025608931702749  3.2472771937861467 10.475806451613181  2.552884564229629 10.475806451613181  C 2.289186017370554 10.475806451613181  2.016548536719654 10.554698227602358  1.7707278574442284 10.735254663371421  C 1.5204377112728764 10.919877685531674  1.2478002306219764 10.999176120159973  0.9841016837629012 10.999176120159973  C 0.9142154741176682 10.999176120159973  0.847986101023622 10.994702875129661  0.7821630431019457 10.981283140038727  C 0.7821630431019457 10.981283140038727  4.503603706711118 0.7570716352961426  4.503603706711118 0.7570716352961426  L 9.925879681802712 2.731399328221329  L 13.001685536538105 3.852963854912929  L 9.925879681802712 12.309430255403015  Z " fill-rule="nonzero" fill="#de3453" stroke="none" transform="matrix(1 0 0 1 151 141 )" />
  </g>
</svg>