<?xml version="1.0" encoding="utf-8"?>
<svg version="1.1" xmlns:xlink="http://www.w3.org/1999/xlink" width="14px" height="14px" xmlns="http://www.w3.org/2000/svg">
  <g transform="matrix(1 0 0 1 -151 -141 )">
    <path d="M 9.92587968180271 12.309430255403  L 9.38994996946508 13.7917009949936  C 9.06002204951199 13.6595369372798  8.7877908840334 13.3870756490697  8.65614476819005 12.9779770581155  C 8.46273874614855 12.3757156135795  7.92640271863854 12.0499820436448  7.38153407250908 12.0499820436448  C 6.98171994291073 12.0499820436448  6.57784266158879 12.2260652343835  6.30520518093786 12.6042577687647  C 6.02809823339106 12.9869235481761  5.63315988586095 13.1585334938846  5.23740890798615 13.1585334938846  C 4.55642467911738 13.1585334938846  3.88884885093637 12.6392304117289  3.89291200265993 11.8169666434293  C 3.89291200265993 11.0256089317027  3.24727719378615 10.4758064516132  2.55288456422963 10.4758064516132  C 2.28918601737055 10.4758064516132  2.01654853671965 10.5546982276024  1.77072785744423 10.7352546633714  C 1.52043771127288 10.9198776855317  1.24780023062198 10.99917612016  0.984101683762901 10.99917612016  C 0.914215474117668 10.99917612016  0.847986101023622 10.9947028751297  0.782163043101946 10.9812831400387  C 0.782163043101946 10.9812831400387  4.50360370671112 0.757071635296143  4.50360370671112 0.757071635296143  L 9.92587968180271 2.73139932822133  L 13.0016855365381 3.85296385491293  L 9.92587968180271 12.309430255403  Z " fill-rule="nonzero" fill="#de3453" stroke="none" transform="matrix(1 0 0 1 151 141 )" />
  </g>
</svg>