<?xml version="1.0" encoding="utf-8"?>
<svg version="1.1" xmlns:xlink="http://www.w3.org/1999/xlink" width="31px" height="31px" xmlns="http://www.w3.org/2000/svg">
  <g transform="matrix(1 0 0 1 -146 -123 )">
    <path d="M 16.150671323085128 0.8393871531570924  C 16.453406798234386 1.783646493336252  17.702037012381844 1.9811011579637368  18.281699661010016 1.176534848153818  C 18.968692072140346 0.2232630544024419  20.474585991827364 0.7128031461656145  20.470489436006673 1.8881090233777622  C 20.466392880185985 2.879478916320733  21.59253607529471 3.453408346078221  22.392593427076186 2.867189206904084  C 23.340536443984732 2.1728206248634483  24.621529449115673 3.103561284684288  24.254478047581504 4.21987655669652  C 23.944368771954988 5.162087611972908  24.83823725203037 6.055959143543801  25.780035435207854 5.745848809263713  C 26.896346896346913 5.3779768407253705  27.82708437880853 6.658974218920688  27.13230851161886 7.607330128905392  C 26.54691068484173 8.407390211929208  27.120428499738846 9.53353725147476  28.112204663928804 9.529850338649771  C 29.287096873303767 9.52534411186367  29.77622563829461 11.031243172383657  28.82295709881917 11.718647585754857  C 28.018803191217003 12.298312213240122  28.21666683735649 13.54653703299104  29.160922954026404 13.849273541621152  C 30.279692348657882 14.208133056587286  30.279692348657882 15.79145728643216  29.160922954026404 16.15072645837885  C 28.21666683735649 16.45346296700896  28.018803191217003 17.701687786759884  28.82295709881917 18.28135241424514  C 29.77622563829461 18.968756827616343  29.287096873303767 20.474655888136336  28.112204663928804 20.470149661350234  C 27.120428499738846 20.466462748525238  26.54691068484173 21.592609788070792  27.13230851161886 22.39226021411405  C 27.82708437880853 23.340616124098755  26.896346896346913 24.621613502294082  25.780035435207854 24.25415119073629  C 24.83823725203037 23.94445051343675  23.944368771954988 24.837912388027092  24.254478047581504 25.779713786322922  C 24.621529449115673 26.89643871531571  23.340536443984732 27.826769718156  22.392593427076186 27.132810793095913  C 21.59253607529471 26.546591653921787  20.466392880185985 27.120111426698713  20.470489436006673 28.11189097662224  C 20.474585991827364 29.28719685383439  18.968692072140346 29.776736945597555  18.281699661010016 28.823465151846186  C 17.702037012381844 28.01889884203627  16.453406798234386 28.216353506663754  16.150671323085128 29.160612846842913  C 15.791813033192344 30.27979571771904  14.208494208494201 30.27979571771904  13.849635918601441 29.160612846842913  C 13.5464907878701 28.216353506663754  12.297860573722641 28.01889884203627  11.718197925094467 28.823465151846186  C 11.0316151695462 29.776736945597555  9.52531159427712 29.28719685383439  9.529817805679869 28.11189097662224  C 9.533504705918503 27.120111426698713  8.40736151080978 26.546591653921787  7.607304159028299 27.132810793095913  C 6.659361142119753 27.826769718156  5.378368136988813 26.89643871531571  5.745829194105063 25.779713786322922  C 6.0555288141495 24.837912388027092  5.161660334074116 23.94445051343675  4.22027180647869 24.25415119073629  C 3.103960345339656 24.621613502294082  2.1732228628780392 23.340616124098755  2.8675890744856276 22.39226021411405  C 3.453396556844838 21.592609788070792  2.879469086365638 20.466462748525238  1.8881025777577432 20.470149661350234  C 0.712800712800717 20.474655888136336  0.2236719478098758 18.968756827616343  1.1769404872853115 18.28135241424514  C 1.9815040504695642 17.701687786759884  1.7832307487479944 16.45346296700896  0.8393842876601412 16.15072645837885  C -0.27979476255338037 15.79145728643216  -0.27979476255338037 14.208133056587286  0.8393842876601412 13.849273541621152  C 1.7832307487479944 13.54653703299104  1.9815040504695642 12.298312213240122  1.1769404872853115 11.718647585754857  C 0.2236719478098758 11.031243172383657  0.712800712800717 9.52534411186367  1.8881025777577432 9.529850338649771  C 2.879469086365638 9.53353725147476  3.453396556844838 8.407390211929208  2.8675890744856276 7.607739785885949  C 2.1732228628780392 6.658974218920688  3.103960345339656 5.3779768407253705  4.22027180647869 5.745848809263713  C 5.161660334074116 6.055959143543801  6.0555288141495 5.162087611972908  5.745829194105063 4.21987655669652  C 5.378368136988813 3.103561284684288  6.659361142119753 2.1728206248634483  7.607304159028299 2.867189206904084  C 8.40736151080978 3.453408346078221  9.533504705918503 2.879478916320733  9.529817805679869 1.8881090233777622  C 9.52531159427712 0.7128031461656145  11.0316151695462 0.2232630544024419  11.718197925094467 1.176534848153818  C 12.297860573722641 1.9811011579637368  13.5464907878701 1.783646493336252  13.849635918601441 0.8393871531570924  C 14.208494208494201 -0.27979571771902695  15.791813033192344 -0.27979571771902695  16.150671323085128 0.8393871531570924  Z " fill-rule="nonzero" fill="#ff6884" stroke="none" transform="matrix(1 0 0 1 146 123 )" />
  </g>
</svg>