<?xml version="1.0" encoding="utf-8"?>
<svg version="1.1" xmlns:xlink="http://www.w3.org/1999/xlink" width="31px" height="31px" xmlns="http://www.w3.org/2000/svg">
  <g transform="matrix(1 0 0 1 -146 -123 )">
    <path d="M 16.1506713230851 0.839387153157092  C 16.4534067982344 1.78364649333625  17.7020370123818 1.98110115796374  18.28169966101 1.17653484815382  C 18.9686920721403 0.223263054402442  20.4745859918274 0.712803146165614  20.4704894360067 1.88810902337776  C 20.466392880186 2.87947891632073  21.5925360752947 3.45340834607822  22.3925934270762 2.86718920690408  C 23.3405364439847 2.17282062486345  24.6215294491157 3.10356128468429  24.2544780475815 4.21987655669652  C 23.944368771955 5.16208761197291  24.8382372520304 6.0559591435438  25.7800354352079 5.74584880926371  C 26.8963468963469 5.37797684072537  27.8270843788085 6.65897421892069  27.1323085116189 7.60733012890539  C 26.5469106848417 8.40739021192921  27.1204284997388 9.53353725147476  28.1122046639288 9.52985033864977  C 29.2870968733038 9.52534411186367  29.7762256382946 11.0312431723837  28.8229570988192 11.7186475857549  C 28.018803191217 12.2983122132401  28.2166668373565 13.546537032991  29.1609229540264 13.8492735416212  C 30.2796923486579 14.2081330565873  30.2796923486579 15.7914572864322  29.1609229540264 16.1507264583788  C 28.2166668373565 16.453462967009  28.018803191217 17.7016877867599  28.8229570988192 18.2813524142451  C 29.7762256382946 18.9687568276163  29.2870968733038 20.4746558881363  28.1122046639288 20.4701496613502  C 27.1204284997388 20.4664627485252  26.5469106848417 21.5926097880708  27.1323085116189 22.392260214114  C 27.8270843788085 23.3406161240988  26.8963468963469 24.6216135022941  25.7800354352079 24.2541511907363  C 24.8382372520304 23.9444505134367  23.944368771955 24.8379123880271  24.2544780475815 25.7797137863229  C 24.6215294491157 26.8964387153157  23.3405364439847 27.826769718156  22.3925934270762 27.1328107930959  C 21.5925360752947 26.5465916539218  20.466392880186 27.1201114266987  20.4704894360067 28.1118909766222  C 20.4745859918274 29.2871968538344  18.9686920721403 29.7767369455976  18.28169966101 28.8234651518462  C 17.7020370123818 28.0188988420363  16.4534067982344 28.2163535066638  16.1506713230851 29.1606128468429  C 15.7918130331923 30.279795717719  14.2084942084942 30.279795717719  13.8496359186014 29.1606128468429  C 13.5464907878701 28.2163535066638  12.2978605737226 28.0188988420363  11.7181979250945 28.8234651518462  C 11.0316151695462 29.7767369455976  9.52531159427712 29.2871968538344  9.52981780567987 28.1118909766222  C 9.5335047059185 27.1201114266987  8.40736151080978 26.5465916539218  7.6073041590283 27.1328107930959  C 6.65936114211975 27.826769718156  5.37836813698881 26.8964387153157  5.74582919410506 25.7797137863229  C 6.0555288141495 24.8379123880271  5.16166033407412 23.9444505134367  4.22027180647869 24.2541511907363  C 3.10396034533966 24.6216135022941  2.17322286287804 23.3406161240988  2.86758907448563 22.392260214114  C 3.45339655684484 21.5926097880708  2.87946908636564 20.4664627485252  1.88810257775774 20.4701496613502  C 0.712800712800717 20.4746558881363  0.223671947809876 18.9687568276163  1.17694048728531 18.2813524142451  C 1.98150405046956 17.7016877867599  1.78323074874799 16.453462967009  0.839384287660141 16.1507264583788  C -0.27979476255338 15.7914572864322  -0.27979476255338 14.2081330565873  0.839384287660141 13.8492735416212  C 1.78323074874799 13.546537032991  1.98150405046956 12.2983122132401  1.17694048728531 11.7186475857549  C 0.223671947809876 11.0312431723837  0.712800712800717 9.52534411186367  1.88810257775774 9.52985033864977  C 2.87946908636564 9.53353725147476  3.45339655684484 8.40739021192921  2.86758907448563 7.60773978588595  C 2.17322286287804 6.65897421892069  3.10396034533966 5.37797684072537  4.22027180647869 5.74584880926371  C 5.16166033407412 6.0559591435438  6.0555288141495 5.16208761197291  5.74582919410506 4.21987655669652  C 5.37836813698881 3.10356128468429  6.65936114211975 2.17282062486345  7.6073041590283 2.86718920690408  C 8.40736151080978 3.45340834607822  9.5335047059185 2.87947891632073  9.52981780567987 1.88810902337776  C 9.52531159427712 0.712803146165614  11.0316151695462 0.223263054402442  11.7181979250945 1.17653484815382  C 12.2978605737226 1.98110115796374  13.5464907878701 1.78364649333625  13.8496359186014 0.839387153157092  C 14.2084942084942 -0.279795717719027  15.7918130331923 -0.279795717719027  16.1506713230851 0.839387153157092  Z " fill-rule="nonzero" fill="#ff6884" stroke="none" transform="matrix(1 0 0 1 146 123 )" />
  </g>
</svg>