<?xml version="1.0" encoding="utf-8"?>
<svg version="1.1" xmlns:xlink="http://www.w3.org/1999/xlink" width="7px" height="10px" xmlns="http://www.w3.org/2000/svg">
  <g transform="matrix(1 0 0 1 -92 -98 )">
    <path d="M 0.803818478436728 8.97179149928895  C 0.803818478436728 8.97179149928895  0.108769612777332 8.58207308011406  0.108769612777332 8.58207308011406  C 0.0048932964439258 8.52406304569142  -0.0308016539563541 8.39480578778325  0.0289573079497338 8.29435888254138  C 0.0289573079497338 8.29435888254138  4.89951323672509 0.105210801697387  4.89951323672509 0.105210801697387  C 4.95967326548961 0.00476389645551243  5.09242639562997 -0.0298863925620355  5.19630271196338 0.0281236418606022  C 5.19630271196338 0.0281236418606022  5.89135157762277 0.417842061035492  5.89135157762277 0.417842061035492  C 5.99522789395617 0.476241424548216  6.03092284435645 0.605109353366297  5.97076281559193 0.705556258608171  C 5.97076281559193 0.705556258608171  1.10060795367501 8.89470433945216  1.10060795367501 8.89470433945216  C 1.04044792491049 8.99554057378412  0.907694794770123 9.02980153371158  0.803818478436728 8.97179149928895  Z " fill-rule="nonzero" fill="#117f94" stroke="none" transform="matrix(1 0 0 1 92 98 )" />
  </g>
</svg>