<?xml version="1.0" encoding="utf-8"?>
<svg version="1.1" xmlns:xlink="http://www.w3.org/1999/xlink" width="7px" height="10px" xmlns="http://www.w3.org/2000/svg">
  <g transform="matrix(1 0 0 1 -92 -98 )">
    <path d="M 0.8038184784367278 8.971791499288946  C 0.8038184784367278 8.971791499288946  0.10876961277733217 8.582073080114055  0.10876961277733217 8.582073080114055  C 0.004893296443925797 8.524063045691419  -0.03080165395635414 8.394805787783252  0.02895730794973378 8.294358882541378  C 0.02895730794973378 8.294358882541378  4.899513236725086 0.10521080169738724  4.899513236725086 0.10521080169738724  C 4.959673265489607 0.0047638964555124265  5.092426395629971 -0.0298863925620355  5.196302711963377 0.028123641860602157  C 5.196302711963377 0.028123641860602157  5.891351577622773 0.417842061035492  5.891351577622773 0.417842061035492  C 5.995227893956168 0.47624142454821633  6.030922844356446 0.6051093533662966  5.970762815591928 0.7055562586081714  C 5.970762815591928 0.7055562586081714  1.1006079536750075 8.89470433945216  1.1006079536750075 8.89470433945216  C 1.0404479249104872 8.995540573784123  0.907694794770123 9.02980153371158  0.8038184784367278 8.971791499288946  Z " fill-rule="nonzero" fill="#117f94" stroke="none" transform="matrix(1 0 0 1 92 98 )" />
  </g>
</svg>