<?xml version="1.0" encoding="utf-8"?>
<svg version="1.1" xmlns:xlink="http://www.w3.org/1999/xlink" width="3px" height="4px" xmlns="http://www.w3.org/2000/svg">
  <g transform="matrix(1 0 0 1 -94 -100 )">
    <path d="M 2 0.7740910310999072  C 2 0.7740910310999072  0.7289148117940352 -0.18354241083527345  0.516259729480875 0.03145227967576455  C 0.2196193488364556 0.3321360568895913  0.8602764322608952 0.6382236503819757  1.0266319270324502 0.9956474985206274  C 0.6433144115717824 1.044667831904646  0.523258504341817 1.3650369398474973  0.5442548289246432 1.4368304989768608  C 0.2686107728630348 1.5221335988026081  0.2163891450544836 1.9914936412827222  0.2163891450544836 2.1447304314674405  C -0.04095042290928812 2.2755799827838556  -0.011878588871539274 2.48015302761483  0.02150018354217746 2.612932513316441  C 0.06510793459879304 2.7889425292464827  0.19593118776865515 3.182649143826852  0.4215070852097038 2.9020366842190803  C 0.647082982650737 2.62181021148835  0.4575776941083946 2.5600523111620195  0.4575776941083946 2.5600523111620195  C 0.4575776941083946 2.5600523111620195  0.6373923713048208 2.741466143370619  0.8365882711930946 2.5812815893991985  C 1.0955429410478599 2.3728486757978207  0.914113161960425 2.0771827279855106  0.8268976598471784 1.9328236359727118  C 0.8268976598471784 1.9328236359727118  0.94533846518615 2.407587494731384  1.3431918976657 2.1385546414347996  C 1.6290649323702227 1.944789229160941  1.4557106627377254 1.4495680659191614  1.4557106627377254 1.4495680659191614  C 1.4557106627377254 1.4495680659191614  2 0.7740910310999072  2 0.7740910310999072  Z " fill-rule="nonzero" fill="#f2b284" stroke="none" transform="matrix(1 0 0 1 94 100 )" />
  </g>
</svg>