<?xml version="1.0" encoding="utf-8"?>
<svg version="1.1" xmlns:xlink="http://www.w3.org/1999/xlink" width="3px" height="4px" xmlns="http://www.w3.org/2000/svg">
  <g transform="matrix(1 0 0 1 -94 -100 )">
    <path d="M 2 0.774091031099907  C 2 0.774091031099907  0.728914811794035 -0.183542410835273  0.516259729480875 0.0314522796757645  C 0.219619348836456 0.332136056889591  0.860276432260895 0.638223650381976  1.02663192703245 0.995647498520627  C 0.643314411571782 1.04466783190465  0.523258504341817 1.3650369398475  0.544254828924643 1.43683049897686  C 0.268610772863035 1.52213359880261  0.216389145054484 1.99149364128272  0.216389145054484 2.14473043146744  C -0.0409504229092881 2.27557998278386  -0.0118785888715393 2.48015302761483  0.0215001835421775 2.61293251331644  C 0.065107934598793 2.78894252924648  0.195931187768655 3.18264914382685  0.421507085209704 2.90203668421908  C 0.647082982650737 2.62181021148835  0.457577694108395 2.56005231116202  0.457577694108395 2.56005231116202  C 0.457577694108395 2.56005231116202  0.637392371304821 2.74146614337062  0.836588271193095 2.5812815893992  C 1.09554294104786 2.37284867579782  0.914113161960425 2.07718272798551  0.826897659847178 1.93282363597271  C 0.826897659847178 1.93282363597271  0.94533846518615 2.40758749473138  1.3431918976657 2.1385546414348  C 1.62906493237022 1.94478922916094  1.45571066273773 1.44956806591916  1.45571066273773 1.44956806591916  C 1.45571066273773 1.44956806591916  2 0.774091031099907  2 0.774091031099907  Z " fill-rule="nonzero" fill="#f2b284" stroke="none" transform="matrix(1 0 0 1 94 100 )" />
  </g>
</svg>