<?xml version="1.0" encoding="utf-8"?>
<svg version="1.1" xmlns:xlink="http://www.w3.org/1999/xlink" width="11px" height="12px" xmlns="http://www.w3.org/2000/svg">
  <g transform="matrix(1 0 0 1 -77 -76 )">
    <path d="M 1.45166378886796 2.92362181785634  C 1.45166378886796 2.92362181785634  1.09503881318524 1.35369371527317  3.98634717085204 1.21235102336525  C 6.87726059499094 1.07141802041937  9.06005820362697 0.0353146353899209  9.60348673800062 0.000491073615487989  C 10.1465203388464 -0.0343324881589216  8.85824717087629 1.7945190384411  8.85824717087629 1.7945190384411  C 9.32742820200703 1.88424092113048  9.9028463521396 1.58475828987049  10 2.12063145223447  C 9.98025332360561 3.41565826128077  8.60114544422131 4.36818509805161  7.92699391211679 4.55213544201295  C 8.0596915774871 8.29874099997827  6.45073238487209 8.91491319890445  6.36858621107142 10.6896857825136  C 6.36147740756944 10.8404513205487  1.8849058689609 11.0702868282599  1.85686558848087 10.9793358786844  C 1.145195371227 8.67032888855942  0.835172551835053 7.84316687417649  0.325313367331868 6.79272437547521  C -0.386356849921996 5.32685726925325  0.105335392298346 3.01006618884931  1.45166378886796 2.92362181785634  Z " fill-rule="nonzero" fill="#1a0f29" stroke="none" transform="matrix(1 0 0 1 77 76 )" />
  </g>
</svg>