<?xml version="1.0" encoding="utf-8"?>
<svg version="1.1" xmlns:xlink="http://www.w3.org/1999/xlink" width="11px" height="12px" xmlns="http://www.w3.org/2000/svg">
  <g transform="matrix(1 0 0 1 -77 -76 )">
    <path d="M 1.451663788867956 2.923621817856337  C 1.451663788867956 2.923621817856337  1.095038813185244 1.3536937152731652  3.986347170852041 1.2123510233652455  C 6.877260594990942 1.0714180204193682  9.060058203626971 0.03531463538992091  9.603486738000619 0.0004910736154879887  C 10.146520338846381 -0.034332488158921634  8.858247170876286 1.7945190384411016  8.858247170876286 1.7945190384411016  C 9.327428202007027 1.884240921130482  9.902846352139596 1.5847582898704886  10 2.120631452234472  C 9.98025332360561 3.4156582612807695  8.601145444221311 4.368185098051611  7.9269939121167905 4.552135442012953  C 8.0596915774871 8.298740999978273  6.450732384872087 8.914913198904454  6.36858621107142 10.689685782513614  C 6.361477407569439 10.84045132054874  1.884905868960901 11.0702868282599  1.856865588480866 10.979335878684358  C 1.145195371227002 8.67032888855942  0.8351725518350529 7.843166874176489  0.32531336733186766 6.792724375475212  C -0.38635684992199615 5.326857269253249  0.1053353922983464 3.01006618884931  1.451663788867956 2.923621817856337  Z " fill-rule="nonzero" fill="#1a0f29" stroke="none" transform="matrix(1 0 0 1 77 76 )" />
  </g>
</svg>