<?xml version="1.0" encoding="utf-8"?>
<svg version="1.1" xmlns:xlink="http://www.w3.org/1999/xlink" width="19px" height="47px" xmlns="http://www.w3.org/2000/svg">
  <g transform="matrix(1 0 0 1 -74 -115 )">
    <path d="M 17.783257012371 0  C 17.783257012371 0  18.0507617867262 1.99654363216824  17.9914042184521 5.9595158886  C 17.9039507345283 11.7635732228812  15.2146571745909 45.5070326205292  14.985536961053 45.8032991847808  C 14.756416747515 46.0999727085987  11.198524105167 46.0287547844998  10.9424951273448 45.8032991847808  C 10.6864661495226 45.5778435850619  10.4882118714872 25.8150731273868  10.4882118714872 25.8150731273868  C 10.4882118714872 25.8150731273868  9.2658416821631 15.8396802387387  9.2658416821631 15.8396802387387  C 9.2658416821631 15.8396802387387  4.19868393716624 45.6694094874748  4.0130926070293 45.8032991847808  C 3.82829271113601 45.9371888820868  0.19283951290984 45.9384097607857  0.0131839396003091 45.8032991847808  C -0.166471633709227 45.6685955683422  1.54935780653336 26.0389008888407  1.54935780653336 26.0389008888407  C 1.54935780653336 26.0389008888407  2.04162990608636 6.45315784249728  2.12314763318276 5.58592700675523  C 2.45357142990844 2.07671466672534  3.14765926159329 0  3.14765926159329 0  C 3.14765926159329 0  17.783257012371 0  17.783257012371 0  Z " fill-rule="nonzero" fill="#2f2e41" stroke="none" transform="matrix(1 0 0 1 74 115 )" />
  </g>
</svg>