<?xml version="1.0" encoding="utf-8"?>
<svg version="1.1" xmlns:xlink="http://www.w3.org/1999/xlink" width="19px" height="47px" xmlns="http://www.w3.org/2000/svg">
  <g transform="matrix(1 0 0 1 -74 -115 )">
    <path d="M 17.783257012371024 0  C 17.783257012371024 0  18.050761786726188 1.996543632168236  17.991404218452118 5.959515888600005  C 17.903950734528316 11.763573222881162  15.214657174590895 45.507032620529195  14.985536961052963 45.80329918478082  C 14.756416747515033 46.09997270859872  11.198524105166983 46.02875478449979  10.94249512734481 45.80329918478082  C 10.68646614952263 45.577843585061856  10.488211871487218 25.815073127386817  10.488211871487218 25.815073127386817  C 10.488211871487218 25.815073127386817  9.265841682163101 15.839680238738685  9.265841682163101 15.839680238738685  C 9.265841682163101 15.839680238738685  4.198683937166244 45.669409487474795  4.013092607029299 45.80329918478082  C 3.8282927111360134 45.93718888208684  0.19283951290984003 45.93840976078568  0.013183939600309112 45.80329918478082  C -0.16647163370922735 45.66859556834223  1.5493578065333642 26.038900888840654  1.5493578065333642 26.038900888840654  C 1.5493578065333642 26.038900888840654  2.041629906086359 6.453157842497284  2.1231476331827563 5.585927006755233  C 2.4535714299084432 2.076714666725339  3.1476592615932883 0  3.1476592615932883 0  C 3.1476592615932883 0  17.783257012371024 0  17.783257012371024 0  Z " fill-rule="nonzero" fill="#2f2e41" stroke="none" transform="matrix(1 0 0 1 74 115 )" />
  </g>
</svg>