<?xml version="1.0" encoding="utf-8"?>
<svg version="1.1" xmlns:xlink="http://www.w3.org/1999/xlink" width="25px" height="28px" xmlns="http://www.w3.org/2000/svg">
  <g transform="matrix(1 0 0 1 -73 -89 )">
    <path d="M 23.950480719600062 14.376557391678922  C 24.04838961320597 14.725154913987907  24.01921675919278 15.405455752441963  23.69711648063623 16.031365488124393  C 23.007757944023258 17.37095242077983  21.03719159965307 19.20624008551294  20.496494730066196 19.45141210179408  C 19.99695955860752 19.678453750484675  19.162136380065782 19.742734144669313  19.162136380065782 19.742734144669313  C 19.162136380065782 19.742734144669313  19.560965260958397 26.321997310990252  19.170528570946296 26.47322105884769  C 17.293075582536005 27.20090808532246  4.906201842909518 27.149813413021846  4.3914808022385 26.47322105884769  C 3.9918526650715584 25.949088613957596  3.588627874670115 22.489484834635828  3.2241670135738634 20.296122409989604  C 3.2241670135738634 20.296122409989604  1.3047530707610488 19.926922197236824  0.9083219586914422 19.39042813808045  C 0.5114912184846723 18.858054617012833  -0.591082811958917 4.617474982262939  0.4067886465469335 3.4542470798063687  C 1.9713328035555027 1.630908975530673  5.270263075868601 0  5.270263075868601 0  C 5.270263075868601 0  10.823495669940407 0  10.823495669940407 0  C 10.823495669940407 0  16.59372634249386 1.509353101912286  18.014004741985165 2.4682023151664234  C 18.990695909221163 3.1279004631766827  20.273502229527047 10.403946620306712  20.960862625454183 14.605247255605033  C 20.960862625454183 14.605247255605033  22.855099995625487 13.450672483134861  22.855099995625487 13.450672483134861  C 22.855099995625487 13.450672483134861  23.61559234065417 13.188606260689802  23.950480719600062 14.376557391678922  Z " fill-rule="nonzero" fill="#ff6884" stroke="none" transform="matrix(1 0 0 1 73 89 )" />
  </g>
</svg>