<?xml version="1.0" encoding="utf-8"?>
<svg version="1.1" xmlns:xlink="http://www.w3.org/1999/xlink" width="25px" height="28px" xmlns="http://www.w3.org/2000/svg">
  <g transform="matrix(1 0 0 1 -73 -89 )">
    <path d="M 23.9504807196001 14.3765573916789  C 24.048389613206 14.7251549139879  24.0192167591928 15.405455752442  23.6971164806362 16.0313654881244  C 23.0077579440233 17.3709524207798  21.0371915996531 19.2062400855129  20.4964947300662 19.4514121017941  C 19.9969595586075 19.6784537504847  19.1621363800658 19.7427341446693  19.1621363800658 19.7427341446693  C 19.1621363800658 19.7427341446693  19.5609652609584 26.3219973109903  19.1705285709463 26.4732210588477  C 17.293075582536 27.2009080853225  4.90620184290952 27.1498134130218  4.3914808022385 26.4732210588477  C 3.99185266507156 25.9490886139576  3.58862787467011 22.4894848346358  3.22416701357386 20.2961224099896  C 3.22416701357386 20.2961224099896  1.30475307076105 19.9269221972368  0.908321958691442 19.3904281380804  C 0.511491218484672 18.8580546170128  -0.591082811958917 4.61747498226294  0.406788646546933 3.45424707980637  C 1.9713328035555 1.63090897553067  5.2702630758686 0  5.2702630758686 0  C 5.2702630758686 0  10.8234956699404 0  10.8234956699404 0  C 10.8234956699404 0  16.5937263424939 1.50935310191229  18.0140047419852 2.46820231516642  C 18.9906959092212 3.12790046317668  20.273502229527 10.4039466203067  20.9608626254542 14.605247255605  C 20.9608626254542 14.605247255605  22.8550999956255 13.4506724831349  22.8550999956255 13.4506724831349  C 22.8550999956255 13.4506724831349  23.6155923406542 13.1886062606898  23.9504807196001 14.3765573916789  Z " fill-rule="nonzero" fill="#ff6884" stroke="none" transform="matrix(1 0 0 1 73 89 )" />
  </g>
</svg>