<?xml version="1.0" encoding="utf-8"?>
<svg version="1.1" xmlns:xlink="http://www.w3.org/1999/xlink" width="12px" height="48px" xmlns="http://www.w3.org/2000/svg">
  <g transform="matrix(1 0 0 1 -190 -114 )">
    <path d="M 9.220968307555696 0  C 9.220968307555696 0  10.82945854009456 2.7230711349130656  10.99441185191265 6.497408337996316  C 11.159756048355893 10.271339960034757  7.602315074762655 22.966026662861537  7.430716724316824 23.823830572653186  C 7.259118373870992 24.681634482444835  8.39893794084142 25.861469741822575  7.937694083151075 30.579188455154235  C 7.476059340835532 35.2969071684859  5.718642066110212 44.757490619927985  5.571278562424388 46.382653866516705  C 5.517727368777288 46.97683009717617  2.731892645252506 47.24045777630836  2.6494159893434825 46.72536984938854  C 2.5665484488092636 46.21109308455838  1.7914242371143505 26.740363865944794  1.8633470081440444 24.5100737004865  C 1.9352697791737166 22.27978353502822  0 1.7910458939195848  0 1.7910458939195848  C 0 1.7910458939195848  9.220968307555696 0  9.220968307555696 0  Z " fill-rule="nonzero" fill="#2f2e41" stroke="none" transform="matrix(1 0 0 1 190 114 )" />
  </g>
</svg>