<?xml version="1.0" encoding="utf-8"?>
<svg version="1.1" xmlns:xlink="http://www.w3.org/1999/xlink" width="12px" height="48px" xmlns="http://www.w3.org/2000/svg">
  <g transform="matrix(1 0 0 1 -190 -114 )">
    <path d="M 9.2209683075557 0  C 9.2209683075557 0  10.8294585400946 2.72307113491307  10.9944118519127 6.49740833799632  C 11.1597560483559 10.2713399600348  7.60231507476265 22.9660266628615  7.43071672431682 23.8238305726532  C 7.25911837387099 24.6816344824448  8.39893794084142 25.8614697418226  7.93769408315107 30.5791884551542  C 7.47605934083553 35.2969071684859  5.71864206611021 44.757490619928  5.57127856242439 46.3826538665167  C 5.51772736877729 46.9768300971762  2.73189264525251 47.2404577763084  2.64941598934348 46.7253698493885  C 2.56654844880926 46.2110930845584  1.79142423711435 26.7403638659448  1.86334700814404 24.5100737004865  C 1.93526977917372 22.2797835350282  0 1.79104589391958  0 1.79104589391958  C 0 1.79104589391958  9.2209683075557 0  9.2209683075557 0  Z " fill-rule="nonzero" fill="#2f2e41" stroke="none" transform="matrix(1 0 0 1 190 114 )" />
  </g>
</svg>