<?xml version="1.0" encoding="utf-8"?>
<svg version="1.1" xmlns:xlink="http://www.w3.org/1999/xlink" width="16px" height="48px" xmlns="http://www.w3.org/2000/svg">
  <g transform="matrix(1 0 0 1 -181 -114 )">
    <path d="M 13.5940882898788 0  C 13.5940882898788 0  15.0880503723012 2.72113825778849  14.9959063293886 6.4927963791736  C 14.9041718155557 10.2640492074015  9.15643118320951 24.1550668790492  8.91644714255722 25.0122619066367  C 8.67687263098455 25.869051641067  9.13554520014933 27.4034915344222  8.6891585033729 29.7813464880185  C 7.8070328658899 34.4835576984537  3.79569553109613 43.9657964055165  2.99834241309271 46.6703176438576  C 2.9045602538617 46.9888780654575  0.0509616271293736 47.206925784059  0.000589550337173793 46.6922034743492  C -0.0497825264550493 46.178291750954  3.14454429451397 27.066692920746  3.13307748028487 24.8266376406154  C 3.10686761918973 19.7479090870933  6.31429937070631 1.67791367102239  6.31429937070631 1.67791367102239  C 6.31429937070631 1.67791367102239  13.5940882898788 0  13.5940882898788 0  Z " fill-rule="nonzero" fill="#2f2e41" stroke="none" transform="matrix(1 0 0 1 181 114 )" />
  </g>
</svg>