<?xml version="1.0" encoding="utf-8"?>
<svg version="1.1" xmlns:xlink="http://www.w3.org/1999/xlink" width="16px" height="48px" xmlns="http://www.w3.org/2000/svg">
  <g transform="matrix(1 0 0 1 -181 -114 )">
    <path d="M 13.594088289878778 0  C 13.594088289878778 0  15.088050372301215 2.7211382577884895  14.995906329388644 6.492796379173602  C 14.904171815555692 10.26404920740147  9.156431183209508 24.155066879049183  8.916447142557216 25.01226190663671  C 8.676872630984548 25.86905164106698  9.135545200149332 27.40349153442224  8.689158503372902 29.781346488018475  C 7.807032865889899 34.483557698453694  3.795695531096132 43.96579640551648  2.9983424130927108 46.67031764385764  C 2.904560253861702 46.98887806545755  0.050961627129373605 47.206925784059024  0.0005895503371737933 46.692203474349235  C -0.04978252645504929 46.178291750953974  3.1445442945139725 27.066692920746014  3.133077480284868 24.826637640615395  C 3.106867619189728 19.747909087093262  6.3142993707063075 1.6779136710223883  6.3142993707063075 1.6779136710223883  C 6.3142993707063075 1.6779136710223883  13.594088289878778 0  13.594088289878778 0  Z " fill-rule="nonzero" fill="#2f2e41" stroke="none" transform="matrix(1 0 0 1 181 114 )" />
  </g>
</svg>