<?xml version="1.0" encoding="utf-8"?>
<svg version="1.1" xmlns:xlink="http://www.w3.org/1999/xlink" width="21px" height="26px" xmlns="http://www.w3.org/2000/svg">
  <g transform="matrix(1 0 0 1 -183 -91 )">
    <path d="M 16.5389639994873 18.1575059730051  C 16.5389639994873 18.1575059730051  16.5099388163458 18.537503476327  16.5928679110357 18.9849733032236  C 16.8176057576455 20.2003030088373  17.5892609837353 22.8631831165391  17.6435795407572 23.1723967712031  C 17.6978980977791 23.481610425867  16.7889952199774 24.5648930687795  13.034795103364 24.9453045127369  C 9.28059498675068 25.3261298973297  2.86602951248416 23.6107599041203  2.8913228863646 23.1214820730456  C 2.91661626024503 22.6326181826063  5.05743083966571 19.1981527304685  5.05867477608606 17.0994737088537  C 5.05991871250642 15.0012086278742  4.08550184989967 8.99327424528685  4.08550184989967 8.99327424528685  C 4.08550184989967 8.99327424528685  1.34676849776455 10.4619356197818  1.34676849776455 10.4619356197818  C 1.34676849776455 10.4619356197818  0 7.54696566510494  0 7.54696566510494  C 0 7.54696566510494  4.16345519890821 2.29530082344268  5.73205902496834 1.52495730091304  C 7.30066285102848 0.75502771901884  10.5759474458075 0.23718798409967  10.5759474458075 0.23718798409967  C 10.5759474458075 0.23718798409967  15.3746395100406 0  15.3746395100406 0  C 15.3746395100406 0  19.3515042458964 1.57545805843514  19.7997360026955 2.37353560353838  C 20.2487970504415 3.17161314864163  19.8461762957219 15.6051480149622  19.5318750268471 16.0613105952028  C 19.2175737579722 16.5183010567142  16.5389639994873 18.1575059730051  16.5389639994873 18.1575059730051  Z " fill-rule="nonzero" fill="#ff6884" stroke="none" transform="matrix(1 0 0 1 183 91 )" />
  </g>
</svg>