<?xml version="1.0" encoding="utf-8"?>
<svg version="1.1" xmlns:xlink="http://www.w3.org/1999/xlink" width="21px" height="26px" xmlns="http://www.w3.org/2000/svg">
  <g transform="matrix(1 0 0 1 -183 -91 )">
    <path d="M 16.538963999487276 18.15750597300506  C 16.538963999487276 18.15750597300506  16.509938816345798 18.537503476327043  16.592867911035732 18.984973303223615  C 16.817605757645467 20.20030300883727  17.589260983735315 22.863183116539116  17.64357954075721 23.172396771203086  C 17.69789809777913 23.481610425867043  16.788995219977433 24.56489306877949  13.034795103364043 24.94530451273689  C 9.280594986750678 25.326129897329725  2.86602951248416 23.61075990412027  2.891322886364604 23.121482073045556  C 2.916616260245026 22.632618182606283  5.057430839665714 19.198152730468525  5.058674776086058 17.09947370885366  C 5.059918712506423 15.001208627874234  4.085501849899674 8.993274245286853  4.085501849899674 8.993274245286853  C 4.085501849899674 8.993274245286853  1.3467684977645475 10.461935619781825  1.3467684977645475 10.461935619781825  C 1.3467684977645475 10.461935619781825  0 7.54696566510494  0 7.54696566510494  C 0 7.54696566510494  4.163455198908208 2.2953008234426835  5.7320590249683425 1.5249573009130417  C 7.300662851028478 0.7550277190188405  10.57594744580748 0.23718798409967018  10.57594744580748 0.23718798409967018  C 10.57594744580748 0.23718798409967018  15.374639510040584 0  15.374639510040584 0  C 15.374639510040584 0  19.351504245896443 1.5754580584351408  19.79973600269555 2.3735356035383823  C 20.24879705044154 3.171613148641625  19.8461762957219 15.60514801496222  19.531875026847054 16.06131059520277  C 19.217573757972183 16.51830105671416  16.538963999487276 18.15750597300506  16.538963999487276 18.15750597300506  Z " fill-rule="nonzero" fill="#ff6884" stroke="none" transform="matrix(1 0 0 1 183 91 )" />
  </g>
</svg>