<?xml version="1.0" encoding="utf-8"?>
<svg version="1.1" xmlns:xlink="http://www.w3.org/1999/xlink" width="27px" height="27px" xmlns="http://www.w3.org/2000/svg">
  <g transform="matrix(1 0 0 1 -172 -92 )">
    <path d="M 24.861673319245533 26  C 24.861673319245533 26  1.1383266807544912 26  1.1383266807544912 26  C 0.5095405807310049 26  0 25.490459419269005  0 24.861673319245522  C 0 24.861673319245522  0 1.1383266807544794  0 1.1383266807544794  C 0 0.5095405807310049  0.5095405807310049 0  1.1383266807544912 0  C 1.1383266807544912 0  24.861673319245533 0  24.861673319245533 0  C 25.490459419268994 0  26 0.5095405807310049  26 1.1383266807544794  C 26 1.1383266807544794  26 24.861673319245522  26 24.861673319245522  C 26 25.490459419269005  25.490459419268994 26  24.861673319245533 26  Z " fill-rule="nonzero" fill="#2fc9e6" stroke="none" transform="matrix(1 0 0 1 172 92 )" />
  </g>
</svg>