<?xml version="1.0" encoding="utf-8"?>
<svg version="1.1" xmlns:xlink="http://www.w3.org/1999/xlink" width="27px" height="27px" xmlns="http://www.w3.org/2000/svg">
  <g transform="matrix(1 0 0 1 -172 -92 )">
    <path d="M 24.8616733192455 26  C 24.8616733192455 26  1.13832668075449 26  1.13832668075449 26  C 0.509540580731005 26  0 25.490459419269  0 24.8616733192455  C 0 24.8616733192455  0 1.13832668075448  0 1.13832668075448  C 0 0.509540580731005  0.509540580731005 0  1.13832668075449 0  C 1.13832668075449 0  24.8616733192455 0  24.8616733192455 0  C 25.490459419269 0  26 0.509540580731005  26 1.13832668075448  C 26 1.13832668075448  26 24.8616733192455  26 24.8616733192455  C 26 25.490459419269  25.490459419269 26  24.8616733192455 26  Z " fill-rule="nonzero" fill="#2fc9e6" stroke="none" transform="matrix(1 0 0 1 172 92 )" />
  </g>
</svg>