<?xml version="1.0" encoding="utf-8"?>
<svg version="1.1" xmlns:xlink="http://www.w3.org/1999/xlink" width="23px" height="23px" xmlns="http://www.w3.org/2000/svg">
  <g transform="matrix(1 0 0 1 -173 -94 )">
    <path d="M 20.8833581250227 22  C 20.8833581250227 22  1.11624278924646 22  1.11624278924646 22  C 0.499655335050615 22  0 21.500335600907  0 20.8837369614512  C 0 20.8837369614512  0 1.11626303854875  0 1.11626303854875  C 0 0.499664399092974  0.499655335050615 0  1.11624278924646 0  C 1.11624278924646 0  20.8833581250227 0  20.8833581250227 0  C 21.4999455792185 0  22 0.499664399092974  22 1.11626303854875  C 22 1.11626303854875  22 20.8837369614512  22 20.8837369614512  C 22 21.500335600907  21.4999455792185 22  20.8833581250227 22  Z " fill-rule="nonzero" fill="#21a6bf" stroke="none" transform="matrix(1 0 0 1 173 94 )" />
  </g>
</svg>