<?xml version="1.0" encoding="utf-8"?>
<svg version="1.1" xmlns:xlink="http://www.w3.org/1999/xlink" width="23px" height="23px" xmlns="http://www.w3.org/2000/svg">
  <g transform="matrix(1 0 0 1 -173 -94 )">
    <path d="M 20.883358125022696 22  C 20.883358125022696 22  1.1162427892464641 22  1.1162427892464641 22  C 0.49965533505061543 22  0 21.500335600907025  0 20.88373696145125  C 0 20.88373696145125  0 1.1162630385487518  0 1.1162630385487518  C 0 0.49966439909297433  0.49965533505061543 0  1.1162427892464641 0  C 1.1162427892464641 0  20.883358125022696 0  20.883358125022696 0  C 21.499945579218522 0  22 0.49966439909297433  22 1.1162630385487518  C 22 1.1162630385487518  22 20.88373696145125  22 20.88373696145125  C 22 21.500335600907025  21.499945579218522 22  20.883358125022696 22  Z " fill-rule="nonzero" fill="#21a6bf" stroke="none" transform="matrix(1 0 0 1 173 94 )" />
  </g>
</svg>