<?xml version="1.0" encoding="utf-8"?>
<svg version="1.1" xmlns:xlink="http://www.w3.org/1999/xlink" width="22px" height="22px" xmlns="http://www.w3.org/2000/svg">
  <g transform="matrix(1 0 0 1 -174 -94 )">
    <path d="M 19.886544585987274 21  C 19.886544585987274 21  1.1138535031847139 21  1.1138535031847139 21  C 0.4988057324840934 21  0 20.501592356687894  0 19.886942675159226  C 0 19.886942675159226  0 1.1138535031847139  0 1.1138535031847139  C 0 0.49880573248407073  0.4988057324840934 0  1.1138535031847139 0  C 1.1138535031847139 0  19.886544585987274 0  19.886544585987274 0  C 20.501592356687894 0  21 0.49880573248407073  21 1.1134554140127375  C 21 1.1134554140127375  21 19.886942675159226  21 19.886942675159226  C 21 20.501592356687894  20.501592356687894 21  19.886544585987274 21  Z " fill-rule="nonzero" fill="#82ebff" stroke="none" transform="matrix(1 0 0 1 174 94 )" />
  </g>
</svg>