<?xml version="1.0" encoding="utf-8"?>
<svg version="1.1" xmlns:xlink="http://www.w3.org/1999/xlink" width="22px" height="22px" xmlns="http://www.w3.org/2000/svg">
  <g transform="matrix(1 0 0 1 -174 -94 )">
    <path d="M 19.8865445859873 21  C 19.8865445859873 21  1.11385350318471 21  1.11385350318471 21  C 0.498805732484093 21  0 20.5015923566879  0 19.8869426751592  C 0 19.8869426751592  0 1.11385350318471  0 1.11385350318471  C 0 0.498805732484071  0.498805732484093 0  1.11385350318471 0  C 1.11385350318471 0  19.8865445859873 0  19.8865445859873 0  C 20.5015923566879 0  21 0.498805732484071  21 1.11345541401274  C 21 1.11345541401274  21 19.8869426751592  21 19.8869426751592  C 21 20.5015923566879  20.5015923566879 21  19.8865445859873 21  Z " fill-rule="nonzero" fill="#82ebff" stroke="none" transform="matrix(1 0 0 1 174 94 )" />
  </g>
</svg>