<?xml version="1.0" encoding="utf-8"?>
<svg version="1.1" xmlns:xlink="http://www.w3.org/1999/xlink" width="4px" height="6px" xmlns="http://www.w3.org/2000/svg">
  <g transform="matrix(1 0 0 1 -196 -105 )">
    <path d="M 2.08955938431331 4.54475983843775  C 1.91928640867632 4.67163161137998  1.22588050040897 5.26207332391885  1.21356649468959 4.86415730878183  C 1.20167710985707 4.46668490124253  1.93712048592509 3.87313793551977  1.93712048592509 3.87313793551977  C 1.93712048592509 3.87313793551977  0.396171287454645 4.7097818647822  0.396171287454645 4.14994907648464  C 0.396171287454645 3.58967268058939  1.90357543586194 2.92692292962541  1.90357543586194 2.92692292962541  C 1.90357543586194 2.92692292962541  0 3.97294964500229  0 3.36520723615313  C 0 2.75702121970626  1.88489211683941 1.73273127661668  1.88489211683941 1.73273127661668  C 1.88489211683941 1.73273127661668  0.328656566441477 2.49795438264938  0.402965221644658 1.99135450607585  C 0.477273876847815 1.48564184469771  1.88743984216067 0.60818601644687  1.88743984216067 0.60818601644687  C 1.88743984216067 0.60818601644687  1.88489211683941 0  1.88489211683941 0  C 2.17278507814086 0.0257292406666164  2.93710267451639 0.116225190597432  2.99867270311332 0.73328335899831  C 3.02075298923082 0.95996684142307  2.7600357646894 1.29178532450276  2.7600357646894 1.91638482206453  C 2.7600357646894 3.91661148009437  2.37108303231164 4.3353770523233  2.08955938431331 4.54475983843775  Z " fill-rule="nonzero" fill="#f2b284" stroke="none" transform="matrix(1 0 0 1 196 105 )" />
  </g>
</svg>