<?xml version="1.0" encoding="utf-8"?>
<svg version="1.1" xmlns:xlink="http://www.w3.org/1999/xlink" width="4px" height="6px" xmlns="http://www.w3.org/2000/svg">
  <g transform="matrix(1 0 0 1 -196 -105 )">
    <path d="M 2.0895593843133136 4.544759838437745  C 1.9192864086763166 4.67163161137998  1.225880500408971 5.26207332391885  1.213566494689589 4.864157308781831  C 1.2016771098570722 4.4666849012425285  1.9371204859250915 3.873137935519769  1.9371204859250915 3.873137935519769  C 1.9371204859250915 3.873137935519769  0.39617128745464525 4.709781864782196  0.39617128745464525 4.149949076484642  C 0.39617128745464525 3.589672680589387  1.9035754358619403 2.9269229296254062  1.9035754358619403 2.9269229296254062  C 1.9035754358619403 2.9269229296254062  0 3.972949645002294  0 3.3652072361531253  C 0 2.7570212197062554  1.8848921168394104 1.7327312766166765  1.8848921168394104 1.7327312766166765  C 1.8848921168394104 1.7327312766166765  0.3286565664414771 2.497954382649383  0.4029652216446582 1.9913545060758464  C 0.4772738768478153 1.485641844697714  1.8874398421606742 0.6081860164468704  1.8874398421606742 0.6081860164468704  C 1.8874398421606742 0.6081860164468704  1.8848921168394104 0  1.8848921168394104 0  C 2.172785078140858 0.025729240666616415  2.9371026745163897 0.116225190597432  2.998672703113324 0.7332833589983095  C 3.020752989230823 0.9599668414230695  2.760035764689404 1.2917853245027562  2.760035764689404 1.9163848220645336  C 2.760035764689404 3.916611480094374  2.3710830323116374 4.335377052323296  2.0895593843133136 4.544759838437745  Z " fill-rule="nonzero" fill="#f2b284" stroke="none" transform="matrix(1 0 0 1 196 105 )" />
  </g>
</svg>