<?xml version="1.0" encoding="utf-8"?>
<svg version="1.1" xmlns:xlink="http://www.w3.org/1999/xlink" width="4px" height="6px" xmlns="http://www.w3.org/2000/svg">
  <g transform="matrix(1 0 0 1 -170 -95 )">
    <path d="M 0.9878378673157635 4.822435883529959  C 1.178967328652174 4.971708506824094  1.513243959776105 5.179812105181219  1.5264390899520328 4.711798527441372  C 1.5400340725575479 4.244223986828864  1.1593745596030307 4.032169054325723  1.1593745596030307 4.032169054325723  C 1.1593745596030307 4.032169054325723  2.2085873348054093 4.66218733205244  2.2085873348054093 4.003192603921566  C 2.2085873348054093 3.344636912918031  1.1965608355534267 2.9192099365297492  1.1965608355534267 2.9192099365297492  C 1.1965608355534267 2.9192099365297492  2.651623826773484 3.7950890055644413  2.651623826773484 3.0798975251346055  C 2.651623826773484 2.36470604470477  1.2177530143208513 1.5147301661828698  1.2177530143208513 1.5147301661828698  C 1.2177530143208513 1.5147301661828698  3.034682454305436 1.6925402027538254  2.99949544050293 1.276772043166925  C 2.947114772228715 0.65641258224159  1.2133546375955497 0.3736726722374152  1.2133546375955497 0.2876213952796208  C 1.2129547851659623 0.11420172998201855  1.2133546375955497 0.18620381886506623  1.2133546375955497 0.00180822538408171  C 0.8954719560841548 -0.03024148491142699  -0.49761390855193255 0.3653309668180347  0.23291648027992184 1.0629609621544465  C 0.32928091580726787 1.154719721767607  -0.1737334405969321 1.085351855648561  0.06497845985880459 1.93401062278846  C 0.2800990669696606 2.699252335734567  0.056981411267307665 3.1795589530398094  0.10296444066832977 3.5654725879678772  C 0.21332371123077826 4.490084778136839  0.7519249338670477 4.637601252921637  0.9878378673157635 4.822435883529959  Z " fill-rule="nonzero" fill="#f2b284" stroke="none" transform="matrix(1 0 0 1 170 95 )" />
  </g>
</svg>