<?xml version="1.0" encoding="utf-8"?>
<svg version="1.1" xmlns:xlink="http://www.w3.org/1999/xlink" width="4px" height="6px" xmlns="http://www.w3.org/2000/svg">
  <g transform="matrix(1 0 0 1 -170 -95 )">
    <path d="M 0.987837867315764 4.82243588352996  C 1.17896732865217 4.97170850682409  1.5132439597761 5.17981210518122  1.52643908995203 4.71179852744137  C 1.54003407255755 4.24422398682886  1.15937455960303 4.03216905432572  1.15937455960303 4.03216905432572  C 1.15937455960303 4.03216905432572  2.20858733480541 4.66218733205244  2.20858733480541 4.00319260392157  C 2.20858733480541 3.34463691291803  1.19656083555343 2.91920993652975  1.19656083555343 2.91920993652975  C 1.19656083555343 2.91920993652975  2.65162382677348 3.79508900556444  2.65162382677348 3.07989752513461  C 2.65162382677348 2.36470604470477  1.21775301432085 1.51473016618287  1.21775301432085 1.51473016618287  C 1.21775301432085 1.51473016618287  3.03468245430544 1.69254020275383  2.99949544050293 1.27677204316692  C 2.94711477222872 0.65641258224159  1.21335463759555 0.373672672237415  1.21335463759555 0.287621395279621  C 1.21295478516596 0.114201729982019  1.21335463759555 0.186203818865066  1.21335463759555 0.00180822538408171  C 0.895471956084155 -0.030241484911427  -0.497613908551933 0.365330966818035  0.232916480279922 1.06296096215445  C 0.329280915807268 1.15471972176761  -0.173733440596932 1.08535185564856  0.0649784598588046 1.93401062278846  C 0.280099066969661 2.69925233573457  0.0569814112673077 3.17955895303981  0.10296444066833 3.56547258796788  C 0.213323711230778 4.49008477813684  0.751924933867048 4.63760125292164  0.987837867315764 4.82243588352996  Z " fill-rule="nonzero" fill="#f2b284" stroke="none" transform="matrix(1 0 0 1 170 95 )" />
  </g>
</svg>