<?xml version="1.0" encoding="utf-8"?>
<svg version="1.1" xmlns:xlink="http://www.w3.org/1999/xlink" width="10px" height="10px" xmlns="http://www.w3.org/2000/svg">
  <g transform="matrix(1 0 0 1 -89 -17 )">
    <path d="M 4.574382210295947 0.05433909973715536  L 5.609695476690599 3.339627621550876  L 5.660372378449121 3.390304523309407  C 5.660372378449121 3.390304523309407  8.945660900262846 4.425617789704047  8.945660900262846 4.425617789704047  C 9.018113033245715 4.448580760813393  9.018113033245715 4.5511223042153715  8.945660900262846 4.574481188619698  C 8.945660900262846 4.574481188619698  5.660372378449121 5.609398541719359  5.660372378449121 5.609398541719359  L 5.609695476690599 5.660471356772868  C 5.609695476690599 5.660471356772868  4.574382210295947 8.94536396529161  4.574382210295947 8.94536396529161  C 4.551419239186623 9.018212011569458  4.448481782489632 9.018212011569458  4.425914724675298 8.94536396529161  C 4.425914724675298 8.94536396529161  3.390601458280634 5.660471356772868  3.390601458280634 5.660471356772868  L 3.3399245565221256 5.609398541719359  C 3.3399245565221256 5.609398541719359  0.05463603470839532 4.574481188619698  0.05463603470839532 4.574481188619698  C -0.018212011569468854 4.5511223042153715  -0.018212011569468854 4.448580760813393  0.05463603470839532 4.425617789704047  C 0.05463603470839532 4.425617789704047  3.3399245565221256 3.390304523309407  3.3399245565221256 3.390304523309407  L 3.390601458280634 3.339627621550876  C 3.390601458280634 3.339627621550876  4.425914724675298 0.05433909973715536  4.425914724675298 0.05433909973715536  C 4.448481782489632 -0.01811303324571845  4.551419239186623 -0.01811303324571845  4.574382210295947 0.05433909973715536  Z " fill-rule="nonzero" fill="#f6c671" stroke="none" transform="matrix(1 0 0 1 89 17 )" />
  </g>
</svg>