<?xml version="1.0" encoding="utf-8"?>
<svg version="1.1" xmlns:xlink="http://www.w3.org/1999/xlink" width="10px" height="10px" xmlns="http://www.w3.org/2000/svg">
  <g transform="matrix(1 0 0 1 -89 -17 )">
    <path d="M 4.57438221029595 0.0543390997371554  L 5.6096954766906 3.33962762155088  L 5.66037237844912 3.39030452330941  C 5.66037237844912 3.39030452330941  8.94566090026285 4.42561778970405  8.94566090026285 4.42561778970405  C 9.01811303324572 4.44858076081339  9.01811303324572 4.55112230421537  8.94566090026285 4.5744811886197  C 8.94566090026285 4.5744811886197  5.66037237844912 5.60939854171936  5.66037237844912 5.60939854171936  L 5.6096954766906 5.66047135677287  C 5.6096954766906 5.66047135677287  4.57438221029595 8.94536396529161  4.57438221029595 8.94536396529161  C 4.55141923918662 9.01821201156946  4.44848178248963 9.01821201156946  4.4259147246753 8.94536396529161  C 4.4259147246753 8.94536396529161  3.39060145828063 5.66047135677287  3.39060145828063 5.66047135677287  L 3.33992455652213 5.60939854171936  C 3.33992455652213 5.60939854171936  0.0546360347083953 4.5744811886197  0.0546360347083953 4.5744811886197  C -0.0182120115694689 4.55112230421537  -0.0182120115694689 4.44858076081339  0.0546360347083953 4.42561778970405  C 0.0546360347083953 4.42561778970405  3.33992455652213 3.39030452330941  3.33992455652213 3.39030452330941  L 3.39060145828063 3.33962762155088  C 3.39060145828063 3.33962762155088  4.4259147246753 0.0543390997371554  4.4259147246753 0.0543390997371554  C 4.44848178248963 -0.0181130332457184  4.55141923918662 -0.0181130332457184  4.57438221029595 0.0543390997371554  Z " fill-rule="nonzero" fill="#f6c671" stroke="none" transform="matrix(1 0 0 1 89 17 )" />
  </g>
</svg>