<?xml version="1.0" encoding="utf-8"?>
<svg version="1.1" xmlns:xlink="http://www.w3.org/1999/xlink" width="10px" height="10px" xmlns="http://www.w3.org/2000/svg">
  <g transform="matrix(1 0 0 1 -208 -30 )">
    <path d="M 4.5742312937139955 0.054338502144527075  L 5.609114503145209 3.339590894094377  L 5.660185633220438 3.3902672385351504  C 5.660185633220438 3.3902672385351504  8.945365767826518 4.425569119102622  8.945365767826518 4.425569119102622  C 9.01821141072449 4.448531837677347  9.01821141072449 4.551072253381718  8.945365767826518 4.574034971956466  C 8.945365767826518 4.574034971956466  5.660185633220438 5.609336852523915  5.660185633220438 5.609336852523915  L 5.609114503145209 5.660409105905646  C 5.609114503145209 5.660409105905646  4.5742312937139955 8.945661497855495  4.5742312937139955 8.945661497855495  C 4.551269080191806 9.018112834048168  4.4487309198082166 9.018112834048168  4.425768706286028 8.945661497855495  C 4.425768706286028 8.945661497855495  3.3904895966216593 5.660409105905646  3.3904895966216593 5.660409105905646  L 3.33941846654643 5.609336852523915  C 3.33941846654643 5.609336852523915  0.05463423217350559 4.574034971956466  0.05463423217350559 4.574034971956466  C -0.018211410724494365 4.551072253381718  -0.018211410724494365 4.448531837677347  0.05463423217350559 4.425569119102622  C 0.05463423217350559 4.425569119102622  3.33941846654643 3.3902672385351504  3.33941846654643 3.3902672385351504  L 3.3904895966216593 3.339590894094377  C 3.3904895966216593 3.339590894094377  4.425768706286028 0.054338502144527075  4.425768706286028 0.054338502144527075  C 4.4487309198082166 -0.01811283404816819  4.551269080191806 -0.01811283404816819  4.5742312937139955 0.054338502144527075  Z " fill-rule="nonzero" fill="#f6c671" stroke="none" transform="matrix(1 0 0 1 208 30 )" />
  </g>
</svg>