<?xml version="1.0" encoding="utf-8"?>
<svg version="1.1" xmlns:xlink="http://www.w3.org/1999/xlink" width="10px" height="10px" xmlns="http://www.w3.org/2000/svg">
  <g transform="matrix(1 0 0 1 -208 -30 )">
    <path d="M 4.574231293714 0.0543385021445271  L 5.60911450314521 3.33959089409438  L 5.66018563322044 3.39026723853515  C 5.66018563322044 3.39026723853515  8.94536576782652 4.42556911910262  8.94536576782652 4.42556911910262  C 9.01821141072449 4.44853183767735  9.01821141072449 4.55107225338172  8.94536576782652 4.57403497195647  C 8.94536576782652 4.57403497195647  5.66018563322044 5.60933685252392  5.66018563322044 5.60933685252392  L 5.60911450314521 5.66040910590565  C 5.60911450314521 5.66040910590565  4.574231293714 8.94566149785549  4.574231293714 8.94566149785549  C 4.55126908019181 9.01811283404817  4.44873091980822 9.01811283404817  4.42576870628603 8.94566149785549  C 4.42576870628603 8.94566149785549  3.39048959662166 5.66040910590565  3.39048959662166 5.66040910590565  L 3.33941846654643 5.60933685252392  C 3.33941846654643 5.60933685252392  0.0546342321735056 4.57403497195647  0.0546342321735056 4.57403497195647  C -0.0182114107244944 4.55107225338172  -0.0182114107244944 4.44853183767735  0.0546342321735056 4.42556911910262  C 0.0546342321735056 4.42556911910262  3.33941846654643 3.39026723853515  3.33941846654643 3.39026723853515  L 3.39048959662166 3.33959089409438  C 3.39048959662166 3.33959089409438  4.42576870628603 0.0543385021445271  4.42576870628603 0.0543385021445271  C 4.44873091980822 -0.0181128340481682  4.55126908019181 -0.0181128340481682  4.574231293714 0.0543385021445271  Z " fill-rule="nonzero" fill="#f6c671" stroke="none" transform="matrix(1 0 0 1 208 30 )" />
  </g>
</svg>