<?xml version="1.0" encoding="utf-8"?>
<svg version="1.1" xmlns:xlink="http://www.w3.org/1999/xlink" width="6px" height="6px" xmlns="http://www.w3.org/2000/svg">
  <g transform="matrix(1 0 0 1 -77 -44 )">
    <path d="M 2.541405476740352 0.030353018805682003  L 3.116353238755083 1.855493236555594  L 3.1445067634444075 1.8836467612449002  C 3.1445067634444075 1.8836467612449002  4.969646981194324 2.459034422082902  4.969646981194324 2.459034422082902  C 5.010117672935225 2.471351589134489  5.010117672935225 2.5285384361596708  4.969646981194324 2.541295502034518  C 4.969646981194324 2.541295502034518  3.1445067634444075 3.1166831628725205  3.1445067634444075 3.1166831628725205  L 3.116353238755083 3.144836687561851  C 3.116353238755083 3.144836687561851  2.541405476740352 4.969976905311763  2.541405476740352 4.969976905311763  C 2.528208512042232 5.010007698229395  2.4714615638403163 5.010007698229395  2.4587044979654697 4.969976905311763  C 2.4587044979654697 4.969976905311763  1.8837567359507321 3.144836687561851  1.8837567359507321 3.144836687561851  L 1.8551633124381408 3.1166831628725205  C 1.8551633124381408 3.1166831628725205  0.030023094688224387 2.541295502034518  0.030023094688224387 2.541295502034518  C -0.01000769822940813 2.5285384361596708  -0.01000769822940813 2.471351589134489  0.030023094688224387 2.459034422082902  C 0.030023094688224387 2.459034422082902  1.8551633124381408 1.8836467612449002  1.8551633124381408 1.8836467612449002  L 1.8837567359507321 1.855493236555594  C 1.8837567359507321 1.855493236555594  2.4587044979654697 0.030353018805682003  2.4587044979654697 0.030353018805682003  C 2.4714615638403163 -0.01011767293523567  2.528208512042232 -0.01011767293523567  2.541405476740352 0.030353018805682003  Z " fill-rule="nonzero" fill="#f6c671" stroke="none" transform="matrix(1 0 0 1 77 44 )" />
  </g>
</svg>