<?xml version="1.0" encoding="utf-8"?>
<svg version="1.1" xmlns:xlink="http://www.w3.org/1999/xlink" width="6px" height="6px" xmlns="http://www.w3.org/2000/svg">
  <g transform="matrix(1 0 0 1 -77 -44 )">
    <path d="M 2.54140547674035 0.030353018805682  L 3.11635323875508 1.85549323655559  L 3.14450676344441 1.8836467612449  C 3.14450676344441 1.8836467612449  4.96964698119432 2.4590344220829  4.96964698119432 2.4590344220829  C 5.01011767293523 2.47135158913449  5.01011767293523 2.52853843615967  4.96964698119432 2.54129550203452  C 4.96964698119432 2.54129550203452  3.14450676344441 3.11668316287252  3.14450676344441 3.11668316287252  L 3.11635323875508 3.14483668756185  C 3.11635323875508 3.14483668756185  2.54140547674035 4.96997690531176  2.54140547674035 4.96997690531176  C 2.52820851204223 5.0100076982294  2.47146156384032 5.0100076982294  2.45870449796547 4.96997690531176  C 2.45870449796547 4.96997690531176  1.88375673595073 3.14483668756185  1.88375673595073 3.14483668756185  L 1.85516331243814 3.11668316287252  C 1.85516331243814 3.11668316287252  0.0300230946882244 2.54129550203452  0.0300230946882244 2.54129550203452  C -0.0100076982294081 2.52853843615967  -0.0100076982294081 2.47135158913449  0.0300230946882244 2.4590344220829  C 0.0300230946882244 2.4590344220829  1.85516331243814 1.8836467612449  1.85516331243814 1.8836467612449  L 1.88375673595073 1.85549323655559  C 1.88375673595073 1.85549323655559  2.45870449796547 0.030353018805682  2.45870449796547 0.030353018805682  C 2.47146156384032 -0.0101176729352357  2.52820851204223 -0.0101176729352357  2.54140547674035 0.030353018805682  Z " fill-rule="nonzero" fill="#f6c671" stroke="none" transform="matrix(1 0 0 1 77 44 )" />
  </g>
</svg>