<?xml version="1.0" encoding="utf-8"?>
<svg version="1.1" xmlns:xlink="http://www.w3.org/1999/xlink" width="6px" height="6px" xmlns="http://www.w3.org/2000/svg">
  <g transform="matrix(1 0 0 1 -109 -25 )">
    <path d="M 2.541351398909018 0.030023094688236815  L 3.1167517156431455 1.8551633124381488  L 3.1449058595812036 1.8833168371274795  C 3.1449058595812036 1.8833168371274795  4.969646313566771 2.458704497965482  4.969646313566771 2.458704497965482  C 5.01011789547774 2.471461563840329  5.01011789547774 2.528648410865511  4.969646313566771 2.540965577917098  C 4.969646313566771 2.540965577917098  3.1449058595812036 3.1163532387551003  3.1449058595812036 3.1163532387551003  L 3.1167517156431455 3.1445067634444057  C 3.1167517156431455 3.1445067634444057  2.541351398909018 4.969646981194318  2.541351398909018 4.969646981194318  C 2.528594052437086 5.010117672935235  2.4714059475629018 5.010117672935235  2.4586486010909696 4.969646981194318  C 2.4586486010909696 4.969646981194318  1.8836881928558884 3.1445067634444057  1.8836881928558884 3.1445067634444057  L 1.8555340489178178 3.1163532387551003  C 1.8555340489178178 3.1163532387551003  0.030353686433216752 2.540965577917098  0.030353686433216752 2.540965577917098  C -0.010117895477738914 2.528648410865511  -0.010117895477738914 2.471461563840329  0.030353686433216752 2.458704497965482  C 0.030353686433216752 2.458704497965482  1.8555340489178178 1.8833168371274795  1.8555340489178178 1.8833168371274795  L 1.8836881928558884 1.8551633124381488  C 1.8836881928558884 1.8551633124381488  2.4586486010909696 0.030023094688236815  2.4586486010909696 0.030023094688236815  C 2.4714059475629018 -0.010007698229395599  2.528594052437086 -0.010007698229395599  2.541351398909018 0.030023094688236815  Z " fill-rule="nonzero" fill="#f6c671" stroke="none" transform="matrix(1 0 0 1 109 25 )" />
  </g>
</svg>