<?xml version="1.0" encoding="utf-8"?>
<svg version="1.1" xmlns:xlink="http://www.w3.org/1999/xlink" width="6px" height="6px" xmlns="http://www.w3.org/2000/svg">
  <g transform="matrix(1 0 0 1 -109 -25 )">
    <path d="M 2.54135139890902 0.0300230946882368  L 3.11675171564315 1.85516331243815  L 3.1449058595812 1.88331683712748  C 3.1449058595812 1.88331683712748  4.96964631356677 2.45870449796548  4.96964631356677 2.45870449796548  C 5.01011789547774 2.47146156384033  5.01011789547774 2.52864841086551  4.96964631356677 2.5409655779171  C 4.96964631356677 2.5409655779171  3.1449058595812 3.1163532387551  3.1449058595812 3.1163532387551  L 3.11675171564315 3.14450676344441  C 3.11675171564315 3.14450676344441  2.54135139890902 4.96964698119432  2.54135139890902 4.96964698119432  C 2.52859405243709 5.01011767293523  2.4714059475629 5.01011767293523  2.45864860109097 4.96964698119432  C 2.45864860109097 4.96964698119432  1.88368819285589 3.14450676344441  1.88368819285589 3.14450676344441  L 1.85553404891782 3.1163532387551  C 1.85553404891782 3.1163532387551  0.0303536864332168 2.5409655779171  0.0303536864332168 2.5409655779171  C -0.0101178954777389 2.52864841086551  -0.0101178954777389 2.47146156384033  0.0303536864332168 2.45870449796548  C 0.0303536864332168 2.45870449796548  1.85553404891782 1.88331683712748  1.85553404891782 1.88331683712748  L 1.88368819285589 1.85516331243815  C 1.88368819285589 1.85516331243815  2.45864860109097 0.0300230946882368  2.45864860109097 0.0300230946882368  C 2.4714059475629 -0.0100076982293956  2.52859405243709 -0.0100076982293956  2.54135139890902 0.0300230946882368  Z " fill-rule="nonzero" fill="#f6c671" stroke="none" transform="matrix(1 0 0 1 109 25 )" />
  </g>
</svg>