<?xml version="1.0" encoding="utf-8"?>
<svg version="1.1" xmlns:xlink="http://www.w3.org/1999/xlink" width="6px" height="6px" xmlns="http://www.w3.org/2000/svg">
  <g transform="matrix(1 0 0 1 -206 -58 )">
    <path d="M 2.54129550203452 0.0303510160992421  L 3.11668316287255 1.85537081024018  L 3.14483668756186 1.88396234714526  C 3.14483668756186 1.88396234714526  4.96997690531179 2.45887217383654  4.96997690531179 2.45887217383654  C 5.01000769822942 2.47162839799419  5.01000769822942 2.52837160200581  4.96997690531179 2.54112782616346  C 4.96997690531179 2.54112782616346  3.14483668756186 3.1164775226533  3.14483668756186 3.1164775226533  L 3.11668316287255 3.14462918975984  C 3.11668316287255 3.14462918975984  2.54129550203452 4.96964898390078  2.54129550203452 4.96964898390078  C 2.52853843615967 5.01011700536642  2.47135158913449 5.01011700536642  2.45903442208293 4.96964898390078  C 2.45903442208293 4.96964898390078  1.88364676124492 3.14462918975984  1.88364676124492 3.14462918975984  L 1.85549323655559 3.1164775226533  C 1.85549323655559 3.1164775226533  0.0303530188056573 2.54112782616346  0.0303530188056573 2.54112782616346  C -0.0101176729352358 2.52837160200581  -0.0101176729352358 2.47162839799419  0.0303530188056573 2.45887217383654  C 0.0303530188056573 2.45887217383654  1.85549323655559 1.88396234714526  1.85549323655559 1.88396234714526  L 1.88364676124492 1.85537081024018  C 1.88364676124492 1.85537081024018  2.45903442208293 0.0303510160992421  2.45903442208293 0.0303510160992421  C 2.47135158913449 -0.0101170053664224  2.52853843615967 -0.0101170053664224  2.54129550203452 0.0303510160992421  Z " fill-rule="nonzero" fill="#f6c671" stroke="none" transform="matrix(1 0 0 1 206 58 )" />
  </g>
</svg>