<?xml version="1.0" encoding="utf-8"?>
<svg version="1.1" xmlns:xlink="http://www.w3.org/1999/xlink" width="6px" height="6px" xmlns="http://www.w3.org/2000/svg">
  <g transform="matrix(1 0 0 1 -206 -58 )">
    <path d="M 2.5412955020345187 0.03035101609924213  L 3.1166831628725515 1.8553708102401831  L 3.144836687561858 1.883962347145258  C 3.144836687561858 1.883962347145258  4.969976905311788 2.4588721738365416  4.969976905311788 2.4588721738365416  C 5.010007698229419 2.4716283979941895  5.010007698229419 2.5283716020058105  4.969976905311788 2.5411278261634584  C 4.969976905311788 2.5411278261634584  3.144836687561858 3.116477522653296  3.144836687561858 3.116477522653296  L 3.1166831628725515 3.144629189759842  C 3.1166831628725515 3.144629189759842  2.5412955020345187 4.9696489839007825  2.5412955020345187 4.9696489839007825  C 2.528538436159671 5.01011700536642  2.471351589134488 5.01011700536642  2.4590344220829268 4.9696489839007825  C 2.4590344220829268 4.9696489839007825  1.8836467612449184 3.144629189759842  1.8836467612449184 3.144629189759842  L 1.8554932365555876 3.116477522653296  C 1.8554932365555876 3.116477522653296  0.0303530188056573 2.5411278261634584  0.0303530188056573 2.5411278261634584  C -0.01011767293523577 2.5283716020058105  -0.01011767293523577 2.4716283979941895  0.0303530188056573 2.4588721738365416  C 0.0303530188056573 2.4588721738365416  1.8554932365555876 1.883962347145258  1.8554932365555876 1.883962347145258  L 1.8836467612449184 1.8553708102401831  C 1.8836467612449184 1.8553708102401831  2.4590344220829268 0.03035101609924213  2.4590344220829268 0.03035101609924213  C 2.471351589134488 -0.010117005366422375  2.528538436159671 -0.010117005366422375  2.5412955020345187 0.03035101609924213  Z " fill-rule="nonzero" fill="#f6c671" stroke="none" transform="matrix(1 0 0 1 206 58 )" />
  </g>
</svg>