<?xml version="1.0" encoding="utf-8"?>
<svg version="1.1" xmlns:xlink="http://www.w3.org/1999/xlink" width="6px" height="6px" xmlns="http://www.w3.org/2000/svg">
  <g transform="matrix(1 0 0 1 -201 -19 )">
    <path d="M 2.54113325414632 0.0303536864332293  L 3.11611895649115 1.85509414041881  L 3.1442743390084 1.88368819285591  C 3.1442743390084 1.88368819285591  4.96997492411246 2.458648601091  4.96997492411246 2.458648601091  C 5.0100083586292 2.47140594756293  5.0100083586292 2.52859405243712  4.96997492411246 2.54135139890905  C 4.96997492411246 2.54135139890905  3.1442743390084 3.11631180714412  3.1442743390084 3.11631180714412  L 3.11611895649115 3.14446595108219  C 3.11611895649115 3.14446595108219  2.54113325414632 4.9696463135668  2.54113325414632 4.9696463135668  C 2.52837534644319 5.01011789547775  2.47118472570499 5.01011789547775  2.45886674585368 4.9696463135668  C 2.45886674585368 4.9696463135668  1.88344111565703 3.14446595108219  1.88344111565703 3.14446595108219  L 1.85528573313976 3.11631180714412  C 1.85528573313976 3.11631180714412  0.0300250758875446 2.54135139890905  0.0300250758875446 2.54135139890905  C -0.0100083586291732 2.52859405243712  -0.0100083586291732 2.47140594756293  0.0300250758875446 2.458648601091  C 0.0300250758875446 2.458648601091  1.85528573313976 1.88368819285591  1.85528573313976 1.88368819285591  L 1.88344111565703 1.85509414041881  C 1.88344111565703 1.85509414041881  2.45886674585368 0.0303536864332293  2.45886674585368 0.0303536864332293  C 2.47118472570499 -0.0101178954777264  2.52837534644319 -0.0101178954777264  2.54113325414632 0.0303536864332293  Z " fill-rule="nonzero" fill="#f6c671" stroke="none" transform="matrix(1 0 0 1 201 19 )" />
  </g>
</svg>