<?xml version="1.0" encoding="utf-8"?>
<svg version="1.1" xmlns:xlink="http://www.w3.org/1999/xlink" width="6px" height="6px" xmlns="http://www.w3.org/2000/svg">
  <g transform="matrix(1 0 0 1 -201 -19 )">
    <path d="M 2.541133254146323 0.030353686433229332  L 3.1161189564911456 1.8550941404188135  L 3.144274339008397 1.8836881928559055  C 3.144274339008397 1.8836881928559055  4.969974924112456 2.4586486010910007  4.969974924112456 2.4586486010910007  C 5.0100083586292 2.471405947562933  5.0100083586292 2.528594052437117  4.969974924112456 2.541351398909049  C 4.969974924112456 2.541351398909049  3.144274339008397 3.116311807144119  3.144274339008397 3.116311807144119  L 3.1161189564911456 3.1444659510821897  C 3.1161189564911456 3.1444659510821897  2.541133254146323 4.969646313566796  2.541133254146323 4.969646313566796  C 2.5283753464431875 5.01011789547775  2.4711847257049904 5.01011789547775  2.4588667458536775 4.969646313566796  C 2.4588667458536775 4.969646313566796  1.8834411156570323 3.1444659510821897  1.8834411156570323 3.1444659510821897  L 1.8552857331397565 3.116311807144119  C 1.8552857331397565 3.116311807144119  0.030025075887544647 2.541351398909049  0.030025075887544647 2.541351398909049  C -0.01000835862917321 2.528594052437117  -0.01000835862917321 2.471405947562933  0.030025075887544647 2.4586486010910007  C 0.030025075887544647 2.4586486010910007  1.8552857331397565 1.8836881928559055  1.8552857331397565 1.8836881928559055  L 1.8834411156570323 1.8550941404188135  C 1.8834411156570323 1.8550941404188135  2.4588667458536775 0.030353686433229332  2.4588667458536775 0.030353686433229332  C 2.4711847257049904 -0.01011789547772644  2.5283753464431875 -0.01011789547772644  2.541133254146323 0.030353686433229332  Z " fill-rule="nonzero" fill="#f6c671" stroke="none" transform="matrix(1 0 0 1 201 19 )" />
  </g>
</svg>