<?xml version="1.0" encoding="utf-8"?>
<svg version="1.1" xmlns:xlink="http://www.w3.org/1999/xlink" width="148px" height="148px" xmlns="http://www.w3.org/2000/svg">
  <defs>
    <mask fill="white" id="clip73">
      <path d="M 0 74  C 0 114.86907148520001  33.130928514800004 148  74 148  C 93.27224668873471 148  110.82376666894692 140.63269316790368  123.99185484031085 128.56078460403677  C 138.7482502795405 115.03278766504066  148 95.5968247964653  148 74  C 148 33.130928514800004  114.86907148520001 0  74 0  C 33.130928514800004 0  0 33.130928514800004  0 74  Z " fill-rule="evenodd" />
    </mask>
  </defs>
  <g transform="matrix(1 0 0 1 -902 -1712 )">
    <path d="M 0 74  C 0 114.86907148520001  33.130928514800004 148  74 148  C 93.27224668873471 148  110.82376666894692 140.63269316790368  123.99185484031085 128.56078460403677  C 138.7482502795405 115.03278766504066  148 95.5968247964653  148 74  C 148 33.130928514800004  114.86907148520001 0  74 0  C 33.130928514800004 0  0 33.130928514800004  0 74  Z " fill-rule="nonzero" fill="#ffffff" stroke="none" fill-opacity="0" transform="matrix(1 0 0 1 902 1712 )" />
    <path d="M 0 74  C 0 114.86907148520001  33.130928514800004 148  74 148  C 93.27224668873471 148  110.82376666894692 140.63269316790368  123.99185484031085 128.56078460403677  C 138.7482502795405 115.03278766504066  148 95.5968247964653  148 74  C 148 33.130928514800004  114.86907148520001 0  74 0  C 33.130928514800004 0  0 33.130928514800004  0 74  Z " stroke-width="20" stroke="#2f4d64" fill="none" transform="matrix(1 0 0 1 902 1712 )" mask="url(#clip73)" />
  </g>
</svg>