<?xml version="1.0" encoding="utf-8"?>
<svg version="1.1" xmlns:xlink="http://www.w3.org/1999/xlink" width="148px" height="148px" xmlns="http://www.w3.org/2000/svg">
  <defs>
    <mask fill="white" id="clip145">
      <path d="M 0 74  C 0 114.8690714852  33.1309285148 148  74 148  C 93.2722466887347 148  110.823766668947 140.632693167904  123.991854840311 128.560784604037  C 138.748250279541 115.032787665041  148 95.5968247964653  148 74  C 148 33.1309285148  114.8690714852 0  74 0  C 33.1309285148 0  0 33.1309285148  0 74  Z " fill-rule="evenodd" />
    </mask>
  </defs>
  <g transform="matrix(1 0 0 1 -1736 -2022 )">
    <path d="M 0 74  C 0 114.8690714852  33.1309285148 148  74 148  C 93.2722466887347 148  110.823766668947 140.632693167904  123.991854840311 128.560784604037  C 138.748250279541 115.032787665041  148 95.5968247964653  148 74  C 148 33.1309285148  114.8690714852 0  74 0  C 33.1309285148 0  0 33.1309285148  0 74  Z " fill-rule="nonzero" fill="#ffffff" stroke="none" fill-opacity="0" transform="matrix(1 0 0 1 1736 2022 )" />
    <path d="M 0 74  C 0 114.8690714852  33.1309285148 148  74 148  C 93.2722466887347 148  110.823766668947 140.632693167904  123.991854840311 128.560784604037  C 138.748250279541 115.032787665041  148 95.5968247964653  148 74  C 148 33.1309285148  114.8690714852 0  74 0  C 33.1309285148 0  0 33.1309285148  0 74  Z " stroke-width="20" stroke="#2f4d64" fill="none" transform="matrix(1 0 0 1 1736 2022 )" mask="url(#clip145)" />
  </g>
</svg>