<?xml version="1.0" encoding="utf-8"?>
<svg version="1.1" xmlns:xlink="http://www.w3.org/1999/xlink" width="47px" height="4px" xmlns="http://www.w3.org/2000/svg">
  <g transform="matrix(1 0 0 1 -804 -1390 )">
    <path d="M 13 2  C 13 3.1200000000000045  12.120000000000006 4  11 4  L 2 4  C 0.8799999999999955 4  0 3.1200000000000045  0 2  C 0 0.8799999999999955  0.8799999999999955 0  2 0  L 11 0  C 12.120000000000006 0  13 0.8799999999999955  13 2  Z M 30 2  C 30 3.1200000000000045  29.120000000000008 4  28 4  L 19 4  C 17.879999999999995 4  17 3.1200000000000045  17 2  C 17 0.8799999999999955  17.879999999999995 0  19 0  L 28 0  C 29.120000000000008 0  30 0.8799999999999955  30 2  Z M 45 4  L 36 4  C 34.879999999999995 4  34 3.1200000000000045  34 2  C 34 0.8799999999999955  34.879999999999995 0  36 0  L 45 0  C 46.120000000000005 0  47 0.8799999999999955  47 2  C 47 3.1200000000000045  46.120000000000005 4  45 4  Z " fill-rule="nonzero" fill="#ffffff" stroke="none" transform="matrix(1 0 0 1 804 1390 )" />
  </g>
</svg>