<?xml version="1.0" encoding="utf-8"?>
<svg version="1.1" xmlns:xlink="http://www.w3.org/1999/xlink" width="47px" height="4px" xmlns="http://www.w3.org/2000/svg">
  <g transform="matrix(1 0 0 1 -1638 -1700 )">
    <path d="M 13 2  C 13 3.12  12.12 4  11 4  L 2 4  C 0.879999999999995 4  0 3.12  0 2  C 0 0.879999999999995  0.879999999999995 0  2 0  L 11 0  C 12.12 0  13 0.879999999999995  13 2  Z M 30 2  C 30 3.12  29.12 4  28 4  L 19 4  C 17.88 4  17 3.12  17 2  C 17 0.879999999999995  17.88 0  19 0  L 28 0  C 29.12 0  30 0.879999999999995  30 2  Z M 45 4  L 36 4  C 34.88 4  34 3.12  34 2  C 34 0.879999999999995  34.88 0  36 0  L 45 0  C 46.12 0  47 0.879999999999995  47 2  C 47 3.12  46.12 4  45 4  Z " fill-rule="nonzero" fill="#ffffff" stroke="none" transform="matrix(1 0 0 1 1638 1700 )" />
  </g>
</svg>