<?xml version="1.0" encoding="utf-8"?>
<svg version="1.1" xmlns:xlink="http://www.w3.org/1999/xlink" width="14px" height="15px" xmlns="http://www.w3.org/2000/svg">
  <g transform="matrix(1 0 0 1 -633 -368 )">
    <path d="M 14 4.9350172204675715  C 14 4.9350172204675715  14 10.06498277953243  14 10.06498277953243  C 14 10.90498134115561  13.537699763801589 11.685011131863558  12.790313944125076 12.112510392648023  C 12.790313944125076 12.112510392648023  8.21353864816325 14.685000483512049  8.21353864816325 14.685000483512049  C 7.46615282848674 15.104999764323647  6.541552172388204 15.104999764323647  5.786461351836751 14.685000483512049  C 5.786461351836751 14.685000483512049  1.2096862395766337 12.112510392648023  1.2096862395766337 12.112510392648023  C 0.46230041990012294 11.692511111836431  0 10.912481321128485  0 10.06498277953243  C 0 10.06498277953243  0 4.9350172204675715  0 4.9350172204675715  C 0 4.09501865884439  0.46230041990012294 3.314988868136442  1.2096862395766337 2.8874896073519776  C 1.2096862395766337 2.8874896073519776  5.786461351836751 0.3149994717845448  5.786461351836751 0.3149994717845448  C 6.53384717151326 -0.10499980902704596  7.458447827611795 -0.10499980902704596  8.21353864816325 0.3149994717845448  C 8.21353864816325 0.3149994717845448  12.790313944125076 2.8874896073519776  12.790313944125076 2.8874896073519776  C 13.537699763801589 3.314988868136442  14 4.087518678871515  14 4.9350172204675715  Z " fill-rule="nonzero" fill="#4c6ceb" stroke="none" transform="matrix(1 0 0 1 633 368 )" />
  </g>
</svg>