<?xml version="1.0" encoding="utf-8"?>
<svg version="1.1" xmlns:xlink="http://www.w3.org/1999/xlink" width="13px" height="13px" xmlns="http://www.w3.org/2000/svg">
  <g transform="matrix(1 0 0 1 -874 -1194 )">
    <path d="M 4.25 0  C 4.25 0  9.25 0  9.25 0  C 11.75 0  13 1.25  13 3.75  C 13 3.75  13 11.875  13 11.875  C 13 12.2187500074506  12.7187500074506 12.5  12.375 12.5  C 12.375 12.5  4.25 12.5  4.25 12.5  C 1.75 12.5  0.5 11.25  0.5 8.75  C 0.5 8.75  0.5 3.75  0.5 3.75  C 0.5 1.25  1.75 0  4.25 0  Z " fill-rule="nonzero" fill="#4c6ceb" stroke="none" transform="matrix(1 0 0 1 874 1194 )" />
  </g>
</svg>