<?xml version="1.0" encoding="utf-8"?>
<svg version="1.1" xmlns:xlink="http://www.w3.org/1999/xlink" width="14px" height="15px" xmlns="http://www.w3.org/2000/svg">
  <g transform="matrix(1 0 0 1 -1467 -678 )">
    <path d="M 14 4.93501722046757  C 14 4.93501722046757  14 10.0649827795324  14 10.0649827795324  C 14 10.9049813411556  13.5376997638016 11.6850111318636  12.7903139441251 12.112510392648  C 12.7903139441251 12.112510392648  8.21353864816325 14.685000483512  8.21353864816325 14.685000483512  C 7.46615282848674 15.1049997643236  6.5415521723882 15.1049997643236  5.78646135183675 14.685000483512  C 5.78646135183675 14.685000483512  1.20968623957663 12.112510392648  1.20968623957663 12.112510392648  C 0.462300419900123 11.6925111118364  0 10.9124813211285  0 10.0649827795324  C 0 10.0649827795324  0 4.93501722046757  0 4.93501722046757  C 0 4.09501865884439  0.462300419900123 3.31498886813644  1.20968623957663 2.88748960735198  C 1.20968623957663 2.88748960735198  5.78646135183675 0.314999471784545  5.78646135183675 0.314999471784545  C 6.53384717151326 -0.104999809027046  7.45844782761179 -0.104999809027046  8.21353864816325 0.314999471784545  C 8.21353864816325 0.314999471784545  12.7903139441251 2.88748960735198  12.7903139441251 2.88748960735198  C 13.5376997638016 3.31498886813644  14 4.08751867887151  14 4.93501722046757  Z " fill-rule="nonzero" fill="#4c6ceb" stroke="none" transform="matrix(1 0 0 1 1467 678 )" />
  </g>
</svg>