<?xml version="1.0" encoding="utf-8"?>
<svg version="1.1" xmlns:xlink="http://www.w3.org/1999/xlink" width="5px" height="9px" xmlns="http://www.w3.org/2000/svg">
  <g transform="matrix(1 0 0 1 -878 -1196 )">
    <path d="M 2.9279610703486 5.47469780427136  C 2.9279610703486 5.47469780427136  2.9279610703486 6.67892316067307  2.9279610703486 6.67892316067307  C 2.89627092704517 6.86906400563888  2.73782022538153 7.02751470730129  2.57936952371915 7.02751470730129  C 2.38922867875334 7.02751470730129  2.26246811296733 6.90075414151497  2.26246811296733 6.71061329654916  C 2.26246811296733 6.71061329654916  2.26246811296733 5.50638794757478  2.26246811296733 5.50638794757478  C 2.26246811296733 4.93596541267735  2.73782022538147 4.65075414522863  3.18148220191995 4.36554287777992  C 3.6885244576379 4.04864146702775  4.19556670592907 3.73174006370303  4.2272568492325 3.03455696301924  C 4.2272568492325 2.14723301736967  3.49838361267261 1.41835978080982  2.61105966702303 1.41835978080982  C 1.72373572137345 1.41835978080982  0.994862484812529 2.14723301736967  0.994862484812529 3.03455696301924  C 0.994862484812529 3.22469780798505  0.868101919027538 3.35145837377138  0.677961074061727 3.35145837377138  C 0.487820229095917 3.35145837377138  0.361059663308879 3.22469780798505  0.361059663308879 3.03455696301924  C 0.361059663308879 1.79864147074147  1.37514416731788 0.784556966732907  2.61105966702303 0.784556966732907  C 3.84697516672817 0.784556966732907  4.86105966330888 1.79864147074147  4.86105966330888 3.03455696301924  C 4.7976793841294 4.0803316103312  4.06880614014238 4.55568372274573  3.53007374854838 4.87258513349786  C 3.14979205861675 5.0944161217671  2.9279610703486 5.25286682342949  2.9279610703486 5.47469780427136  Z M 2.57936952371847 7.40779639723291  C 2.35184376286292 7.40779639723291  2.16739769048399 7.59224246961242  2.16739769048399 7.81976823046796  C 2.16739769048399 8.0472939913235  2.35184376286292 8.231740063703  2.57936952371847 8.231740063703  C 2.80689528457402 8.231740063703  2.99134135695431 8.0472939913235  2.99134135695431 7.81976823046796  C 2.99134135695431 7.59224246961242  2.80689528457402 7.40779639723291  2.57936952371847 7.40779639723291  Z " fill-rule="nonzero" fill="#4c6ceb" stroke="none" transform="matrix(1 0 0 1 878 1196 )" />
  </g>
</svg>