<?xml version="1.0" encoding="utf-8"?>
<svg version="1.1" xmlns:xlink="http://www.w3.org/1999/xlink" width="6px" height="8px" xmlns="http://www.w3.org/2000/svg">
  <g transform="matrix(1 0 0 1 -1471 -682 )">
    <path d="M 2.99994134902943 0.505065917968807  C 3.96505898237217 0.505065917968807  4.74744129180897 1.28741532564169  4.74744129180897 2.25253295898443  C 4.74744129180897 3.21765059232717  3.96505898237217 4.00004577636724  2.99994134902943 4.00004577636724  C 2.03482371568668 4.00004577636724  1.25244140624989 3.21765059232717  1.25244140624989 2.25253295898443  C 1.25244140624989 1.28741532564169  2.03482371568668 0.505065917968807  2.99994134902943 0.505065917968807  Z M 0.989388942718392 7.49507141113276  C 0.989388942718392 7.49507141113276  5.00938940048206 7.49507141113276  5.00938940048206 7.49507141113276  C 5.6168894022702 7.49507141113276  5.96938933432091 6.82011170685286  5.63188934326161 6.31761169433588  C 5.12188933789719 5.56011170148844  4.13188916444767 5.05010986328119  2.99938917160023 5.05010986328119  C 1.86688917875279 5.05010986328119  0.876888994127398 5.56011170148844  0.36688898876298 6.31761169433588  C 0.029388997703677 6.82011170685286  0.381888940930253 7.49507141113276  0.989388942718392 7.49507141113276  Z " fill-rule="nonzero" fill="#4c6ceb" stroke="none" transform="matrix(1 0 0 1 1471 682 )" />
  </g>
</svg>