<?xml version="1.0" encoding="utf-8"?>
<svg version="1.1" xmlns:xlink="http://www.w3.org/1999/xlink" width="6px" height="8px" xmlns="http://www.w3.org/2000/svg">
  <g transform="matrix(1 0 0 1 -637 -372 )">
    <path d="M 2.9999413490294273 0.5050659179688068  C 3.9650589823721702 0.5050659179688068  4.747441291808968 1.287415325641689  4.747441291808968 2.252532958984432  C 4.747441291808968 3.2176505923271748  3.9650589823721702 4.000045776367244  2.9999413490294273 4.000045776367244  C 2.0348237156866844 4.000045776367244  1.2524414062498863 3.2176505923271748  1.2524414062498863 2.252532958984432  C 1.2524414062498863 1.287415325641689  2.0348237156866844 0.5050659179688068  2.9999413490294273 0.5050659179688068  Z M 0.9893889427183922 7.495071411132756  C 0.9893889427183922 7.495071411132756  5.009389400482064 7.495071411132756  5.009389400482064 7.495071411132756  C 5.616889402270203 7.495071411132756  5.969389334320908 6.820111706852856  5.631889343261605 6.317611694335881  C 5.121889337897187 5.560111701488438  4.131889164447671 5.050109863281193  2.999389171600228 5.050109863281193  C 1.8668891787527855 5.050109863281193  0.8768889941273983 5.560111701488438  0.36688898876298026 6.317611694335881  C 0.029388997703676978 6.820111706852856  0.38188894093025283 7.495071411132756  0.9893889427183922 7.495071411132756  Z " fill-rule="nonzero" fill="#4c6ceb" stroke="none" transform="matrix(1 0 0 1 637 372 )" />
  </g>
</svg>