<?xml version="1.0" encoding="utf-8"?>
<svg version="1.1" xmlns:xlink="http://www.w3.org/1999/xlink" width="5px" height="9px" xmlns="http://www.w3.org/2000/svg">
  <g transform="matrix(1 0 0 1 -44 -886 )">
    <path d="M 2.9279610703486014 5.474697804271358  C 2.9279610703486014 5.474697804271358  2.9279610703486014 6.678923160673065  2.9279610703486014 6.678923160673065  C 2.8962709270451725 6.869064005638876  2.737820225381533 7.027514707301293  2.5793695237191514 7.027514707301293  C 2.3892286787533408 7.027514707301293  2.2624681129673263 6.900754141514966  2.2624681129673263 6.710613296549155  C 2.2624681129673263 6.710613296549155  2.2624681129673263 5.50638794757478  2.2624681129673263 5.50638794757478  C 2.2624681129673263 4.935965412677348  2.737820225381469 4.650754145228632  3.1814822019199482 4.365542877779916  C 3.6885244576379037 4.04864146702775  4.195566705929075 3.731740063703029  4.2272568492325036 3.0345569630192415  C 4.2272568492325036 2.147233017369672  3.4983836126726082 1.4183597808098227  2.611059667023028 1.4183597808098227  C 1.7237357213734512 1.4183597808098227  0.9948624848125291 2.147233017369672  0.9948624848125291 3.0345569630192415  C 0.9948624848125291 3.224697807985052  0.8681019190275379 3.3514583737713792  0.6779610740617272 3.3514583737713792  C 0.4878202290959166 3.3514583737713792  0.36105966330887895 3.224697807985052  0.36105966330887895 3.0345569630192415  C 0.36105966330887895 1.7986414707414724  1.3751441673178775 0.7845569667329073  2.611059667023028 0.7845569667329073  C 3.846975166728175 0.7845569667329073  4.861059663308879 1.7986414707414724  4.861059663308879 3.0345569630192415  C 4.7976793841294025 4.0803316103312  4.068806140142378 4.5556837227457265  3.530073748548375 4.872585133497864  C 3.1497920586167503 5.094416121767097  2.9279610703486014 5.2528668234294855  2.9279610703486014 5.474697804271358  Z M 2.5793695237184693 7.407796397232914  C 2.3518437628629165 7.407796397232914  2.1673976904839947 7.592242469612415  2.1673976904839947 7.819768230467957  C 2.1673976904839947 8.0472939913235  2.3518437628629165 8.231740063703  2.5793695237184693 8.231740063703  C 2.806895284574022 8.231740063703  2.991341356954308 8.0472939913235  2.991341356954308 7.819768230467957  C 2.991341356954308 7.592242469612415  2.806895284574022 7.407796397232914  2.5793695237184693 7.407796397232914  Z " fill-rule="nonzero" fill="#4c6ceb" stroke="none" transform="matrix(1 0 0 1 44 886 )" />
  </g>
</svg>