<?xml version="1.0" encoding="utf-8"?>
<svg version="1.1" xmlns:xlink="http://www.w3.org/1999/xlink" width="5px" height="5px" xmlns="http://www.w3.org/2000/svg">
  <defs>
    <linearGradient gradientUnits="userSpaceOnUse" x1="2.4999999999999987" y1="-1.2447490626286995E-16" x2="2.4999999999999996" y2="5" id="LinearGradient142">
      <stop id="Stop143" stop-color="#b3d4ff" offset="0" />
      <stop id="Stop144" stop-color="#5fa5ff" offset="1" />
    </linearGradient>
  </defs>
  <g transform="matrix(1 0 0 1 -429 -1337 )">
    <path d="M 2.7525932302895626 4.653558904193915  C 3.8848942052388225 4.653558904193915  4.802805508198048 3.7356476012347457  4.802805508198048 2.603346626285429  C 4.802805508198048 1.4710456513361123  3.8848942052388225 0.5531343483769433  2.7525932302895626 0.5531343483769433  C 1.6202922553403027 0.5531343483769433  0.7023809523810769 1.4710456513361123  0.7023809523810769 2.603346626285429  C 0.7023809523810769 3.7356476012347457  1.6202922553403027 4.653558904193915  2.7525932302895626 4.653558904193915  Z M 2.7525932302895626 4.153558904193915  C 1.8964346302556692 4.153558904193915  1.202380952381077 3.4595052263192656  1.202380952381077 2.603346626285429  C 1.202380952381077 1.7471880262515924  1.8964346302556692 1.0531343483769433  2.7525932302895626 1.0531343483769433  C 3.608751830323456 1.0531343483769433  4.302805508198048 1.7471880262515924  4.302805508198048 2.603346626285429  C 4.302805508198048 3.4595052263192656  3.608751830323456 4.153558904193915  2.7525932302895626 4.153558904193915  Z " fill-rule="nonzero" fill="url(#LinearGradient142)" stroke="none" transform="matrix(1 0 0 1 429 1337 )" />
  </g>
</svg>