<?xml version="1.0" encoding="utf-8"?>
<svg version="1.1" xmlns:xlink="http://www.w3.org/1999/xlink" width="5px" height="5px" xmlns="http://www.w3.org/2000/svg">
  <defs>
    <linearGradient gradientUnits="userSpaceOnUse" x1="2.5" y1="-1.2447490626287E-16" x2="2.5" y2="5" id="LinearGradient214">
      <stop id="Stop215" stop-color="#b3d4ff" offset="0" />
      <stop id="Stop216" stop-color="#5fa5ff" offset="1" />
    </linearGradient>
  </defs>
  <g transform="matrix(1 0 0 1 -1263 -1647 )">
    <path d="M 2.75259323028956 4.65355890419391  C 3.88489420523882 4.65355890419391  4.80280550819805 3.73564760123475  4.80280550819805 2.60334662628543  C 4.80280550819805 1.47104565133611  3.88489420523882 0.553134348376943  2.75259323028956 0.553134348376943  C 1.6202922553403 0.553134348376943  0.702380952381077 1.47104565133611  0.702380952381077 2.60334662628543  C 0.702380952381077 3.73564760123475  1.6202922553403 4.65355890419391  2.75259323028956 4.65355890419391  Z M 2.75259323028956 4.15355890419391  C 1.89643463025567 4.15355890419391  1.20238095238108 3.45950522631927  1.20238095238108 2.60334662628543  C 1.20238095238108 1.74718802625159  1.89643463025567 1.05313434837694  2.75259323028956 1.05313434837694  C 3.60875183032346 1.05313434837694  4.30280550819805 1.74718802625159  4.30280550819805 2.60334662628543  C 4.30280550819805 3.45950522631927  3.60875183032346 4.15355890419391  2.75259323028956 4.15355890419391  Z " fill-rule="nonzero" fill="url(#LinearGradient214)" stroke="none" transform="matrix(1 0 0 1 1263 1647 )" />
  </g>
</svg>