<?xml version="1.0" encoding="utf-8"?>
<svg version="1.1" xmlns:xlink="http://www.w3.org/1999/xlink" width="7px" height="7px" xmlns="http://www.w3.org/2000/svg">
  <g transform="matrix(1 0 0 1 -1072 -640 )">
    <path d="M 6.41012436764917 0.00805566941293589  C 6.41012436764917 0.00805566941293589  6.5 0  6.5 0  C 6.74545988881369 0  6.94960837035366 0.176875160560674  6.99194433058706 0.410124367649169  C 6.99194433058706 0.410124367649169  7 0.5  7 0.5  C 7 0.5  7 6.5  7 6.5  C 7 6.74545988881369  6.82312483943933 6.94960837035366  6.58987563235083 6.99194433058707  C 6.58987563235083 6.99194433058707  6.5 7  6.5 7  C 6.5 7  0.5 7  0.5 7  C 0.223857625084603 7  0 6.7761423749154  0 6.5  C 0 6.25454011118631  0.176875160560674 6.05039162964634  0.410124367649169 6.00805566941294  C 0.410124367649169 6.00805566941294  0.5 6  0.5 6  L 6 6  C 6 6  6 0.5  6 0.5  C 6 0.254540111186314  6.17687516056067 0.0503916296463411  6.41012436764917 0.00805566941293589  Z " fill-rule="nonzero" fill="#999999" stroke="none" transform="matrix(1 0 0 1 1072 640 )" />
  </g>
</svg>