<?xml version="1.0" encoding="utf-8"?>
<svg version="1.1" xmlns:xlink="http://www.w3.org/1999/xlink" width="7px" height="7px" xmlns="http://www.w3.org/2000/svg">
  <g transform="matrix(1 0 0 1 -238 -330 )">
    <path d="M 6.410124367649166 0.008055669412935893  C 6.410124367649166 0.008055669412935893  6.5 0  6.5 0  C 6.745459888813686 0  6.949608370353658 0.17687516056067396  6.991944330587064 0.41012436764916854  C 6.991944330587064 0.41012436764916854  7 0.5  7 0.5  C 7 0.5  7 6.5  7 6.5  C 7 6.745459888813686  6.823124839439325 6.949608370353658  6.5898756323508305 6.991944330587065  C 6.5898756323508305 6.991944330587065  6.5 7  6.5 7  C 6.5 7  0.5 7  0.5 7  C 0.22385762508460336 7  0 6.776142374915397  0 6.5  C 0 6.254540111186314  0.17687516056067396 6.050391629646342  0.4101243676491695 6.008055669412936  C 0.4101243676491695 6.008055669412936  0.5 6  0.5 6  L 6 6  C 6 6  6 0.5  6 0.5  C 5.999999999999998 0.254540111186314  6.176875160560671 0.05039162964634115  6.410124367649166 0.008055669412935893  Z " fill-rule="nonzero" fill="#999999" stroke="none" transform="matrix(1 0 0 1 238 330 )" />
  </g>
</svg>