<?xml version="1.0" encoding="utf-8"?>
<svg version="1.1" xmlns:xlink="http://www.w3.org/1999/xlink" width="12px" height="6px" xmlns="http://www.w3.org/2000/svg">
  <defs>
    <linearGradient gradientUnits="userSpaceOnUse" x1="4.950195544656708" y1="6.958729451850006" x2="4.950195544656708" y2="-0.3696016719997246" id="LinearGradient90">
      <stop id="Stop91" stop-color="#eceff2" stop-opacity="0" offset="0" />
      <stop id="Stop92" stop-color="#dde2e6" stop-opacity="0.6" offset="1" />
    </linearGradient>
  </defs>
  <g transform="matrix(1 0 0 1 -488 -1369 )">
    <path d="M 12 3.8319942075022624  C 12 2.8607068989171998  10.9337721102427 2.073046046681549  9.618264088852328 2.073046046681549  C 9.618264088852328 2.073046046681549  9.529411764705882 2.073046046681549  9.529411764705882 2.073046046681549  C 9.107363225010289 0.8818902179938992  7.57219251336898 0  5.745783628136569 0  C 3.7860962566844893 0  2.1645413410119274 1.0123616475053232  1.8856437679967077 2.3315727681208545  C 0.7799259563965377 2.6118447278120644  0 3.298027801538825  0 4.097769341692195  C 0 5.146373052950694  1.3451254627725204 5.999269619942053  3.0061703002879523 5.999269619942053  C 3.7568255515201487 6.013513860069642  4.496227343861659 5.8191524188340935  5.138626079802554 5.438725700559625  C 5.34020750855262 5.4610956836229  5.542911192543755 5.472388699525957  5.745783628136569 5.472551626729258  C 6.48134200994964 5.477071632950049  7.209061992461882 5.32453377067265  7.878239407651171 5.025566173773448  C 8.377230632388116 5.399414463915779  8.989953867473062 5.598503094500764  9.618264088852328 5.590942368322968  C 10.9337721102427 5.590942368322968  12 4.803281516087324  12 3.8319942075022624  Z " fill-rule="nonzero" fill="url(#LinearGradient90)" stroke="none" transform="matrix(1 0 0 1 488 1369 )" />
  </g>
</svg>