<?xml version="1.0" encoding="utf-8"?>
<svg version="1.1" xmlns:xlink="http://www.w3.org/1999/xlink" width="17px" height="9px" xmlns="http://www.w3.org/2000/svg">
  <defs>
    <linearGradient gradientUnits="userSpaceOnUse" x1="7.012777021597" y1="10.438094177775" x2="7.012777021597" y2="-0.554402507999587" id="LinearGradient156">
      <stop id="Stop157" stop-color="#eceff2" stop-opacity="0" offset="0" />
      <stop id="Stop158" stop-color="#dde2e6" stop-opacity="0.6" offset="1" />
    </linearGradient>
  </defs>
  <g transform="matrix(1 0 0 1 -1239 -1675 )">
    <path d="M 17 5.7480476152714  C 17 4.29553345815967  15.49312 3.10984596380326  13.6290133333333 3.10984596380326  C 13.6290133333333 3.10984596380326  13.5038933333333 3.10984596380326  13.5038933333333 3.10984596380326  C 12.9054933333333 1.32473800875003  10.7313066666667 0  8.14186666666667 0  C 5.36565333333333 0  3.06453333333333 1.51828129229791  2.67466666666667 3.496932530899  C 1.10794666666667 3.91972125709582  0 4.9456885660001  0 6.14452948739374  C 0 7.72106167085654  1.90944 8.99882315447358  4.26133333333333 8.99882315447358  C 5.32502927525014 9.02101189003266  6.3728507654975 8.72903158807627  7.28234666666666 8.15700382409059  C 7.56766467693408 8.19113463503234  7.85465402009207 8.20807467489075  8.14186666666667 8.20773847123421  C 9.18285963588163 8.21697674101553  10.2132491522179 7.99060347643075  11.1610666666667 7.54442993635654  C 11.8678896488211 8.10180759269234  12.7355165724849 8.39576164772972  13.6235733333333 8.37873302271826  C 15.48768 8.37873302271826  17 7.20056177238313  17 5.7480476152714  Z " fill-rule="nonzero" fill="url(#LinearGradient156)" stroke="none" transform="matrix(1 0 0 1 1239 1675 )" />
  </g>
</svg>