<?xml version="1.0" encoding="utf-8"?>
<svg version="1.1" xmlns:xlink="http://www.w3.org/1999/xlink" width="12px" height="6px" xmlns="http://www.w3.org/2000/svg">
  <defs>
    <linearGradient gradientUnits="userSpaceOnUse" x1="4.95019554465671" y1="6.95872945185001" x2="4.95019554465671" y2="-0.369601671999725" id="LinearGradient162">
      <stop id="Stop163" stop-color="#eceff2" stop-opacity="0" offset="0" />
      <stop id="Stop164" stop-color="#dde2e6" stop-opacity="0.6" offset="1" />
    </linearGradient>
  </defs>
  <g transform="matrix(1 0 0 1 -1322 -1679 )">
    <path d="M 12 3.83199420750226  C 12 2.8607068989172  10.9337721102427 2.07304604668155  9.61826408885233 2.07304604668155  C 9.61826408885233 2.07304604668155  9.52941176470588 2.07304604668155  9.52941176470588 2.07304604668155  C 9.10736322501029 0.881890217993899  7.57219251336898 0  5.74578362813657 0  C 3.78609625668449 0  2.16454134101193 1.01236164750532  1.88564376799671 2.33157276812085  C 0.779925956396538 2.61184472781206  0 3.29802780153882  0 4.09776934169219  C 0 5.14637305295069  1.34512546277252 5.99926961994205  3.00617030028795 5.99926961994205  C 3.75682555152015 6.01351386006964  4.49622734386166 5.81915241883409  5.13862607980255 5.43872570055963  C 5.34020750855262 5.4610956836229  5.54291119254376 5.47238869952596  5.74578362813657 5.47255162672926  C 6.48134200994964 5.47707163295005  7.20906199246188 5.32453377067265  7.87823940765117 5.02556617377345  C 8.37723063238812 5.39941446391578  8.98995386747306 5.59850309450076  9.61826408885233 5.59094236832297  C 10.9337721102427 5.59094236832297  12 4.80328151608732  12 3.83199420750226  Z " fill-rule="nonzero" fill="url(#LinearGradient162)" stroke="none" transform="matrix(1 0 0 1 1322 1679 )" />
  </g>
</svg>