<?xml version="1.0" encoding="utf-8"?>
<svg version="1.1" xmlns:xlink="http://www.w3.org/1999/xlink" width="22px" height="11px" xmlns="http://www.w3.org/2000/svg">
  <defs>
    <linearGradient gradientUnits="userSpaceOnUse" x1="9.075358498537298" y1="12.75767066172501" x2="9.075358498537298" y2="-0.6776030653328284" id="LinearGradient87">
      <stop id="Stop88" stop-color="#eceff2" stop-opacity="0" offset="0" />
      <stop id="Stop89" stop-color="#dde2e6" stop-opacity="0.6" offset="1" />
    </linearGradient>
  </defs>
  <g transform="matrix(1 0 0 1 -470 -1339 )">
    <path d="M 22 7.014466245427346  C 22 5.234785500498845  20.044153859217126 3.8007981376787496  17.630635985395266 3.8007981376787496  C 17.576462596586566 3.8007981376787496  17.52415725566783 3.8007981376787496  17.469983866859135 3.8007981376787496  C 16.694743992527812 1.6168939142001997  13.883331918145542 0  10.532054003566277 0  C 6.941665959072779 0  3.969601766154374 1.8565014965081486  3.4596246921966554 4.274526105753242  C 1.4327927315954856 4.790322580645161  0 6.045061523112736  0 7.5119720651812445  C 0 9.437978051213836  2.4676912626305523 11  5.512609323257195 11  C 7.040672497240378 11  8.42302793580708 10.606750914532757  9.420565509043044 9.972065181243764  C 9.789685022528628 10.011723226621745  10.160719367680924 10.031872173048482  10.532054003566266 10.032424343199203  C 11.882043074806784 10.042458484884984  13.217883707220043 9.762760143095663  14.445614333021982 9.213002993016298  C 15.359031052915547 9.895970316588912  16.481543032066064 10.256316282568424  17.630635985395266 10.235450615231137  C 20.044153859217126 10.235450615231137  22 8.794146990355845  22 7.014466245427346  Z " fill-rule="nonzero" fill="url(#LinearGradient87)" stroke="none" transform="matrix(1 0 0 1 470 1339 )" />
  </g>
</svg>