<?xml version="1.0" encoding="utf-8"?>
<svg version="1.1" xmlns:xlink="http://www.w3.org/1999/xlink" width="17px" height="9px" xmlns="http://www.w3.org/2000/svg">
  <defs>
    <linearGradient gradientUnits="userSpaceOnUse" x1="7.012777021597003" y1="10.438094177775008" x2="7.012777021597003" y2="-0.5544025079995869" id="LinearGradient84">
      <stop id="Stop85" stop-color="#eceff2" stop-opacity="0" offset="0" />
      <stop id="Stop86" stop-color="#dde2e6" stop-opacity="0.6" offset="1" />
    </linearGradient>
  </defs>
  <g transform="matrix(1 0 0 1 -405 -1365 )">
    <path d="M 17 5.748047615271403  C 17 4.295533458159673  15.493119999999996 3.1098459638032563  13.629013333333328 3.1098459638032563  C 13.629013333333328 3.1098459638032563  13.503893333333329 3.1098459638032563  13.503893333333329 3.1098459638032563  C 12.905493333333332 1.3247380087500285  10.731306666666663 0  8.141866666666665 0  C 5.3656533333333325 0  3.0645333333333324 1.5182812922979052  2.674666666666666 3.4969325308990027  C 1.1079466666666662 3.91972125709582  0 4.945688566000097  0 6.144529487393738  C 0 7.721061670856538  1.90944 8.998823154473582  4.261333333333332 8.998823154473582  C 5.325029275250143 9.021011890032657  6.372850765497503 8.729031588076268  7.2823466666666645 8.157003824090587  C 7.567664676934084 8.191134635032343  7.854654020092073 8.20807467489075  8.141866666666665 8.207738471234208  C 9.182859635881625 8.216976741015529  10.213249152217912 7.990603476430753  11.161066666666667 7.54442993635654  C 11.867889648821109 8.101807592692344  12.735516572484908 8.39576164772972  13.623573333333333 8.378733022718263  C 15.48768 8.378733022718263  17 7.200561772383132  17 5.748047615271403  Z " fill-rule="nonzero" fill="url(#LinearGradient84)" stroke="none" transform="matrix(1 0 0 1 405 1365 )" />
  </g>
</svg>