<?xml version="1.0" encoding="utf-8"?>
<svg version="1.1" xmlns:xlink="http://www.w3.org/1999/xlink" width="16px" height="18px" xmlns="http://www.w3.org/2000/svg">
  <g transform="matrix(1 0 0 1 -446 -1341 )">
    <path d="M 5.422740361878937 12.03945669401503  C 5.355537040374713 11.876913872633736  5.311968946518732 11.706981439376136  5.295684685662138 11.561417960979611  C 5.346766963345033 11.52114061258635  5.398051725152868 11.481161185695896  5.449522796497888 11.441491318390717  C 5.449522796497888 11.441491318390717  5.144296619747365 11.045464828082004  5.144296619747365 11.045464828082004  C 4.984827285678648 11.1683712910027  4.8270985587032555 11.29416621766461  4.671555051237306 11.422530703003645  C 4.671555051237306 11.422530703003645  4.73495227753159 11.499351226339058  4.7949414717003265 11.585580175571863  C 4.82039849866095 11.809447776337606  4.875580666639507 12.024679595017005  4.96067594682097 12.230497203690675  C 4.96067594682097 12.230497203690675  5.422740361878937 12.03945669401503  5.422740361878937 12.03945669401503  Z M 14.719661265787579 1.6089406829048585  L 14.440337395307324 1.1942381685889814  L 13.945222911595124 1.5301577406362412  L 14.22736859272868 1.9429455973104268  L 14.719661265787579 1.6089406829048585  Z M 13.452433697708102 1.869593341483096  C 13.286737035783517 1.9846269804720578  13.123259388174631 2.0990540474707586  12.962015277542719 2.2128681835075668  C 12.962015277542719 2.2128681835075668  13.25034802263616 2.621358364670982  13.25034802263616 2.621358364670982  L 13.737575598960802 2.2803172099762605  C 13.737575598960802 2.2803172099762605  13.452433697708102 1.869593341483096  13.452433697708102 1.869593341483096  Z M 11.990491308242497 2.911014806001617  C 11.990491308242497 2.911014806001617  12.285872978929376 3.314437250372521  12.285872978929376 3.314437250372521  C 12.443561333890841 3.198979495390631  12.603736526909074 3.0828205281260352  12.76638228994068 2.9659678929045867  C 12.76638228994068 2.9659678929045867  12.474644946770297 2.5599022299879834  12.474644946770297 2.5599022299879834  C 12.310788942746058 2.677624361263952  12.149399148547445 2.7946641566772996  11.990491308242497 2.911014806001617  Z M 11.333662644286164 4.026228218370534  L 11.807731489357138 3.6680777780964036  C 11.807731489357138 3.6680777780964036  11.508423993671784 3.267559335291935  11.508423993671784 3.267559335291935  C 11.346197889387838 3.3887909286937656  11.186758092517266 3.5092430555458805  11.03012208551661 3.628908285341936  C 11.03012208551661 3.628908285341936  11.333662644286164 4.026228218370534  11.333662644286164 4.026228218370534  Z M 10.86325395137635 4.389882337255813  C 10.86325395137635 4.389882337255813  10.555122430585755 3.9961121429860214  10.555122430585755 3.9961121429860214  C 10.395405401562641 4.121093291293391  10.2388582529058 4.245178810358993  10.08550057826892 4.368360590700718  C 10.08550057826892 4.368360590700718  10.398615708633315 4.758179670706909  10.398615708633315 4.758179670706909  C 10.550305809911492 4.636337338525664  10.705192087178943 4.5135682924217235  10.86325395137635 4.389882337255813  Z M 9.618989596229085 4.748428667197004  C 9.462057308467024 4.878166591849663  9.308802563704887 5.006856483391971  9.159247939686281 5.1344893887865055  C 9.159247939686281 5.1344893887865055  9.483826645008378 5.514816437589843  9.483826645008378 5.514816437589843  C 9.631376037003804 5.388894837283942  9.782633032972626 5.261882479940937  9.937573639424727 5.133791103639737  C 9.937573639424727 5.133791103639737  9.618989596229085 4.748428667197004  9.618989596229085 4.748428667197004  Z M 8.260156883785783 5.9300846750190885  C 8.260156883785783 5.9300846750190885  8.598722368722349 6.298015935460057  8.598722368722349 6.298015935460057  C 8.740784035832576 6.167292666231901  8.88722875377158 6.035259386791722  9.038027764086166 5.901930817497373  C 9.038027764086166 5.901930817497373  8.706839154191357 5.5273455739600195  8.706839154191357 5.5273455739600195  C 8.553587076324845 5.662843016819238  8.404684073974579 5.797092664027332  8.260156883785783 5.9300846750190885  Z M 7.747876948703436 7.118418285967778  C 7.8824131934106845 6.9818415661007975  8.022271959401053 6.843644330229154  8.167417489451907 6.703846381643757  C 8.167417489451907 6.703846381643757  7.820560371196791 6.343721209633031  7.820560371196791 6.343721209633031  C 7.67230031940386 6.486518931964156  7.529326765336521 6.627793952052798  7.391672700748188 6.767535778939305  C 7.391672700748188 6.767535778939305  7.747876948703436 7.118418285967778  7.747876948703436 7.118418285967778  Z M 7.339368311556598 7.545806723200712  C 7.339368311556598 7.545806723200712  6.972462339727258 7.206130395152968  6.972462339727258 7.206130395152968  C 6.831334118298628 7.358571948950498  6.69687989387603 7.509093391366946  6.569143171500514 7.657684905820929  C 6.569143171500514 7.657684905820929  6.948301333046118 7.983628288225532  6.948301333046118 7.983628288225532  C 7.071971129310839 7.839767681992271  7.202342216956538 7.693817309320025  7.339368311556598 7.545806723200712  Z M 6.183738223415446 8.12610665226407  C 6.053577337151296 8.291969437092575  5.932310591924306 8.45530224002573  5.820003298614324 8.616100969365789  C 5.820003298614324 8.616100969365789  6.229920618079291 8.902401146108105  6.229920618079291 8.902401146108105  C 6.336800033822044 8.749373913970999  6.452540643608984 8.593484200147827  6.577081510390428 8.43478295292823  C 6.577081510390428 8.43478295292823  6.183738223415446 8.12610665226407  6.183738223415446 8.12610665226407  Z M 5.191067861039812 9.679024368534101  C 5.191067861039812 9.679024368534101  5.642538903235959 9.893905493946022  5.642538903235959 9.893905493946022  C 5.720582433047355 9.729933932120503  5.811103689337926 9.561687783244452  5.914037293399645 9.389266844430608  C 5.914037293399645 9.389266844430608  5.48472180813593 9.132969723664928  5.48472180813593 9.132969723664928  C 5.373951716200224 9.318517324160894  5.2760233214053756 9.500530654123622  5.191067861039812 9.679024368534101  Z M 5.245599015148173 12.779745825194823  C 5.355561337955805 12.966547920838593  5.470747087451684 13.139985911968665  5.590920867510022 13.300117825993766  C 5.590920867510022 13.300117825993766  5.990831130293998 12.999998213638946  5.990831130293998 12.999998213638946  C 5.882013489730127 12.85499838876251  5.777134501721719 12.697079539672814  5.676486730706188 12.526100843811037  C 5.676486730706188 12.526100843811037  5.245599015148173 12.779745825194823  5.245599015148173 12.779745825194823  Z M 0.8833543834696798 16.1459036294375  C 0.8833543834696798 16.1459036294375  1.344542845895603 16.339049175917808  1.344542845895603 16.339049175917808  C 1.4171670246159351 16.165638844023874  1.4984633093502566 15.991077712654373  1.5881974359026003 15.815635740054972  C 1.5881974359026003 15.815635740054972  1.1430456995162785 15.587951898748088  1.1430456995162785 15.587951898748088  C 1.0476141277670195 15.77453312307398  0.960960022692575 15.960598681531565  0.8833543834696798 16.1459036294375  Z M 6.498138413161826 14.19510632665947  C 6.498138413161826 14.19510632665947  6.783742482795958 13.78470370068294  6.783742482795958 13.78470370068294  C 6.6388802690093485 13.683892362804158  6.497843635805793 13.565488497730712  6.361235974755573 13.429120944209899  C 6.361235974755573 13.429120944209899  6.007993704471119 13.782985181572599  6.007993704471119 13.782985181572599  C 6.16519237782353 13.939907555742366  6.328809514640454 14.077268331814025  6.498138413161826 14.19510632665947  Z M 7.781307516968809 14.195847744697858  C 7.606713522520749 14.16843190850284  7.434012410530784 14.11988774044039  7.264476027752835 14.049580725464011  C 7.264476027752835 14.049580725464011  7.0729419194644265 14.511440753353554  7.0729419194644265 14.511440753353554  C 7.279128826195745 14.596946800503815  7.490092619272673 14.656246139739096  7.703744821347755 14.689795138908949  C 7.703744821347755 14.689795138908949  7.781307516968809 14.195847744697858  7.781307516968809 14.195847744697858  Z M 8.355812483121326 14.210794657379665  C 8.355812483121326 14.210794657379665  8.406810567484001 14.708187053171287  8.406810567484001 14.708187053171287  C 8.623453659240397 14.68597444444731  8.837326725315222 14.638426064292844  9.044658983317277 14.567491375930217  C 9.044658983317277 14.567491375930217  8.88280445721631 14.094413039520077  8.88280445721631 14.094413039520077  C 8.710940691039866 14.15321287516565  8.53421284004753 14.192503110243365  8.355812483121326 14.210794657379665  Z M 9.608485108855689 14.306874765924249  C 9.797859879555517 14.194562332262763  9.973303078069023 14.062813481521744  10.129285596069792 13.916349677057497  C 10.129285596069792 13.916349677057497  9.787028844242172 13.551849586757953  9.787028844242172 13.551849586757953  C 9.657699252563816 13.673286939288232  9.5115086420696 13.783068595601662  9.353432081537107 13.876819009939481  C 9.353432081537107 13.876819009939481  9.608485108855689 14.306874765924249  9.608485108855689 14.306874765924249  Z M 10.33519996085181 12.620732811340986  C 10.323006430215628 12.682895527142819  10.308352161089488 12.740309127825526  10.28567593596756 12.813108904778801  C 10.25385033483741 12.910722987714053  10.206316193389796 13.01319459987269  10.145088700580175 13.11485357086201  C 10.145088700580175 13.11485357086201  10.573403117287455 13.372820158699824  10.573403117287455 13.372820158699824  C 10.65370730887247 13.23948722102682  10.717198620275212 13.102615977761047  10.762066670925208 12.964902533730765  C 10.790998231447986 12.872091650761604  10.810112897313616 12.797202771367438  10.825849736085615 12.716976242612986  C 10.825849736085615 12.716976242612986  10.33519996085181 12.620732811340986  10.33519996085181 12.620732811340986  Z M 10.292002891875711 11.539967209059569  C 10.336021739834962 11.720947914609951  10.362583936793499 11.904322553984684  10.370870891334619 12.08278300432255  C 10.370870891334619 12.08278300432255  10.87033269058412 12.059590093974293  10.87033269058412 12.059590093974293  C 10.860548119119983 11.848878303389483  10.829380793270957 11.633711721093619  10.777838842388974 11.42180025433504  C 10.777838842388974 11.42180025433504  10.292002891875711 11.539967209059569  10.292002891875711 11.539967209059569  Z M 10.098872541795572 10.99084846684707  C 10.098872541795572 10.99084846684707  10.551067082490363 10.777494073018715  10.551067082490363 10.777494073018715  C 10.456126389161966 10.576271766589798  10.342356575694055 10.389182094784701  10.211597548455245 10.221396767195074  C 10.211597548455245 10.221396767195074  9.81721702087799 10.528746729726208  9.81721702087799 10.528746729726208  C 9.924749998607524 10.666729217635634  10.019330498848717 10.822262871158728  10.098872541795572 10.99084846684707  Z M 9.732266195035038 9.752598971420866  C 9.54678214570771 9.617251490259378  9.344302270444985 9.514004621504228  9.127243165243328 9.446362621895105  C 9.127243165243328 9.446362621895105  8.978484327810975 9.92372077704249  8.978484327810975 9.92372077704249  C 9.1423057472972 9.974772348376405  9.295653693236943 10.052966268773503  9.437539821809821 10.156500401135418  C 9.437539821809821 10.156500401135418  9.732266195035038 9.752598971420866  9.732266195035038 9.752598971420866  Z M 7.777819324163318 9.461765857878618  C 7.777819324163318 9.461765857878618  7.918002133474317 9.94171250071895  7.918002133474317 9.94171250071895  C 8.101540760222065 9.888104540962559  8.27706619390915 9.85922955892147  8.444318903531382 9.853840049977748  C 8.444318903531382 9.853840049977748  8.428215388732099 9.35409944045  8.428215388732099 9.35409944045  C 8.218090414815947 9.360870454377277  8.000969624688764 9.39658812095115  7.777819324163318 9.461765857878618  Z M 6.405095747097903 10.75508377448125  C 6.405095747097903 10.75508377448125  6.127509087794067 10.339216431958903  6.127509087794067 10.339216431958903  C 5.961030078992906 10.45033925207997  5.795064938158475 10.565321562078452  5.630149063652482 10.683815494792157  C 5.630149063652482 10.683815494792157  5.921903196427024 11.089869094713436  5.921903196427024 11.089869094713436  C 6.0821637558593125 10.974720058861521  6.243406053076058 10.863009782171957  6.405095747097903 10.75508377448125  Z M 3.7623225296421765 12.22643168623631  C 3.7623225296421765 12.22643168623631  4.106312693670077 12.589296353918485  4.106312693670077 12.589296353918485  C 4.247767587036208 12.455199275020277  4.392400351888 12.322833244854564  4.539837853055872 12.19249332293316  C 4.539837853055872 12.19249332293316  4.208672883718407 11.817887178985075  4.208672883718407 11.817887178985075  C 4.056913693241597 11.952047625824662  3.9080049610082597 12.088326965868646  3.7623225296421765 12.22643168623631  Z M 15.710744501776333 0.9505003914970303  L 15.436604418348622 0.5323530315170046  L 14.937365170797193 0.8617968762068813  L 15.214026182541204 1.278280590871418  L 15.710744501776333 0.9505003914970303  Z M 5.301865835223964 10.963778408247094  C 5.3256770562712745 10.791300306646804  5.3677613113432585 10.612059073820205  5.428170149379412 10.426141888152415  C 5.428170149379412 10.426141888152415  4.952642404303731 10.271631811900988  4.952642404303731 10.271631811900988  C 4.8833530911016965 10.484879980979485  4.834530108324543 10.692822158125864  4.806563490533222 10.89540014164254  C 4.806563490533222 10.89540014164254  5.301865835223964 10.963778408247094  5.301865835223964 10.963778408247094  Z M 2.8989707836944376 13.87082032177966  C 2.8989707836944376 13.87082032177966  2.5149347543168687 13.550638610653095  2.5149347543168687 13.550638610653095  C 2.3834107386874734 13.708392657729632  2.2571055794183508 13.866992987590038  2.1363092500940866 14.026182542803326  C 2.1363092500940866 14.026182542803326  2.5346165230865267 14.328426345521166  2.5346165230865267 14.328426345521166  C 2.6507442091132702 14.175389288932024  2.7722902512762175 14.022764942533172  2.8989707836944376 13.87082032177966  Z M 3.27948261284547 13.433434537611788  C 3.409540019415715 13.289961157355947  3.5438402415272208 13.147547584005792  3.6820618728921204 13.006471339503832  C 3.6820618728921204 13.006471339503832  3.324913581358544 12.656549779929946  3.324913581358544 12.656549779929946  C 3.182202281393245 12.802208415617315  3.0434673286340512 12.949324630768388  2.9090336650867243 13.097625697489207  C 2.9090336650867243 13.097625697489207  3.27948261284547 13.433434537611788  3.27948261284547 13.433434537611788  Z M 6.6370392078408145 10.012171769448628  C 6.6370392078408145 10.012171769448628  6.899365408277674 10.437830041498387  6.899365408277674 10.437830041498387  C 6.990411923640636 10.38171956977385  7.080391435083186 10.327555473982898  7.1766671432508815 10.270932478296459  C 7.253450700868484 10.225962449389726  7.3296858435755325 10.184504395434033  7.404954168998643 10.14674620936512  C 7.404954168998643 10.14674620936512  7.180758437234658 9.699827565920032  7.180758437234658 9.699827565920032  C 7.095722093606469 9.742485856340181  7.009991674809271 9.789107613733563  6.92358326587987 9.839715198209092  C 6.823962825987792 9.898304860121016  6.731033784925444 9.954244455715184  6.6370392078408145 10.012171769448628  Z M 1.7764079123797956 14.526268046517998  C 1.6597910016447486 14.697628996443541  1.5499335152501317 14.869201738730112  1.4471063636299846 15.04073904569566  C 1.4471063636299846 15.04073904569566  1.875957828664582 15.297811838767302  1.875957828664582 15.297811838767302  C 1.973789116928856 15.134608682194198  2.0784783076937856 14.97110765794207  2.189768543791729 14.807573909234634  C 2.189768543791729 14.807573909234634  1.7764079123797956 14.526268046517998  1.7764079123797956 14.526268046517998  Z M 4.7949414717003265 11.585580175571863  C 4.7949414717003265 11.585580175571863  5.291739734077169 11.529086932619066  5.295684685710512 11.561417960941412  C 5.192861113504364 11.642492279249495  5.090857960559276 11.724773707198096  4.989807143801272 11.808167326755438  C 4.989807143801272 11.808167326755438  4.892244428550441 11.689947346455256  4.7949414717003265 11.585580175571863  Z M 1.0308552705076863 17.292813275460844  C 1.063301314472369 17.154883152861316  1.1018846406896046 17.015762097784204  1.146514320556662 16.875565987500295  C 1.146514320556662 16.875565987500295  0.670072866836108 16.723896804154947  0.670072866836108 16.723896804154947  C 0.6215873415377473 16.876205359182563  0.5795674902875021 17.027717595510012  0.5441403126076807 17.178320700346262  C 0.5441403126076807 17.178320700346262  1.0308552705076863 17.292813275460844  1.0308552705076863 17.292813275460844  Z " fill-rule="nonzero" fill="#969fa6" stroke="none" transform="matrix(1 0 0 1 446 1341 )" />
  </g>
</svg>