<?xml version="1.0" encoding="utf-8"?>
<svg version="1.1" xmlns:xlink="http://www.w3.org/1999/xlink" width="22px" height="11px" xmlns="http://www.w3.org/2000/svg">
  <defs>
    <linearGradient gradientUnits="userSpaceOnUse" x1="9.0753584985373" y1="12.757670661725" x2="9.0753584985373" y2="-0.677603065332828" id="LinearGradient159">
      <stop id="Stop160" stop-color="#eceff2" stop-opacity="0" offset="0" />
      <stop id="Stop161" stop-color="#dde2e6" stop-opacity="0.6" offset="1" />
    </linearGradient>
  </defs>
  <g transform="matrix(1 0 0 1 -1304 -1649 )">
    <path d="M 22 7.01446624542735  C 22 5.23478550049884  20.0441538592171 3.80079813767875  17.6306359853953 3.80079813767875  C 17.5764625965866 3.80079813767875  17.5241572556678 3.80079813767875  17.4699838668591 3.80079813767875  C 16.6947439925278 1.6168939142002  13.8833319181455 0  10.5320540035663 0  C 6.94166595907278 0  3.96960176615437 1.85650149650815  3.45962469219666 4.27452610575324  C 1.43279273159549 4.79032258064516  0 6.04506152311274  0 7.51197206518124  C 0 9.43797805121384  2.46769126263055 11  5.51260932325719 11  C 7.04067249724038 11  8.42302793580708 10.6067509145328  9.42056550904304 9.97206518124376  C 9.78968502252863 10.0117232266217  10.1607193676809 10.0318721730485  10.5320540035663 10.0324243431992  C 11.8820430748068 10.042458484885  13.21788370722 9.76276014309566  14.445614333022 9.2130029930163  C 15.3590310529155 9.89597031658891  16.4815430320661 10.2563162825684  17.6306359853953 10.2354506152311  C 20.0441538592171 10.2354506152311  22 8.79414699035584  22 7.01446624542735  Z " fill-rule="nonzero" fill="url(#LinearGradient159)" stroke="none" transform="matrix(1 0 0 1 1304 1649 )" />
  </g>
</svg>