<?xml version="1.0" encoding="utf-8"?>
<svg version="1.1" xmlns:xlink="http://www.w3.org/1999/xlink" width="16px" height="18px" xmlns="http://www.w3.org/2000/svg">
  <g transform="matrix(1 0 0 1 -1280 -1651 )">
    <path d="M 5.42274036187894 12.039456694015  C 5.35553704037471 11.8769138726337  5.31196894651873 11.7069814393761  5.29568468566214 11.5614179609796  C 5.34676696334503 11.5211406125864  5.39805172515287 11.4811611856959  5.44952279649789 11.4414913183907  C 5.44952279649789 11.4414913183907  5.14429661974737 11.045464828082  5.14429661974737 11.045464828082  C 4.98482728567865 11.1683712910027  4.82709855870326 11.2941662176646  4.67155505123731 11.4225307030036  C 4.67155505123731 11.4225307030036  4.73495227753159 11.4993512263391  4.79494147170033 11.5855801755719  C 4.82039849866095 11.8094477763376  4.87558066663951 12.024679595017  4.96067594682097 12.2304972036907  C 4.96067594682097 12.2304972036907  5.42274036187894 12.039456694015  5.42274036187894 12.039456694015  Z M 14.7196612657876 1.60894068290486  L 14.4403373953073 1.19423816858898  L 13.9452229115951 1.53015774063624  L 14.2273685927287 1.94294559731043  L 14.7196612657876 1.60894068290486  Z M 13.4524336977081 1.8695933414831  C 13.2867370357835 1.98462698047206  13.1232593881746 2.09905404747076  12.9620152775427 2.21286818350757  C 12.9620152775427 2.21286818350757  13.2503480226362 2.62135836467098  13.2503480226362 2.62135836467098  L 13.7375755989608 2.28031720997626  C 13.7375755989608 2.28031720997626  13.4524336977081 1.8695933414831  13.4524336977081 1.8695933414831  Z M 11.9904913082425 2.91101480600162  C 11.9904913082425 2.91101480600162  12.2858729789294 3.31443725037252  12.2858729789294 3.31443725037252  C 12.4435613338908 3.19897949539063  12.6037365269091 3.08282052812604  12.7663822899407 2.96596789290459  C 12.7663822899407 2.96596789290459  12.4746449467703 2.55990222998798  12.4746449467703 2.55990222998798  C 12.3107889427461 2.67762436126395  12.1493991485474 2.7946641566773  11.9904913082425 2.91101480600162  Z M 11.3336626442862 4.02622821837053  L 11.8077314893571 3.6680777780964  C 11.8077314893571 3.6680777780964  11.5084239936718 3.26755933529193  11.5084239936718 3.26755933529193  C 11.3461978893878 3.38879092869377  11.1867580925173 3.50924305554588  11.0301220855166 3.62890828534194  C 11.0301220855166 3.62890828534194  11.3336626442862 4.02622821837053  11.3336626442862 4.02622821837053  Z M 10.8632539513764 4.38988233725581  C 10.8632539513764 4.38988233725581  10.5551224305858 3.99611214298602  10.5551224305858 3.99611214298602  C 10.3954054015626 4.12109329129339  10.2388582529058 4.24517881035899  10.0855005782689 4.36836059070072  C 10.0855005782689 4.36836059070072  10.3986157086333 4.75817967070691  10.3986157086333 4.75817967070691  C 10.5503058099115 4.63633733852566  10.7051920871789 4.51356829242172  10.8632539513764 4.38988233725581  Z M 9.61898959622908 4.748428667197  C 9.46205730846702 4.87816659184966  9.30880256370489 5.00685648339197  9.15924793968628 5.13448938878651  C 9.15924793968628 5.13448938878651  9.48382664500838 5.51481643758984  9.48382664500838 5.51481643758984  C 9.6313760370038 5.38889483728394  9.78263303297263 5.26188247994094  9.93757363942473 5.13379110363974  C 9.93757363942473 5.13379110363974  9.61898959622908 4.748428667197  9.61898959622908 4.748428667197  Z M 8.26015688378578 5.93008467501909  C 8.26015688378578 5.93008467501909  8.59872236872235 6.29801593546006  8.59872236872235 6.29801593546006  C 8.74078403583258 6.1672926662319  8.88722875377158 6.03525938679172  9.03802776408617 5.90193081749737  C 9.03802776408617 5.90193081749737  8.70683915419136 5.52734557396002  8.70683915419136 5.52734557396002  C 8.55358707632485 5.66284301681924  8.40468407397458 5.79709266402733  8.26015688378578 5.93008467501909  Z M 7.74787694870344 7.11841828596778  C 7.88241319341068 6.9818415661008  8.02227195940105 6.84364433022915  8.16741748945191 6.70384638164376  C 8.16741748945191 6.70384638164376  7.82056037119679 6.34372120963303  7.82056037119679 6.34372120963303  C 7.67230031940386 6.48651893196416  7.52932676533652 6.6277939520528  7.39167270074819 6.7675357789393  C 7.39167270074819 6.7675357789393  7.74787694870344 7.11841828596778  7.74787694870344 7.11841828596778  Z M 7.3393683115566 7.54580672320071  C 7.3393683115566 7.54580672320071  6.97246233972726 7.20613039515297  6.97246233972726 7.20613039515297  C 6.83133411829863 7.3585719489505  6.69687989387603 7.50909339136695  6.56914317150051 7.65768490582093  C 6.56914317150051 7.65768490582093  6.94830133304612 7.98362828822553  6.94830133304612 7.98362828822553  C 7.07197112931084 7.83976768199227  7.20234221695654 7.69381730932002  7.3393683115566 7.54580672320071  Z M 6.18373822341545 8.12610665226407  C 6.0535773371513 8.29196943709258  5.93231059192431 8.45530224002573  5.82000329861432 8.61610096936579  C 5.82000329861432 8.61610096936579  6.22992061807929 8.9024011461081  6.22992061807929 8.9024011461081  C 6.33680003382204 8.749373913971  6.45254064360898 8.59348420014783  6.57708151039043 8.43478295292823  C 6.57708151039043 8.43478295292823  6.18373822341545 8.12610665226407  6.18373822341545 8.12610665226407  Z M 5.19106786103981 9.6790243685341  C 5.19106786103981 9.6790243685341  5.64253890323596 9.89390549394602  5.64253890323596 9.89390549394602  C 5.72058243304735 9.7299339321205  5.81110368933793 9.56168778324445  5.91403729339964 9.38926684443061  C 5.91403729339964 9.38926684443061  5.48472180813593 9.13296972366493  5.48472180813593 9.13296972366493  C 5.37395171620022 9.31851732416089  5.27602332140538 9.50053065412362  5.19106786103981 9.6790243685341  Z M 5.24559901514817 12.7797458251948  C 5.35556133795581 12.9665479208386  5.47074708745168 13.1399859119687  5.59092086751002 13.3001178259938  C 5.59092086751002 13.3001178259938  5.990831130294 12.9999982136389  5.990831130294 12.9999982136389  C 5.88201348973013 12.8549983887625  5.77713450172172 12.6970795396728  5.67648673070619 12.526100843811  C 5.67648673070619 12.526100843811  5.24559901514817 12.7797458251948  5.24559901514817 12.7797458251948  Z M 0.88335438346968 16.1459036294375  C 0.88335438346968 16.1459036294375  1.3445428458956 16.3390491759178  1.3445428458956 16.3390491759178  C 1.41716702461594 16.1656388440239  1.49846330935026 15.9910777126544  1.5881974359026 15.815635740055  C 1.5881974359026 15.815635740055  1.14304569951628 15.5879518987481  1.14304569951628 15.5879518987481  C 1.04761412776702 15.774533123074  0.960960022692575 15.9605986815316  0.88335438346968 16.1459036294375  Z M 6.49813841316183 14.1951063266595  C 6.49813841316183 14.1951063266595  6.78374248279596 13.7847037006829  6.78374248279596 13.7847037006829  C 6.63888026900935 13.6838923628042  6.49784363580579 13.5654884977307  6.36123597475557 13.4291209442099  C 6.36123597475557 13.4291209442099  6.00799370447112 13.7829851815726  6.00799370447112 13.7829851815726  C 6.16519237782353 13.9399075557424  6.32880951464045 14.077268331814  6.49813841316183 14.1951063266595  Z M 7.78130751696881 14.1958477446979  C 7.60671352252075 14.1684319085028  7.43401241053078 14.1198877404404  7.26447602775283 14.049580725464  C 7.26447602775283 14.049580725464  7.07294191946443 14.5114407533536  7.07294191946443 14.5114407533536  C 7.27912882619574 14.5969468005038  7.49009261927267 14.6562461397391  7.70374482134775 14.6897951389089  C 7.70374482134775 14.6897951389089  7.78130751696881 14.1958477446979  7.78130751696881 14.1958477446979  Z M 8.35581248312133 14.2107946573797  C 8.35581248312133 14.2107946573797  8.406810567484 14.7081870531713  8.406810567484 14.7081870531713  C 8.6234536592404 14.6859744444473  8.83732672531522 14.6384260642928  9.04465898331728 14.5674913759302  C 9.04465898331728 14.5674913759302  8.88280445721631 14.0944130395201  8.88280445721631 14.0944130395201  C 8.71094069103987 14.1532128751657  8.53421284004753 14.1925031102434  8.35581248312133 14.2107946573797  Z M 9.60848510885569 14.3068747659242  C 9.79785987955552 14.1945623322628  9.97330307806902 14.0628134815217  10.1292855960698 13.9163496770575  C 10.1292855960698 13.9163496770575  9.78702884424217 13.551849586758  9.78702884424217 13.551849586758  C 9.65769925256382 13.6732869392882  9.5115086420696 13.7830685956017  9.35343208153711 13.8768190099395  C 9.35343208153711 13.8768190099395  9.60848510885569 14.3068747659242  9.60848510885569 14.3068747659242  Z M 10.3351999608518 12.620732811341  C 10.3230064302156 12.6828955271428  10.3083521610895 12.7403091278255  10.2856759359676 12.8131089047788  C 10.2538503348374 12.9107229877141  10.2063161933898 13.0131945998727  10.1450887005802 13.114853570862  C 10.1450887005802 13.114853570862  10.5734031172875 13.3728201586998  10.5734031172875 13.3728201586998  C 10.6537073088725 13.2394872210268  10.7171986202752 13.102615977761  10.7620666709252 12.9649025337308  C 10.790998231448 12.8720916507616  10.8101128973136 12.7972027713674  10.8258497360856 12.716976242613  C 10.8258497360856 12.716976242613  10.3351999608518 12.620732811341  10.3351999608518 12.620732811341  Z M 10.2920028918757 11.5399672090596  C 10.336021739835 11.72094791461  10.3625839367935 11.9043225539847  10.3708708913346 12.0827830043226  C 10.3708708913346 12.0827830043226  10.8703326905841 12.0595900939743  10.8703326905841 12.0595900939743  C 10.86054811912 11.8488783033895  10.829380793271 11.6337117210936  10.777838842389 11.421800254335  C 10.777838842389 11.421800254335  10.2920028918757 11.5399672090596  10.2920028918757 11.5399672090596  Z M 10.0988725417956 10.9908484668471  C 10.0988725417956 10.9908484668471  10.5510670824904 10.7774940730187  10.5510670824904 10.7774940730187  C 10.456126389162 10.5762717665898  10.3423565756941 10.3891820947847  10.2115975484552 10.2213967671951  C 10.2115975484552 10.2213967671951  9.81721702087799 10.5287467297262  9.81721702087799 10.5287467297262  C 9.92474999860752 10.6667292176356  10.0193304988487 10.8222628711587  10.0988725417956 10.9908484668471  Z M 9.73226619503504 9.75259897142087  C 9.54678214570771 9.61725149025938  9.34430227044498 9.51400462150423  9.12724316524333 9.4463626218951  C 9.12724316524333 9.4463626218951  8.97848432781097 9.92372077704249  8.97848432781097 9.92372077704249  C 9.1423057472972 9.9747723483764  9.29565369323694 10.0529662687735  9.43753982180982 10.1565004011354  C 9.43753982180982 10.1565004011354  9.73226619503504 9.75259897142087  9.73226619503504 9.75259897142087  Z M 7.77781932416332 9.46176585787862  C 7.77781932416332 9.46176585787862  7.91800213347432 9.94171250071895  7.91800213347432 9.94171250071895  C 8.10154076022206 9.88810454096256  8.27706619390915 9.85922955892147  8.44431890353138 9.85384004997775  C 8.44431890353138 9.85384004997775  8.4282153887321 9.35409944045  8.4282153887321 9.35409944045  C 8.21809041481595 9.36087045437728  8.00096962468876 9.39658812095115  7.77781932416332 9.46176585787862  Z M 6.4050957470979 10.7550837744812  C 6.4050957470979 10.7550837744812  6.12750908779407 10.3392164319589  6.12750908779407 10.3392164319589  C 5.96103007899291 10.45033925208  5.79506493815848 10.5653215620785  5.63014906365248 10.6838154947922  C 5.63014906365248 10.6838154947922  5.92190319642702 11.0898690947134  5.92190319642702 11.0898690947134  C 6.08216375585931 10.9747200588615  6.24340605307606 10.863009782172  6.4050957470979 10.7550837744812  Z M 3.76232252964218 12.2264316862363  C 3.76232252964218 12.2264316862363  4.10631269367008 12.5892963539185  4.10631269367008 12.5892963539185  C 4.24776758703621 12.4551992750203  4.392400351888 12.3228332448546  4.53983785305587 12.1924933229332  C 4.53983785305587 12.1924933229332  4.20867288371841 11.8178871789851  4.20867288371841 11.8178871789851  C 4.0569136932416 11.9520476258247  3.90800496100826 12.0883269658686  3.76232252964218 12.2264316862363  Z M 15.7107445017763 0.95050039149703  L 15.4366044183486 0.532353031517005  L 14.9373651707972 0.861796876206881  L 15.2140261825412 1.27828059087142  L 15.7107445017763 0.95050039149703  Z M 5.30186583522396 10.9637784082471  C 5.32567705627127 10.7913003066468  5.36776131134326 10.6120590738202  5.42817014937941 10.4261418881524  C 5.42817014937941 10.4261418881524  4.95264240430373 10.271631811901  4.95264240430373 10.271631811901  C 4.8833530911017 10.4848799809795  4.83453010832454 10.6928221581259  4.80656349053322 10.8954001416425  C 4.80656349053322 10.8954001416425  5.30186583522396 10.9637784082471  5.30186583522396 10.9637784082471  Z M 2.89897078369444 13.8708203217797  C 2.89897078369444 13.8708203217797  2.51493475431687 13.5506386106531  2.51493475431687 13.5506386106531  C 2.38341073868747 13.7083926577296  2.25710557941835 13.86699298759  2.13630925009409 14.0261825428033  C 2.13630925009409 14.0261825428033  2.53461652308653 14.3284263455212  2.53461652308653 14.3284263455212  C 2.65074420911327 14.175389288932  2.77229025127622 14.0227649425332  2.89897078369444 13.8708203217797  Z M 3.27948261284547 13.4334345376118  C 3.40954001941572 13.2899611573559  3.54384024152722 13.1475475840058  3.68206187289212 13.0064713395038  C 3.68206187289212 13.0064713395038  3.32491358135854 12.6565497799299  3.32491358135854 12.6565497799299  C 3.18220228139324 12.8022084156173  3.04346732863405 12.9493246307684  2.90903366508672 13.0976256974892  C 2.90903366508672 13.0976256974892  3.27948261284547 13.4334345376118  3.27948261284547 13.4334345376118  Z M 6.63703920784081 10.0121717694486  C 6.63703920784081 10.0121717694486  6.89936540827767 10.4378300414984  6.89936540827767 10.4378300414984  C 6.99041192364064 10.3817195697738  7.08039143508319 10.3275554739829  7.17666714325088 10.2709324782965  C 7.25345070086848 10.2259624493897  7.32968584357553 10.184504395434  7.40495416899864 10.1467462093651  C 7.40495416899864 10.1467462093651  7.18075843723466 9.69982756592003  7.18075843723466 9.69982756592003  C 7.09572209360647 9.74248585634018  7.00999167480927 9.78910761373356  6.92358326587987 9.83971519820909  C 6.82396282598779 9.89830486012102  6.73103378492544 9.95424445571518  6.63703920784081 10.0121717694486  Z M 1.7764079123798 14.526268046518  C 1.65979100164475 14.6976289964435  1.54993351525013 14.8692017387301  1.44710636362998 15.0407390456957  C 1.44710636362998 15.0407390456957  1.87595782866458 15.2978118387673  1.87595782866458 15.2978118387673  C 1.97378911692886 15.1346086821942  2.07847830769379 14.9711076579421  2.18976854379173 14.8075739092346  C 2.18976854379173 14.8075739092346  1.7764079123798 14.526268046518  1.7764079123798 14.526268046518  Z M 4.79494147170033 11.5855801755719  C 4.79494147170033 11.5855801755719  5.29173973407717 11.5290869326191  5.29568468571051 11.5614179609414  C 5.19286111350436 11.6424922792495  5.09085796055928 11.7247737071981  4.98980714380127 11.8081673267554  C 4.98980714380127 11.8081673267554  4.89224442855044 11.6899473464553  4.79494147170033 11.5855801755719  Z M 1.03085527050769 17.2928132754608  C 1.06330131447237 17.1548831528613  1.1018846406896 17.0157620977842  1.14651432055666 16.8755659875003  C 1.14651432055666 16.8755659875003  0.670072866836108 16.7238968041549  0.670072866836108 16.7238968041549  C 0.621587341537747 16.8762053591826  0.579567490287502 17.02771759551  0.544140312607681 17.1783207003463  C 0.544140312607681 17.1783207003463  1.03085527050769 17.2928132754608  1.03085527050769 17.2928132754608  Z " fill-rule="nonzero" fill="#969fa6" stroke="none" transform="matrix(1 0 0 1 1280 1651 )" />
  </g>
</svg>